<?xml version="1.0" encoding="UTF-8" standalone="no"?>
<!-- Created with Inkscape (http://www.inkscape.org/) -->

<svg
   xmlns:dc="http://purl.org/dc/elements/1.1/"
   xmlns:cc="http://creativecommons.org/ns#"
   xmlns:rdf="http://www.w3.org/1999/02/22-rdf-syntax-ns#"
   xmlns:svg="http://www.w3.org/2000/svg"
   xmlns="http://www.w3.org/2000/svg"
   xmlns:xlink="http://www.w3.org/1999/xlink"
   xmlns:sodipodi="http://sodipodi.sourceforge.net/DTD/sodipodi-0.dtd"
   xmlns:inkscape="http://www.inkscape.org/namespaces/inkscape"
   version="1.1"
   id="svg2672"
   width="1266"
   height="566"
   viewBox="0 0 1266 566"
   sodipodi:docname="final-image-four.jpg"
   inkscape:export-filename="C:\Users\samsung\Desktop\synxroform.png"
   inkscape:export-xdpi="96"
   inkscape:export-ydpi="96">
  <metadata
     id="metadata2678">
    <rdf:RDF>
      <cc:Work
         rdf:about="">
        <dc:format>image/svg+xml</dc:format>
        <dc:type
           rdf:resource="http://purl.org/dc/dcmitype/StillImage" />
      </cc:Work>
    </rdf:RDF>
  </metadata>
  <defs
     id="defs2676" />
  <sodipodi:namedview
     pagecolor="#ffffff"
     bordercolor="#666666"
     borderopacity="1"
     objecttolerance="10"
     gridtolerance="10"
     guidetolerance="10"
     inkscape:pageopacity="0"
     inkscape:pageshadow="2"
     inkscape:window-width="1366"
     inkscape:window-height="706"
     id="namedview2674"
     showgrid="false"
     inkscape:zoom="0.4628752"
     inkscape:cx="543.343"
     inkscape:cy="343.49147"
     inkscape:window-x="-8"
     inkscape:window-y="-8"
     inkscape:window-maximized="1"
     inkscape:current-layer="g2680" />
  <g
     inkscape:groupmode="layer"
     inkscape:label="Image"
     id="g2680">
    <image
       width="1266"
       height="566"
       preserveAspectRatio="none"
       xlink:href="file:///C:/Users/samsung/Documents/GitHub/SynxroformWebpages/content/posts/images/random-modules/final-image-four.jpg"
       id="image2682" />
    <rect
       style="opacity:0.645161;fill:#ffffff;fill-opacity:1;stroke:none;stroke-width:5;stroke-linecap:round;stroke-linejoin:round"
       id="rect2741"
       width="1309.2083"
       height="105.86006"
       x="-21.604095"
       y="403.99655" />
    <g
       id="g3581"
       transform="matrix(0.73256696,0,0,0.73256696,174.82438,123.18784)"
       style="stroke-width:1.36506">
      <path
         d="m 164.29871,482.99579 q -7.47006,0 -12.92316,-3.21211 -5.45313,-3.28683 -8.44115,-9.33755 -2.91332,-6.12544 -2.91332,-14.41718 0,-8.21703 2.91332,-14.26775 2.98802,-6.12544 8.44115,-9.33755 5.4531,-3.28682 12.92316,-3.28682 5.00491,0 9.41224,1.64342 4.48201,1.56869 7.76883,4.5567 1.19519,1.12053 1.19519,2.61452 0,1.04581 -0.59762,1.8675 -0.59762,0.74707 -1.41931,0.74707 -0.8964,0 -2.1663,-0.82174 -3.80973,-2.98804 -6.94712,-4.18323 -3.06274,-1.19521 -7.09656,-1.19521 -8.66524,0 -13.37135,5.67723 -4.63144,5.60253 -4.63144,15.98586 0,10.45804 4.63144,16.13529 4.70611,5.60251 13.37135,5.60251 3.95913,0 7.09656,-1.19521 3.13739,-1.19518 6.94712,-4.1832 1.2699,-0.82174 2.1663,-0.82174 0.82172,0 1.41931,0.74695 0.59762,0.74697 0.59762,1.86752 0,1.49399 -1.19519,2.61451 -3.28682,2.98802 -7.76883,4.63142 -4.40733,1.56871 -9.41224,1.56871 z"
         style="font-style:normal;font-variant:normal;font-weight:normal;font-stretch:normal;font-size:10.5833px;line-height:1.25;font-family:Nunito;-inkscape-font-specification:Nunito;letter-spacing:5.29167px;word-spacing:0px;fill:#333333;fill-opacity:1;stroke:none;stroke-width:1.36506"
         id="path929"
         inkscape:connector-curvature="0" />
      <path
         d="m 266.91729,431.00435 q 1.1205,-1.64343 3.2868,-1.64343 1.49402,0 2.31571,0.82177 0.82177,0.82173 0.82177,2.3157 v 47.21062 q 0,1.41931 -0.82177,2.241 -0.82163,0.82176 -2.24099,0.82176 -1.34462,0 -2.16633,-0.82176 -0.82174,-0.82164 -0.82174,-2.241 v -40.71168 l -30.70185,41.75749 q -0.82174,1.1205 -1.6434,1.56869 -0.82164,0.44821 -1.94221,0.44821 -1.41931,0 -2.241,-0.82174 -0.82176,-0.89643 -0.82176,-2.31571 v -47.21062 q 0,-1.4193 0.82176,-2.24102 0.82164,-0.82174 2.16631,-0.82174 1.4193,0 2.24102,0.82174 0.82173,0.82177 0.82173,2.24102 v 40.637 z"
         style="font-style:normal;font-variant:normal;font-weight:normal;font-stretch:normal;font-size:10.5833px;line-height:1.25;font-family:Nunito;-inkscape-font-specification:Nunito;letter-spacing:5.29167px;word-spacing:0px;fill:#333333;fill-opacity:1;stroke:none;stroke-width:1.36506"
         id="path931"
         inkscape:connector-curvature="0" />
      <path
         d="m 364.39089,429.36092 q 1.4193,0 2.1663,0.89643 0.82174,0.82166 0.82174,2.24102 v 47.13593 q 0,1.41931 -0.82174,2.31571 -0.74697,0.82174 -2.1663,0.82174 -1.41931,0 -2.24102,-0.82174 -0.82174,-0.89646 -0.82174,-2.31571 v -21.36433 h -31.52351 v 21.3643 q 0,1.41931 -0.82174,2.31571 -0.82166,0.82174 -2.24102,0.82174 -1.41931,0 -2.24099,-0.82174 -0.74708,-0.89643 -0.74708,-2.31571 v -47.13593 q 0,-1.4193 0.74708,-2.24099 0.82163,-0.89643 2.24099,-0.89643 1.4193,0 2.24102,0.89643 0.82174,0.82163 0.82174,2.24099 v 20.54262 h 31.52356 v -20.54262 q 0,-1.4193 0.82174,-2.24099 0.82164,-0.89643 2.24099,-0.89643 z"
         style="font-style:normal;font-variant:normal;font-weight:normal;font-stretch:normal;font-size:10.5833px;line-height:1.25;font-family:Nunito;-inkscape-font-specification:Nunito;letter-spacing:5.29167px;word-spacing:0px;fill:#333333;fill-opacity:1;stroke:none;stroke-width:1.36506"
         id="path933"
         inkscape:connector-curvature="0" />
      <path
         d="m 506.41872,482.77169 q -1.4193,0 -2.24102,-0.82176 -0.82163,-0.89643 -0.82163,-2.31571 v -46.91178 q 0,-1.34459 0.82163,-2.16631 0.89643,-0.82174 2.31571,-0.82174 h 17.70398 q 8.29177,0 12.84847,4.03383 4.63142,4.03382 4.63142,11.42913 0,7.39534 -4.63142,11.50388 -4.63142,4.10852 -12.84847,4.10852 h -14.71596 v 18.82447 q 0,1.41931 -0.82174,2.31571 -0.82174,0.82176 -2.24102,0.82176 z m 17.18108,-27.04152 q 12.02675,0 12.02675,-10.53276 0,-10.38336 -12.02675,-10.38336 h -14.11837 v 20.91612 z"
         style="font-style:normal;font-variant:normal;font-weight:normal;font-stretch:normal;font-size:10.5833px;line-height:1.25;font-family:Nunito;-inkscape-font-specification:Nunito;letter-spacing:5.29167px;word-spacing:0px;fill:#333333;fill-opacity:1;stroke:none;stroke-width:1.36506"
         id="path937"
         inkscape:connector-curvature="0" />
      <path
         d="m 610.16012,482.99579 q -7.32062,0 -12.77375,-3.28683 -5.37842,-3.2868 -8.29174,-9.33755 -2.91333,-6.05072 -2.91333,-14.26774 0,-8.29175 2.83864,-14.34247 2.9133,-6.12544 8.29171,-9.33755 5.45313,-3.28682 12.84847,-3.28682 7.39534,0 12.77376,3.28682 5.45313,3.21211 8.29174,9.33755 2.91332,6.05072 2.91332,14.26775 0,8.21705 -2.91332,14.34246 -2.9133,6.05075 -8.36643,9.33755 -5.37842,3.28683 -12.69907,3.28683 z m 0,-5.22904 q 8.36643,0 12.99788,-5.60251 4.70613,-5.67725 4.70613,-16.13529 0,-10.45805 -4.63145,-16.06055 -4.63141,-5.60254 -13.07256,-5.60254 -8.36643,0 -13.07256,5.67723 -4.63142,5.60253 -4.63142,15.98586 0,10.38336 4.63142,16.06058 4.70613,5.67722 13.07256,5.67722 z"
         style="font-style:normal;font-variant:normal;font-weight:normal;font-stretch:normal;font-size:10.5833px;line-height:1.25;font-family:Nunito;-inkscape-font-specification:Nunito;letter-spacing:5.29167px;word-spacing:0px;fill:#333333;fill-opacity:1;stroke:none;stroke-width:1.36506"
         id="path939"
         inkscape:connector-curvature="0" />
      <g
         transform="matrix(9.8530682,0,0,9.8530682,109.10977,322.75487)"
         style="fill:#333333;fill-opacity:1;stroke-width:0.523623"
         id="g1028">
        <path
           inkscape:connector-curvature="0"
           id="path941"
           style="font-style:normal;font-variant:normal;font-weight:normal;font-stretch:normal;font-size:10.5833px;line-height:1.25;font-family:Nunito;-inkscape-font-specification:Nunito;letter-spacing:5.29167px;word-spacing:0px;fill:#333333;fill-opacity:1;stroke:none;stroke-width:0.138542"
           d="m 60.849654,16.391933 q -0.144046,0 -0.227443,-0.09098 -0.08339,-0.0834 -0.08339,-0.219862 v -0.470045 h -0.128884 q -0.682329,0 -1.243355,-0.242605 -0.553444,-0.242606 -0.879446,-0.720237 -0.326002,-0.485211 -0.326002,-1.175121 0,-0.697492 0.318421,-1.175122 0.318419,-0.47763 0.871864,-0.712655 0.553445,-0.235024 1.258518,-0.235024 h 0.128884 V 10.96363 q 0,-0.144048 0.08339,-0.227443 0.0834,-0.0834 0.227443,-0.0834 0.136467,0 0.219862,0.0834 0.0834,0.08339 0.0834,0.227443 v 0.386652 h 0.128885 q 0.705071,0 1.258515,0.235024 0.553444,0.235025 0.871865,0.712655 0.318421,0.47763 0.318421,1.175122 0,0.68991 -0.326,1.175121 -0.326,0.477631 -0.88703,0.720237 -0.553444,0.242605 -1.235771,0.242605 h -0.128885 v 0.470049 q 0,0.136465 -0.0834,0.219862 -0.08339,0.09098 -0.219862,0.09098 z m -0.310838,-4.541276 h -0.128884 q -0.833958,0 -1.32675,0.416978 -0.485213,0.416979 -0.485213,1.205448 0,0.523119 0.235025,0.894608 0.235024,0.36391 0.644422,0.553445 0.409397,0.189536 0.932516,0.189536 h 0.128884 z m 0.742981,3.260015 q 0.523116,0 0.932515,-0.189536 0.409399,-0.189535 0.644421,-0.553445 0.235023,-0.371489 0.235023,-0.894608 0,-0.788469 -0.49279,-1.205448 -0.485211,-0.416978 -1.319169,-0.416978 h -0.128885 v 3.260015 z" />
        <path
           inkscape:connector-curvature="0"
           id="path943"
           style="font-style:normal;font-variant:normal;font-weight:normal;font-stretch:normal;font-size:10.5833px;line-height:1.25;font-family:Nunito;-inkscape-font-specification:Nunito;letter-spacing:5.29167px;word-spacing:0px;fill:#333333;fill-opacity:1;stroke:none;stroke-width:0.138542"
           d="m 70.842349,16.263049 q -0.742978,0 -1.296422,-0.333583 -0.545864,-0.333582 -0.841541,-0.947679 -0.295677,-0.614096 -0.295677,-1.448053 0,-0.841539 0.288098,-1.455634 0.295677,-0.621678 0.841534,-0.947679 0.553451,-0.333583 1.304008,-0.333583 0.750564,0 1.296429,0.333583 0.553444,0.326001 0.841534,0.947679 0.295677,0.614095 0.295677,1.448053 0,0.833957 -0.295677,1.455634 -0.295677,0.614097 -0.84912,0.947679 -0.545858,0.333583 -1.288843,0.333583 z m 0,-0.5307 q 0.849121,0 1.319173,-0.568607 0.477625,-0.576189 0.477625,-1.637589 0,-1.061401 -0.470046,-1.630007 -0.470045,-0.568608 -1.326752,-0.568608 -0.84912,0 -1.326752,0.576189 -0.470046,0.568607 -0.470046,1.622426 0,1.053819 0.470046,1.630007 0.477632,0.576189 1.326752,0.576189 z" />
        <path
           inkscape:connector-curvature="0"
           id="path945"
           style="font-style:normal;font-variant:normal;font-weight:normal;font-stretch:normal;font-size:10.5833px;line-height:1.25;font-family:Nunito;-inkscape-font-specification:Nunito;letter-spacing:5.29167px;word-spacing:0px;fill:#333333;fill-opacity:1;stroke:none;stroke-width:0.138542"
           d="m 78.497121,16.240305 q -0.144045,0 -0.227437,-0.0834 -0.0834,-0.09098 -0.0834,-0.235024 v -4.761135 q 0,-0.136465 0.0834,-0.219861 0.09098,-0.0834 0.235023,-0.0834 h 1.796798 q 0.841541,0 1.304008,0.409398 0.470045,0.409397 0.470045,1.159958 0,0.750562 -0.470045,1.167541 -0.470053,0.416978 -1.304008,0.416978 h -1.493542 v 1.910521 q 0,0.144047 -0.0834,0.235024 -0.08339,0.0834 -0.227442,0.0834 z m 1.74373,-2.744478 q 1.220609,0 1.220609,-1.068982 0,-1.053818 -1.220609,-1.053818 h -1.432888 v 2.1228 z" />
        <path
           inkscape:connector-curvature="0"
           id="path947"
           style="font-style:normal;font-variant:normal;font-weight:normal;font-stretch:normal;font-size:10.5833px;line-height:1.25;font-family:Nunito;-inkscape-font-specification:Nunito;letter-spacing:5.29167px;word-spacing:0px;fill:#333333;fill-opacity:1;stroke:none;stroke-width:0.138542"
           d="m 91.609458,10.819582 q 0.144046,0 0.219858,0.09098 0.0834,0.08339 0.0834,0.227443 v 4.799045 q 0,0.136466 -0.07582,0.219861 -0.07581,0.0834 -0.212279,0.0834 -0.136466,0 -0.204699,-0.0834 -0.06827,-0.08339 -0.06827,-0.219861 v -3.874111 l -1.645166,3.153875 q -0.106143,0.219861 -0.310842,0.219861 -0.197113,0 -0.310835,-0.219861 l -1.652752,-3.115968 v 3.836204 q 0,0.136466 -0.07582,0.219861 -0.0682,0.0834 -0.204699,0.0834 -0.136459,0 -0.212278,-0.0834 -0.07581,-0.08339 -0.07581,-0.219861 v -4.799045 q 0,-0.144048 0.0834,-0.227443 0.08339,-0.09098 0.227437,-0.09098 0.189541,0 0.303263,0.219862 l 1.925677,3.692157 1.902941,-3.692157 q 0.06068,-0.121303 0.128887,-0.166792 0.07581,-0.05307 0.174375,-0.05307 z" />
        <path
           inkscape:connector-curvature="0"
           id="path949"
           style="font-style:normal;font-variant:normal;font-weight:normal;font-stretch:normal;font-size:10.5833px;line-height:1.25;font-family:Nunito;-inkscape-font-specification:Nunito;letter-spacing:5.29167px;word-spacing:0px;fill:#333333;fill-opacity:1;stroke:none;stroke-width:0.138542"
           d="m 101.63816,15.846071 q 0.0303,0.06065 0.0303,0.128884 0,0.113721 -0.091,0.189535 -0.0834,0.07581 -0.20469,0.07581 -0.18954,0 -0.26536,-0.181954 l -0.53827,-1.228193 h -2.858205 l -0.545864,1.228193 q -0.07581,0.181954 -0.265346,0.181954 -0.121301,0 -0.212279,-0.07581 -0.09098,-0.08339 -0.09098,-0.197117 0,-0.06065 0.0303,-0.121302 l 2.168286,-4.82179 q 0.04549,-0.10614 0.136466,-0.15921 0.09098,-0.05307 0.197121,-0.05307 0.113721,0 0.204699,0.06065 0.09098,0.05307 0.136466,0.151629 z m -3.699729,-1.53145 h 2.403309 l -1.205444,-2.721733 z" />
      </g>
      <path
         inkscape:connector-curvature="0"
         id="path1707"
         d="m 407.06632,430.00664 19.11778,20.90889"
         style="fill:none;stroke:#212121;stroke-width:6.82531;stroke-linecap:butt;stroke-linejoin:miter;stroke-miterlimit:4;stroke-dasharray:none;stroke-opacity:1" />
      <path
         style="fill:none;stroke:#212121;stroke-width:6.82531;stroke-linecap:butt;stroke-linejoin:miter;stroke-miterlimit:4;stroke-dasharray:none;stroke-opacity:1"
         d="m 458.38253,430.00664 -19.11781,20.90889"
         id="path1709"
         inkscape:connector-curvature="0" />
      <path
         style="fill:none;stroke:#212121;stroke-width:6.82531;stroke-linecap:butt;stroke-linejoin:miter;stroke-miterlimit:4;stroke-dasharray:none;stroke-opacity:1"
         d="M 407.06632,482.2789 426.1841,461.36998"
         id="path1711"
         inkscape:connector-curvature="0" />
      <path
         inkscape:connector-curvature="0"
         id="path1713"
         d="M 458.38253,482.2789 439.26472,461.36998"
         style="fill:none;stroke:#212121;stroke-width:6.82531;stroke-linecap:butt;stroke-linejoin:miter;stroke-miterlimit:4;stroke-dasharray:none;stroke-opacity:1" />
    </g>
  </g>
</svg>
