<?xml version="1.0" encoding="UTF-8" standalone="no"?>
<!DOCTYPE svg PUBLIC "-//W3C//DTD SVG 1.1//EN" "http://www.w3.org/Graphics/SVG/1.1/DTD/svg11.dtd">
<svg width="480pt" height="288pt" viewBox="0 0 480 288" overflow="visible" version="1.1" xmlns="http://www.w3.org/2000/svg">
  <path d="M435.2505,192.6846 C423.8706,192.9872 410.1803,187.8226 400.7528,178.3952 C391.3254,168.9678 386.1609,155.2774 386.4634,143.8975" stroke="#000000" stroke-width="0.96" fill-opacity="0" />
  <path d="M337.6763,192.6846 C349.0562,192.3821 362.7466,197.5466 372.174,206.974 C381.6014,216.4015 386.7659,230.0918 386.4634,241.4718" stroke="#000000" stroke-width="0.96" fill-opacity="0" />
  <path d="M288.8891,241.4718 C288.5866,230.0918 293.7511,216.4015 303.1786,206.974 C312.606,197.5466 326.2964,192.3821 337.6763,192.6846" stroke="#000000" stroke-width="0.96" fill-opacity="0" />
  <path d="M288.8891,143.8975 C289.1917,155.2774 284.0272,168.9678 274.5997,178.3952 C265.1723,187.8226 251.4819,192.9872 240.102,192.6846" stroke="#000000" stroke-width="0.96" fill-opacity="0" />
  <path d="M435.2505,95.11035 C423.8706,95.41288 410.1803,90.24837 400.7528,80.82093 C391.3254,71.39349 386.1609,57.70314 386.4634,46.32322" stroke="#000000" stroke-width="0.96" fill-opacity="0" />
  <path d="M337.6763,95.11035 C349.0562,94.80782 362.7466,99.97234 372.174,109.3998 C381.6014,118.8272 386.7659,132.5176 386.4634,143.8975" stroke="#000000" stroke-width="0.96" fill-opacity="0" />
  <path d="M337.6763,95.11035 C326.2964,95.41288 312.606,90.24837 303.1786,80.82093 C293.7511,71.39349 288.5866,57.70314 288.8891,46.32322" stroke="#000000" stroke-width="0.96" fill-opacity="0" />
  <path d="M240.102,95.11035 C251.4819,94.80782 265.1723,99.97234 274.5997,109.3998 C284.0272,118.8272 289.1917,132.5176 288.8891,143.8975" stroke="#000000" stroke-width="0.96" fill-opacity="0" />
  <path d="M93.74059,241.4718 C93.43806,230.0918 98.60258,216.4015 108.03,206.974 C117.4575,197.5466 131.1478,192.3821 142.5277,192.6846" stroke="#000000" stroke-width="0.96" fill-opacity="0" />
  <path d="M93.74059,143.8975 C94.04312,155.2774 88.87861,168.9678 79.45117,178.3952 C70.02374,187.8226 56.33338,192.9872 44.95345,192.6846" stroke="#000000" stroke-width="0.96" fill-opacity="0" />
  <path d="M142.5277,95.11035 C131.1478,95.41288 117.4575,90.24837 108.03,80.82093 C98.60258,71.39349 93.43806,57.70314 93.74059,46.32322" stroke="#000000" stroke-width="0.96" fill-opacity="0" />
  <polygon fill="#000000" fill-opacity="1.0" points="220.5872,143.8975 209.0589,141.0154 209.0589,146.7796" />
  <path d="M44.95345,95.11035 C56.33338,94.80782 70.02374,99.97234 79.45117,109.3998 C88.87861,118.8272 94.04312,132.5176 93.74059,143.8975" stroke="#000000" stroke-width="0.96" fill-opacity="0" />
  <path d="M162.0426,143.8975 L209.0588,143.8975" stroke="#000000" stroke-width="0.96" fill-opacity="0" />
  <text x="93.7936303737372" y="99.9890863746068" font-family="Arial" text-anchor="middle" font-size="13.57555">A</text>
  <text x="386.516479517977" y="99.9890863746068" font-family="Arial" text-anchor="middle" font-size="13.57555">A</text>
  <text x="92.9186435964039" y="197.563369422687" font-family="Arial" text-anchor="middle" font-size="13.57555">B</text>
  <text x="288.942196469897" y="99.9890863746068" font-family="Arial" text-anchor="middle" font-size="13.57555">A</text>
  <text x="386.516479517977" y="197.563369422687" font-family="Arial" text-anchor="middle" font-size="13.57555">A</text>
  <text x="288.067209692564" y="197.563369422687" font-family="Arial" text-anchor="middle" font-size="13.57555">B</text>
  <path d="M240.102,143.8975 L337.6763,143.8975 L337.6763,46.32324 L240.102,46.32324 z" stroke="#000000" stroke-width="0.96" fill-opacity="0" />
  <path d="M240.102,241.4718 L337.6763,241.4718 L337.6763,143.8975 L240.102,143.8975 z" stroke="#000000" stroke-width="0.96" fill-opacity="0" />
  <path d="M44.95348,143.8975 L142.5278,143.8975 L142.5278,46.32324 L44.95348,46.32324 z" stroke="#000000" stroke-width="0.96" fill-opacity="0" />
  <path d="M44.95348,241.4718 L142.5278,241.4718 L142.5278,143.8975 L44.95348,143.8975 z" stroke="#000000" stroke-width="0.96" fill-opacity="0" />
  <path d="M337.6763,143.8975 L435.2506,143.8975 L435.2506,46.32324 L337.6763,46.32324 z" stroke="#000000" stroke-width="0.96" fill-opacity="0" />
  <path d="M337.6763,241.4718 L435.2506,241.4718 L435.2506,143.8975 L337.6763,143.8975 z" stroke="#000000" stroke-width="0.96" fill-opacity="0" />
  <path d="M162.0426,134.1401 L162.0426,153.6549" stroke="#000000" stroke-width="0.96" fill-opacity="0" />
</svg>