<?xml version="1.0" encoding="UTF-8" standalone="no"?>
<!DOCTYPE svg PUBLIC "-//W3C//DTD SVG 1.1//EN" "http://www.w3.org/Graphics/SVG/1.1/DTD/svg11.dtd">
<svg width="480pt" height="288pt" viewBox="0 0 480 288" overflow="visible" version="1.1" xmlns="http://www.w3.org/2000/svg">
  <path d="M186.8513,138.9725 L185.6506,138.9725" stroke="#000000" stroke-width="0.96" fill-opacity="0" />
  <path d="M183.2493,138.9725 L180.848,138.9725" stroke="#000000" stroke-width="0.96" fill-opacity="0" />
  <path d="M178.4467,138.9725 L176.0454,138.9725" stroke="#000000" stroke-width="0.96" fill-opacity="0" />
  <path d="M173.6441,138.9725 L171.2428,138.9725" stroke="#000000" stroke-width="0.96" fill-opacity="0" />
  <path d="M168.8415,138.9725 L166.4402,138.9725" stroke="#000000" stroke-width="0.96" fill-opacity="0" />
  <path d="M164.0389,138.9725 L161.6376,138.9725" stroke="#000000" stroke-width="0.96" fill-opacity="0" />
  <path d="M159.2363,138.9725 L156.835,138.9725" stroke="#000000" stroke-width="0.96" fill-opacity="0" />
  <path d="M154.4337,138.9725 L152.0323,138.9725" stroke="#000000" stroke-width="0.96" fill-opacity="0" />
  <path d="M149.631,138.9725 L147.2297,138.9725" stroke="#000000" stroke-width="0.96" fill-opacity="0" />
  <path d="M144.8284,138.9725 L142.4271,138.9725" stroke="#000000" stroke-width="0.96" fill-opacity="0" />
  <path d="M140.0258,138.9725 L137.6245,138.9725" stroke="#000000" stroke-width="0.96" fill-opacity="0" />
  <path d="M135.2232,138.9725 L132.8219,138.9725" stroke="#000000" stroke-width="0.96" fill-opacity="0" />
  <path d="M130.4206,138.9725 L128.0193,138.9725" stroke="#000000" stroke-width="0.96" fill-opacity="0" />
  <path d="M125.618,138.9725 L123.2167,138.9725" stroke="#000000" stroke-width="0.96" fill-opacity="0" />
  <path d="M120.8154,138.9725 L118.414,138.9725" stroke="#000000" stroke-width="0.96" fill-opacity="0" />
  <path d="M116.0127,138.9725 L113.6114,138.9725" stroke="#000000" stroke-width="0.96" fill-opacity="0" />
  <path d="M111.2101,138.9725 L108.8088,138.9725" stroke="#000000" stroke-width="0.96" fill-opacity="0" />
  <path d="M106.4075,138.9725 L104.0062,138.9725" stroke="#000000" stroke-width="0.96" fill-opacity="0" />
  <path d="M101.6049,138.9725 L99.20359,138.9725" stroke="#000000" stroke-width="0.96" fill-opacity="0" />
  <path d="M96.80228,138.9725 L94.40098,138.9725" stroke="#000000" stroke-width="0.96" fill-opacity="0" />
  <path d="M91.99967,138.9725 L89.59837,138.9725" stroke="#000000" stroke-width="0.96" fill-opacity="0" />
  <path d="M87.19706,138.9725 L84.79575,138.9725" stroke="#000000" stroke-width="0.96" fill-opacity="0" />
  <path d="M82.39445,138.9725 L79.99314,138.9725" stroke="#000000" stroke-width="0.96" fill-opacity="0" />
  <path d="M77.59184,138.9725 L75.19053,138.9725" stroke="#000000" stroke-width="0.96" fill-opacity="0" />
  <path d="M72.78922,138.9725 L70.38792,138.9725" stroke="#000000" stroke-width="0.96" fill-opacity="0" />
  <path d="M67.9866,138.9725 L66.78595,138.9725" stroke="#000000" stroke-width="0.96" fill-opacity="0" />
  <path d="M351.9367,93.96385 C355.463,94.0576 359.7053,92.45725 362.6266,89.53593 C365.548,86.61461 367.1483,82.37232 367.0546,78.84598" stroke="#000000" stroke-width="0.96" fill-opacity="0" />
  <path d="M126.8186,78.9398 L126.8186,80.14045" stroke="#000000" stroke-width="0.96" fill-opacity="0" />
  <path d="M126.8186,82.54176 L126.8186,84.94307" stroke="#000000" stroke-width="0.96" fill-opacity="0" />
  <path d="M126.8186,87.34438 L126.8186,89.74568" stroke="#000000" stroke-width="0.96" fill-opacity="0" />
  <path d="M126.8186,92.14699 L126.8186,94.54829" stroke="#000000" stroke-width="0.96" fill-opacity="0" />
  <path d="M126.8186,96.9496 L126.8186,99.35091" stroke="#000000" stroke-width="0.96" fill-opacity="0" />
  <path d="M126.8186,101.7522 L126.8186,104.1535" stroke="#000000" stroke-width="0.96" fill-opacity="0" />
  <path d="M126.8186,106.5548 L126.8186,108.9561" stroke="#000000" stroke-width="0.96" fill-opacity="0" />
  <path d="M126.8186,111.3574 L126.8186,113.7588" stroke="#000000" stroke-width="0.96" fill-opacity="0" />
  <path d="M126.8186,116.1601 L126.8186,118.5614" stroke="#000000" stroke-width="0.96" fill-opacity="0" />
  <path d="M126.8186,120.9627 L126.8186,123.364" stroke="#000000" stroke-width="0.96" fill-opacity="0" />
  <path d="M126.8186,125.7653 L126.8186,128.1666" stroke="#000000" stroke-width="0.96" fill-opacity="0" />
  <path d="M126.8186,130.5679 L126.8186,132.9692" stroke="#000000" stroke-width="0.96" fill-opacity="0" />
  <path d="M126.8186,135.3705 L126.8186,137.7718" stroke="#000000" stroke-width="0.96" fill-opacity="0" />
  <path d="M126.8186,140.1731 L126.8186,142.5744" stroke="#000000" stroke-width="0.96" fill-opacity="0" />
  <path d="M126.8186,144.9757 L126.8186,147.377" stroke="#000000" stroke-width="0.96" fill-opacity="0" />
  <path d="M126.8186,149.7784 L126.8186,152.1797" stroke="#000000" stroke-width="0.96" fill-opacity="0" />
  <path d="M126.8186,154.581 L126.8186,156.9823" stroke="#000000" stroke-width="0.96" fill-opacity="0" />
  <path d="M126.8186,159.3836 L126.8186,161.7849" stroke="#000000" stroke-width="0.96" fill-opacity="0" />
  <path d="M126.8186,164.1862 L126.8186,166.5875" stroke="#000000" stroke-width="0.96" fill-opacity="0" />
  <path d="M126.8186,168.9888 L126.8186,171.3901" stroke="#000000" stroke-width="0.96" fill-opacity="0" />
  <path d="M126.8186,173.7914 L126.8186,176.1927" stroke="#000000" stroke-width="0.96" fill-opacity="0" />
  <path d="M126.8186,178.594 L126.8186,180.9953" stroke="#000000" stroke-width="0.96" fill-opacity="0" />
  <path d="M126.8186,183.3966 L126.8186,185.7979" stroke="#000000" stroke-width="0.96" fill-opacity="0" />
  <path d="M126.8186,188.1992 L126.8186,190.6006" stroke="#000000" stroke-width="0.96" fill-opacity="0" />
  <path d="M126.8186,193.0019 L126.8186,195.4032" stroke="#000000" stroke-width="0.96" fill-opacity="0" />
  <path d="M126.8186,197.8045 L126.8186,199.0051" stroke="#000000" stroke-width="0.96" fill-opacity="0" />
  <path d="M321.701,78.84598 L321.701,81.46671" stroke="#000000" stroke-width="0.96" fill-opacity="0" />
  <path d="M321.701,83.86801 L321.701,86.26932" stroke="#000000" stroke-width="0.96" fill-opacity="0" />
  <path d="M321.701,88.67062 L321.701,91.07193" stroke="#000000" stroke-width="0.96" fill-opacity="0" />
  <path d="M321.701,93.47324 L321.701,95.87454" stroke="#000000" stroke-width="0.96" fill-opacity="0" />
  <path d="M321.701,98.27585 L321.701,100.6772" stroke="#000000" stroke-width="0.96" fill-opacity="0" />
  <path d="M321.701,103.0785 L321.701,105.4798" stroke="#000000" stroke-width="0.96" fill-opacity="0" />
  <path d="M321.701,107.8811 L321.701,110.2824" stroke="#000000" stroke-width="0.96" fill-opacity="0" />
  <path d="M321.701,112.6837 L321.701,115.085" stroke="#000000" stroke-width="0.96" fill-opacity="0" />
  <path d="M321.701,117.4863 L321.701,119.8876" stroke="#000000" stroke-width="0.96" fill-opacity="0" />
  <path d="M321.701,122.2889 L321.701,124.6902" stroke="#000000" stroke-width="0.96" fill-opacity="0" />
  <path d="M321.701,127.0915 L321.701,129.4928" stroke="#000000" stroke-width="0.96" fill-opacity="0" />
  <path d="M321.701,131.8941 L321.701,134.2955" stroke="#000000" stroke-width="0.96" fill-opacity="0" />
  <path d="M321.701,136.6968 L321.701,139.3175" stroke="#000000" stroke-width="0.96" fill-opacity="0" />
  <path d="M412.4082,109.0817 L409.7875,109.0817" stroke="#000000" stroke-width="0.96" fill-opacity="0" />
  <path d="M407.3862,109.0817 L404.9849,109.0817" stroke="#000000" stroke-width="0.96" fill-opacity="0" />
  <path d="M402.5836,109.0817 L400.1823,109.0817" stroke="#000000" stroke-width="0.96" fill-opacity="0" />
  <path d="M397.7809,109.0817 L395.3796,109.0817" stroke="#000000" stroke-width="0.96" fill-opacity="0" />
  <path d="M392.9783,109.0817 L390.577,109.0817" stroke="#000000" stroke-width="0.96" fill-opacity="0" />
  <path d="M388.1757,109.0817 L385.7744,109.0817" stroke="#000000" stroke-width="0.96" fill-opacity="0" />
  <path d="M383.3731,109.0817 L380.9718,109.0817" stroke="#000000" stroke-width="0.96" fill-opacity="0" />
  <path d="M378.5705,109.0817 L376.1692,109.0817" stroke="#000000" stroke-width="0.96" fill-opacity="0" />
  <path d="M373.7679,109.0817 L371.3666,109.0817" stroke="#000000" stroke-width="0.96" fill-opacity="0" />
  <path d="M368.9653,109.0817 L366.564,109.0817" stroke="#000000" stroke-width="0.96" fill-opacity="0" />
  <path d="M364.1627,109.0817 L361.7614,109.0817" stroke="#000000" stroke-width="0.96" fill-opacity="0" />
  <path d="M359.36,109.0817 L356.9587,109.0817" stroke="#000000" stroke-width="0.96" fill-opacity="0" />
  <path d="M354.5574,109.0817 L351.9367,109.0817" stroke="#000000" stroke-width="0.96" fill-opacity="0" />
  <path d="M382.1725,139.3175 L382.1725,141.9382" stroke="#000000" stroke-width="0.96" fill-opacity="0" />
  <path d="M382.1725,144.3395 L382.1725,146.7408" stroke="#000000" stroke-width="0.96" fill-opacity="0" />
  <path d="M382.1725,149.1421 L382.1725,151.5434" stroke="#000000" stroke-width="0.96" fill-opacity="0" />
  <path d="M382.1725,153.9447 L382.1725,156.346" stroke="#000000" stroke-width="0.96" fill-opacity="0" />
  <path d="M382.1725,158.7473 L382.1725,161.1487" stroke="#000000" stroke-width="0.96" fill-opacity="0" />
  <path d="M382.1725,163.55 L382.1725,165.9513" stroke="#000000" stroke-width="0.96" fill-opacity="0" />
  <path d="M382.1725,168.3526 L382.1725,170.7539" stroke="#000000" stroke-width="0.96" fill-opacity="0" />
  <path d="M382.1725,173.1552 L382.1725,175.5565" stroke="#000000" stroke-width="0.96" fill-opacity="0" />
  <path d="M382.1725,177.9578 L382.1725,180.3591" stroke="#000000" stroke-width="0.96" fill-opacity="0" />
  <path d="M382.1725,182.7604 L382.1725,185.1617" stroke="#000000" stroke-width="0.96" fill-opacity="0" />
  <path d="M382.1725,187.563 L382.1725,189.9643" stroke="#000000" stroke-width="0.96" fill-opacity="0" />
  <path d="M382.1725,192.3656 L382.1725,194.767" stroke="#000000" stroke-width="0.96" fill-opacity="0" />
  <path d="M382.1725,197.1683 L382.1725,199.789" stroke="#000000" stroke-width="0.96" fill-opacity="0" />
  <path d="M412.4082,169.5532 L409.7875,169.5532" stroke="#000000" stroke-width="0.96" fill-opacity="0" />
  <path d="M407.3862,169.5532 L404.9849,169.5532" stroke="#000000" stroke-width="0.96" fill-opacity="0" />
  <path d="M402.5836,169.5532 L400.1823,169.5532" stroke="#000000" stroke-width="0.96" fill-opacity="0" />
  <path d="M397.7809,169.5532 L395.3796,169.5532" stroke="#000000" stroke-width="0.96" fill-opacity="0" />
  <path d="M392.9783,169.5532 L390.577,169.5532" stroke="#000000" stroke-width="0.96" fill-opacity="0" />
  <path d="M388.1757,169.5532 L385.7744,169.5532" stroke="#000000" stroke-width="0.96" fill-opacity="0" />
  <path d="M383.3731,169.5532 L380.9718,169.5532" stroke="#000000" stroke-width="0.96" fill-opacity="0" />
  <path d="M378.5705,169.5532 L376.1692,169.5532" stroke="#000000" stroke-width="0.96" fill-opacity="0" />
  <path d="M373.7679,169.5532 L371.3666,169.5532" stroke="#000000" stroke-width="0.96" fill-opacity="0" />
  <path d="M368.9653,169.5532 L366.564,169.5532" stroke="#000000" stroke-width="0.96" fill-opacity="0" />
  <path d="M364.1627,169.5532 L361.7614,169.5532" stroke="#000000" stroke-width="0.96" fill-opacity="0" />
  <path d="M359.36,169.5532 L356.9587,169.5532" stroke="#000000" stroke-width="0.96" fill-opacity="0" />
  <path d="M354.5574,169.5532 L351.9367,169.5532" stroke="#000000" stroke-width="0.96" fill-opacity="0" />
  <path d="M412.4082,93.96385 C408.8819,94.0576 404.6396,92.45725 401.7183,89.53593 C398.7969,86.61461 397.1966,82.37232 397.2903,78.84598" stroke="#000000" stroke-width="0.96" fill-opacity="0" />
  <path d="M351.9367,124.1996 C355.463,124.1059 359.7053,125.7062 362.6266,128.6275 C365.548,131.5488 367.1483,135.7911 367.0546,139.3175" stroke="#000000" stroke-width="0.96" fill-opacity="0" />
  <path d="M412.4082,124.1996 C408.8819,124.1059 404.6396,125.7062 401.7183,128.6275 C398.7969,131.5488 397.1966,135.7911 397.2903,139.3175" stroke="#000000" stroke-width="0.96" fill-opacity="0" />
  <path d="M321.701,139.3175 L321.701,141.2282" stroke="#000000" stroke-width="0.96" fill-opacity="0" />
  <path d="M321.701,143.6295 L321.701,146.0308" stroke="#000000" stroke-width="0.96" fill-opacity="0" />
  <path d="M321.701,148.4321 L321.701,150.8334" stroke="#000000" stroke-width="0.96" fill-opacity="0" />
  <path d="M321.701,153.2347 L321.701,155.636" stroke="#000000" stroke-width="0.96" fill-opacity="0" />
  <path d="M321.701,158.0373 L321.701,160.4386" stroke="#000000" stroke-width="0.96" fill-opacity="0" />
  <path d="M321.701,162.8399 L321.701,165.2412" stroke="#000000" stroke-width="0.96" fill-opacity="0" />
  <path d="M321.701,167.6425 L321.701,169.5532 L321.701,171.4639" stroke="#000000" stroke-width="0.96" fill-opacity="0" />
  <path d="M321.701,173.8652 L321.701,176.2665" stroke="#000000" stroke-width="0.96" fill-opacity="0" />
  <path d="M321.701,178.6678 L321.701,181.0692" stroke="#000000" stroke-width="0.96" fill-opacity="0" />
  <path d="M321.701,183.4705 L321.701,185.8718" stroke="#000000" stroke-width="0.96" fill-opacity="0" />
  <path d="M321.701,188.2731 L321.701,190.6744" stroke="#000000" stroke-width="0.96" fill-opacity="0" />
  <path d="M321.701,193.0757 L321.701,195.477" stroke="#000000" stroke-width="0.96" fill-opacity="0" />
  <path d="M321.701,197.8783 L321.701,199.789" stroke="#000000" stroke-width="0.96" fill-opacity="0" />
  <path d="M351.9367,169.5532 L349.316,169.5532" stroke="#000000" stroke-width="0.96" fill-opacity="0" />
  <path d="M346.9147,169.5532 L344.5134,169.5532" stroke="#000000" stroke-width="0.96" fill-opacity="0" />
  <path d="M342.1121,169.5532 L339.7108,169.5532" stroke="#000000" stroke-width="0.96" fill-opacity="0" />
  <path d="M337.3094,169.5532 L334.9081,169.5532" stroke="#000000" stroke-width="0.96" fill-opacity="0" />
  <path d="M332.5068,169.5532 L330.1055,169.5532" stroke="#000000" stroke-width="0.96" fill-opacity="0" />
  <path d="M327.7042,169.5532 L325.3029,169.5532" stroke="#000000" stroke-width="0.96" fill-opacity="0" />
  <path d="M322.9016,169.5532 L320.5003,169.5532" stroke="#000000" stroke-width="0.96" fill-opacity="0" />
  <path d="M318.099,169.5532 L315.6977,169.5532" stroke="#000000" stroke-width="0.96" fill-opacity="0" />
  <path d="M313.2964,169.5532 L310.8951,169.5532" stroke="#000000" stroke-width="0.96" fill-opacity="0" />
  <path d="M308.4937,169.5532 L306.0924,169.5532" stroke="#000000" stroke-width="0.96" fill-opacity="0" />
  <path d="M303.6911,169.5532 L301.2898,169.5532" stroke="#000000" stroke-width="0.96" fill-opacity="0" />
  <path d="M298.8885,169.5532 L296.4872,169.5532" stroke="#000000" stroke-width="0.96" fill-opacity="0" />
  <path d="M294.0859,169.5532 L291.4652,169.5532" stroke="#000000" stroke-width="0.96" fill-opacity="0" />
  <path d="M351.9367,109.0817 L350.026,109.0817" stroke="#000000" stroke-width="0.96" fill-opacity="0" />
  <path d="M347.6247,109.0817 L345.2234,109.0817" stroke="#000000" stroke-width="0.96" fill-opacity="0" />
  <path d="M342.8221,109.0817 L340.4208,109.0817" stroke="#000000" stroke-width="0.96" fill-opacity="0" />
  <path d="M338.0195,109.0817 L335.6182,109.0817" stroke="#000000" stroke-width="0.96" fill-opacity="0" />
  <path d="M333.2169,109.0817 L330.8156,109.0817" stroke="#000000" stroke-width="0.96" fill-opacity="0" />
  <path d="M328.4142,109.0817 L326.0129,109.0817" stroke="#000000" stroke-width="0.96" fill-opacity="0" />
  <path d="M323.6116,109.0817 L321.701,109.0817 L319.7903,109.0817" stroke="#000000" stroke-width="0.96" fill-opacity="0" />
  <path d="M317.3889,109.0817 L314.9876,109.0817" stroke="#000000" stroke-width="0.96" fill-opacity="0" />
  <path d="M312.5863,109.0817 L310.185,109.0817" stroke="#000000" stroke-width="0.96" fill-opacity="0" />
  <path d="M307.7837,109.0817 L305.3824,109.0817" stroke="#000000" stroke-width="0.96" fill-opacity="0" />
  <path d="M302.9811,109.0817 L300.5798,109.0817" stroke="#000000" stroke-width="0.96" fill-opacity="0" />
  <path d="M298.1785,109.0817 L295.7772,109.0817" stroke="#000000" stroke-width="0.96" fill-opacity="0" />
  <path d="M293.3759,109.0817 L291.4652,109.0817" stroke="#000000" stroke-width="0.96" fill-opacity="0" />
  <path d="M382.1725,78.84598 L382.1725,81.46671" stroke="#000000" stroke-width="0.96" fill-opacity="0" />
  <path d="M382.1725,83.86801 L382.1725,86.26932" stroke="#000000" stroke-width="0.96" fill-opacity="0" />
  <path d="M382.1725,88.67062 L382.1725,91.07193" stroke="#000000" stroke-width="0.96" fill-opacity="0" />
  <path d="M382.1725,93.47324 L382.1725,95.87454" stroke="#000000" stroke-width="0.96" fill-opacity="0" />
  <path d="M382.1725,98.27585 L382.1725,100.6772" stroke="#000000" stroke-width="0.96" fill-opacity="0" />
  <path d="M382.1725,103.0785 L382.1725,105.4798" stroke="#000000" stroke-width="0.96" fill-opacity="0" />
  <path d="M382.1725,107.8811 L382.1725,110.2824" stroke="#000000" stroke-width="0.96" fill-opacity="0" />
  <path d="M382.1725,112.6837 L382.1725,115.085" stroke="#000000" stroke-width="0.96" fill-opacity="0" />
  <path d="M382.1725,117.4863 L382.1725,119.8876" stroke="#000000" stroke-width="0.96" fill-opacity="0" />
  <path d="M382.1725,122.2889 L382.1725,124.6902" stroke="#000000" stroke-width="0.96" fill-opacity="0" />
  <path d="M382.1725,127.0915 L382.1725,129.4928" stroke="#000000" stroke-width="0.96" fill-opacity="0" />
  <path d="M382.1725,131.8941 L382.1725,134.2955" stroke="#000000" stroke-width="0.96" fill-opacity="0" />
  <path d="M382.1725,136.6968 L382.1725,139.3175" stroke="#000000" stroke-width="0.96" fill-opacity="0" />
  <path d="M336.8188,109.0817 C336.9126,105.5554 335.3122,101.3131 332.3909,98.39178 C329.4696,95.47046 325.2273,93.87011 321.701,93.96385 C318.1746,93.87011 313.9323,95.47046 311.011,98.39178 C308.0897,101.3131 306.4893,105.5554 306.5831,109.0817 C306.4893,112.6081 308.0897,116.8504 311.011,119.7717 C313.9323,122.693 318.1746,124.2934 321.701,124.1996 C325.2273,124.2934 329.4696,122.693 332.3909,119.7717 C335.3122,116.8504 336.9126,112.6081 336.8188,109.0817 z" stroke="#000000" stroke-width="0.96" fill-opacity="0" />
  <text x="431.439086002384" y="217.996317988635" font-family="Arial" text-anchor="middle" font-size="16.70474">3</text>
  <text x="272.84084245335" y="217.996317988635" font-family="Arial" text-anchor="middle" font-size="16.70474">2</text>
  <text x="273.437703579381" y="68.1782740975007" font-family="Arial" text-anchor="middle" font-size="16.70474">0</text>
  <text x="428.483535269761" y="68.8077616768753" font-family="Arial" text-anchor="middle" font-size="16.70474">1</text>
  <text x="220.489181359481" y="144.975758781191" font-family="Arial" text-anchor="middle" font-size="16.70474">1</text>
  <text x="126.166104742814" y="241.028037425076" font-family="Arial" text-anchor="middle" font-size="16.70474">2</text>
  <text x="30.081199645586" y="144.975758781191" font-family="Arial" text-anchor="middle" font-size="16.70474">3</text>
  <text x="126.329237009532" y="48.9234801373074" font-family="Arial" text-anchor="middle" font-size="16.70474">4</text>
  <text x="112.430367885112" y="156.982293611677" font-family="Arial" text-anchor="middle" font-size="16.70474">1</text>
  <text x="138.172639573299" y="156.982293611677" font-family="Arial" text-anchor="middle" font-size="16.70474">2</text>
  <text x="114.126943458985" y="132.969223950706" font-family="Arial" text-anchor="middle" font-size="16.70474">3</text>
  <text x="138.335771840018" y="132.969223950706" font-family="Arial" text-anchor="middle" font-size="16.70474">4</text>
  <path d="M291.4652,139.3175 L351.9367,139.3175 L351.9367,78.846 L291.4652,78.846 z" stroke="#000000" stroke-width="0.96" fill-opacity="0" />
  <path d="M66.78597,199.0052 L186.8513,199.0052 L186.8513,78.93983 L66.78597,78.93983 z" stroke="#000000" stroke-width="0.96" fill-opacity="0" />
  <path d="M351.9367,199.789 L412.4082,199.789 L412.4082,139.3175 L351.9367,139.3175 z" stroke="#000000" stroke-width="0.96" fill-opacity="0" />
  <path d="M291.4652,199.789 L351.9367,199.789 L351.9367,139.3175 L291.4652,139.3175 z" stroke="#000000" stroke-width="0.96" fill-opacity="0" />
  <path d="M351.9367,139.3175 L412.4082,139.3175 L412.4082,78.846 L351.9367,78.846 z" stroke="#000000" stroke-width="0.96" fill-opacity="0" />
  <path d="M126.8186,78.93983 L126.8186,54.92675" stroke="#000000" stroke-width="0.96" fill-opacity="0" />
  <path d="M412.4082,78.846 L421.2341,69.26029" stroke="#000000" stroke-width="0.96" fill-opacity="0" />
  <path d="M291.4652,78.846 L281.8097,69.26029" stroke="#000000" stroke-width="0.96" fill-opacity="0" />
  <path d="M412.4082,199.789 L421.2341,208.6847" stroke="#000000" stroke-width="0.96" fill-opacity="0" />
  <path d="M186.8513,138.9725 L210.8644,138.9725" stroke="#000000" stroke-width="0.96" fill-opacity="0" />
  <path d="M66.78597,138.9725 L42.7729,138.9725" stroke="#000000" stroke-width="0.96" fill-opacity="0" />
  <path d="M367.0546,139.3175 L367.0546,199.789" stroke="#000000" stroke-width="0.96" fill-opacity="0" />
  <path d="M397.2903,139.3175 L397.2903,199.789" stroke="#000000" stroke-width="0.96" fill-opacity="0" />
  <path d="M291.4652,154.4354 L351.9367,154.4354" stroke="#000000" stroke-width="0.96" fill-opacity="0" />
  <path d="M291.4652,184.6711 L351.9367,184.6711" stroke="#000000" stroke-width="0.96" fill-opacity="0" />
  <path d="M126.8186,199.0052 L126.8186,223.0182" stroke="#000000" stroke-width="0.96" fill-opacity="0" />
  <path d="M291.4652,199.789 L281.8097,208.6847" stroke="#000000" stroke-width="0.96" fill-opacity="0" />
</svg>