<?xml version="1.0" encoding="UTF-8" standalone="no"?>
<!DOCTYPE svg PUBLIC "-//W3C//DTD SVG 1.1//EN" "http://www.w3.org/Graphics/SVG/1.1/DTD/svg11.dtd">
<svg width="480pt" height="240pt" viewBox="0 0 480 240" overflow="visible" version="1.1" xmlns="http://www.w3.org/2000/svg">
  <path d="M329.5681,96.31548 L349.4843,46.10851" stroke="#000000" stroke-width="0.96" fill-opacity="0" />
  <path d="M382.765,127.0691 L329.5681,96.31548" stroke="#000000" stroke-width="0.96" fill-opacity="0" />
  <path d="M435.5588,95.86899 L382.765,127.0691" stroke="#000000" stroke-width="0.96" fill-opacity="0" />
  <path d="M414.9902,45.83256 L435.5588,95.86899" stroke="#000000" stroke-width="0.96" fill-opacity="0" />
  <path d="M349.4843,46.10851 L414.9902,45.83256" stroke="#000000" stroke-width="0.96" fill-opacity="0" />
  <path d="M162.3654,97.01982 L182.2816,46.81285" stroke="#000000" stroke-width="0.96" fill-opacity="0" />
  <path d="M215.5624,127.7735 L162.3654,97.01982" stroke="#000000" stroke-width="0.96" fill-opacity="0" />
  <path d="M268.3561,96.57333 L215.5624,127.7735" stroke="#000000" stroke-width="0.96" fill-opacity="0" />
  <path d="M247.7875,46.5369 L268.3561,96.57333" stroke="#000000" stroke-width="0.96" fill-opacity="0" />
  <path d="M182.2816,46.81285 L247.7875,46.5369" stroke="#000000" stroke-width="0.96" fill-opacity="0" />
  <path d="M268.356,96.5733 C268.5815,87.69006 264.733,81.61572 257.7079,82.33109 C250.6828,83.04646 240.4811,90.55154 232.0011,100.2754 C223.5211,109.5403 213.3194,124.8792 206.2943,139.8946 C199.2692,154.91 195.4207,169.602 195.6461,177.9804 C195.4207,186.8637 199.2692,192.938 206.2943,192.2227 C213.3194,191.5073 223.5211,184.0022 232.0011,174.2784 C240.4811,165.0135 250.6828,149.6745 257.7079,134.6591 C264.733,119.6437 268.5815,104.9518 268.356,96.5733 L215.5624,127.7735" stroke="#000000" stroke-width="0.96" fill-opacity="0" />
  <path d="M162.3654,97.0198 C162.1367,105.4002 166.041,120.0594 173.1681,135.0153 C180.2952,149.9711 190.645,165.2234 199.2482,174.4164 C207.8513,184.0682 218.2012,191.4867 225.3282,192.1425 C232.4553,192.7982 236.3597,186.6912 236.131,177.8099 C236.3597,169.4295 232.4553,154.7702 225.3282,139.8144 C218.2012,124.8586 207.8513,109.6063 199.2482,100.4133 C190.645,90.76147 180.2952,83.34296 173.1681,82.68721 C166.041,82.03146 162.1367,88.13846 162.3654,97.0198 z" stroke="#000000" stroke-width="0.96" fill-opacity="0" />
  <path d="M215.5624,127.7735 L162.3654,97.01982" stroke="#000000" stroke-width="0.96" fill-opacity="0" />
  <path d="M19.70958,97.62077 L39.62579,47.41379" stroke="#000000" stroke-width="0.96" fill-opacity="0" />
  <path d="M72.90652,128.3744 L19.70958,97.62077" stroke="#000000" stroke-width="0.96" fill-opacity="0" />
  <path d="M125.7002,97.17427 L72.90652,128.3744" stroke="#000000" stroke-width="0.96" fill-opacity="0" />
  <path d="M105.1316,47.13784 L125.7002,97.17427" stroke="#000000" stroke-width="0.96" fill-opacity="0" />
  <path d="M39.62579,47.41379 L105.1316,47.13784" stroke="#000000" stroke-width="0.96" fill-opacity="0" />
  <path d="M296.8709,138.1104 L329.5681,96.31548" stroke="#000000" stroke-width="0.96" fill-opacity="0" />
  <path d="M329.8599,194.6948 L296.8709,138.1104" stroke="#000000" stroke-width="0.96" fill-opacity="0" />
  <path d="M382.9454,187.8709 L329.8599,194.6948" stroke="#000000" stroke-width="0.96" fill-opacity="0" />
  <path d="M382.765,127.0691 L382.9454,187.8709" stroke="#000000" stroke-width="0.96" fill-opacity="0" />
  <path d="M329.5681,96.31548 L382.765,127.0691" stroke="#000000" stroke-width="0.96" fill-opacity="0" />
  <path d="M382.9454,187.8709 L382.765,127.0691" stroke="#000000" stroke-width="0.96" fill-opacity="0" />
  <path d="M435.8506,194.2483 L382.9454,187.8709" stroke="#000000" stroke-width="0.96" fill-opacity="0" />
  <path d="M468.3674,137.388 L435.8506,194.2483" stroke="#000000" stroke-width="0.96" fill-opacity="0" />
  <path d="M435.5588,95.86899 L468.3674,137.388" stroke="#000000" stroke-width="0.96" fill-opacity="0" />
  <polygon fill="#000000" fill-opacity="1.0" points="41.28389,102.885 49.55987,96.85898 45.39415,93.50894" />
  <path d="M382.765,127.0691 L435.5588,95.86899" stroke="#000000" stroke-width="0.96" fill-opacity="0" />
  <polygon fill="#000000" fill-opacity="1.0" points="104.4004,102.6191 100.1827,93.27403 96.05209,96.66724" />
  <path d="M47.47665,95.18438 C52.28362,90.0765 56.95996,87.69473 59.46137,88.54446" stroke="#000000" stroke-width="0.96" fill-opacity="0" />
  <path d="M98.11776,94.97105 C93.241,89.90396 88.49677,87.56188 85.95904,88.43284" stroke="#000000" stroke-width="0.96" fill-opacity="0" />
  <polygon fill="#000000" fill-opacity="1.0" points="30.04959,131.2008 33.88657,124.0462 28.60648,123.2115" />
  <path d="M39.62576,47.41377 C28.94587,53.38046 19.83592,64.65278 17.53253,76.76305 C15.22915,88.87332 19.73233,101.8215 27.7057,110.0846 C35.12212,118.6769 49.13327,126.0061 64.18597,127.8592 C79.23867,129.7123 95.33292,126.0894 105.6037,119.6746 C116.2836,113.7079 125.3935,102.4356 127.6969,90.32533 C130.0003,78.21506 125.4971,65.26684 117.5237,57.00375 C110.1073,48.41151 96.09618,41.08233 81.04348,39.2292 C65.99078,37.37607 49.89652,40.99899 39.62576,47.41377 z" stroke="#000000" stroke-width="0.96" fill-opacity="0" />
  <polygon fill="#000000" fill-opacity="1.0" points="59.46138,107.9973 52.4881,116.2724 57.30005,118.6007" />
  <path d="M31.24645,123.6293 C32.98799,117.1111 37.09989,108.8627 41.28389,102.885" stroke="#000000" stroke-width="0.96" fill-opacity="0" />
  <polygon fill="#000000" fill-opacity="1.0" points="115.7979,130.8396 117.2225,122.854 111.9445,123.7016" />
  <path d="M54.89433,117.436 C50.84713,124.6213 45.4157,131.1911 41.28389,134.3604" stroke="#000000" stroke-width="0.96" fill-opacity="0" />
  <polygon fill="#000000" fill-opacity="1.0" points="59.46138,88.54448 60.13999,93.18272 64.04401,89.53106" />
  <path d="M114.5836,123.2782 C112.8168,116.7748 108.6452,108.5613 104.4004,102.6191" stroke="#000000" stroke-width="0.96" fill-opacity="0" />
  <polygon fill="#000000" fill-opacity="1.0" points="41.28389,134.3604 34.53521,135.0437 37.12584,139.7197" />
  <path d="M62.09184,91.35671 C63.32117,94.71803 62.09942,101.4944 59.46137,107.9973" stroke="#000000" stroke-width="0.96" fill-opacity="0" />
  <path d="M35.83083,137.3815 C32.1002,138.461 29.96514,135.7449 30.04959,131.2008" stroke="#000000" stroke-width="0.96" fill-opacity="0" />
  <polygon fill="#000000" fill-opacity="1.0" points="104.4004,134.0945 108.6671,139.4236 111.1989,134.7155" />
  <path d="M182.2816,46.81283 C171.6017,52.77951 162.4918,64.05183 160.1884,76.16211 C157.885,88.27238 162.3882,101.2206 170.3615,109.4837 C177.778,118.0759 191.7891,125.4051 206.8418,127.2582 C221.8945,129.1114 237.9888,125.4884 248.2595,119.0737 C258.9394,113.107 268.0494,101.8347 270.3528,89.7244 C272.6561,77.61412 268.153,64.66589 260.1796,56.40281 C252.7632,47.81057 238.752,40.48139 223.6993,38.62826 C208.6466,36.77513 192.5524,40.39805 182.2816,46.81283 z" stroke="#000000" stroke-width="0.96" fill-opacity="0" />
  <polygon fill="#000000" fill-opacity="1.0" points="85.95905,107.8857 88.19526,118.4679 92.99007,116.1044" />
  <path d="M109.9327,137.0694 C113.7175,138.1171 115.8835,135.383 115.7978,130.8395" stroke="#000000" stroke-width="0.96" fill-opacity="0" />
  <polygon fill="#000000" fill-opacity="1.0" points="85.95905,88.43286 81.34417,89.43543 85.23631,93.09975" />
  <path d="M90.59239,117.2856 C94.69834,124.4365 100.2086,130.9603 104.4004,134.0945" stroke="#000000" stroke-width="0.96" fill-opacity="0" />
  <path d="M83.29038,91.26741 C82.0432,94.63915 83.2827,101.4052 85.95904,107.8857" stroke="#000000" stroke-width="0.96" fill-opacity="0" />
  <text x="66.911177062449" y="74.9773962243406" font-family="Arial" font-size="21.32024">A</text>
  <polygon fill="#000000" fill-opacity="1.0" points="240.4306,105.7421 240.4247,104.8276 239.0034,105.7481" />
  <polygon fill="#000000" fill-opacity="1.0" points="240.6657,105.0796 241.4669,104.5117 241.2442,104.3484" />
  <polygon fill="#000000" fill-opacity="1.0" points="240.6657,105.0796 240.9282,105.2977 241.4669,104.5117" />
  <polygon fill="#000000" fill-opacity="1.0" points="239.0034,105.7481 240.4247,104.8276 240.6495,103.595" />
  <polygon fill="#000000" fill-opacity="1.0" points="240.8462,103.9319 240.6495,103.595 240.4247,104.8276" />
  <polygon fill="#000000" fill-opacity="1.0" points="240.4247,104.8276 241.0372,104.1551 240.8462,103.9319" />
  <polygon fill="#000000" fill-opacity="1.0" points="240.4247,104.8276 241.2442,104.3484 241.0372,104.1551" />
  <polygon fill="#000000" fill-opacity="1.0" points="241.2442,104.3484 240.4247,104.8276 240.6657,105.0796" />
  <polygon fill="#000000" fill-opacity="1.0" points="241.7055,104.6451 240.9282,105.2977 241.2121,105.4821" />
  <polygon fill="#000000" fill-opacity="1.0" points="240.5079,103.1667 239.0034,105.7481 240.6495,103.595" />
  <polygon fill="#000000" fill-opacity="1.0" points="241.8442,105.7493 242.2301,104.8221 241.5175,105.6326" />
  <polygon fill="#000000" fill-opacity="1.0" points="242.5619,105.8812 242.5162,104.8657 242.1923,105.8322" />
  <polygon fill="#000000" fill-opacity="1.0" points="242.9529,105.8965 242.8181,104.8794 242.5619,105.8812" />
  <polygon fill="#000000" fill-opacity="1.0" points="242.2301,104.8221 241.8442,105.7493 242.1923,105.8322" />
  <polygon fill="#000000" fill-opacity="1.0" points="242.5162,104.8657 242.5619,105.8812 242.8181,104.8794" />
  <polygon fill="#000000" fill-opacity="1.0" points="241.7055,104.6451 241.4669,104.5117 240.9282,105.2977" />
  <polygon fill="#000000" fill-opacity="1.0" points="241.5175,105.6326 242.2301,104.8221 241.9599,104.7486" />
  <polygon fill="#000000" fill-opacity="1.0" points="242.1923,105.8322 242.5162,104.8657 242.2301,104.8221" />
  <polygon fill="#000000" fill-opacity="1.0" points="241.7055,104.6451 241.2121,105.4821 241.9599,104.7486" />
  <polygon fill="#000000" fill-opacity="1.0" points="241.9599,104.7486 241.2121,105.4821 241.5175,105.6326" />
  <polygon fill="#000000" fill-opacity="1.0" points="240.3894,102.0361 240.4312,101.4082 239.0034,105.7481" />
  <polygon fill="#000000" fill-opacity="1.0" points="240.4995,99.25771 240.4312,101.4082 240.5655,100.8587" />
  <polygon fill="#000000" fill-opacity="1.0" points="240.3894,102.0361 239.0034,105.7481 240.4212,102.647" />
  <polygon fill="#000000" fill-opacity="1.0" points="239.0034,105.7481 240.4312,101.4082 238.9378,95.66814" />
  <polygon fill="#000000" fill-opacity="1.0" points="240.4995,99.25771 238.9378,95.66814 240.4312,101.4082" />
  <polygon fill="#000000" fill-opacity="1.0" points="238.9378,95.66814 240.4995,99.25771 240.4761,95.66167" />
  <polygon fill="#000000" fill-opacity="1.0" points="240.4995,99.25771 241.4937,99.68434 240.75,99.0262" />
  <polygon fill="#000000" fill-opacity="1.0" points="240.7921,100.3874 241.1111,99.9943 240.4995,99.25771" />
  <polygon fill="#000000" fill-opacity="1.0" points="240.4995,99.25771 240.5655,100.8587 240.7921,100.3874" />
  <polygon fill="#000000" fill-opacity="1.0" points="240.5079,103.1667 240.4212,102.647 239.0034,105.7481" />
  <polygon fill="#000000" fill-opacity="1.0" points="240.75,99.0262 241.4937,99.68434 241.0175,98.82535" />
  <polygon fill="#000000" fill-opacity="1.0" points="242.2578,98.32849 242.3631,99.32829 242.85,99.28219" />
  <polygon fill="#000000" fill-opacity="1.0" points="241.6036,98.51561 241.911,99.46234 242.3631,99.32829" />
  <polygon fill="#000000" fill-opacity="1.0" points="241.0175,98.82535 241.4937,99.68434 241.911,99.46234" />
  <polygon fill="#000000" fill-opacity="1.0" points="241.302,98.65515 241.911,99.46234 241.6036,98.51561" />
  <polygon fill="#000000" fill-opacity="1.0" points="241.911,99.46234 241.302,98.65515 241.0175,98.82535" />
  <polygon fill="#000000" fill-opacity="1.0" points="242.3631,99.32829 241.9222,98.40672 241.6036,98.51561" />
  <polygon fill="#000000" fill-opacity="1.0" points="242.3631,99.32829 242.2578,98.32849 241.9222,98.40672" />
  <polygon fill="#000000" fill-opacity="1.0" points="242.2578,98.32849 242.85,99.28219 242.6105,98.28091" />
  <polygon fill="#000000" fill-opacity="1.0" points="242.6105,98.28091 242.85,99.28219 242.9801,98.26399" />
  <polygon fill="#000000" fill-opacity="1.0" points="241.1111,99.9943 241.4937,99.68434 240.4995,99.25771" />
  <polygon fill="#000000" fill-opacity="1.0" points="243.3049,104.8333 242.8181,104.8794 243.3494,105.8788" />
  <polygon fill="#000000" fill-opacity="1.0" points="244.0985,105.7476 243.3049,104.8333 243.7312,105.8291" />
  <polygon fill="#000000" fill-opacity="1.0" points="243.3049,104.8333 243.3494,105.8788 243.7312,105.8291" />
  <polygon fill="#000000" fill-opacity="1.0" points="243.757,104.6992 244.0985,105.7476 244.4511,105.634" />
  <polygon fill="#000000" fill-opacity="1.0" points="243.757,104.6992 243.3049,104.8333 244.0985,105.7476" />
  <polygon fill="#000000" fill-opacity="1.0" points="245.4212,105.1017 244.5569,104.1673 244.1744,104.4772" />
  <polygon fill="#000000" fill-opacity="1.0" points="243.757,104.6992 244.7891,105.4885 244.1744,104.4772" />
  <polygon fill="#000000" fill-opacity="1.0" points="244.7891,105.4885 245.1124,105.3111 244.1744,104.4772" />
  <polygon fill="#000000" fill-opacity="1.0" points="243.757,104.6992 244.4511,105.634 244.7891,105.4885" />
  <polygon fill="#000000" fill-opacity="1.0" points="244.5569,104.1673 245.4212,105.1017 245.7152,104.8603" />
  <polygon fill="#000000" fill-opacity="1.0" points="244.8759,103.7703 244.5569,104.1673 245.9839,104.5897" />
  <polygon fill="#000000" fill-opacity="1.0" points="245.7152,104.8603 245.9839,104.5897 244.5569,104.1673" />
  <polygon fill="#000000" fill-opacity="1.0" points="244.8759,103.7703 245.9839,104.5897 246.2163,104.2926" />
  <polygon fill="#000000" fill-opacity="1.0" points="245.1025,103.2874 244.8759,103.7703 246.4125,103.9691" />
  <polygon fill="#000000" fill-opacity="1.0" points="246.2163,104.2926 246.4125,103.9691 244.8759,103.7703" />
  <polygon fill="#000000" fill-opacity="1.0" points="246.5725,103.619 245.1025,103.2874 246.4125,103.9691" />
  <polygon fill="#000000" fill-opacity="1.0" points="245.2366,102.7185 245.1025,103.2874 246.6963,103.2425" />
  <polygon fill="#000000" fill-opacity="1.0" points="246.5725,103.619 246.6963,103.2425 245.1025,103.2874" />
  <polygon fill="#000000" fill-opacity="1.0" points="246.7838,102.8394 245.2366,102.7185 246.6963,103.2425" />
  <polygon fill="#000000" fill-opacity="1.0" points="245.1124,105.3111 245.4212,105.1017 244.1744,104.4772" />
  <polygon fill="#000000" fill-opacity="1.0" points="243.7957,98.32846 243.3318,99.3227 243.7773,99.44846" />
  <polygon fill="#000000" fill-opacity="1.0" points="244.5594,99.95571 245.2509,98.85264 244.1865,99.65946" />
  <polygon fill="#000000" fill-opacity="1.0" points="245.2509,98.85264 244.5672,98.52891 244.1865,99.65946" />
  <polygon fill="#000000" fill-opacity="1.0" points="244.5672,98.52891 243.7773,99.44846 244.1865,99.65946" />
  <polygon fill="#000000" fill-opacity="1.0" points="242.9801,98.26399 242.85,99.28219 243.3934,98.27923" />
  <polygon fill="#000000" fill-opacity="1.0" points="243.3934,98.27923 243.3318,99.3227 243.7957,98.32846" />
  <polygon fill="#000000" fill-opacity="1.0" points="243.7957,98.32846 243.7773,99.44846 244.187,98.41168" />
  <polygon fill="#000000" fill-opacity="1.0" points="243.7773,99.44846 244.5672,98.52891 244.187,98.41168" />
  <polygon fill="#000000" fill-opacity="1.0" points="245.8029,99.28694 244.5594,99.95571 244.8704,100.3416" />
  <polygon fill="#000000" fill-opacity="1.0" points="243.3934,98.27923 242.85,99.28219 243.3318,99.3227" />
  <polygon fill="#000000" fill-opacity="1.0" points="246.8501,101.9538 245.2783,102.0636 246.8351,102.4099" />
  <polygon fill="#000000" fill-opacity="1.0" points="245.2366,102.7185 246.8351,102.4099 245.2783,102.0636" />
  <polygon fill="#000000" fill-opacity="1.0" points="245.2298,101.3956 245.2783,102.0636 246.8501,101.9538" />
  <polygon fill="#000000" fill-opacity="1.0" points="246.8351,102.4099 245.2366,102.7185 246.7838,102.8394" />
  <polygon fill="#000000" fill-opacity="1.0" points="246.7768,101.1875 245.2298,101.3956 246.8501,101.9538" />
  <polygon fill="#000000" fill-opacity="1.0" points="244.5594,99.95571 245.8029,99.28694 245.2509,98.85264" />
  <polygon fill="#000000" fill-opacity="1.0" points="245.8029,99.28694 244.8704,100.3416 246.237,99.82745" />
  <polygon fill="#000000" fill-opacity="1.0" points="246.237,99.82745 244.8704,100.3416 245.0939,100.8215" />
  <polygon fill="#000000" fill-opacity="1.0" points="246.237,99.82745 245.0939,100.8215 246.567,100.4698" />
  <polygon fill="#000000" fill-opacity="1.0" points="246.7768,101.1875 246.567,100.4698 245.0939,100.8215" />
  <polygon fill="#000000" fill-opacity="1.0" points="246.7768,101.1875 245.0939,100.8215 245.2298,101.3956" />
  <polygon fill="#000000" fill-opacity="1.0" points="243.3494,105.8788 242.8181,104.8794 242.9529,105.8965" />
  <polygon fill="#000000" fill-opacity="1.0" points="182.6559,104.0079 182.8091,104.4033 184.2742,103.7671" />
  <polygon fill="#000000" fill-opacity="1.0" points="183.0624,104.7574 184.3629,103.9834 182.8091,104.4033" />
  <polygon fill="#000000" fill-opacity="1.0" points="183.8626,105.3256 184.7146,104.3532 183.416,105.0703" />
  <polygon fill="#000000" fill-opacity="1.0" points="184.3629,103.9834 183.0624,104.7574 184.5097,104.1787" />
  <polygon fill="#000000" fill-opacity="1.0" points="183.0624,104.7574 183.416,105.0703 184.5097,104.1787" />
  <polygon fill="#000000" fill-opacity="1.0" points="184.7146,104.3532 183.8626,105.3256 184.3952,105.5071" />
  <polygon fill="#000000" fill-opacity="1.0" points="184.3629,103.9834 184.2742,103.7671 182.8091,104.4033" />
  <polygon fill="#000000" fill-opacity="1.0" points="182.6201,103.3089 184.2435,103.53 182.6753,103.0579" />
  <polygon fill="#000000" fill-opacity="1.0" points="182.6753,103.0579 184.2949,103.2213 182.7686,102.8184" />
  <polygon fill="#000000" fill-opacity="1.0" points="184.2435,103.53 182.6201,103.3089 182.6028,103.5713" />
  <polygon fill="#000000" fill-opacity="1.0" points="184.2435,103.53 184.2949,103.2213 182.6753,103.0579" />
  <polygon fill="#000000" fill-opacity="1.0" points="184.4533,102.9413 182.8998,102.5902 184.2949,103.2213" />
  <polygon fill="#000000" fill-opacity="1.0" points="184.2949,103.2213 182.8998,102.5902 182.7686,102.8184" />
  <polygon fill="#000000" fill-opacity="1.0" points="184.2742,103.7671 184.2435,103.53 182.6028,103.5713" />
  <polygon fill="#000000" fill-opacity="1.0" points="184.2742,103.7671 182.6028,103.5713 182.6559,104.0079" />
  <polygon fill="#000000" fill-opacity="1.0" points="185.6581,104.6586 185.014,105.6147 185.7188,105.6485" />
  <polygon fill="#000000" fill-opacity="1.0" points="185.014,105.6147 185.6581,104.6586 185.2899,104.5983" />
  <polygon fill="#000000" fill-opacity="1.0" points="185.6581,104.6586 185.7188,105.6485 186.08,104.6775" />
  <polygon fill="#000000" fill-opacity="1.0" points="184.9755,104.4965 185.014,105.6147 185.2899,104.5983" />
  <polygon fill="#000000" fill-opacity="1.0" points="186.08,104.6775 186.1644,105.6316 186.5954,105.5846" />
  <polygon fill="#000000" fill-opacity="1.0" points="186.5954,105.5846 186.5119,104.6561 186.08,104.6775" />
  <polygon fill="#000000" fill-opacity="1.0" points="185.7188,105.6485 186.1644,105.6316 186.08,104.6775" />
  <polygon fill="#000000" fill-opacity="1.0" points="184.7146,104.3532 184.5097,104.1787 183.416,105.0703" />
  <polygon fill="#000000" fill-opacity="1.0" points="183.2476,102.1891 182.8998,102.5902 184.4533,102.9413" />
  <polygon fill="#000000" fill-opacity="1.0" points="185.2884,102.4685 184.7941,101.4649 185.0575,102.5365" />
  <polygon fill="#000000" fill-opacity="1.0" points="185.0575,102.5365 184.2109,101.6376 184.7104,102.7073" />
  <polygon fill="#000000" fill-opacity="1.0" points="184.7146,104.3532 184.3952,105.5071 184.9755,104.4965" />
  <polygon fill="#000000" fill-opacity="1.0" points="184.7104,102.7073 183.69,101.8753 184.4533,102.9413" />
  <polygon fill="#000000" fill-opacity="1.0" points="184.9755,104.4965 184.3952,105.5071 185.014,105.6147" />
  <polygon fill="#000000" fill-opacity="1.0" points="185.5887,102.4036 185.0491,101.4161 185.2884,102.4685" />
  <polygon fill="#000000" fill-opacity="1.0" points="184.2109,101.6376 183.69,101.8753 184.7104,102.7073" />
  <polygon fill="#000000" fill-opacity="1.0" points="185.0575,102.5365 184.7941,101.4649 184.2109,101.6376" />
  <polygon fill="#000000" fill-opacity="1.0" points="182.963,99.90641 182.8463,100.2767 184.3516,100.4354" />
  <polygon fill="#000000" fill-opacity="1.0" points="184.4533,102.9413 183.69,101.8753 183.2476,102.1891" />
  <polygon fill="#000000" fill-opacity="1.0" points="184.49,100.0758 182.963,99.90641 184.3516,100.4354" />
  <polygon fill="#000000" fill-opacity="1.0" points="184.49,100.0758 183.2965,99.27757 183.1131,99.57337" />
  <polygon fill="#000000" fill-opacity="1.0" points="183.2965,99.27757 184.6624,99.77484 183.5133,99.01903" />
  <polygon fill="#000000" fill-opacity="1.0" points="183.1131,99.57337 182.963,99.90641 184.49,100.0758" />
  <polygon fill="#000000" fill-opacity="1.0" points="184.8689,99.53267 184.0853,98.59374 183.7731,98.79275" />
  <polygon fill="#000000" fill-opacity="1.0" points="183.7731,98.79275 183.5133,99.01903 184.8689,99.53267" />
  <polygon fill="#000000" fill-opacity="1.0" points="184.0853,98.59374 185.1094,99.34923 184.4501,98.42203" />
  <polygon fill="#000000" fill-opacity="1.0" points="183.5133,99.01903 184.6624,99.77484 184.8689,99.53267" />
  <polygon fill="#000000" fill-opacity="1.0" points="184.49,100.0758 184.6624,99.77484 183.2965,99.27757" />
  <polygon fill="#000000" fill-opacity="1.0" points="185.3619,101.368 185.0491,101.4161 185.5887,102.4036" />
  <polygon fill="#000000" fill-opacity="1.0" points="184.4501,98.42203 185.1094,99.34923 184.8674,98.2776" />
  <polygon fill="#000000" fill-opacity="1.0" points="186.1604,101.2735 185.9585,102.3419 186.3977,102.2833" />
  <polygon fill="#000000" fill-opacity="1.0" points="185.9585,102.3419 186.1604,101.2735 185.7323,101.3204" />
  <polygon fill="#000000" fill-opacity="1.0" points="185.3619,101.368 185.9585,102.3419 185.7323,101.3204" />
  <polygon fill="#000000" fill-opacity="1.0" points="185.0491,101.4161 184.7941,101.4649 185.2884,102.4685" />
  <polygon fill="#000000" fill-opacity="1.0" points="185.3287,98.16284 185.4026,99.21413 185.7671,99.11697" />
  <polygon fill="#000000" fill-opacity="1.0" points="185.4026,99.21413 185.3287,98.16284 184.8674,98.2776" />
  <polygon fill="#000000" fill-opacity="1.0" points="185.3287,98.16284 185.7671,99.11697 185.8255,98.08017" />
  <polygon fill="#000000" fill-opacity="1.0" points="185.1094,99.34923 185.4026,99.21413 184.8674,98.2776" />
  <polygon fill="#000000" fill-opacity="1.0" points="186.3577,98.02958 186.2028,99.05776 186.7099,99.03651" />
  <polygon fill="#000000" fill-opacity="1.0" points="186.2028,99.05776 186.3577,98.02958 185.8255,98.08017" />
  <polygon fill="#000000" fill-opacity="1.0" points="186.3577,98.02958 186.7099,99.03651 186.9254,98.01107" />
  <polygon fill="#000000" fill-opacity="1.0" points="185.7671,99.11697 186.2028,99.05776 185.8255,98.08017" />
  <polygon fill="#000000" fill-opacity="1.0" points="186.3977,102.2833 187.0299,101.1762 186.1604,101.2735" />
  <polygon fill="#000000" fill-opacity="1.0" points="184.8689,99.53267 185.1094,99.34923 184.0853,98.59374" />
  <polygon fill="#000000" fill-opacity="1.0" points="185.5887,102.4036 185.9585,102.3419 185.3619,101.368" />
  <polygon fill="#000000" fill-opacity="1.0" points="187.0119,105.5077 186.5119,104.6561 186.5954,105.5846" />
  <polygon fill="#000000" fill-opacity="1.0" points="187.4137,105.4007 187.3015,104.4963 186.9191,104.5957" />
  <polygon fill="#000000" fill-opacity="1.0" points="186.5119,104.6561 187.0119,105.5077 186.9191,104.5957" />
  <polygon fill="#000000" fill-opacity="1.0" points="187.0119,105.5077 187.4137,105.4007 186.9191,104.5957" />
  <polygon fill="#000000" fill-opacity="1.0" points="187.659,104.358 187.3015,104.4963 187.812,105.2572" />
  <polygon fill="#000000" fill-opacity="1.0" points="187.659,104.358 187.812,105.2572 188.2181,105.0707" />
  <polygon fill="#000000" fill-opacity="1.0" points="187.812,105.2572 187.3015,104.4963 187.4137,105.4007" />
  <polygon fill="#000000" fill-opacity="1.0" points="188.6319,104.8412 187.981,104.1858 188.2181,105.0707" />
  <polygon fill="#000000" fill-opacity="1.0" points="188.2181,105.0707 187.981,104.1858 187.659,104.358" />
  <polygon fill="#000000" fill-opacity="1.0" points="188.257,103.985 187.981,104.1858 188.6319,104.8412" />
  <polygon fill="#000000" fill-opacity="1.0" points="188.4868,103.7556 189.0535,104.5687 188.6705,103.4976" />
  <polygon fill="#000000" fill-opacity="1.0" points="188.7774,103.2625 190.4779,103.1873 188.853,102.9777" />
  <polygon fill="#000000" fill-opacity="1.0" points="190.4878,103.5196 188.7774,103.2625 188.6705,103.4976" />
  <polygon fill="#000000" fill-opacity="1.0" points="189.0535,104.5687 188.4868,103.7556 188.257,103.985" />
  <polygon fill="#000000" fill-opacity="1.0" points="189.0535,104.5687 188.257,103.985 188.6319,104.8412" />
  <polygon fill="#000000" fill-opacity="1.0" points="186.3977,102.2833 187.1822,102.1786 187.0299,101.1762" />
  <polygon fill="#000000" fill-opacity="1.0" points="189.1677,105.0512 190.5792,104.5863 189.0535,104.5687" />
  <polygon fill="#000000" fill-opacity="1.0" points="190.5159,104.0652 189.0535,104.5687 190.5342,104.2786" />
  <polygon fill="#000000" fill-opacity="1.0" points="189.0535,104.5687 190.5553,104.4523 190.5342,104.2786" />
  <polygon fill="#000000" fill-opacity="1.0" points="190.7284,105.0335 189.1677,105.0512 189.367,105.4681" />
  <polygon fill="#000000" fill-opacity="1.0" points="189.367,105.4681 190.9737,105.4613 190.7284,105.0335" />
  <polygon fill="#000000" fill-opacity="1.0" points="189.0535,104.5687 190.5792,104.5863 190.5553,104.4523" />
  <polygon fill="#000000" fill-opacity="1.0" points="189.1677,105.0512 190.7284,105.0335 190.5792,104.5863" />
  <polygon fill="#000000" fill-opacity="1.0" points="190.4667,102.4037 188.8973,102.6432 190.4709,102.8153" />
  <polygon fill="#000000" fill-opacity="1.0" points="190.4709,102.8153 188.8973,102.6432 188.853,102.9777" />
  <polygon fill="#000000" fill-opacity="1.0" points="188.9073,101.8051 188.9102,102.2589 190.4667,102.4037" />
  <polygon fill="#000000" fill-opacity="1.0" points="188.8973,102.6432 190.4667,102.4037 188.9102,102.2589" />
  <polygon fill="#000000" fill-opacity="1.0" points="190.4878,103.5196 188.6705,103.4976 190.5004,103.8122" />
  <polygon fill="#000000" fill-opacity="1.0" points="190.4779,103.1873 190.4709,102.8153 188.853,102.9777" />
  <polygon fill="#000000" fill-opacity="1.0" points="190.4779,103.1873 188.7774,103.2625 190.4878,103.5196" />
  <polygon fill="#000000" fill-opacity="1.0" points="190.5004,103.8122 189.0535,104.5687 190.5159,104.0652" />
  <polygon fill="#000000" fill-opacity="1.0" points="190.5004,103.8122 188.6705,103.4976 189.0535,104.5687" />
  <polygon fill="#000000" fill-opacity="1.0" points="187.7765,101.0707 187.0299,101.1762 187.862,102.064" />
  <polygon fill="#000000" fill-opacity="1.0" points="187.1822,102.1786 187.862,102.064 187.0299,101.1762" />
  <polygon fill="#000000" fill-opacity="1.0" points="188.437,101.9395 187.7765,101.0707 187.862,102.064" />
  <polygon fill="#000000" fill-opacity="1.0" points="187.7765,101.0707 188.437,101.9395 188.4002,100.9572" />
  <polygon fill="#000000" fill-opacity="1.0" points="188.6565,99.63038 189.6915,98.61332 188.4646,99.44855" />
  <polygon fill="#000000" fill-opacity="1.0" points="188.9073,101.8051 188.4002,100.9572 188.437,101.9395" />
  <polygon fill="#000000" fill-opacity="1.0" points="187.4794,98.02249 187.2554,99.06042 187.7297,99.13707" />
  <polygon fill="#000000" fill-opacity="1.0" points="187.2554,99.06042 187.4794,98.02249 186.9254,98.01107" />
  <polygon fill="#000000" fill-opacity="1.0" points="187.4794,98.02249 187.7297,99.13707 187.9791,98.06165" />
  <polygon fill="#000000" fill-opacity="1.0" points="187.2554,99.06042 186.9254,98.01107 186.7099,99.03651" />
  <polygon fill="#000000" fill-opacity="1.0" points="188.8156,98.22314 188.4245,98.12852 188.1328,99.26644" />
  <polygon fill="#000000" fill-opacity="1.0" points="188.4245,98.12852 187.9791,98.06165 187.7297,99.13707" />
  <polygon fill="#000000" fill-opacity="1.0" points="188.4646,99.44855 189.1555,98.33881 188.1328,99.26644" />
  <polygon fill="#000000" fill-opacity="1.0" points="188.1328,99.26644 188.4245,98.12852 187.7297,99.13707" />
  <polygon fill="#000000" fill-opacity="1.0" points="190.1805,99.14823 188.6565,99.63038 188.7943,99.86831" />
  <polygon fill="#000000" fill-opacity="1.0" points="190.4559,100.7535 188.906,100.6276 188.901,100.8357" />
  <polygon fill="#000000" fill-opacity="1.0" points="190.4559,100.7535 188.901,100.8357 188.9073,101.8051" />
  <polygon fill="#000000" fill-opacity="1.0" points="188.8779,100.1623 190.4065,99.80222 188.7943,99.86831" />
  <polygon fill="#000000" fill-opacity="1.0" points="190.4487,100.3727 188.9074,100.5125 190.4559,100.7535" />
  <polygon fill="#000000" fill-opacity="1.0" points="188.906,100.6276 190.4559,100.7535 188.9074,100.5125" />
  <polygon fill="#000000" fill-opacity="1.0" points="190.4487,100.3727 190.4322,100.0557 188.8779,100.1623" />
  <polygon fill="#000000" fill-opacity="1.0" points="188.9074,100.5125 190.4487,100.3727 188.8779,100.1623" />
  <polygon fill="#000000" fill-opacity="1.0" points="190.4559,100.7535 188.9073,101.8051 190.4667,102.4037" />
  <polygon fill="#000000" fill-opacity="1.0" points="190.4065,99.80222 188.8779,100.1623 190.4322,100.0557" />
  <polygon fill="#000000" fill-opacity="1.0" points="189.6915,98.61332 189.4475,98.46887 188.4646,99.44855" />
  <polygon fill="#000000" fill-opacity="1.0" points="189.4475,98.46887 189.1555,98.33881 188.4646,99.44855" />
  <polygon fill="#000000" fill-opacity="1.0" points="189.1555,98.33881 188.8156,98.22314 188.1328,99.26644" />
  <polygon fill="#000000" fill-opacity="1.0" points="189.8875,98.77214 188.6565,99.63038 190.1805,99.14823" />
  <polygon fill="#000000" fill-opacity="1.0" points="189.6915,98.61332 188.6565,99.63038 189.8875,98.77214" />
  <polygon fill="#000000" fill-opacity="1.0" points="188.7943,99.86831 190.3716,99.61241 190.1805,99.14823" />
  <polygon fill="#000000" fill-opacity="1.0" points="190.4065,99.80222 190.3716,99.61241 188.7943,99.86831" />
  <polygon fill="#000000" fill-opacity="1.0" points="188.901,100.8357 188.4002,100.9572 188.9073,101.8051" />
  <polygon fill="#000000" fill-opacity="1.0" points="354.2642,104.0079 354.4174,104.4033 355.8825,103.7671" />
  <polygon fill="#000000" fill-opacity="1.0" points="354.6707,104.7574 355.9712,103.9834 354.4174,104.4033" />
  <polygon fill="#000000" fill-opacity="1.0" points="355.4709,105.3256 356.323,104.3532 355.0243,105.0703" />
  <polygon fill="#000000" fill-opacity="1.0" points="355.9712,103.9834 354.6707,104.7574 356.118,104.1787" />
  <polygon fill="#000000" fill-opacity="1.0" points="354.6707,104.7574 355.0243,105.0703 356.118,104.1787" />
  <polygon fill="#000000" fill-opacity="1.0" points="356.323,104.3532 355.4709,105.3256 356.0036,105.5071" />
  <polygon fill="#000000" fill-opacity="1.0" points="355.9712,103.9834 355.8825,103.7671 354.4174,104.4033" />
  <polygon fill="#000000" fill-opacity="1.0" points="354.2284,103.3089 355.8518,103.53 354.2836,103.0579" />
  <polygon fill="#000000" fill-opacity="1.0" points="354.2836,103.0579 355.9032,103.2213 354.3769,102.8184" />
  <polygon fill="#000000" fill-opacity="1.0" points="355.8518,103.53 354.2284,103.3089 354.2111,103.5713" />
  <polygon fill="#000000" fill-opacity="1.0" points="355.8518,103.53 355.9032,103.2213 354.2836,103.0579" />
  <polygon fill="#000000" fill-opacity="1.0" points="356.0616,102.9413 354.5081,102.5902 355.9032,103.2213" />
  <polygon fill="#000000" fill-opacity="1.0" points="355.9032,103.2213 354.5081,102.5902 354.3769,102.8184" />
  <polygon fill="#000000" fill-opacity="1.0" points="355.8825,103.7671 355.8518,103.53 354.2111,103.5713" />
  <polygon fill="#000000" fill-opacity="1.0" points="355.8825,103.7671 354.2111,103.5713 354.2642,104.0079" />
  <polygon fill="#000000" fill-opacity="1.0" points="357.2664,104.6586 356.6223,105.6147 357.3271,105.6485" />
  <polygon fill="#000000" fill-opacity="1.0" points="356.6223,105.6147 357.2664,104.6586 356.8983,104.5983" />
  <polygon fill="#000000" fill-opacity="1.0" points="357.2664,104.6586 357.3271,105.6485 357.6883,104.6775" />
  <polygon fill="#000000" fill-opacity="1.0" points="356.5838,104.4965 356.6223,105.6147 356.8983,104.5983" />
  <polygon fill="#000000" fill-opacity="1.0" points="357.6883,104.6775 357.7727,105.6316 358.2038,105.5846" />
  <polygon fill="#000000" fill-opacity="1.0" points="358.2038,105.5846 358.1203,104.6561 357.6883,104.6775" />
  <polygon fill="#000000" fill-opacity="1.0" points="357.3271,105.6485 357.7727,105.6316 357.6883,104.6775" />
  <polygon fill="#000000" fill-opacity="1.0" points="356.323,104.3532 356.118,104.1787 355.0243,105.0703" />
  <polygon fill="#000000" fill-opacity="1.0" points="354.856,102.1891 354.5081,102.5902 356.0616,102.9413" />
  <polygon fill="#000000" fill-opacity="1.0" points="356.8967,102.4685 356.4024,101.4649 356.6658,102.5365" />
  <polygon fill="#000000" fill-opacity="1.0" points="356.6658,102.5365 355.8192,101.6376 356.3187,102.7073" />
  <polygon fill="#000000" fill-opacity="1.0" points="356.323,104.3532 356.0036,105.5071 356.5838,104.4965" />
  <polygon fill="#000000" fill-opacity="1.0" points="356.3187,102.7073 355.2983,101.8753 356.0616,102.9413" />
  <polygon fill="#000000" fill-opacity="1.0" points="356.5838,104.4965 356.0036,105.5071 356.6223,105.6147" />
  <polygon fill="#000000" fill-opacity="1.0" points="357.197,102.4036 356.6575,101.4161 356.8967,102.4685" />
  <polygon fill="#000000" fill-opacity="1.0" points="355.8192,101.6376 355.2983,101.8753 356.3187,102.7073" />
  <polygon fill="#000000" fill-opacity="1.0" points="356.6658,102.5365 356.4024,101.4649 355.8192,101.6376" />
  <polygon fill="#000000" fill-opacity="1.0" points="354.5714,99.90641 354.4546,100.2767 355.9599,100.4354" />
  <polygon fill="#000000" fill-opacity="1.0" points="356.0616,102.9413 355.2983,101.8753 354.856,102.1891" />
  <polygon fill="#000000" fill-opacity="1.0" points="356.0983,100.0758 354.5714,99.90641 355.9599,100.4354" />
  <polygon fill="#000000" fill-opacity="1.0" points="356.0983,100.0758 354.9048,99.27757 354.7214,99.57337" />
  <polygon fill="#000000" fill-opacity="1.0" points="354.9048,99.27757 356.2707,99.77484 355.1216,99.01903" />
  <polygon fill="#000000" fill-opacity="1.0" points="354.7214,99.57337 354.5714,99.90641 356.0983,100.0758" />
  <polygon fill="#000000" fill-opacity="1.0" points="356.4772,99.53267 355.6936,98.59374 355.3813,98.79275" />
  <polygon fill="#000000" fill-opacity="1.0" points="355.3813,98.79275 355.1216,99.01903 356.4772,99.53267" />
  <polygon fill="#000000" fill-opacity="1.0" points="355.6936,98.59374 356.7177,99.34923 356.0584,98.42203" />
  <polygon fill="#000000" fill-opacity="1.0" points="355.1216,99.01903 356.2707,99.77484 356.4772,99.53267" />
  <polygon fill="#000000" fill-opacity="1.0" points="356.0983,100.0758 356.2707,99.77484 354.9048,99.27757" />
  <polygon fill="#000000" fill-opacity="1.0" points="356.9702,101.368 356.6575,101.4161 357.197,102.4036" />
  <polygon fill="#000000" fill-opacity="1.0" points="356.0584,98.42203 356.7177,99.34923 356.4757,98.2776" />
  <polygon fill="#000000" fill-opacity="1.0" points="357.7687,101.2735 357.5668,102.3419 358.006,102.2833" />
  <polygon fill="#000000" fill-opacity="1.0" points="357.5668,102.3419 357.7687,101.2735 357.3406,101.3204" />
  <polygon fill="#000000" fill-opacity="1.0" points="356.9702,101.368 357.5668,102.3419 357.3406,101.3204" />
  <polygon fill="#000000" fill-opacity="1.0" points="356.6575,101.4161 356.4024,101.4649 356.8967,102.4685" />
  <polygon fill="#000000" fill-opacity="1.0" points="356.937,98.16284 357.0109,99.21413 357.3754,99.11697" />
  <polygon fill="#000000" fill-opacity="1.0" points="357.0109,99.21413 356.937,98.16284 356.4757,98.2776" />
  <polygon fill="#000000" fill-opacity="1.0" points="356.937,98.16284 357.3754,99.11697 357.4338,98.08017" />
  <polygon fill="#000000" fill-opacity="1.0" points="356.7177,99.34923 357.0109,99.21413 356.4757,98.2776" />
  <polygon fill="#000000" fill-opacity="1.0" points="357.966,98.02958 357.8111,99.05776 358.3182,99.03651" />
  <polygon fill="#000000" fill-opacity="1.0" points="357.8111,99.05776 357.966,98.02958 357.4338,98.08017" />
  <polygon fill="#000000" fill-opacity="1.0" points="357.966,98.02958 358.3182,99.03651 358.5337,98.01107" />
  <polygon fill="#000000" fill-opacity="1.0" points="357.3754,99.11697 357.8111,99.05776 357.4338,98.08017" />
  <polygon fill="#000000" fill-opacity="1.0" points="358.006,102.2833 358.6382,101.1762 357.7687,101.2735" />
  <polygon fill="#000000" fill-opacity="1.0" points="356.4772,99.53267 356.7177,99.34923 355.6936,98.59374" />
  <polygon fill="#000000" fill-opacity="1.0" points="357.197,102.4036 357.5668,102.3419 356.9702,101.368" />
  <polygon fill="#000000" fill-opacity="1.0" points="358.6202,105.5077 358.1203,104.6561 358.2038,105.5846" />
  <polygon fill="#000000" fill-opacity="1.0" points="359.022,105.4007 358.9098,104.4963 358.5274,104.5957" />
  <polygon fill="#000000" fill-opacity="1.0" points="358.1203,104.6561 358.6202,105.5077 358.5274,104.5957" />
  <polygon fill="#000000" fill-opacity="1.0" points="358.6202,105.5077 359.022,105.4007 358.5274,104.5957" />
  <polygon fill="#000000" fill-opacity="1.0" points="359.2673,104.358 358.9098,104.4963 359.4203,105.2572" />
  <polygon fill="#000000" fill-opacity="1.0" points="359.2673,104.358 359.4203,105.2572 359.8264,105.0707" />
  <polygon fill="#000000" fill-opacity="1.0" points="359.4203,105.2572 358.9098,104.4963 359.022,105.4007" />
  <polygon fill="#000000" fill-opacity="1.0" points="360.2402,104.8412 359.5894,104.1858 359.8264,105.0707" />
  <polygon fill="#000000" fill-opacity="1.0" points="359.8264,105.0707 359.5894,104.1858 359.2673,104.358" />
  <polygon fill="#000000" fill-opacity="1.0" points="359.8653,103.985 359.5894,104.1858 360.2402,104.8412" />
  <polygon fill="#000000" fill-opacity="1.0" points="360.0951,103.7556 360.6618,104.5687 360.2787,103.4976" />
  <polygon fill="#000000" fill-opacity="1.0" points="360.3857,103.2625 362.0862,103.1873 360.4613,102.9777" />
  <polygon fill="#000000" fill-opacity="1.0" points="362.0961,103.5196 360.3857,103.2625 360.2787,103.4976" />
  <polygon fill="#000000" fill-opacity="1.0" points="360.6618,104.5687 360.0951,103.7556 359.8653,103.985" />
  <polygon fill="#000000" fill-opacity="1.0" points="360.6618,104.5687 359.8653,103.985 360.2402,104.8412" />
  <polygon fill="#000000" fill-opacity="1.0" points="358.006,102.2833 358.7905,102.1786 358.6382,101.1762" />
  <polygon fill="#000000" fill-opacity="1.0" points="360.776,105.0512 362.1875,104.5863 360.6618,104.5687" />
  <polygon fill="#000000" fill-opacity="1.0" points="362.1242,104.0652 360.6618,104.5687 362.1425,104.2786" />
  <polygon fill="#000000" fill-opacity="1.0" points="360.6618,104.5687 362.1636,104.4523 362.1425,104.2786" />
  <polygon fill="#000000" fill-opacity="1.0" points="362.3368,105.0335 360.776,105.0512 360.9753,105.4681" />
  <polygon fill="#000000" fill-opacity="1.0" points="360.9753,105.4681 362.582,105.4613 362.3368,105.0335" />
  <polygon fill="#000000" fill-opacity="1.0" points="360.6618,104.5687 362.1875,104.5863 362.1636,104.4523" />
  <polygon fill="#000000" fill-opacity="1.0" points="360.776,105.0512 362.3368,105.0335 362.1875,104.5863" />
  <polygon fill="#000000" fill-opacity="1.0" points="362.075,102.4037 360.5056,102.6432 362.0792,102.8153" />
  <polygon fill="#000000" fill-opacity="1.0" points="362.0792,102.8153 360.5056,102.6432 360.4613,102.9777" />
  <polygon fill="#000000" fill-opacity="1.0" points="360.5156,101.8051 360.5186,102.2589 362.075,102.4037" />
  <polygon fill="#000000" fill-opacity="1.0" points="360.5056,102.6432 362.075,102.4037 360.5186,102.2589" />
  <polygon fill="#000000" fill-opacity="1.0" points="362.0961,103.5196 360.2787,103.4976 362.1087,103.8122" />
  <polygon fill="#000000" fill-opacity="1.0" points="362.0862,103.1873 362.0792,102.8153 360.4613,102.9777" />
  <polygon fill="#000000" fill-opacity="1.0" points="362.0862,103.1873 360.3857,103.2625 362.0961,103.5196" />
  <polygon fill="#000000" fill-opacity="1.0" points="362.1087,103.8122 360.6618,104.5687 362.1242,104.0652" />
  <polygon fill="#000000" fill-opacity="1.0" points="362.1087,103.8122 360.2787,103.4976 360.6618,104.5687" />
  <polygon fill="#000000" fill-opacity="1.0" points="359.3848,101.0707 358.6382,101.1762 359.4703,102.064" />
  <polygon fill="#000000" fill-opacity="1.0" points="358.7905,102.1786 359.4703,102.064 358.6382,101.1762" />
  <polygon fill="#000000" fill-opacity="1.0" points="360.0453,101.9395 359.3848,101.0707 359.4703,102.064" />
  <polygon fill="#000000" fill-opacity="1.0" points="359.3848,101.0707 360.0453,101.9395 360.0085,100.9572" />
  <polygon fill="#000000" fill-opacity="1.0" points="360.2648,99.63038 361.2998,98.61332 360.0729,99.44855" />
  <polygon fill="#000000" fill-opacity="1.0" points="360.5156,101.8051 360.0085,100.9572 360.0453,101.9395" />
  <polygon fill="#000000" fill-opacity="1.0" points="359.0877,98.02249 358.8637,99.06042 359.338,99.13707" />
  <polygon fill="#000000" fill-opacity="1.0" points="358.8637,99.06042 359.0877,98.02249 358.5337,98.01107" />
  <polygon fill="#000000" fill-opacity="1.0" points="359.0877,98.02249 359.338,99.13707 359.5874,98.06165" />
  <polygon fill="#000000" fill-opacity="1.0" points="358.8637,99.06042 358.5337,98.01107 358.3182,99.03651" />
  <polygon fill="#000000" fill-opacity="1.0" points="360.4239,98.22314 360.0328,98.12852 359.7411,99.26644" />
  <polygon fill="#000000" fill-opacity="1.0" points="360.0328,98.12852 359.5874,98.06165 359.338,99.13707" />
  <polygon fill="#000000" fill-opacity="1.0" points="360.0729,99.44855 360.7639,98.33881 359.7411,99.26644" />
  <polygon fill="#000000" fill-opacity="1.0" points="359.7411,99.26644 360.0328,98.12852 359.338,99.13707" />
  <polygon fill="#000000" fill-opacity="1.0" points="361.7888,99.14823 360.2648,99.63038 360.4026,99.86831" />
  <polygon fill="#000000" fill-opacity="1.0" points="362.0642,100.7535 360.5143,100.6276 360.5093,100.8357" />
  <polygon fill="#000000" fill-opacity="1.0" points="362.0642,100.7535 360.5093,100.8357 360.5156,101.8051" />
  <polygon fill="#000000" fill-opacity="1.0" points="360.4862,100.1623 362.0148,99.80222 360.4026,99.86831" />
  <polygon fill="#000000" fill-opacity="1.0" points="362.0569,100.3727 360.5157,100.5125 362.0642,100.7535" />
  <polygon fill="#000000" fill-opacity="1.0" points="360.5143,100.6276 362.0642,100.7535 360.5157,100.5125" />
  <polygon fill="#000000" fill-opacity="1.0" points="362.0569,100.3727 362.0405,100.0557 360.4862,100.1623" />
  <polygon fill="#000000" fill-opacity="1.0" points="360.5157,100.5125 362.0569,100.3727 360.4862,100.1623" />
  <polygon fill="#000000" fill-opacity="1.0" points="362.0642,100.7535 360.5156,101.8051 362.075,102.4037" />
  <polygon fill="#000000" fill-opacity="1.0" points="362.0148,99.80222 360.4862,100.1623 362.0405,100.0557" />
  <polygon fill="#000000" fill-opacity="1.0" points="361.2998,98.61332 361.0558,98.46887 360.0729,99.44855" />
  <polygon fill="#000000" fill-opacity="1.0" points="361.0558,98.46887 360.7639,98.33881 360.0729,99.44855" />
  <polygon fill="#000000" fill-opacity="1.0" points="360.7639,98.33881 360.4239,98.22314 359.7411,99.26644" />
  <polygon fill="#000000" fill-opacity="1.0" points="361.4958,98.77214 360.2648,99.63038 361.7888,99.14823" />
  <polygon fill="#000000" fill-opacity="1.0" points="361.2998,98.61332 360.2648,99.63038 361.4958,98.77214" />
  <polygon fill="#000000" fill-opacity="1.0" points="360.4026,99.86831 361.9799,99.61241 361.7888,99.14823" />
  <polygon fill="#000000" fill-opacity="1.0" points="362.0148,99.80222 361.9799,99.61241 360.4026,99.86831" />
  <polygon fill="#000000" fill-opacity="1.0" points="360.5093,100.8357 360.0085,100.9572 360.5156,101.8051" />
  <text x="373.894948252168" y="84.1351481534762" font-family="Arial" font-size="21.32024">A</text>
  <polygon fill="#000000" fill-opacity="1.0" points="402.483,106.5384 402.4771,105.6239 401.0558,106.5444" />
  <polygon fill="#000000" fill-opacity="1.0" points="402.7181,105.8759 403.5193,105.3081 403.2965,105.1447" />
  <polygon fill="#000000" fill-opacity="1.0" points="402.7181,105.8759 402.9806,106.0941 403.5193,105.3081" />
  <polygon fill="#000000" fill-opacity="1.0" points="401.0558,106.5444 402.4771,105.6239 402.7019,104.3913" />
  <polygon fill="#000000" fill-opacity="1.0" points="402.8986,104.7282 402.7019,104.3913 402.4771,105.6239" />
  <polygon fill="#000000" fill-opacity="1.0" points="402.4771,105.6239 403.0896,104.9514 402.8986,104.7282" />
  <polygon fill="#000000" fill-opacity="1.0" points="402.4771,105.6239 403.2965,105.1447 403.0896,104.9514" />
  <polygon fill="#000000" fill-opacity="1.0" points="403.2965,105.1447 402.4771,105.6239 402.7181,105.8759" />
  <polygon fill="#000000" fill-opacity="1.0" points="403.7579,105.4415 402.9806,106.0941 403.2645,106.2784" />
  <polygon fill="#000000" fill-opacity="1.0" points="402.5602,103.963 401.0558,106.5444 402.7019,104.3913" />
  <polygon fill="#000000" fill-opacity="1.0" points="403.8966,106.5456 404.2825,105.6184 403.5699,106.4289" />
  <polygon fill="#000000" fill-opacity="1.0" points="404.6143,106.6776 404.5686,105.662 404.2447,106.6285" />
  <polygon fill="#000000" fill-opacity="1.0" points="405.0053,106.6928 404.8705,105.6757 404.6143,106.6776" />
  <polygon fill="#000000" fill-opacity="1.0" points="404.2825,105.6184 403.8966,106.5456 404.2447,106.6285" />
  <polygon fill="#000000" fill-opacity="1.0" points="404.5686,105.662 404.6143,106.6776 404.8705,105.6757" />
  <polygon fill="#000000" fill-opacity="1.0" points="403.7579,105.4415 403.5193,105.3081 402.9806,106.0941" />
  <polygon fill="#000000" fill-opacity="1.0" points="403.5699,106.4289 404.2825,105.6184 404.0123,105.5449" />
  <polygon fill="#000000" fill-opacity="1.0" points="404.2447,106.6285 404.5686,105.662 404.2825,105.6184" />
  <polygon fill="#000000" fill-opacity="1.0" points="403.7579,105.4415 403.2645,106.2784 404.0123,105.5449" />
  <polygon fill="#000000" fill-opacity="1.0" points="404.0123,105.5449 403.2645,106.2784 403.5699,106.4289" />
  <polygon fill="#000000" fill-opacity="1.0" points="402.4418,102.8324 402.4836,102.2046 401.0558,106.5444" />
  <polygon fill="#000000" fill-opacity="1.0" points="402.5519,100.054 402.4836,102.2046 402.6179,101.655" />
  <polygon fill="#000000" fill-opacity="1.0" points="402.4418,102.8324 401.0558,106.5444 402.4735,103.4434" />
  <polygon fill="#000000" fill-opacity="1.0" points="401.0558,106.5444 402.4836,102.2046 400.9901,96.46447" />
  <polygon fill="#000000" fill-opacity="1.0" points="402.5519,100.054 400.9901,96.46447 402.4836,102.2046" />
  <polygon fill="#000000" fill-opacity="1.0" points="400.9901,96.46447 402.5519,100.054 402.5285,96.45799" />
  <polygon fill="#000000" fill-opacity="1.0" points="402.5519,100.054 403.5461,100.4807 402.8024,99.82253" />
  <polygon fill="#000000" fill-opacity="1.0" points="402.8445,101.1837 403.1635,100.7906 402.5519,100.054" />
  <polygon fill="#000000" fill-opacity="1.0" points="402.5519,100.054 402.6179,101.655 402.8445,101.1837" />
  <polygon fill="#000000" fill-opacity="1.0" points="402.5602,103.963 402.4735,103.4434 401.0558,106.5444" />
  <polygon fill="#000000" fill-opacity="1.0" points="402.8024,99.82253 403.5461,100.4807 403.0699,99.62167" />
  <polygon fill="#000000" fill-opacity="1.0" points="404.3102,99.12482 404.4155,100.1246 404.9024,100.0785" />
  <polygon fill="#000000" fill-opacity="1.0" points="403.656,99.31194 403.9634,100.2587 404.4155,100.1246" />
  <polygon fill="#000000" fill-opacity="1.0" points="403.0699,99.62167 403.5461,100.4807 403.9634,100.2587" />
  <polygon fill="#000000" fill-opacity="1.0" points="403.3544,99.45148 403.9634,100.2587 403.656,99.31194" />
  <polygon fill="#000000" fill-opacity="1.0" points="403.9634,100.2587 403.3544,99.45148 403.0699,99.62167" />
  <polygon fill="#000000" fill-opacity="1.0" points="404.4155,100.1246 403.9746,99.20305 403.656,99.31194" />
  <polygon fill="#000000" fill-opacity="1.0" points="404.4155,100.1246 404.3102,99.12482 403.9746,99.20305" />
  <polygon fill="#000000" fill-opacity="1.0" points="404.3102,99.12482 404.9024,100.0785 404.6628,99.07724" />
  <polygon fill="#000000" fill-opacity="1.0" points="404.6628,99.07724 404.9024,100.0785 405.0325,99.06032" />
  <polygon fill="#000000" fill-opacity="1.0" points="403.1635,100.7906 403.5461,100.4807 402.5519,100.054" />
  <polygon fill="#000000" fill-opacity="1.0" points="405.3573,105.6296 404.8705,105.6757 405.4018,106.6751" />
  <polygon fill="#000000" fill-opacity="1.0" points="406.1509,106.5439 405.3573,105.6296 405.7836,106.6255" />
  <polygon fill="#000000" fill-opacity="1.0" points="405.3573,105.6296 405.4018,106.6751 405.7836,106.6255" />
  <polygon fill="#000000" fill-opacity="1.0" points="405.8094,105.4956 406.1509,106.5439 406.5035,106.4303" />
  <polygon fill="#000000" fill-opacity="1.0" points="405.8094,105.4956 405.3573,105.6296 406.1509,106.5439" />
  <polygon fill="#000000" fill-opacity="1.0" points="407.4735,105.898 406.6093,104.9636 406.2267,105.2735" />
  <polygon fill="#000000" fill-opacity="1.0" points="405.8094,105.4956 406.8415,106.2848 406.2267,105.2735" />
  <polygon fill="#000000" fill-opacity="1.0" points="406.8415,106.2848 407.1648,106.1074 406.2267,105.2735" />
  <polygon fill="#000000" fill-opacity="1.0" points="405.8094,105.4956 406.5035,106.4303 406.8415,106.2848" />
  <polygon fill="#000000" fill-opacity="1.0" points="406.6093,104.9636 407.4735,105.898 407.7676,105.6566" />
  <polygon fill="#000000" fill-opacity="1.0" points="406.9283,104.5667 406.6093,104.9636 408.0363,105.386" />
  <polygon fill="#000000" fill-opacity="1.0" points="407.7676,105.6566 408.0363,105.386 406.6093,104.9636" />
  <polygon fill="#000000" fill-opacity="1.0" points="406.9283,104.5667 408.0363,105.386 408.2687,105.089" />
  <polygon fill="#000000" fill-opacity="1.0" points="407.1549,104.0837 406.9283,104.5667 408.4649,104.7654" />
  <polygon fill="#000000" fill-opacity="1.0" points="408.2687,105.089 408.4649,104.7654 406.9283,104.5667" />
  <polygon fill="#000000" fill-opacity="1.0" points="408.6249,104.4153 407.1549,104.0837 408.4649,104.7654" />
  <polygon fill="#000000" fill-opacity="1.0" points="407.289,103.5148 407.1549,104.0837 408.7487,104.0388" />
  <polygon fill="#000000" fill-opacity="1.0" points="408.6249,104.4153 408.7487,104.0388 407.1549,104.0837" />
  <polygon fill="#000000" fill-opacity="1.0" points="408.8362,103.6357 407.289,103.5148 408.7487,104.0388" />
  <polygon fill="#000000" fill-opacity="1.0" points="407.1648,106.1074 407.4735,105.898 406.2267,105.2735" />
  <polygon fill="#000000" fill-opacity="1.0" points="405.8481,99.12479 405.3842,100.119 405.8297,100.2448" />
  <polygon fill="#000000" fill-opacity="1.0" points="406.6118,100.752 407.3033,99.64896 406.2389,100.4558" />
  <polygon fill="#000000" fill-opacity="1.0" points="407.3033,99.64896 406.6196,99.32523 406.2389,100.4558" />
  <polygon fill="#000000" fill-opacity="1.0" points="406.6196,99.32523 405.8297,100.2448 406.2389,100.4558" />
  <polygon fill="#000000" fill-opacity="1.0" points="405.0325,99.06032 404.9024,100.0785 405.4458,99.07555" />
  <polygon fill="#000000" fill-opacity="1.0" points="405.4458,99.07555 405.3842,100.119 405.8481,99.12479" />
  <polygon fill="#000000" fill-opacity="1.0" points="405.8481,99.12479 405.8297,100.2448 406.2393,99.20802" />
  <polygon fill="#000000" fill-opacity="1.0" points="405.8297,100.2448 406.6196,99.32523 406.2393,99.20802" />
  <polygon fill="#000000" fill-opacity="1.0" points="407.8553,100.0833 406.6118,100.752 406.9228,101.1379" />
  <polygon fill="#000000" fill-opacity="1.0" points="405.4458,99.07555 404.9024,100.0785 405.3842,100.119" />
  <polygon fill="#000000" fill-opacity="1.0" points="408.9025,102.7502 407.3307,102.8599 408.8875,103.2062" />
  <polygon fill="#000000" fill-opacity="1.0" points="407.289,103.5148 408.8875,103.2062 407.3307,102.8599" />
  <polygon fill="#000000" fill-opacity="1.0" points="407.2822,102.1919 407.3307,102.8599 408.9025,102.7502" />
  <polygon fill="#000000" fill-opacity="1.0" points="408.8875,103.2062 407.289,103.5148 408.8362,103.6357" />
  <polygon fill="#000000" fill-opacity="1.0" points="408.8292,101.9838 407.2822,102.1919 408.9025,102.7502" />
  <polygon fill="#000000" fill-opacity="1.0" points="406.6118,100.752 407.8553,100.0833 407.3033,99.64896" />
  <polygon fill="#000000" fill-opacity="1.0" points="407.8553,100.0833 406.9228,101.1379 408.2893,100.6238" />
  <polygon fill="#000000" fill-opacity="1.0" points="408.2893,100.6238 406.9228,101.1379 407.1463,101.6179" />
  <polygon fill="#000000" fill-opacity="1.0" points="408.2893,100.6238 407.1463,101.6179 408.6194,101.2662" />
  <polygon fill="#000000" fill-opacity="1.0" points="408.8292,101.9838 408.6194,101.2662 407.1463,101.6179" />
  <polygon fill="#000000" fill-opacity="1.0" points="408.8292,101.9838 407.1463,101.6179 407.2822,102.1919" />
  <polygon fill="#000000" fill-opacity="1.0" points="405.4018,106.6751 404.8705,105.6757 405.0053,106.6928" />
  <polygon fill="#000000" fill-opacity="1.0" points="372.2256,154.7903 372.4222,155.1008 373.757,154.5496" />
  <polygon fill="#000000" fill-opacity="1.0" points="372.4222,155.1008 372.6541,155.3846 373.757,154.5496" />
  <polygon fill="#000000" fill-opacity="1.0" points="372.6541,155.3846 372.9212,155.6417 374.0661,154.9321" />
  <polygon fill="#000000" fill-opacity="1.0" points="373.3997,153.4819 371.8469,153.6988 371.9379,154.0893" />
  <polygon fill="#000000" fill-opacity="1.0" points="372.0641,154.4532 373.5349,154.0662 371.9379,154.0893" />
  <polygon fill="#000000" fill-opacity="1.0" points="372.0641,154.4532 372.2256,154.7903 373.5349,154.0662" />
  <polygon fill="#000000" fill-opacity="1.0" points="373.3997,153.4819 371.9379,154.0893 373.5349,154.0662" />
  <polygon fill="#000000" fill-opacity="1.0" points="371.7911,153.2816 371.8469,153.6988 373.3997,153.4819" />
  <polygon fill="#000000" fill-opacity="1.0" points="374.0661,154.9321 372.9212,155.6417 373.2172,155.8701" />
  <polygon fill="#000000" fill-opacity="1.0" points="373.8771,156.2347 374.4451,155.2223 373.5359,156.0677" />
  <polygon fill="#000000" fill-opacity="1.0" points="374.6276,156.4765 374.877,155.4289 374.2411,156.371" />
  <polygon fill="#000000" fill-opacity="1.0" points="374.877,155.4289 373.8771,156.2347 374.2411,156.371" />
  <polygon fill="#000000" fill-opacity="1.0" points="374.6276,156.4765 375.3618,155.5519 374.877,155.4289" />
  <polygon fill="#000000" fill-opacity="1.0" points="373.757,154.5496 373.5349,154.0662 372.2256,154.7903" />
  <polygon fill="#000000" fill-opacity="1.0" points="374.4451,155.2223 374.0661,154.9321 373.2172,155.8701" />
  <polygon fill="#000000" fill-opacity="1.0" points="373.8771,156.2347 374.877,155.4289 374.4451,155.2223" />
  <polygon fill="#000000" fill-opacity="1.0" points="373.757,154.5496 372.6541,155.3846 374.0661,154.9321" />
  <polygon fill="#000000" fill-opacity="1.0" points="373.2172,155.8701 373.5359,156.0677 374.4451,155.2223" />
  <polygon fill="#000000" fill-opacity="1.0" points="373.3514,152.7966 371.7705,152.8377 371.7911,153.2816" />
  <polygon fill="#000000" fill-opacity="1.0" points="373.3924,152.1198 371.8851,151.7284 371.7972,152.2647" />
  <polygon fill="#000000" fill-opacity="1.0" points="371.7705,152.8377 373.3514,152.7966 371.7972,152.2647" />
  <polygon fill="#000000" fill-opacity="1.0" points="373.5248,151.5402 372.0341,151.2289 371.8851,151.7284" />
  <polygon fill="#000000" fill-opacity="1.0" points="373.3514,152.7966 371.7911,153.2816 373.3997,153.4819" />
  <polygon fill="#000000" fill-opacity="1.0" points="373.5248,151.5402 372.2442,150.766 372.0341,151.2289" />
  <polygon fill="#000000" fill-opacity="1.0" points="372.8534,149.9873 372.5168,150.3491 374.064,150.6724" />
  <polygon fill="#000000" fill-opacity="1.0" points="372.2442,150.766 373.7487,151.0577 372.5168,150.3491" />
  <polygon fill="#000000" fill-opacity="1.0" points="374.064,150.6724 373.2539,149.6807 372.8534,149.9873" />
  <polygon fill="#000000" fill-opacity="1.0" points="371.7972,152.2647 373.3514,152.7966 373.3924,152.1198" />
  <polygon fill="#000000" fill-opacity="1.0" points="373.5248,151.5402 373.7487,151.0577 372.2442,150.766" />
  <polygon fill="#000000" fill-opacity="1.0" points="373.2539,149.6807 374.4526,150.3774 373.7184,149.4293" />
  <polygon fill="#000000" fill-opacity="1.0" points="374.064,150.6724 374.4526,150.3774 373.2539,149.6807" />
  <polygon fill="#000000" fill-opacity="1.0" points="373.7487,151.0577 374.064,150.6724 372.5168,150.3491" />
  <polygon fill="#000000" fill-opacity="1.0" points="374.2259,149.2331 373.7184,149.4293 374.4526,150.3774" />
  <polygon fill="#000000" fill-opacity="1.0" points="375.3948,150.0383 375.3077,149.0068 374.7556,149.0923" />
  <polygon fill="#000000" fill-opacity="1.0" points="374.2259,149.2331 374.8962,150.1661 374.7556,149.0923" />
  <polygon fill="#000000" fill-opacity="1.0" points="374.7556,149.0923 374.8962,150.1661 375.3948,150.0383" />
  <polygon fill="#000000" fill-opacity="1.0" points="374.2259,149.2331 374.4526,150.3774 374.8962,150.1661" />
  <polygon fill="#000000" fill-opacity="1.0" points="373.3924,152.1198 373.5248,151.5402 371.8851,151.7284" />
  <polygon fill="#000000" fill-opacity="1.0" points="375.0368,156.5513 375.3618,155.5519 374.6276,156.4765" />
  <polygon fill="#000000" fill-opacity="1.0" points="375.9231,156.6088 375.8994,155.5913 375.4686,156.5955" />
  <polygon fill="#000000" fill-opacity="1.0" points="376.3335,155.5615 375.9231,156.6088 376.6372,156.5614" />
  <polygon fill="#000000" fill-opacity="1.0" points="376.6372,156.5614 377.2926,156.4252 376.7298,155.4761" />
  <polygon fill="#000000" fill-opacity="1.0" points="375.4686,156.5955 375.8994,155.5913 375.3618,155.5519" />
  <polygon fill="#000000" fill-opacity="1.0" points="376.6372,156.5614 376.7298,155.4761 376.3335,155.5615" />
  <polygon fill="#000000" fill-opacity="1.0" points="377.2926,156.4252 377.0884,155.3349 376.7298,155.4761" />
  <polygon fill="#000000" fill-opacity="1.0" points="376.3335,155.5615 375.8994,155.5913 375.9231,156.6088" />
  <polygon fill="#000000" fill-opacity="1.0" points="377.0884,155.3349 377.2926,156.4252 377.8891,156.2003" />
  <polygon fill="#000000" fill-opacity="1.0" points="375.0368,156.5513 375.4686,156.5955 375.3618,155.5519" />
  <polygon fill="#000000" fill-opacity="1.0" points="378.4268,155.8866 377.4092,155.138 377.8891,156.2003" />
  <polygon fill="#000000" fill-opacity="1.0" points="377.0884,155.3349 377.8891,156.2003 377.4092,155.138" />
  <polygon fill="#000000" fill-opacity="1.0" points="378.8866,155.4947 377.6832,154.8833 378.4268,155.8866" />
  <polygon fill="#000000" fill-opacity="1.0" points="377.4092,155.138 378.4268,155.8866 377.6832,154.8833" />
  <polygon fill="#000000" fill-opacity="1.0" points="379.2493,155.0349 377.9012,154.5687 378.8866,155.4947" />
  <polygon fill="#000000" fill-opacity="1.0" points="377.9012,154.5687 377.6832,154.8833 378.8866,155.4947" />
  <polygon fill="#000000" fill-opacity="1.0" points="379.5148,154.5071 378.1694,153.7596 378.0633,154.1941" />
  <polygon fill="#000000" fill-opacity="1.0" points="379.2493,155.0349 378.0633,154.1941 377.9012,154.5687" />
  <polygon fill="#000000" fill-opacity="1.0" points="379.6832,153.9114 378.1694,153.7596 379.5148,154.5071" />
  <polygon fill="#000000" fill-opacity="1.0" points="379.2493,155.0349 379.5148,154.5071 378.0633,154.1941" />
  <polygon fill="#000000" fill-opacity="1.0" points="377.2627,150.3598 377.7991,149.307 376.9762,150.1986" />
  <polygon fill="#000000" fill-opacity="1.0" points="377.7991,149.307 377.2269,149.1214 376.9762,150.1986" />
  <polygon fill="#000000" fill-opacity="1.0" points="377.2269,149.1214 376.6616,150.0839 376.9762,150.1986" />
  <polygon fill="#000000" fill-opacity="1.0" points="376.319,150.0157 375.882,148.9767 375.9484,149.994" />
  <polygon fill="#000000" fill-opacity="1.0" points="375.9484,149.994 375.882,148.9767 375.3077,149.0068" />
  <polygon fill="#000000" fill-opacity="1.0" points="376.319,150.0157 376.6616,150.0839 376.5878,149.0113" />
  <polygon fill="#000000" fill-opacity="1.0" points="377.2269,149.1214 376.5878,149.0113 376.6616,150.0839" />
  <polygon fill="#000000" fill-opacity="1.0" points="375.882,148.9767 376.319,150.0157 376.5878,149.0113" />
  <polygon fill="#000000" fill-opacity="1.0" points="378.3045,149.5681 377.2627,150.3598 377.5149,150.5672" />
  <polygon fill="#000000" fill-opacity="1.0" points="375.3948,150.0383 375.9484,149.994 375.3077,149.0068" />
  <polygon fill="#000000" fill-opacity="1.0" points="377.8966,151.1191 379.0806,150.2928 377.7262,150.8203" />
  <polygon fill="#000000" fill-opacity="1.0" points="379.3426,150.7505 377.8966,151.1191 378.0263,151.4636" />
  <polygon fill="#000000" fill-opacity="1.0" points="378.0263,151.4636 379.5207,151.2717 379.3426,150.7505" />
  <polygon fill="#000000" fill-opacity="1.0" points="377.7991,149.307 377.2627,150.3598 378.3045,149.5681" />
  <polygon fill="#000000" fill-opacity="1.0" points="377.5149,150.5672 378.7345,149.8987 378.3045,149.5681" />
  <polygon fill="#000000" fill-opacity="1.0" points="377.7262,150.8203 379.0806,150.2928 378.7345,149.8987" />
  <polygon fill="#000000" fill-opacity="1.0" points="379.0806,150.2928 377.8966,151.1191 379.3426,150.7505" />
  <polygon fill="#000000" fill-opacity="1.0" points="378.7345,149.8987 377.5149,150.5672 377.7262,150.8203" />
  <text x="414.109424114894" y="155.804511077146" font-family="Arial" font-size="21.32024">B</text>
  <text x="329.698841115905" y="155.804511077146" font-family="Arial" font-size="21.32024">C</text>
  <path d="M215.7427,122.3849 L215.5624,127.7735 L215.7427,188.5752" stroke="#000000" stroke-width="0.96" fill-opacity="0" />
  <path d="M329.8599,194.6948 L296.8709,138.1104" stroke="#000000" stroke-width="0.96" fill-opacity="0" />
  <path d="M435.8506,194.2483 L382.9454,187.8709" stroke="#000000" stroke-width="0.96" fill-opacity="0" />
  <path d="M329.8599,194.6948 L382.9454,187.8709" stroke="#000000" stroke-width="0.96" fill-opacity="0" />
  <path d="M329.5681,96.31548 L349.4843,46.10851" stroke="#000000" stroke-width="0.96" fill-opacity="0" />
  <path d="M329.5681,96.31548 L382.765,127.0691" stroke="#000000" stroke-width="0.96" fill-opacity="0" />
  <path d="M435.5588,95.86899 L382.765,127.0691" stroke="#000000" stroke-width="0.96" fill-opacity="0" />
  <path d="M435.5588,95.86899 L468.3674,137.388" stroke="#000000" stroke-width="0.96" fill-opacity="0" />
  <path d="M296.8709,138.1104 L329.5681,96.31548" stroke="#000000" stroke-width="0.96" fill-opacity="0" />
  <path d="M382.9454,187.8709 L382.765,127.0691" stroke="#000000" stroke-width="0.96" fill-opacity="0" />
  <path d="M382.9454,187.8709 L329.8599,194.6948" stroke="#000000" stroke-width="0.96" fill-opacity="0" />
  <path d="M329.5681,96.31548 L296.8709,138.1104 L329.8599,194.6948" stroke="#000000" stroke-width="0.96" fill-opacity="0" />
  <path d="M329.5681,96.31548 L296.8709,138.1104" stroke="#000000" stroke-width="0.96" fill-opacity="0" />
  <path d="M468.3674,137.388 L435.8506,194.2483" stroke="#000000" stroke-width="0.96" fill-opacity="0" />
  <path d="M382.9454,187.8709 L435.8506,194.2483" stroke="#000000" stroke-width="0.96" fill-opacity="0" />
  <path d="M349.4843,46.10851 L414.9902,45.83256 L435.5588,95.86899" stroke="#000000" stroke-width="0.96" fill-opacity="0" />
  <path d="M468.3674,137.388 L435.8506,194.2483" stroke="#000000" stroke-width="0.96" fill-opacity="0" />
</svg>