<?xml version="1.0" encoding="UTF-8" standalone="no"?>
<!DOCTYPE svg PUBLIC "-//W3C//DTD SVG 1.1//EN" "http://www.w3.org/Graphics/SVG/1.1/DTD/svg11.dtd">
<svg width="480pt" height="288pt" viewBox="0 0 480 288" overflow="visible" version="1.1" xmlns="http://www.w3.org/2000/svg">
  <path d="M410.857,95.11035 C411.0082,89.42039 408.426,82.57521 403.7123,77.8615 C398.9986,73.14777 392.1534,70.56552 386.4634,70.71678" stroke="#000000" stroke-width="0.96" fill-opacity="0" />
  <path d="M362.0699,143.8975 C362.2211,138.2075 359.6389,131.3624 354.9251,126.6486 C350.2114,121.9349 343.3662,119.3527 337.6763,119.5039" stroke="#000000" stroke-width="0.96" fill-opacity="0" />
  <path d="M288.8891,119.5039 C283.1992,119.6552 276.354,117.0729 271.6403,112.3592 C266.9266,107.6455 264.3443,100.8003 264.4956,95.11035 C264.3443,89.42039 266.9266,82.57521 271.6403,77.8615 C276.354,73.14777 283.1992,70.56552 288.8891,70.71678" stroke="#000000" stroke-width="0.96" fill-opacity="0" />
  <path d="M386.4634,217.0782 C392.1534,217.2295 398.9986,214.6472 403.7123,209.9335 C408.426,205.2198 411.0082,198.3746 410.857,192.6846" stroke="#000000" stroke-width="0.96" fill-opacity="0" />
  <path d="M337.6763,168.2911 C343.3662,168.4423 350.2114,165.8601 354.9251,161.1463 C359.6389,156.4326 362.2211,149.5874 362.0699,143.8975" stroke="#000000" stroke-width="0.96" fill-opacity="0" />
  <path d="M93.74059,217.0782 C88.05063,217.2295 81.20545,214.6472 76.49174,209.9335 C71.77802,205.2198 69.19576,198.3746 69.34702,192.6846" stroke="#000000" stroke-width="0.96" fill-opacity="0" />
  <path d="M215.7084,95.11035 C215.8597,89.42039 213.2774,82.57521 208.5637,77.8615 C203.85,73.14777 197.0048,70.56552 191.3149,70.71678 C185.6249,70.56552 178.7797,73.14777 174.066,77.8615 C169.3523,82.57521 166.77,89.42039 166.9213,95.11035" stroke="#000000" stroke-width="0.96" fill-opacity="0" />
  <path d="M118.1342,95.11035 C118.2854,89.42039 115.7032,82.57521 110.9894,77.8615 C106.2757,73.14777 99.43055,70.56552 93.74059,70.71678 C88.05063,70.56552 81.20545,73.14777 76.49174,77.8615 C71.77802,82.57521 69.19576,89.42039 69.34702,95.11035" stroke="#000000" stroke-width="0.96" fill-opacity="0" />
  <path d="M142.5277,168.2911 C136.8378,168.4423 129.9926,165.8601 125.2789,161.1463 C120.5652,156.4326 117.9829,149.5874 118.1342,143.8975" stroke="#000000" stroke-width="0.96" fill-opacity="0" />
  <path d="M142.5277,168.2911 C148.2177,168.4423 155.0629,165.8601 159.7766,161.1463 C164.4903,156.4326 167.0726,149.5874 166.9213,143.8975" stroke="#000000" stroke-width="0.96" fill-opacity="0" />
  <path d="M240.102,168.2911 C234.412,168.4423 227.5669,165.8601 222.8531,161.1463 C218.1394,156.4326 215.5572,149.5874 215.7084,143.8975" stroke="#000000" stroke-width="0.96" fill-opacity="0" />
  <path d="M201.0723,192.6846 C201.5591,197.4859 196.1162,202.9288 191.3149,202.442 C186.5135,202.9288 181.0707,197.4859 181.5574,192.6846 C181.0707,187.8833 186.5135,182.4404 191.3149,182.9272 C196.1162,182.4404 201.5591,187.8833 201.0723,192.6846 z" stroke="Black" stroke-width="0" fill="#000000" fill-opacity="1.0" />
  <polygon fill="#000000" fill-opacity="1.0" points="288.8892,95.11037 300.4175,97.99245 300.4175,92.22829" />
  <polygon fill="#000000" fill-opacity="1.0" points="386.4634,95.11037 383.5814,106.6387 389.3455,106.6387" />
  <path d="M386.4634,95.11035 L300.4174,95.11035" stroke="#000000" stroke-width="0.96" fill-opacity="0" />
  <polygon fill="#000000" fill-opacity="1.0" points="386.4634,192.6847 374.9352,189.8026 374.9352,195.5667" />
  <path d="M386.4634,192.6846 L386.4634,106.6387" stroke="#000000" stroke-width="0.96" fill-opacity="0" />
  <polygon fill="#000000" fill-opacity="1.0" points="288.8892,192.6847 277.3609,189.8026 277.3609,195.5667" />
  <path d="M288.8891,192.6846 L374.9351,192.6846" stroke="#000000" stroke-width="0.96" fill-opacity="0" />
  <polygon fill="#000000" fill-opacity="1.0" points="93.7406,95.11037 90.85853,106.6387 96.62268,106.6387" />
  <path d="M191.3149,192.6846 L277.3608,192.6846" stroke="#000000" stroke-width="0.96" fill-opacity="0" />
  <polygon fill="#000000" fill-opacity="1.0" points="93.7406,192.6847 105.2689,195.5667 105.2689,189.8026" />
  <path d="M93.74059,192.6846 L93.74059,106.6387" stroke="#000000" stroke-width="0.96" fill-opacity="0" />
  <polygon fill="#000000" fill-opacity="1.0" points="191.3149,95.11037 188.4328,106.6387 194.197,106.6387" />
  <path d="M191.3149,192.6846 L105.2689,192.6846" stroke="#000000" stroke-width="0.96" fill-opacity="0" />
  <path d="M191.3149,192.6846 L191.3149,106.6387" stroke="#000000" stroke-width="0.96" fill-opacity="0" />
  <path d="M201.0723,192.6846 C201.5591,187.8833 196.1162,182.4404 191.3149,182.9272 C186.5135,182.4404 181.0707,187.8833 181.5574,192.6846 C181.0707,197.4859 186.5135,202.9288 191.3149,202.442 C196.1162,202.9288 201.5591,197.4859 201.0723,192.6846 z" stroke="#000000" stroke-width="0.96" fill-opacity="0" />
  <path d="M44.95348,241.4718 L435.2506,241.4718 L435.2506,46.32324 L44.95348,46.32324 z" stroke="#000000" stroke-width="0.96" fill-opacity="0" />
  <path d="M410.857,95.11038 L410.857,192.6846" stroke="#000000" stroke-width="0.96" fill-opacity="0" />
  <path d="M240.102,168.2911 L337.6763,168.2911" stroke="#000000" stroke-width="0.96" fill-opacity="0" />
  <path d="M288.8892,119.5039 L337.6763,119.5039" stroke="#000000" stroke-width="0.96" fill-opacity="0" />
  <path d="M288.8892,70.71681 L386.4634,70.71681" stroke="#000000" stroke-width="0.96" fill-opacity="0" />
  <path d="M215.7085,95.11038 L215.7085,143.8975" stroke="#000000" stroke-width="0.96" fill-opacity="0" />
  <path d="M166.9213,95.11038 L166.9213,143.8975" stroke="#000000" stroke-width="0.96" fill-opacity="0" />
  <path d="M118.1342,95.11038 L118.1342,143.8975" stroke="#000000" stroke-width="0.96" fill-opacity="0" />
  <path d="M69.34705,95.11038 L69.34705,192.6846" stroke="#000000" stroke-width="0.96" fill-opacity="0" />
  <path d="M337.6763,95.11038 L337.6763,143.8975" stroke="#000000" stroke-width="0.96" fill-opacity="0" />
  <path d="M337.6763,46.32324 L337.6763,95.11038" stroke="#000000" stroke-width="0.96" fill-opacity="0" />
  <path d="M240.102,95.11038 L240.102,143.8975" stroke="#000000" stroke-width="0.96" fill-opacity="0" />
  <path d="M240.102,46.32324 L240.102,95.11038" stroke="#000000" stroke-width="0.96" fill-opacity="0" />
  <path d="M142.5278,95.11038 L142.5278,143.8975" stroke="#000000" stroke-width="0.96" fill-opacity="0" />
  <path d="M142.5278,46.32324 L142.5278,95.11038" stroke="#000000" stroke-width="0.96" fill-opacity="0" />
  <path d="M337.6763,192.6846 L337.6763,241.4718" stroke="#000000" stroke-width="0.96" fill-opacity="0" />
  <path d="M337.6763,143.8975 L337.6763,192.6846" stroke="#000000" stroke-width="0.96" fill-opacity="0" />
  <path d="M240.102,192.6846 L240.102,241.4718" stroke="#000000" stroke-width="0.96" fill-opacity="0" />
  <path d="M240.102,143.8975 L240.102,192.6846" stroke="#000000" stroke-width="0.96" fill-opacity="0" />
  <path d="M142.5278,192.6846 L142.5278,241.4718" stroke="#000000" stroke-width="0.96" fill-opacity="0" />
  <path d="M142.5278,143.8975 L142.5278,192.6846" stroke="#000000" stroke-width="0.96" fill-opacity="0" />
  <path d="M44.95348,143.8975 L435.2506,143.8975" stroke="#000000" stroke-width="0.96" fill-opacity="0" />
  <path d="M93.74061,217.0782 L386.4634,217.0782" stroke="#000000" stroke-width="0.96" fill-opacity="0" />
</svg>