<?xml version="1.0" encoding="UTF-8" standalone="no"?>
<!DOCTYPE svg PUBLIC "-//W3C//DTD SVG 1.1//EN" "http://www.w3.org/Graphics/SVG/1.1/DTD/svg11.dtd">
<svg width="480pt" height="240pt" viewBox="0 0 480 240" overflow="visible" version="1.1" xmlns="http://www.w3.org/2000/svg">
  <polygon fill="#000000" fill-opacity="1.0" points="298.5468,220.0278 297.4074,209.9343 292.7916,211.6579" />
  <path d="M266.172,47.84395 C265.7164,46.64314 263.773,45.99535 262.6881,46.68265 C261.4873,47.13823 260.8395,49.08161 261.5268,50.16655 C261.9824,51.36736 263.9258,52.01515 265.0107,51.32785 C266.2115,50.87228 266.8593,48.92889 266.172,47.84395 z" stroke="#000000" stroke-width="0.72" fill-opacity="0" />
  <path d="M292.1863,190.6896 C292.1818,197.4277 293.1633,204.2702 295.0995,210.7961" stroke="#000000" stroke-width="0.72" fill-opacity="0" />
  <polygon fill="#000000" fill-opacity="1.0" points="175.9014,143.7293 175.6042,133.5761 170.8612,134.9104" />
  <path d="M124.4876,47.84395 C124.0321,46.64314 122.0887,45.99535 121.0037,46.68265 C119.8029,47.13823 119.1551,49.08161 119.8424,50.16655 C120.298,51.36736 122.2414,52.01515 123.3263,51.32785 C124.5271,50.87228 125.1749,48.92889 124.4876,47.84395 z" stroke="#000000" stroke-width="0.72" fill-opacity="0" />
  <polygon fill="#000000" fill-opacity="1.0" points="309.2921,95.96562 309.5894,106.1189 314.3324,104.7845" />
  <path d="M171.7546,119.8474 C171.7534,124.654 172.2478,129.5032 173.2327,134.2432" stroke="#000000" stroke-width="0.72" fill-opacity="0" />
  <polygon fill="#000000" fill-opacity="1.0" points="285.8258,161.3516 286.9652,171.445 291.581,169.7214" />
  <path d="M313.4389,119.8474 C313.4401,115.0408 312.9457,110.1917 311.9608,105.4517" stroke="#000000" stroke-width="0.72" fill-opacity="0" />
  <polygon fill="#000000" fill-opacity="1.0" points="199.3677,78.34337 198.2283,68.24989 193.6125,69.97352" />
  <path d="M292.1863,190.6896 C292.1908,183.9516 291.2093,177.109 289.2731,170.5832" stroke="#000000" stroke-width="0.72" fill-opacity="0" />
  <path d="M193.0072,49.00525 C193.0027,55.74333 193.9842,62.58588 195.9204,69.11169" stroke="#000000" stroke-width="0.72" fill-opacity="0" />
  <path d="M287.0299,157.8467 C286.5743,156.6459 284.6309,155.9981 283.546,156.6854 C282.3452,157.141 281.6974,159.0844 282.3847,160.1693 C282.8402,161.3701 284.7836,162.0179 285.8686,161.3306 C287.0694,160.8751 287.7172,158.9317 287.0299,157.8467 z" stroke="#000000" stroke-width="0.72" fill-opacity="0" />
  <path d="M301.9879,221.2099 C301.5323,220.0091 299.5889,219.3613 298.504,220.0486 C297.3032,220.5042 296.6554,222.4476 297.3427,223.5325 C297.7982,224.7333 299.7416,225.3811 300.8266,224.6938 C302.0274,224.2383 302.6752,222.2949 301.9879,221.2099 z" stroke="#000000" stroke-width="0.72" fill-opacity="0" />
  <path d="M310.6947,92.37601 C310.2391,91.1752 308.2957,90.5274 307.2108,91.21471 C306.0099,91.67029 305.3622,93.61366 306.0495,94.69861 C306.505,95.89942 308.4484,96.54721 309.5334,95.85991 C310.7342,95.40434 311.382,93.46095 310.6947,92.37601 z" stroke="#000000" stroke-width="0.72" fill-opacity="0" />
  <path d="M179.144,144.9963 C178.6884,143.7955 176.7451,143.1477 175.6601,143.835 C174.4593,144.2905 173.8115,146.2339 174.4988,147.3189 C174.9544,148.5197 176.8978,149.1675 177.9827,148.4802 C179.1835,148.0246 179.8313,146.0812 179.144,144.9963 z" stroke="#000000" stroke-width="0.72" fill-opacity="0" />
  <path d="M202.8088,79.52554 C202.3533,78.32473 200.4099,77.67694 199.3249,78.36424 C198.1241,78.81982 197.4763,80.7632 198.1636,81.84814 C198.6192,83.04895 200.5626,83.69675 201.6475,83.00944 C202.8483,82.55386 203.4961,80.61049 202.8088,79.52554 z" stroke="#000000" stroke-width="0.72" fill-opacity="0" />
  <polygon fill="#000000" fill-opacity="1.0" points="186.6468,19.66717 187.7861,29.76065 192.4019,28.03701" />
  <path d="M187.8508,16.16236 C187.3952,14.96155 185.4518,14.31376 184.3669,15.00106 C183.1661,15.45663 182.5183,17.40002 183.2056,18.48496 C183.6612,19.68577 185.6046,20.33356 186.6895,19.64626 C187.8903,19.19069 188.5381,17.2473 187.8508,16.16236 z" stroke="#000000" stroke-width="0.72" fill-opacity="0" />
  <path d="M193.0072,49.00525 C193.0117,42.26717 192.0302,35.42463 190.094,28.89881" stroke="#000000" stroke-width="0.72" fill-opacity="0" />
  <path d="M365.3511,189.5283 C364.8955,188.3275 362.9521,187.6797 361.8672,188.367 C360.6664,188.8226 360.0186,190.766 360.7059,191.8509 C361.1614,193.0517 363.1048,193.6995 364.1898,193.0122 C365.3906,192.5567 366.0384,190.6133 365.3511,189.5283 z" stroke="#000000" stroke-width="0.72" fill-opacity="0" />
  <path d="M223.6667,189.5283 C223.2111,188.3275 221.2677,187.6797 220.1828,188.367 C218.982,188.8226 218.3342,190.766 219.0215,191.8509 C219.4771,193.0517 221.4204,193.6995 222.5054,193.0122 C223.7062,192.5567 224.354,190.6133 223.6667,189.5283 z" stroke="#000000" stroke-width="0.72" fill-opacity="0" />
  <path d="M244.9193,118.6861 C244.4638,117.4853 242.5204,116.8375 241.4354,117.5248 C240.2346,117.9804 239.5868,119.9238 240.2741,121.0087 C240.7297,122.2095 242.6731,122.8573 243.758,122.17 C244.9589,121.7145 245.6066,119.7711 244.9193,118.6861 z" stroke="#000000" stroke-width="0.72" fill-opacity="0" />
  <text x="122.134059963712" y="80.7121884145275" font-family="Arial" font-size="19.71261">u</text>
  <text x="145.687136778042" y="62.1176540874249" font-family="Arial" font-size="19.71261">v</text>
  <text x="323.128816588903" y="110.190709451302" font-family="Arial" font-size="19.71261">f(u, v)</text>
  <path d="M223.6667,189.5284 L282.3847,160.1694" stroke="#000000" stroke-width="1.44" fill-opacity="0" />
  <path d="M245.0078,118.8831 L305.9611,94.50174" stroke="#000000" stroke-width="1.44" fill-opacity="0" />
  <path d="M301.9879,221.2099 L360.7059,191.851" stroke="#000000" stroke-width="1.44" fill-opacity="0" />
  <path d="M124.4877,47.84398 L183.2056,18.48499" stroke="#000000" stroke-width="1.44" fill-opacity="0" />
  <path d="M202.8089,79.52557 L261.5268,50.16657" stroke="#000000" stroke-width="1.44" fill-opacity="0" />
  <path d="M179.2325,145.1932 L240.1857,120.8119" stroke="#000000" stroke-width="1.44" fill-opacity="0" />
  <path d="M360.4317,190.6897 L223.9409,190.6897" stroke="#000000" stroke-width="0.72" fill-opacity="0" />
  <path d="M265.3386,51.13261 L361.5394,188.5623" stroke="#000000" stroke-width="0.72" fill-opacity="0" />
  <path d="M219.855,188.5623 L123.6542,51.13261" stroke="#000000" stroke-width="0.72" fill-opacity="0" />
  <path d="M245.1935,119.8475 L313.439,119.8475" stroke="#000000" stroke-width="0.72" fill-opacity="0" />
  <path d="M171.7546,119.8475 L240,119.8475" stroke="#000000" stroke-width="0.72" fill-opacity="0" />
  <path d="M124.7618,49.00528 L261.2527,49.00528" stroke="#000000" stroke-width="0.72" fill-opacity="0" />
</svg>