<?xml version="1.0" encoding="UTF-8" standalone="no"?>
<!DOCTYPE svg PUBLIC "-//W3C//DTD SVG 1.1//EN" "http://www.w3.org/Graphics/SVG/1.1/DTD/svg11.dtd">
<svg width="480pt" height="240pt" viewBox="0 0 480 240" overflow="visible" version="1.1" xmlns="http://www.w3.org/2000/svg">
  <path d="M102.2639,106.6495 L121.3053,129.6666" stroke="#000000" stroke-width="0.96" fill-opacity="0" />
  <path d="M149.1283,106.6495 L130.0868,83.63239" stroke="#000000" stroke-width="0.96" fill-opacity="0" />
  <path d="M121.3054,129.6666 L149.1283,106.6495" stroke="#000000" stroke-width="0.96" fill-opacity="0" />
  <path d="M130.0869,83.63242 L102.264,106.6495" stroke="#000000" stroke-width="0.96" fill-opacity="0" />
  <path d="M149.1283,106.6495 L165.4067,128.3304" stroke="#000000" stroke-width="0.96" fill-opacity="0" />
  <path d="M194.283,106.6495 L178.0045,84.96858" stroke="#000000" stroke-width="0.96" fill-opacity="0" />
  <path d="M165.4068,128.3304 L194.283,106.6495" stroke="#000000" stroke-width="0.96" fill-opacity="0" />
  <path d="M178.0045,84.96861 L149.1283,106.6495" stroke="#000000" stroke-width="0.96" fill-opacity="0" />
  <path d="M194.283,106.6495 L208.0766,126.9461" stroke="#000000" stroke-width="0.96" fill-opacity="0" />
  <path d="M237.9421,106.6495 L224.1485,86.35291" stroke="#000000" stroke-width="0.96" fill-opacity="0" />
  <path d="M208.0766,126.9461 L237.9421,106.6495" stroke="#000000" stroke-width="0.96" fill-opacity="0" />
  <path d="M224.1486,86.35293 L194.283,106.6495" stroke="#000000" stroke-width="0.96" fill-opacity="0" />
  <path d="M237.9421,106.6495 L249.5039,125.5167" stroke="#000000" stroke-width="0.96" fill-opacity="0" />
  <path d="M280.2924,106.6495 L268.7306,87.7823" stroke="#000000" stroke-width="0.96" fill-opacity="0" />
  <path d="M249.5039,125.5167 L280.2924,106.6495" stroke="#000000" stroke-width="0.96" fill-opacity="0" />
  <path d="M268.7306,87.78232 L237.9421,106.6495" stroke="#000000" stroke-width="0.96" fill-opacity="0" />
  <path d="M280.2924,106.6495 L289.8559,124.0454" stroke="#000000" stroke-width="0.96" fill-opacity="0" />
  <path d="M321.4989,106.6495 L311.9355,89.25358" stroke="#000000" stroke-width="0.96" fill-opacity="0" />
  <path d="M289.8559,124.0454 L321.499,106.6495" stroke="#000000" stroke-width="0.96" fill-opacity="0" />
  <path d="M311.9355,89.2536 L280.2924,106.6495" stroke="#000000" stroke-width="0.96" fill-opacity="0" />
  <path d="M321.4989,106.6495 L329.2814,122.5355" stroke="#000000" stroke-width="0.96" fill-opacity="0" />
  <path d="M361.7088,106.6495 L353.9263,90.76348" stroke="#000000" stroke-width="0.96" fill-opacity="0" />
  <path d="M329.2814,122.5355 L361.7088,106.6495" stroke="#000000" stroke-width="0.96" fill-opacity="0" />
  <path d="M353.9264,90.7635 L321.499,106.6495" stroke="#000000" stroke-width="0.96" fill-opacity="0" />
  <path d="M361.7088,106.6495 L367.9146,120.9903" stroke="#000000" stroke-width="0.96" fill-opacity="0" />
  <path d="M401.0544,106.6495 L394.8485,92.30865" stroke="#000000" stroke-width="0.96" fill-opacity="0" />
  <path d="M367.9147,120.9904 L401.0544,106.6495" stroke="#000000" stroke-width="0.96" fill-opacity="0" />
  <path d="M394.8486,92.30868 L361.7088,106.6495" stroke="#000000" stroke-width="0.96" fill-opacity="0" />
  <path d="M401.0544,106.6495 L405.8774,119.4133" stroke="#000000" stroke-width="0.96" fill-opacity="0" />
  <path d="M439.6559,106.6495 L434.8329,93.88567" stroke="#000000" stroke-width="0.96" fill-opacity="0" />
  <path d="M405.8774,119.4133 L439.6559,106.6495" stroke="#000000" stroke-width="0.96" fill-opacity="0" />
  <path d="M434.8329,93.8857 L401.0544,106.6495" stroke="#000000" stroke-width="0.96" fill-opacity="0" />
  <path d="M439.6559,106.6495 L443.2815,117.808" stroke="#000000" stroke-width="0.96" fill-opacity="0" />
  <path d="M477.6237,106.6495 L473.9982,95.49102" stroke="#000000" stroke-width="0.96" fill-opacity="0" />
  <path d="M443.2816,117.808 L477.6238,106.6495" stroke="#000000" stroke-width="0.96" fill-opacity="0" />
  <path d="M473.9982,95.49105 L439.6559,106.6495" stroke="#000000" stroke-width="0.96" fill-opacity="0" />
  <path d="M2.376238,106.6495 L27.90955,132.1828" stroke="#000000" stroke-width="0.96" fill-opacity="0" />
  <path d="M53.44288,106.6495 L27.90957,81.11617" stroke="#000000" stroke-width="0.96" fill-opacity="0" />
  <path d="M27.90957,132.1828 L53.4429,106.6495" stroke="#000000" stroke-width="0.96" fill-opacity="0" />
  <path d="M27.90959,81.1162 L2.376261,106.6495" stroke="#000000" stroke-width="0.96" fill-opacity="0" />
  <path d="M53.44288,106.6495 L75.55617,130.9517" stroke="#000000" stroke-width="0.96" fill-opacity="0" />
  <path d="M102.2639,106.6495 L80.15065,82.34731" stroke="#000000" stroke-width="0.96" fill-opacity="0" />
  <path d="M75.55619,130.9517 L102.264,106.6495" stroke="#000000" stroke-width="0.96" fill-opacity="0" />
  <polygon fill="#000000" fill-opacity="1.0" points="384.4846,113.8199 381.8117,124.5112 387.1574,124.5112" />
  <path d="M80.15067,82.34733 L53.4429,106.6495" stroke="#000000" stroke-width="0.96" fill-opacity="0" />
  <path d="M384.4845,124.5112 L384.4845,146.0886" stroke="#000000" stroke-width="0.96" fill-opacity="0" />
  <polygon fill="#000000" fill-opacity="1.0" points="88.91006,118.8006 86.23724,129.4919 91.58289,129.4919" />
  <path d="M250.5644,162.9911 C246.6218,162.8863 241.8787,164.6755 238.6126,167.9417 C235.3464,171.2079 233.5571,175.9509 233.662,179.8936 C233.5571,183.8362 235.3464,188.5792 238.6126,191.8454 C241.8787,195.1116 246.6218,196.9008 250.5644,196.796 C254.507,196.9008 259.2501,195.1116 262.5163,191.8454 C265.7824,188.5792 267.5717,183.8362 267.4669,179.8936 C267.5717,175.9509 265.7824,171.2079 262.5163,167.9417 C259.2501,164.6755 254.507,162.8863 250.5644,162.9911 z" stroke="#000000" stroke-width="0.96" fill-opacity="0" />
  <polygon fill="#000000" fill-opacity="1.0" points="40.67622,119.4162 38.0034,130.1075 43.34904,130.1075" />
  <path d="M88.91005,129.4919 L88.91005,146.0886" stroke="#000000" stroke-width="0.96" fill-opacity="0" />
  <polygon fill="#000000" fill-opacity="1.0" points="345.4951,114.5925 342.8223,125.2838 348.168,125.2838" />
  <path d="M40.67622,130.1075 L40.67622,146.0886" stroke="#000000" stroke-width="0.96" fill-opacity="0" />
  <polygon fill="#000000" fill-opacity="1.0" points="305.6774,115.3475 303.0046,126.0388 308.3503,126.0388" />
  <path d="M345.4951,125.2838 L345.4951,146.0886" stroke="#000000" stroke-width="0.96" fill-opacity="0" />
  <polygon fill="#000000" fill-opacity="1.0" points="264.8982,116.0831 262.2253,126.7744 267.571,126.7744" />
  <path d="M305.6774,126.0388 L305.6774,146.0886" stroke="#000000" stroke-width="0.96" fill-opacity="0" />
  <polygon fill="#000000" fill-opacity="1.0" points="460.4527,112.2288 457.7798,122.9201 463.1255,122.9201" />
  <path d="M264.8982,126.7744 L264.8982,146.0886" stroke="#000000" stroke-width="0.96" fill-opacity="0" />
  <polygon fill="#000000" fill-opacity="1.0" points="223.0093,116.7978 220.3365,127.4891 225.6822,127.4891" />
  <path d="M460.4526,122.92 L460.4526,146.0886" stroke="#000000" stroke-width="0.96" fill-opacity="0" />
  <polygon fill="#000000" fill-opacity="1.0" points="179.8449,117.49 177.1721,128.1813 182.5177,128.1813" />
  <path d="M223.0093,127.4891 L223.0093,146.0886" stroke="#000000" stroke-width="0.96" fill-opacity="0" />
  <polygon fill="#000000" fill-opacity="1.0" points="422.7667,113.0314 420.0939,123.7227 425.4395,123.7227" />
  <path d="M179.8449,128.1813 L179.8449,146.0886" stroke="#000000" stroke-width="0.96" fill-opacity="0" />
  <polygon fill="#000000" fill-opacity="1.0" points="135.2168,118.1581 132.544,128.8494 137.8896,128.8494" />
  <path d="M422.7667,123.7227 L422.7667,146.0886" stroke="#000000" stroke-width="0.96" fill-opacity="0" />
  <path d="M135.2168,128.8493 L135.2168,146.0886" stroke="#000000" stroke-width="0.96" fill-opacity="0" />
  <text x="27.5880469887109" y="48.8381520504286" font-family="Arial" text-anchor="middle" font-size="7.83883">9.06</text>
  <polygon fill="#000000" fill-opacity="1.0" points="2.376238,50.30793 8.010396,51.71647 8.010396,48.89939" />
  <polygon fill="#000000" fill-opacity="1.0" points="53.44289,50.30793 47.80873,48.89939 47.80873,51.71647" />
  <text x="77.5319002886922" y="48.8381520504286" font-family="Arial" text-anchor="middle" font-size="7.83883">8.67</text>
  <polygon fill="#000000" fill-opacity="1.0" points="53.44289,50.30793 59.07705,51.71647 59.07705,48.89939" />
  <polygon fill="#000000" fill-opacity="1.0" points="102.2639,50.30793 96.62978,48.89939 96.62978,51.71647" />
  <text x="125.343966543144" y="48.8381520504286" font-family="Arial" text-anchor="middle" font-size="7.83883">8.32</text>
  <polygon fill="#000000" fill-opacity="1.0" points="102.2639,50.30793 107.8981,51.71647 107.8981,48.89939" />
  <polygon fill="#000000" fill-opacity="1.0" points="149.1283,50.30793 143.4941,48.89939 143.4941,51.71647" />
  <text x="170.848270561083" y="48.8381520504286" font-family="Arial" text-anchor="middle" font-size="7.83883">8.01</text>
  <polygon fill="#000000" fill-opacity="1.0" points="149.1283,50.30793 154.7624,51.71647 154.7624,48.89939" />
  <polygon fill="#000000" fill-opacity="1.0" points="194.283,50.30793 188.6489,48.89939 188.6489,51.71647" />
  <text x="215.791051542272" y="48.8840826906715" font-family="Arial" text-anchor="middle" font-size="7.83883">7.75</text>
  <polygon fill="#000000" fill-opacity="1.0" points="194.283,50.30793 199.9172,51.71647 199.9172,48.89939" />
  <polygon fill="#000000" fill-opacity="1.0" points="237.9421,50.30793 232.308,48.89939 232.308,51.71647" />
  <text x="258.734505923955" y="48.8381520504286" font-family="Arial" text-anchor="middle" font-size="7.83883">7.52</text>
  <polygon fill="#000000" fill-opacity="1.0" points="237.9421,50.30793 243.5763,51.71647 243.5763,48.89939" />
  <polygon fill="#000000" fill-opacity="1.0" points="280.2924,50.30793 274.6583,48.89939 274.6583,51.71647" />
  <text x="300.007700882862" y="48.8381520504286" font-family="Arial" text-anchor="middle" font-size="7.83883">7.31</text>
  <polygon fill="#000000" fill-opacity="1.0" points="280.2924,50.30793 285.9266,51.71647 285.9266,48.89939" />
  <polygon fill="#000000" fill-opacity="1.0" points="321.499,50.30793 315.8648,48.89939 315.8648,51.71647" />
  <text x="341.236462406442" y="48.8993929040857" font-family="Arial" text-anchor="middle" font-size="7.83883">7.14</text>
  <polygon fill="#000000" fill-opacity="1.0" points="321.499,50.30793 327.1331,51.71647 327.1331,48.89939" />
  <polygon fill="#000000" fill-opacity="1.0" points="361.7088,50.30793 356.0747,48.89939 356.0747,51.71647" />
  <text x="381.090736022464" y="48.8381520504286" font-family="Arial" text-anchor="middle" font-size="7.83883">6.98</text>
  <polygon fill="#000000" fill-opacity="1.0" points="361.7088,50.30793 367.343,51.71647 367.343,48.89939" />
  <polygon fill="#000000" fill-opacity="1.0" points="401.0544,50.30793 395.4203,48.89939 395.4203,51.71647" />
  <text x="420.07959967936" y="48.8381520504286" font-family="Arial" text-anchor="middle" font-size="7.83883">6.85</text>
  <polygon fill="#000000" fill-opacity="1.0" points="401.0544,50.30793 406.6886,51.71647 406.6886,48.89939" />
  <polygon fill="#000000" fill-opacity="1.0" points="439.6559,50.30793 434.0218,48.89939 434.0218,51.71647" />
  <text x="458.318366825208" y="48.8381520504286" font-family="Arial" text-anchor="middle" font-size="7.83883">6.74</text>
  <polygon fill="#000000" fill-opacity="1.0" points="439.6559,50.30793 445.2901,51.71647 445.2901,48.89939" />
  <polygon fill="#000000" fill-opacity="1.0" points="477.6238,50.30793 471.9897,48.89939 471.9897,51.71647" />
  <text x="239.342917631485" y="192.776430583292" font-family="Arial" font-size="37.17616">=</text>
  <path d="M178.0045,84.96861 L165.4068,128.3304" stroke="#000000" stroke-width="0.96" fill-opacity="0" />
  <path d="M27.90959,81.1162 L27.90957,132.1828" stroke="#000000" stroke-width="0.96" fill-opacity="0" />
  <path d="M394.8486,92.30868 L367.9147,120.9904" stroke="#000000" stroke-width="0.96" fill-opacity="0" />
  <path d="M224.1486,86.35293 L208.0766,126.9461" stroke="#000000" stroke-width="0.96" fill-opacity="0" />
  <path d="M80.15067,82.34733 L75.55619,130.9517" stroke="#000000" stroke-width="0.96" fill-opacity="0" />
  <path d="M250.5645,146.0886 L250.5645,162.9911" stroke="#000000" stroke-width="0.96" fill-opacity="0" />
  <path d="M434.8329,93.8857 L405.8774,119.4133" stroke="#000000" stroke-width="0.96" fill-opacity="0" />
  <path d="M353.9264,90.7635 L329.2814,122.5355" stroke="#000000" stroke-width="0.96" fill-opacity="0" />
  <path d="M268.7306,87.78232 L249.5039,125.5167" stroke="#000000" stroke-width="0.96" fill-opacity="0" />
  <path d="M130.0869,83.63242 L121.3054,129.6666" stroke="#000000" stroke-width="0.96" fill-opacity="0" />
  <path d="M40.67625,146.0886 L460.4527,146.0886" stroke="#000000" stroke-width="0.96" fill-opacity="0" />
  <path d="M473.9982,95.49105 L443.2816,117.808" stroke="#000000" stroke-width="0.96" fill-opacity="0" />
  <path d="M311.9355,89.2536 L289.8559,124.0454" stroke="#000000" stroke-width="0.96" fill-opacity="0" />
  <path d="M2.376261,106.6495 L477.6238,106.6495" stroke="#000000" stroke-width="0.96" fill-opacity="0" />
  <path d="M2.376261,103.8324 L2.376261,47.49086" stroke="#000000" stroke-width="0.96" fill-opacity="0" />
  <path d="M53.4429,103.8324 L53.4429,47.49086" stroke="#000000" stroke-width="0.96" fill-opacity="0" />
  <path d="M2.376261,50.30794 L53.4429,50.30794" stroke="#000000" stroke-width="0.96" fill-opacity="0" />
  <path d="M53.4429,103.8324 L53.4429,47.49086" stroke="#000000" stroke-width="0.96" fill-opacity="0" />
  <path d="M102.264,103.8324 L102.264,47.49086" stroke="#000000" stroke-width="0.96" fill-opacity="0" />
  <path d="M53.4429,50.30794 L102.264,50.30794" stroke="#000000" stroke-width="0.96" fill-opacity="0" />
  <path d="M102.264,103.8324 L102.264,47.49086" stroke="#000000" stroke-width="0.96" fill-opacity="0" />
  <path d="M149.1283,103.8324 L149.1283,47.49086" stroke="#000000" stroke-width="0.96" fill-opacity="0" />
  <path d="M102.264,50.30794 L149.1283,50.30794" stroke="#000000" stroke-width="0.96" fill-opacity="0" />
  <path d="M149.1283,103.8324 L149.1283,47.49086" stroke="#000000" stroke-width="0.96" fill-opacity="0" />
  <path d="M194.283,103.8324 L194.283,47.49086" stroke="#000000" stroke-width="0.96" fill-opacity="0" />
  <path d="M149.1283,50.30794 L194.283,50.30794" stroke="#000000" stroke-width="0.96" fill-opacity="0" />
  <path d="M194.283,103.8324 L194.283,47.49086" stroke="#000000" stroke-width="0.96" fill-opacity="0" />
  <path d="M237.9421,103.8324 L237.9421,47.49086" stroke="#000000" stroke-width="0.96" fill-opacity="0" />
  <path d="M194.283,50.30794 L237.9421,50.30794" stroke="#000000" stroke-width="0.96" fill-opacity="0" />
  <path d="M237.9421,103.8324 L237.9421,47.49086" stroke="#000000" stroke-width="0.96" fill-opacity="0" />
  <path d="M280.2924,103.8324 L280.2924,47.49086" stroke="#000000" stroke-width="0.96" fill-opacity="0" />
  <path d="M237.9421,50.30794 L280.2924,50.30794" stroke="#000000" stroke-width="0.96" fill-opacity="0" />
  <path d="M280.2924,103.8324 L280.2924,47.49086" stroke="#000000" stroke-width="0.96" fill-opacity="0" />
  <path d="M321.499,103.8324 L321.499,47.49086" stroke="#000000" stroke-width="0.96" fill-opacity="0" />
  <path d="M280.2924,50.30794 L321.499,50.30794" stroke="#000000" stroke-width="0.96" fill-opacity="0" />
  <path d="M321.499,103.8324 L321.499,47.49086" stroke="#000000" stroke-width="0.96" fill-opacity="0" />
  <path d="M361.7088,103.8324 L361.7088,47.49086" stroke="#000000" stroke-width="0.96" fill-opacity="0" />
  <path d="M321.499,50.30794 L361.7088,50.30794" stroke="#000000" stroke-width="0.96" fill-opacity="0" />
  <path d="M361.7088,103.8324 L361.7088,47.49086" stroke="#000000" stroke-width="0.96" fill-opacity="0" />
  <path d="M401.0544,103.8324 L401.0544,47.49086" stroke="#000000" stroke-width="0.96" fill-opacity="0" />
  <path d="M361.7088,50.30794 L401.0544,50.30794" stroke="#000000" stroke-width="0.96" fill-opacity="0" />
  <path d="M401.0544,103.8324 L401.0544,47.49086" stroke="#000000" stroke-width="0.96" fill-opacity="0" />
  <path d="M439.6559,103.8324 L439.6559,47.49086" stroke="#000000" stroke-width="0.96" fill-opacity="0" />
  <path d="M401.0544,50.30794 L439.6559,50.30794" stroke="#000000" stroke-width="0.96" fill-opacity="0" />
  <path d="M439.6559,103.8324 L439.6559,47.49086" stroke="#000000" stroke-width="0.96" fill-opacity="0" />
  <path d="M477.6238,103.8324 L477.6238,47.49086" stroke="#000000" stroke-width="0.96" fill-opacity="0" />
  <path d="M439.6559,50.30794 L477.6238,50.30794" stroke="#000000" stroke-width="0.96" fill-opacity="0" />
</svg>