<?xml version="1.0" encoding="UTF-8" standalone="no"?>
<svg
   xmlns:dc="http://purl.org/dc/elements/1.1/"
   xmlns:cc="http://creativecommons.org/ns#"
   xmlns:rdf="http://www.w3.org/1999/02/22-rdf-syntax-ns#"
   xmlns:svg="http://www.w3.org/2000/svg"
   xmlns="http://www.w3.org/2000/svg"
   xmlns:sodipodi="http://sodipodi.sourceforge.net/DTD/sodipodi-0.dtd"
   xmlns:inkscape="http://www.inkscape.org/namespaces/inkscape"
   width="480pt"
   height="96pt"
   viewBox="0 0 480 96"
   overflow="visible"
   version="1.1"
   id="svg3789"
   sodipodi:docname="big_logo.svg"
   inkscape:version="0.92.4 (5da689c313, 2019-01-14)">
  <metadata
     id="metadata3795">
    <rdf:RDF>
      <cc:Work
         rdf:about="">
        <dc:format>image/svg+xml</dc:format>
        <dc:type
           rdf:resource="http://purl.org/dc/dcmitype/StillImage" />
      </cc:Work>
    </rdf:RDF>
  </metadata>
  <defs
     id="defs3793" />
  <sodipodi:namedview
     pagecolor="#ffffff"
     bordercolor="#666666"
     borderopacity="1"
     objecttolerance="10"
     gridtolerance="10"
     guidetolerance="10"
     inkscape:pageopacity="0"
     inkscape:pageshadow="2"
     inkscape:window-width="1366"
     inkscape:window-height="706"
     id="namedview3791"
     showgrid="false"
     inkscape:zoom="1"
     inkscape:cx="314.10439"
     inkscape:cy="44.505359"
     inkscape:window-x="-8"
     inkscape:window-y="-8"
     inkscape:window-maximized="1"
     inkscape:current-layer="svg3789" />
  <path
     d="M27.66439,58.08992 L27.66439,56.90311 C27.66439,55.21028 27.39759,53.77505 26.86398,52.59744 C26.33037,51.41982 25.62196,50.4216 24.73875,49.60279 C23.85553,48.78398 22.85732,48.09397 21.7441,47.53276 L18.30785,45.98713 L14.87159,44.60711 C13.75837,44.15631 12.76016,43.6227 11.87694,43.00629 C10.99373,42.38988 10.28532,41.64927 9.751712,40.78445 C9.218103,39.91964 8.951299,38.85242 8.951299,37.5828 L8.951299,36.83759 C8.951299,35.95438 9.116901,35.13097 9.448107,34.36735 C9.779312,33.60374 10.23472,32.93673 10.81433,32.36632 C11.39394,31.79591 12.06555,31.34511 12.82916,31.0139 C13.59277,30.6827 14.41618,30.51709 15.2994,30.51709 L17.50743,30.51709 C18.39065,30.51709 19.21406,30.6827 19.97767,31.0139 C20.74128,31.34511 21.40829,31.79591 21.9787,32.36632 C22.54911,32.93673 22.99992,33.60374 23.33112,34.36735 C23.66233,35.13097 23.82793,35.95438 23.82793,36.83759 L23.82793,38.43842 L27.38839,37.85881 L27.38839,36.83759 C27.38839,35.49437 27.13538,34.23395 26.62938,33.05633 C26.12337,31.87871 25.42876,30.8483 24.54554,29.96508 C23.66233,29.08187 22.63191,28.38726 21.45429,27.88125 C20.27668,27.37524 19.01626,27.12224 17.67304,27.12224 L15.1338,27.12224 C13.79058,27.12224 12.52555,27.37524 11.33874,27.88125 C10.15192,28.38726 9.116901,29.08187 8.233688,29.96508 C7.350474,30.8483 6.655863,31.87871 6.149855,33.05633 C5.643847,34.23395 5.390843,35.49437 5.390843,36.83759 L5.390843,37.5828 C5.390843,39.27563 5.657648,40.70165 6.191256,41.86087 C6.724864,43.02009 7.433275,43.9999 8.316489,44.80032 C9.199703,45.60073 10.19792,46.26774 11.31114,46.80135 L14.74739,48.26417 L18.18364,49.58899 C19.29686,50.0306 20.29508,50.56881 21.17829,51.20362 C22.0615,51.83842 22.76991,52.60664 23.30352,53.50825 C23.83713,54.40987 24.10394,55.54148 24.10394,56.90311 L24.10394,58.08992 C24.10394,58.97314 23.92453,59.79655 23.56573,60.56016 C23.20692,61.32378 22.72392,61.99538 22.1167,62.57499 C21.50949,63.1546 20.81029,63.61001 20.01907,63.94122 C19.22786,64.27242 18.39065,64.43803 17.50743,64.43803 L15.02339,64.43803 C14.14018,64.43803 13.29837,64.27242 12.49795,63.94122 C11.69754,63.61001 10.99373,63.1546 10.38652,62.57499 C9.779312,61.99538 9.296305,61.32378 8.937499,60.56016 C8.578693,59.79655 8.39929,58.97314 8.39929,58.08992 L8.39929,55.93709 L4.838835,56.5167 L4.838835,58.08992 C4.838835,59.43314 5.110239,60.69357 5.653048,61.87118 C6.195856,63.0488 6.922668,64.07922 7.833482,64.96243 C8.744296,65.84564 9.802313,66.54025 11.00753,67.04626 C12.21275,67.55227 13.48697,67.80527 14.83019,67.80527 L17.67304,67.80527 C19.01626,67.80527 20.29048,67.55227 21.4957,67.04626 C22.70091,66.54025 23.75893,65.84564 24.66974,64.96243 C25.58056,64.07922 26.30737,63.0488 26.85018,61.87118 C27.39299,60.69357 27.66439,59.43314 27.66439,58.08992 z"
     stroke="#000000"
     stroke-width="0.72"
     fill-opacity="0"
     id="path3755"
     style="fill:#3e3e3e;fill-opacity:1;stroke:none;stroke-opacity:1" />
  <path
     d="M65.50459,48.31937 L75.66154,27.67425 L71.82508,27.67425 L63.68296,44.1241 L55.54083,27.67425 L51.70437,27.67425 L61.94413,48.37457 L61.94413,67.25327 L65.50459,67.25327 z"
     stroke="#000000"
     stroke-width="0.72"
     fill-opacity="0"
     id="path3757"
     style="fill:#3e3e3e;fill-opacity:1;stroke:none;stroke-opacity:1" />
  <path
     d="M121.5059,67.25327 L123.3827,67.25327 L123.3827,27.67425 L119.8222,27.67425 L119.8222,58.20033 L119.4634,56.5167 L102.9584,27.67425 L101.1091,27.67425 L101.1091,67.25327 L104.6696,67.25327 L104.6696,36.72719 L105.0008,38.43842 z"
     stroke="#000000"
     stroke-width="0.72"
     fill-opacity="0"
     id="path3759"
     style="fill:#3e3e3e;fill-opacity:1;stroke:none;stroke-opacity:1" />
  <path
     style="fill:#3e3e3e;fill-opacity:1;stroke:none;stroke-width:0.96000004;stroke-opacity:1"
     d="M 265.04883 36.898438 L 265.04883 89.671875 L 269.79688 89.671875 L 269.79688 67.148438 L 276.31055 67.148438 L 290.625 89.671875 L 296.10938 89.671875 L 281.79297 67.148438 C 283.5839 67.148438 285.2658 66.811399 286.83594 66.136719 C 288.40607 65.462039 289.77943 64.536988 290.95703 63.359375 C 292.13463 62.181762 293.06166 60.801177 293.73633 59.21875 C 294.41099 57.636323 294.74805 55.949163 294.74805 54.158203 L 294.74805 49.888672 C 294.74805 48.097712 294.41099 46.412505 293.73633 44.830078 C 293.06166 43.247651 292.13463 41.86708 290.95703 40.689453 C 289.77943 39.51184 288.40607 38.584836 286.83594 37.910156 C 285.2658 37.235476 283.5839 36.898438 281.79297 36.898438 L 265.04883 36.898438 z M 269.79688 41.425781 L 281.57227 41.425781 C 282.74987 41.425781 283.84905 41.646277 284.86719 42.087891 C 285.88532 42.529491 286.77462 43.137343 287.53516 43.910156 C 288.29569 44.68297 288.89616 45.577556 289.33789 46.595703 C 289.77949 47.613863 290 48.711059 290 49.888672 L 290 54.158203 C 290 55.335816 289.77949 56.433025 289.33789 57.451172 C 288.89616 58.469319 288.29569 59.365859 287.53516 60.138672 C 286.77462 60.911485 285.88532 61.519337 284.86719 61.960938 C 283.84905 62.402551 282.74987 62.623047 281.57227 62.623047 L 269.79688 62.623047 L 269.79688 41.425781 z "
     transform="scale(0.75)"
     id="path3761" />
  <path
     style="fill:#3e3e3e;fill-opacity:1;stroke:none;stroke-width:0.96000004;stroke-opacity:1"
     d="M 343.76562 36.162109 C 341.97469 36.162109 340.28761 36.501101 338.70508 37.175781 C 337.12268 37.850461 335.74401 38.775512 334.56641 39.953125 C 333.38881 41.130752 332.46178 42.504059 331.78711 44.074219 C 331.11231 45.644379 330.77539 47.326228 330.77539 49.117188 L 330.77539 77.453125 C 330.77539 79.244085 331.11231 80.923994 331.78711 82.494141 C 332.46178 84.064301 333.38881 85.439574 334.56641 86.617188 C 335.74401 87.794801 337.12268 88.719851 338.70508 89.394531 C 340.28761 90.069211 341.97469 90.40625 343.76562 90.40625 L 347.51953 90.40625 C 349.31046 90.40625 350.99041 90.069211 352.56055 89.394531 C 354.13068 88.719851 355.50599 87.794801 356.68359 86.617188 C 357.86133 85.439574 358.78627 84.064301 359.46094 82.494141 C 360.1356 80.923994 360.47266 79.244085 360.47266 77.453125 L 360.47266 49.117188 C 360.47266 47.326228 360.1356 45.644379 359.46094 44.074219 C 358.78627 42.504059 357.86133 41.130752 356.68359 39.953125 C 355.50599 38.775512 354.13068 37.850461 352.56055 37.175781 C 350.99041 36.501101 349.31046 36.162109 347.51953 36.162109 L 343.76562 36.162109 z M 343.98633 40.689453 L 347.29883 40.689453 C 348.47643 40.689453 349.57366 40.909962 350.5918 41.351562 C 351.60993 41.793176 352.49923 42.39375 353.25977 43.154297 C 354.0203 43.914844 354.62285 44.804119 355.06445 45.822266 C 355.50605 46.840426 355.72656 47.939574 355.72656 49.117188 L 355.72656 77.453125 C 355.72656 78.630752 355.50605 79.727947 355.06445 80.746094 C 354.62285 81.764254 354.0203 82.66078 353.25977 83.433594 C 352.49923 84.206407 351.60993 84.814246 350.5918 85.255859 C 349.57366 85.697459 348.47643 85.917969 347.29883 85.917969 L 343.98633 85.917969 C 342.80873 85.917969 341.71149 85.697459 340.69336 85.255859 C 339.67509 84.814246 338.77866 84.206407 338.00586 83.433594 C 337.23306 82.66078 336.62715 81.764254 336.18555 80.746094 C 335.74395 79.727947 335.52344 78.630752 335.52344 77.453125 L 335.52344 49.117188 C 335.52344 47.939574 335.74395 46.840426 336.18555 45.822266 C 336.62715 44.804119 337.23306 43.914844 338.00586 43.154297 C 338.77866 42.39375 339.67509 41.793176 340.69336 41.351562 C 341.71149 40.909962 342.80873 40.689453 343.98633 40.689453 z "
     transform="scale(0.75)"
     id="path3765" />
  <path
     d="M302.2059,31.0691 L320.919,31.0691 L320.919,27.67425 L298.6454,27.67425 L298.6454,67.25327 L302.2059,67.25327 L302.2059,49.17498 L317.3585,49.17498 L317.3585,45.78013 L302.2059,45.78013 z"
     stroke="#000000"
     stroke-width="0.72"
     fill-opacity="0"
     id="path3769"
     style="fill:#3e3e3e;fill-opacity:1;stroke:none;stroke-opacity:1" />
  <path
     style="fill:#3e3e3e;fill-opacity:1;stroke:none;stroke-width:0.96000004;stroke-opacity:1"
     d="M 474.03906 36.162109 C 472.24813 36.162109 470.56287 36.501101 468.98047 37.175781 C 467.39794 37.850461 466.01744 38.775512 464.83984 39.953125 C 463.66224 41.130752 462.73521 42.504059 462.06055 44.074219 C 461.38588 45.644379 461.04883 47.326228 461.04883 49.117188 L 461.04883 77.453125 C 461.04883 79.244085 461.38588 80.923994 462.06055 82.494141 C 462.73521 84.064301 463.66224 85.439574 464.83984 86.617188 C 466.01744 87.794801 467.39794 88.719851 468.98047 89.394531 C 470.56287 90.069211 472.24813 90.40625 474.03906 90.40625 L 477.79297 90.40625 C 479.5839 90.40625 481.2658 90.069211 482.83594 89.394531 C 484.40607 88.719851 485.77943 87.794801 486.95703 86.617188 C 488.13463 85.439574 489.05971 84.064301 489.73438 82.494141 C 490.40904 80.923994 490.74805 79.244085 490.74805 77.453125 L 490.74805 49.117188 C 490.74805 47.326228 490.40904 45.644379 489.73438 44.074219 C 489.05971 42.504059 488.13463 41.130752 486.95703 39.953125 C 485.77943 38.775512 484.40607 37.850461 482.83594 37.175781 C 481.2658 36.501101 479.5839 36.162109 477.79297 36.162109 L 474.03906 36.162109 z M 474.25977 40.689453 L 477.57227 40.689453 C 478.74987 40.689453 479.84905 40.909962 480.86719 41.351562 C 481.88532 41.793176 482.77462 42.39375 483.53516 43.154297 C 484.29582 43.914844 484.89629 44.804119 485.33789 45.822266 C 485.77949 46.840426 486 47.939574 486 49.117188 L 486 77.453125 C 486 78.630752 485.77949 79.727947 485.33789 80.746094 C 484.89629 81.764254 484.29582 82.66078 483.53516 83.433594 C 482.77462 84.206407 481.88532 84.814246 480.86719 85.255859 C 479.84905 85.697459 478.74987 85.917969 477.57227 85.917969 L 474.25977 85.917969 C 473.08217 85.917969 471.98493 85.697459 470.9668 85.255859 C 469.94866 84.814246 469.05418 84.206407 468.28125 83.433594 C 467.50858 82.66078 466.90058 81.764254 466.45898 80.746094 C 466.01738 79.727947 465.79688 78.630752 465.79688 77.453125 L 465.79688 49.117188 C 465.79688 47.939574 466.01738 46.840426 466.45898 45.822266 C 466.90058 44.804119 467.50858 43.914844 468.28125 43.154297 C 469.05418 42.39375 469.94866 41.793176 470.9668 41.351562 C 471.98493 40.909962 473.08217 40.689453 474.25977 40.689453 z "
     transform="scale(0.75)"
     id="path3771" />
  <path
     style="fill:#3e3e3e;fill-opacity:1;stroke:none;stroke-width:0.96000004;stroke-opacity:1"
     d="M 527.69531 36.898438 L 527.69531 89.671875 L 532.44336 89.671875 L 532.44336 67.148438 L 538.95703 67.148438 L 553.27148 89.671875 L 558.75391 89.671875 L 544.43945 67.148438 C 546.23039 67.148438 547.91034 66.811399 549.48047 66.136719 C 551.0506 65.462039 552.42578 64.536988 553.60352 63.359375 C 554.78112 62.181762 555.70619 60.801177 556.38086 59.21875 C 557.05553 57.636323 557.39258 55.949163 557.39258 54.158203 L 557.39258 49.888672 C 557.39258 48.097712 557.05553 46.412505 556.38086 44.830078 C 555.70619 43.247651 554.78112 41.86708 553.60352 40.689453 C 552.42578 39.51184 551.0506 38.584836 549.48047 37.910156 C 547.91034 37.235476 546.23039 36.898438 544.43945 36.898438 L 527.69531 36.898438 z M 532.44336 41.425781 L 544.21875 41.425781 C 545.39635 41.425781 546.49359 41.646277 547.51172 42.087891 C 548.52985 42.529491 549.41915 43.137343 550.17969 43.910156 C 550.94022 44.68297 551.54278 45.577556 551.98438 46.595703 C 552.42597 47.613863 552.64648 48.711059 552.64648 49.888672 L 552.64648 54.158203 C 552.64648 55.335816 552.42598 56.433025 551.98438 57.451172 C 551.54278 58.469319 550.94022 59.365859 550.17969 60.138672 C 549.41915 60.911485 548.52985 61.519337 547.51172 61.960938 C 546.49359 62.402551 545.39635 62.623047 544.21875 62.623047 L 532.44336 62.623047 L 532.44336 41.425781 z "
     transform="scale(0.75)"
     id="path3775" />
  <path
     d="M470.0165,67.25327 L473.577,67.25327 L473.577,27.67425 L471.7001,27.67425 L459.7216,60.13235 L459.6111,61.59518 L459.5008,60.13235 L447.4946,27.67425 L445.6453,27.67425 L445.6453,67.25327 L449.2058,67.25327 L449.2058,40.12204 L449.4266,41.80567 L458.7003,67.25327 L460.5772,67.25327 L469.7681,41.80567 L470.0165,40.12204 z"
     stroke="#000000"
     stroke-width="0.72"
     fill-opacity="0"
     id="path3779"
     style="fill:#3e3e3e;fill-opacity:1;stroke:none;stroke-opacity:1" />
  <path
     d="M 160.1039,55.04184 140.632,71.83746 160.1039,48.95878 179.5758,71.83746 Z"
     id="path3783"
     inkscape:connector-curvature="0"
     style="fill-opacity:1;stroke:none;stroke-width:0.72000003;fill:#3e3e3e;stroke-opacity:1"
     sodipodi:nodetypes="ccccc" />
  <path
     d="M 160.1039,39.73546 140.632,22.93985 160.1039,45.81852 179.5758,22.93985 Z"
     id="path3785"
     inkscape:connector-curvature="0"
     style="fill-opacity:1;stroke:none;stroke-width:0.72000003;fill:#3e3e3e;stroke-opacity:1"
     sodipodi:nodetypes="ccccc" />
</svg>
