<?xml version="1.0" encoding="UTF-8" standalone="no"?>
<svg
   xmlns:dc="http://purl.org/dc/elements/1.1/"
   xmlns:cc="http://creativecommons.org/ns#"
   xmlns:rdf="http://www.w3.org/1999/02/22-rdf-syntax-ns#"
   xmlns:svg="http://www.w3.org/2000/svg"
   xmlns="http://www.w3.org/2000/svg"
   xmlns:sodipodi="http://sodipodi.sourceforge.net/DTD/sodipodi-0.dtd"
   xmlns:inkscape="http://www.inkscape.org/namespaces/inkscape"
   width="122.5481mm"
   height="51.860722mm"
   viewBox="0 0 122.5481 51.860722"
   version="1.1"
   id="svg8"
   sodipodi:docname="synxroform_logo_mono.svg"
   inkscape:version="1.0beta2 (368ca91, 2020-02-26)">
  <defs
     id="defs2" />
  <sodipodi:namedview
     id="base"
     pagecolor="#ffffff"
     bordercolor="#666666"
     borderopacity="1.0"
     inkscape:pageopacity="0.0"
     inkscape:pageshadow="2"
     inkscape:zoom="1.0507867"
     inkscape:cx="217.11685"
     inkscape:cy="144.67236"
     inkscape:document-units="mm"
     inkscape:current-layer="layer1"
     inkscape:document-rotation="0"
     showgrid="false"
     inkscape:snap-global="false"
     showguides="true"
     inkscape:guide-bbox="true"
     inkscape:window-width="1366"
     inkscape:window-height="716"
     inkscape:window-x="-8"
     inkscape:window-y="-8"
     inkscape:window-maximized="1" />
  <metadata
     id="metadata5">
    <rdf:RDF>
      <cc:Work
         rdf:about="">
        <dc:format>image/svg+xml</dc:format>
        <dc:type
           rdf:resource="http://purl.org/dc/dcmitype/StillImage" />
        <dc:title></dc:title>
      </cc:Work>
    </rdf:RDF>
  </metadata>
  <g
     inkscape:label="Layer 1"
     inkscape:groupmode="layer"
     id="layer1"
     transform="translate(-75.354242,-41.739688)">
    <path
       style="fill:none;fill-opacity:1;stroke:#000000;stroke-width:0.529167;stroke-linecap:round;stroke-linejoin:round;stroke-miterlimit:4;stroke-dasharray:none;stroke-opacity:1"
       d="m 78.524551,52.444197 c -2.717339,-1.781717 -2.618801,-6.62703 0.233641,-8.577364 3.434549,-2.348346 9.074025,-0.71177 9.074025,3.994402"
       id="path1058"
       inkscape:connector-curvature="0"
       sodipodi:nodetypes="csc" />
    <path
       sodipodi:nodetypes="csc"
       inkscape:connector-curvature="0"
       id="path1060"
       d="m 85.858512,56.097005 c 2.717339,1.781717 2.618801,6.62703 -0.233641,8.577364 -3.434549,2.348346 -9.074025,0.71177 -9.074025,-3.994402"
       style="fill:none;fill-opacity:1;stroke:#000000;stroke-width:0.529167;stroke-linecap:round;stroke-linejoin:round;stroke-miterlimit:4;stroke-dasharray:none;stroke-opacity:1" />
    <path
       style="fill:none;fill-opacity:1;stroke:#000000;stroke-width:0.529167;stroke-linecap:round;stroke-linejoin:round;stroke-miterlimit:4;stroke-dasharray:none;stroke-opacity:1"
       d="m 92.341619,42.896758 5.94675,11.425774 5.813111,-11.49259"
       id="path1062"
       inkscape:connector-curvature="0"
       sodipodi:nodetypes="ccc" />
    <path
       style="fill:none;fill-opacity:1;stroke:#000000;stroke-width:0.529167;stroke-linecap:round;stroke-linejoin:round;stroke-miterlimit:4;stroke-dasharray:none;stroke-opacity:1"
       d="m 98.421999,57.96814 v 7.67587"
       id="path1064"
       inkscape:connector-curvature="0" />
    <path
       style="fill:none;fill-opacity:1;stroke:#000000;stroke-width:0.529167;stroke-linecap:round;stroke-linejoin:round;stroke-miterlimit:4;stroke-dasharray:none;stroke-opacity:1"
       d="m 110.18186,65.748303 -0.0668,-22.784726 5.54249,8.084903"
       id="path1066"
       inkscape:connector-curvature="0"
       sodipodi:nodetypes="ccc" />
    <path
       sodipodi:nodetypes="ccc"
       inkscape:connector-curvature="0"
       id="path1068"
       d="m 121.67449,42.896955 0.0668,22.784727 -5.51956,-8.230411"
       style="fill:none;fill-opacity:1;stroke:#000000;stroke-width:0.529167;stroke-linecap:round;stroke-linejoin:round;stroke-miterlimit:4;stroke-dasharray:none;stroke-opacity:1" />
    <path
       style="fill:none;fill-opacity:1;stroke:#000000;stroke-width:0.529167;stroke-linecap:round;stroke-linejoin:round;stroke-miterlimit:4;stroke-dasharray:none;stroke-opacity:1"
       d="m 126.37929,42.8971 5.13872,8.117969"
       id="path1070"
       inkscape:connector-curvature="0"
       sodipodi:nodetypes="cc" />
    <path
       style="fill:none;fill-opacity:1;stroke:#000000;stroke-width:0.529167;stroke-linecap:round;stroke-linejoin:round;stroke-miterlimit:4;stroke-dasharray:none;stroke-opacity:1"
       d="M 145.39462,65.681487 V 42.829942 h 6.54811 c 7.01774,0 7.13099,10.423511 0.0668,10.423511 h -6.61492"
       id="path1074"
       inkscape:connector-curvature="0"
       sodipodi:nodetypes="ccccc" />
    <path
       style="fill:none;fill-opacity:1;stroke:#000000;stroke-width:0.529167;stroke-linecap:round;stroke-linejoin:round;stroke-miterlimit:4;stroke-dasharray:none;stroke-opacity:1"
       d="m 151.40818,57.462948 5.47904,8.218539"
       id="path1076"
       inkscape:connector-curvature="0"
       sodipodi:nodetypes="cc" />
    <path
       id="path1080"
       style="fill:none;fill-opacity:1;stroke:#000000;stroke-width:0.529167;stroke-linecap:round;stroke-linejoin:round;stroke-miterlimit:4;stroke-dasharray:none;stroke-opacity:1"
       d="m 174.79425,48.743281 c 0,-7.846811 -11.32554,-7.833379 -11.32554,0 v 5.679406 5.679406 c 0,7.833379 11.32554,7.846811 11.32554,0 v -5.679406 z"
       inkscape:connector-curvature="0"
       sodipodi:nodetypes="sscsscs" />
    <path
       sodipodi:nodetypes="sscsscs"
       inkscape:connector-curvature="0"
       d="m 156.61992,75.202964 c 0,-7.846811 -11.32554,-7.833379 -11.32554,0 v 5.679406 5.679406 c 0,7.833379 11.32554,7.846811 11.32554,0 V 80.88237 Z"
       style="fill:none;fill-opacity:1;stroke:#000000;stroke-width:0.529167;stroke-linecap:round;stroke-linejoin:round;stroke-miterlimit:4;stroke-dasharray:none;stroke-opacity:1"
       id="path1083" />
    <path
       style="fill:none;fill-opacity:1;stroke:#000000;stroke-width:0.529167;stroke-linecap:round;stroke-linejoin:round;stroke-miterlimit:4;stroke-dasharray:none;stroke-opacity:1"
       d="m 127.35589,69.490077 v 22.71791"
       id="path1095"
       inkscape:connector-curvature="0"
       sodipodi:nodetypes="cc" />
    <path
       style="fill:none;fill-opacity:1;stroke:#000000;stroke-width:0.529167;stroke-linecap:round;stroke-linejoin:round;stroke-miterlimit:4;stroke-dasharray:none;stroke-opacity:1"
       d="m 127.48953,80.982666 h 9.48806"
       id="path1097"
       inkscape:connector-curvature="0"
       sodipodi:nodetypes="cc" />
    <path
       style="fill:none;fill-opacity:1;stroke:#000000;stroke-width:0.529167;stroke-linecap:round;stroke-linejoin:round;stroke-miterlimit:4;stroke-dasharray:none;stroke-opacity:1"
       d="m 132.27549,69.490075 h 8.48581"
       id="path1099"
       inkscape:connector-curvature="0"
       sodipodi:nodetypes="cc" />
    <path
       style="fill:none;fill-opacity:1;stroke:#000000;stroke-width:0.529167;stroke-linecap:round;stroke-linejoin:round;stroke-miterlimit:4;stroke-dasharray:none;stroke-opacity:1"
       d="m 181.4092,92.542071 0.0668,-22.584274 7.75082,21.515197 7.61718,-21.582015 v 22.651092"
       id="path1101"
       inkscape:connector-curvature="0"
       sodipodi:nodetypes="ccccc" />
    <path
       sodipodi:nodetypes="cc"
       inkscape:connector-curvature="0"
       id="path1180"
       d="m 141.47425,42.8971 -5.13872,8.117969"
       style="fill:none;fill-opacity:1;stroke:#000000;stroke-width:0.529167;stroke-linecap:round;stroke-linejoin:round;stroke-miterlimit:4;stroke-dasharray:none;stroke-opacity:1" />
    <path
       sodipodi:nodetypes="cc"
       inkscape:connector-curvature="0"
       id="path1188"
       d="m 127.40306,65.567152 5.13872,-8.117969"
       style="fill:none;fill-opacity:1;stroke:#000000;stroke-width:0.529167;stroke-linecap:round;stroke-linejoin:round;stroke-miterlimit:4;stroke-dasharray:none;stroke-opacity:1" />
    <path
       style="fill:none;fill-opacity:1;stroke:#000000;stroke-width:0.529167;stroke-linecap:round;stroke-linejoin:round;stroke-miterlimit:4;stroke-dasharray:none;stroke-opacity:1"
       d="m 140.91786,65.567152 -5.13872,-8.117969"
       id="path1190"
       inkscape:connector-curvature="0"
       sodipodi:nodetypes="cc" />
    <path
       sodipodi:nodetypes="ccccc"
       inkscape:connector-curvature="0"
       id="path1192"
       d="M 163.56895,92.542075 V 69.69053 h 6.54811 c 7.01774,0 7.13099,10.423511 0.0668,10.423511 h -6.61492"
       style="fill:none;fill-opacity:1;stroke:#000000;stroke-width:0.529167;stroke-linecap:round;stroke-linejoin:round;stroke-miterlimit:4;stroke-dasharray:none;stroke-opacity:1" />
    <path
       sodipodi:nodetypes="cc"
       inkscape:connector-curvature="0"
       id="path1194"
       d="m 169.58251,84.323536 5.47904,8.218539"
       style="fill:none;fill-opacity:1;stroke:#000000;stroke-width:0.529167;stroke-linecap:round;stroke-linejoin:round;stroke-miterlimit:4;stroke-dasharray:none;stroke-opacity:1" />
    <text
       xml:space="preserve"
       style="font-size:50.8px;line-height:1.25;font-family:sans-serif;letter-spacing:0px;word-spacing:0px;stroke-width:0.264583"
       x="82.776787"
       y="57.074406"
       id="text835"><tspan
         sodipodi:role="line"
         id="tspan833"
         x="82.776787"
         y="57.074406"
         style="stroke-width:0.264583" /></text>
    <text
       xml:space="preserve"
       style="font-style:normal;font-variant:normal;font-weight:normal;font-stretch:normal;font-size:7.7611px;line-height:1.25;font-family:sans-serif;-inkscape-font-specification:sans-serif;text-align:justify;writing-mode:lr-tb;opacity:1;fill:#000000;fill-opacity:1;stroke:none;stroke-width:0.499999;stroke-linecap:round;stroke-linejoin:round;stroke-miterlimit:4;stroke-dasharray:none;stroke-opacity:1"
       x="85.258972"
       y="88.466217"
       id="text981"><tspan
         sodipodi:role="line"
         id="tspan979"
         x="85.258972"
         y="88.466217"
         style="font-style:normal;font-variant:normal;font-weight:normal;font-stretch:normal;font-family:sans-serif;-inkscape-font-specification:sans-serif;fill:#000000;fill-opacity:1;stroke:none;stroke-width:0.5" /></text>
    <g
       style="fill:#000000;fill-opacity:1;stroke:none"
       id="g1248">
      <g
         style="font-style:normal;font-variant:normal;font-weight:normal;font-stretch:normal;font-size:4.93889px;line-height:1.25;font-family:Abel;-inkscape-font-specification:Abel;text-align:justify;writing-mode:lr-tb;opacity:1;fill:#000000;fill-opacity:1;stroke:none;stroke-width:0.5;stroke-linecap:round;stroke-linejoin:round;stroke-miterlimit:4;stroke-dasharray:none;stroke-opacity:1"
         id="flowRoot983"
         transform="translate(3.0735992,3.8754083)"
         aria-label="ARCHITECTURAL GEOMETRY">
        <path
           inkscape:connector-curvature="0"
           id="path1113"
           style="font-style:normal;font-variant:normal;font-weight:normal;font-stretch:normal;font-family:Cairo;-inkscape-font-specification:Cairo;fill:#000000;fill-opacity:1;stroke:none"
           d="m 74.364854,82.112308 h -1.461911 l -0.246945,0.879122 h -0.375355 l 0.938389,-3.417712 h 0.829733 l 0.938389,3.417712 h -0.375355 z m -1.37795,-0.340784 h 1.293989 L 73.76231,79.899685 h -0.256823 z" />
        <path
           inkscape:connector-curvature="0"
           id="path1115"
           style="font-style:normal;font-variant:normal;font-weight:normal;font-stretch:normal;font-family:Cairo;-inkscape-font-specification:Cairo;fill:#000000;fill-opacity:1;stroke:none"
           d="m 75.524027,79.573718 h 1.264356 q 0.548217,0 0.819856,0.256822 0.271639,0.251884 0.271639,0.780345 0,0.795161 -0.627239,0.992717 l 0.656872,1.387828 h -0.419806 l -0.617361,-1.308806 h -0.968022 v 1.308806 h -0.380295 z m 1.269295,1.773062 q 0.696383,0 0.696383,-0.721078 0,-0.716139 -0.701322,-0.716139 h -0.884061 v 1.437217 z" />
        <path
           inkscape:connector-curvature="0"
           id="path1117"
           style="font-style:normal;font-variant:normal;font-weight:normal;font-stretch:normal;font-family:Cairo;-inkscape-font-specification:Cairo;fill:#000000;fill-opacity:1;stroke:none"
           d="m 79.72818,83.040819 q -0.523522,0 -0.805039,-0.192617 -0.281517,-0.197555 -0.385233,-0.572911 -0.103717,-0.375356 -0.103717,-0.992717 0,-0.612422 0.103717,-0.987778 0.103716,-0.380294 0.375355,-0.572911 0.276578,-0.197556 0.790223,-0.197556 0.40005,0 0.923572,0.108656 l -0.01482,0.321028 q -0.498828,-0.0889 -0.859367,-0.0889 -0.385234,0 -0.582789,0.138289 -0.197556,0.138289 -0.271639,0.4445 -0.06915,0.306211 -0.06915,0.889 0,0.503767 0.06421,0.790222 0.06914,0.281517 0.276578,0.429684 0.207433,0.143228 0.627239,0.143228 0.340783,0 0.814917,-0.0889 l 0.01482,0.325966 q -0.508705,0.103717 -0.898877,0.103717 z" />
        <path
           inkscape:connector-curvature="0"
           id="path1119"
           style="font-style:normal;font-variant:normal;font-weight:normal;font-stretch:normal;font-family:Cairo;-inkscape-font-specification:Cairo;fill:#000000;fill-opacity:1;stroke:none"
           d="m 83.748051,79.573718 v 3.417712 h -0.375356 v -1.545873 h -1.738489 v 1.545873 h -0.380295 v -3.417712 h 0.380295 v 1.531056 h 1.738489 v -1.531056 z" />
        <path
           inkscape:connector-curvature="0"
           id="path1121"
           style="font-style:normal;font-variant:normal;font-weight:normal;font-stretch:normal;font-family:Cairo;-inkscape-font-specification:Cairo;fill:#000000;fill-opacity:1;stroke:none"
           d="m 84.59152,79.573718 h 0.380295 V 82.99143 H 84.59152 Z" />
        <path
           inkscape:connector-curvature="0"
           id="path1123"
           style="font-style:normal;font-variant:normal;font-weight:normal;font-stretch:normal;font-family:Cairo;-inkscape-font-specification:Cairo;fill:#000000;fill-opacity:1;stroke:none"
           d="m 86.503334,79.914502 h -1.051983 v -0.340784 h 2.469445 v 0.340784 H 86.87869 v 3.076928 h -0.375356 z" />
        <path
           inkscape:connector-curvature="0"
           id="path1125"
           style="font-style:normal;font-variant:normal;font-weight:normal;font-stretch:normal;font-family:Cairo;-inkscape-font-specification:Cairo;fill:#000000;fill-opacity:1;stroke:none"
           d="m 88.782092,79.909563 v 1.180394 h 1.402645 v 0.330906 h -1.402645 v 1.234723 h 1.698978 v 0.335844 h -2.079273 v -3.417712 h 2.079273 v 0.335845 z" />
        <path
           inkscape:connector-curvature="0"
           id="path1127"
           style="font-style:normal;font-variant:normal;font-weight:normal;font-stretch:normal;font-family:Cairo;-inkscape-font-specification:Cairo;fill:#000000;fill-opacity:1;stroke:none"
           d="m 92.258683,83.040819 q -0.523522,0 -0.805039,-0.192617 -0.281516,-0.197555 -0.385233,-0.572911 -0.103717,-0.375356 -0.103717,-0.992717 0,-0.612422 0.103717,-0.987778 0.103717,-0.380294 0.375356,-0.572911 0.276577,-0.197556 0.790222,-0.197556 0.40005,0 0.923572,0.108656 l -0.01482,0.321028 q -0.498828,-0.0889 -0.859367,-0.0889 -0.385233,0 -0.582789,0.138289 -0.197556,0.138289 -0.271639,0.4445 -0.06915,0.306211 -0.06915,0.889 0,0.503767 0.06421,0.790222 0.06915,0.281517 0.276578,0.429684 0.207433,0.143228 0.627239,0.143228 0.340783,0 0.814917,-0.0889 l 0.01482,0.325966 q -0.508705,0.103717 -0.898877,0.103717 z" />
        <path
           inkscape:connector-curvature="0"
           id="path1129"
           style="font-style:normal;font-variant:normal;font-weight:normal;font-stretch:normal;font-family:Cairo;-inkscape-font-specification:Cairo;fill:#000000;fill-opacity:1;stroke:none"
           d="m 94.4808,79.914502 h -1.051984 v -0.340784 h 2.469445 v 0.340784 H 94.856155 V 82.99143 H 94.4808 Z" />
        <path
           inkscape:connector-curvature="0"
           id="path1131"
           style="font-style:normal;font-variant:normal;font-weight:normal;font-stretch:normal;font-family:Cairo;-inkscape-font-specification:Cairo;fill:#000000;fill-opacity:1;stroke:none"
           d="m 97.544839,83.040819 q -0.602544,0 -0.898878,-0.256822 -0.291394,-0.261762 -0.291394,-0.829734 v -2.380545 h 0.380294 v 2.390423 q 0,0.740833 0.8001,0.740833 0.419806,0 0.627239,-0.1778 0.207434,-0.1778 0.207434,-0.563033 v -2.390423 h 0.375355 v 2.380545 q 0,0.563034 -0.301272,0.824795 -0.296333,0.261761 -0.898878,0.261761 z" />
        <path
           inkscape:connector-curvature="0"
           id="path1133"
           style="font-style:normal;font-variant:normal;font-weight:normal;font-stretch:normal;font-family:Cairo;-inkscape-font-specification:Cairo;fill:#000000;fill-opacity:1;stroke:none"
           d="m 99.562531,79.573718 h 1.264359 q 0.54821,0 0.81985,0.256822 0.27164,0.251884 0.27164,0.780345 0,0.795161 -0.62724,0.992717 l 0.65687,1.387828 h -0.4198 l -0.61736,-1.308806 h -0.968025 v 1.308806 h -0.380294 z m 1.269299,1.773062 q 0.69638,0 0.69638,-0.721078 0,-0.716139 -0.70132,-0.716139 h -0.884065 v 1.437217 z" />
        <path
           inkscape:connector-curvature="0"
           id="path1135"
           style="font-style:normal;font-variant:normal;font-weight:normal;font-stretch:normal;font-family:Cairo;-inkscape-font-specification:Cairo;fill:#000000;fill-opacity:1;stroke:none"
           d="m 104.34546,82.112308 h -1.46191 l -0.24695,0.879122 h -0.37535 l 0.93839,-3.417712 h 0.82973 l 0.93839,3.417712 h -0.37536 z m -1.37795,-0.340784 h 1.29399 l -0.51858,-1.871839 h -0.25683 z" />
        <path
           inkscape:connector-curvature="0"
           id="path1137"
           style="font-style:normal;font-variant:normal;font-weight:normal;font-stretch:normal;font-family:Cairo;-inkscape-font-specification:Cairo;fill:#000000;fill-opacity:1;stroke:none"
           d="m 107.38635,82.650647 v 0.340783 h -1.88172 v -3.417712 h 0.3803 v 3.076929 z" />
        <path
           inkscape:connector-curvature="0"
           id="path1139"
           style="font-style:normal;font-variant:normal;font-weight:normal;font-stretch:normal;font-family:Cairo;-inkscape-font-specification:Cairo;fill:#000000;fill-opacity:1;stroke:none"
           d="m 73.767249,89.576341 q -0.493889,0 -0.785284,-0.187677 -0.286456,-0.187678 -0.414867,-0.567973 -0.123472,-0.385233 -0.123472,-1.002594 0,-0.612423 0.123472,-0.997656 0.128411,-0.385234 0.414867,-0.572911 0.286456,-0.187678 0.775406,-0.187678 0.4445,0 0.953206,0.09878 l 0.167922,0.02963 -0.01482,0.316089 q -0.612422,-0.103717 -1.061861,-0.103717 -0.375356,0 -0.587728,0.143228 -0.207433,0.138289 -0.291395,0.4445 -0.08396,0.301272 -0.08396,0.829734 0,0.528461 0.08396,0.834672 0.08396,0.301272 0.291395,0.4445 0.207433,0.143228 0.582789,0.143228 0.330906,0 0.706261,-0.06915 v -1.051983 h -0.567972 v -0.340784 h 0.943328 v 1.679223 q -0.6223,0.118533 -1.11125,0.118533 z" />
        <path
           inkscape:connector-curvature="0"
           id="path1141"
           style="font-style:normal;font-variant:normal;font-weight:normal;font-stretch:normal;font-family:Cairo;-inkscape-font-specification:Cairo;fill:#000000;fill-opacity:1;stroke:none"
           d="m 76.000784,86.445085 v 1.180395 h 1.402645 v 0.330905 h -1.402645 v 1.234723 h 1.698979 v 0.335845 H 75.62049 v -3.417712 h 2.079273 v 0.335844 z" />
        <path
           inkscape:connector-curvature="0"
           id="path1143"
           style="font-style:normal;font-variant:normal;font-weight:normal;font-stretch:normal;font-family:Cairo;-inkscape-font-specification:Cairo;fill:#000000;fill-opacity:1;stroke:none"
           d="m 79.526766,89.576341 q -0.508706,0 -0.805039,-0.182739 -0.296333,-0.182738 -0.424744,-0.558094 -0.123473,-0.380295 -0.123473,-1.002595 0,-0.617361 0.128411,-1.002594 0.128412,-0.390173 0.424745,-0.577851 0.296333,-0.192616 0.795161,-0.192616 0.498828,0 0.795162,0.192616 0.296333,0.187678 0.424744,0.577851 0.13335,0.385233 0.13335,1.012472 0,0.627239 -0.128411,1.002595 -0.123472,0.375355 -0.419806,0.553155 -0.291394,0.1778 -0.8001,0.1778 z m 0,-0.335844 q 0.375356,0 0.57785,-0.138289 0.207434,-0.138289 0.291395,-0.434622 0.08396,-0.301273 0.08396,-0.824795 0,-0.523522 -0.0889,-0.834672 -0.08396,-0.31115 -0.291395,-0.459317 -0.207433,-0.153106 -0.57785,-0.153106 -0.370417,0 -0.57785,0.148167 -0.207433,0.148167 -0.296333,0.459317 -0.08396,0.31115 -0.08396,0.829733 0,0.518584 0.08396,0.824795 0.08396,0.301272 0.291394,0.4445 0.212372,0.138289 0.587729,0.138289 z" />
        <path
           inkscape:connector-curvature="0"
           id="path1145"
           style="font-style:normal;font-variant:normal;font-weight:normal;font-stretch:normal;font-family:Cairo;-inkscape-font-specification:Cairo;fill:#000000;fill-opacity:1;stroke:none"
           d="m 84.881294,86.109241 v 3.417712 H 84.501 V 86.51423 h -0.06915 l -0.992716,2.88925 h -0.424745 l -0.992717,-2.88925 h -0.06914 v 3.012723 h -0.380295 v -3.417712 h 0.686506 l 0.968022,2.894189 0.968023,-2.894189 z" />
        <path
           inkscape:connector-curvature="0"
           id="path1147"
           style="font-style:normal;font-variant:normal;font-weight:normal;font-stretch:normal;font-family:Cairo;-inkscape-font-specification:Cairo;fill:#000000;fill-opacity:1;stroke:none"
           d="m 86.100428,86.445085 v 1.180395 h 1.402645 v 0.330905 h -1.402645 v 1.234723 h 1.698979 v 0.335845 h -2.079273 v -3.417712 h 2.079273 v 0.335844 z" />
        <path
           inkscape:connector-curvature="0"
           id="path1149"
           style="font-style:normal;font-variant:normal;font-weight:normal;font-stretch:normal;font-family:Cairo;-inkscape-font-specification:Cairo;fill:#000000;fill-opacity:1;stroke:none"
           d="m 89.146412,86.450024 h -1.051984 v -0.340783 h 2.469445 v 0.340783 h -1.042105 v 3.076929 h -0.375356 z" />
        <path
           inkscape:connector-curvature="0"
           id="path1151"
           style="font-style:normal;font-variant:normal;font-weight:normal;font-stretch:normal;font-family:Cairo;-inkscape-font-specification:Cairo;fill:#000000;fill-opacity:1;stroke:none"
           d="m 91.044874,86.109241 h 1.264356 q 0.548217,0 0.819856,0.256822 0.271639,0.251883 0.271639,0.780345 0,0.795161 -0.627239,0.992716 l 0.656872,1.387829 h -0.419805 l -0.617362,-1.308806 h -0.968022 v 1.308806 h -0.380295 z m 1.269295,1.773061 q 0.696384,0 0.696384,-0.721078 0,-0.716139 -0.701323,-0.716139 h -0.884061 v 1.437217 z" />
        <path
           inkscape:connector-curvature="0"
           id="path1153"
           style="font-style:normal;font-variant:normal;font-weight:normal;font-stretch:normal;font-family:Cairo;-inkscape-font-specification:Cairo;fill:#000000;fill-opacity:1;stroke:none"
           d="m 94.698419,88.089736 -1.091495,-1.980495 h 0.429683 l 0.84949,1.6002 0.849489,-1.6002 h 0.429683 l -1.086556,1.980495 v 1.437217 h -0.380294 z" />
      </g>
    </g>
  </g>
</svg>
