<?xml version="1.0" encoding="UTF-8" standalone="no"?>
<svg
   xmlns:dc="http://purl.org/dc/elements/1.1/"
   xmlns:cc="http://creativecommons.org/ns#"
   xmlns:rdf="http://www.w3.org/1999/02/22-rdf-syntax-ns#"
   xmlns:svg="http://www.w3.org/2000/svg"
   xmlns="http://www.w3.org/2000/svg"
   xmlns:xlink="http://www.w3.org/1999/xlink"
   xmlns:sodipodi="http://sodipodi.sourceforge.net/DTD/sodipodi-0.dtd"
   xmlns:inkscape="http://www.inkscape.org/namespaces/inkscape"
   inkscape:version="1.1-dev (5a74422, 2020-03-07)"
   sodipodi:docname="synxroform_logo_mono.svg"
   id="svg8"
   version="1.1"
   viewBox="0 0 211.66667 51.860722"
   height="196.00903"
   width="800">
  <defs
     id="defs2">
    <linearGradient
       inkscape:collect="always"
       id="linearGradient1117">
      <stop
         style="stop-color:#000000;stop-opacity:1"
         offset="0"
         id="stop1113" />
      <stop
         style="stop-color:#000000;stop-opacity:0"
         offset="1"
         id="stop1115" />
    </linearGradient>
    <linearGradient
       id="linearGradient1101"
       inkscape:collect="always">
      <stop
         id="stop1097"
         offset="0"
         style="stop-color:#000000;stop-opacity:1;" />
      <stop
         id="stop1099"
         offset="1"
         style="stop-color:#000000;stop-opacity:0;" />
    </linearGradient>
    <linearGradient
       id="linearGradient1083"
       inkscape:collect="always">
      <stop
         id="stop1079"
         offset="0"
         style="stop-color:#000000;stop-opacity:1;" />
      <stop
         id="stop1081"
         offset="1"
         style="stop-color:#000000;stop-opacity:0" />
    </linearGradient>
    <linearGradient
       id="linearGradient1061"
       inkscape:collect="always">
      <stop
         id="stop1057"
         offset="0"
         style="stop-color:#000000;stop-opacity:1;" />
      <stop
         id="stop1059"
         offset="1"
         style="stop-color:#000000;stop-opacity:0;" />
    </linearGradient>
    <linearGradient
       id="linearGradient1012"
       inkscape:collect="always">
      <stop
         id="stop1008"
         offset="0"
         style="stop-color:#000000;stop-opacity:1;" />
      <stop
         id="stop1010"
         offset="1"
         style="stop-color:#000000;stop-opacity:0;" />
    </linearGradient>
    <linearGradient
       id="linearGradient1000"
       inkscape:collect="always">
      <stop
         id="stop996"
         offset="0"
         style="stop-color:#000000;stop-opacity:1;" />
      <stop
         id="stop998"
         offset="1"
         style="stop-color:#000000;stop-opacity:0;" />
    </linearGradient>
    <linearGradient
       id="linearGradient984"
       inkscape:collect="always">
      <stop
         id="stop980"
         offset="0"
         style="stop-color:#000000;stop-opacity:1" />
      <stop
         id="stop982"
         offset="1"
         style="stop-color:#000000;stop-opacity:0" />
    </linearGradient>
    <linearGradient
       id="linearGradient972"
       inkscape:collect="always">
      <stop
         id="stop968"
         offset="0"
         style="stop-color:#000000;stop-opacity:1;" />
      <stop
         style="stop-color:#000000;stop-opacity:0"
         offset="0.38867304"
         id="stop976" />
      <stop
         id="stop978"
         offset="0.73461437"
         style="stop-color:#000000;stop-opacity:0" />
      <stop
         id="stop970"
         offset="1"
         style="stop-color:#000000;stop-opacity:1" />
    </linearGradient>
    <linearGradient
       id="linearGradient958"
       inkscape:collect="always">
      <stop
         id="stop954"
         offset="0"
         style="stop-color:#000000;stop-opacity:1;" />
      <stop
         id="stop956"
         offset="1"
         style="stop-color:#000000;stop-opacity:0;" />
    </linearGradient>
    <linearGradient
       id="linearGradient950"
       inkscape:collect="always">
      <stop
         id="stop946"
         offset="0"
         style="stop-color:#000000;stop-opacity:1;" />
      <stop
         id="stop948"
         offset="1"
         style="stop-color:#000000;stop-opacity:0;" />
    </linearGradient>
    <linearGradient
       id="linearGradient942"
       inkscape:collect="always">
      <stop
         id="stop938"
         offset="0"
         style="stop-color:#000000;stop-opacity:1;" />
      <stop
         id="stop940"
         offset="1"
         style="stop-color:#000000;stop-opacity:0;" />
    </linearGradient>
    <linearGradient
       id="linearGradient926"
       inkscape:collect="always">
      <stop
         id="stop922"
         offset="0"
         style="stop-color:#000000;stop-opacity:1;" />
      <stop
         style="stop-color:#000000;stop-opacity:0"
         offset="0.31369215"
         id="stop930" />
      <stop
         id="stop934"
         offset="0.65685612"
         style="stop-color:#000000;stop-opacity:0" />
      <stop
         id="stop924"
         offset="1"
         style="stop-color:#000000;stop-opacity:1" />
    </linearGradient>
    <linearGradient
       gradientUnits="userSpaceOnUse"
       y2="55.983391"
       x2="85.589417"
       y1="52.94548"
       x1="79.195854"
       id="linearGradient928"
       xlink:href="#linearGradient926"
       inkscape:collect="always" />
    <linearGradient
       gradientUnits="userSpaceOnUse"
       y2="54.773247"
       x2="98.41951"
       y1="60.47073"
       x1="98.246437"
       id="linearGradient944"
       xlink:href="#linearGradient942"
       inkscape:collect="always" />
    <linearGradient
       gradientUnits="userSpaceOnUse"
       y2="54.355968"
       x2="115.92213"
       y1="54.266945"
       x1="111.00778"
       id="linearGradient952"
       xlink:href="#linearGradient950"
       inkscape:collect="always" />
    <linearGradient
       gradientUnits="userSpaceOnUse"
       y2="54.734406"
       x2="116.57545"
       y1="54.912449"
       x1="121.47659"
       id="linearGradient960"
       xlink:href="#linearGradient958"
       inkscape:collect="always" />
    <linearGradient
       gradientUnits="userSpaceOnUse"
       y2="60.652912"
       x2="134.13216"
       y1="46.552361"
       x1="134.00308"
       id="linearGradient974"
       xlink:href="#linearGradient972"
       inkscape:collect="always" />
    <linearGradient
       gradientUnits="userSpaceOnUse"
       y2="55.088482"
       x2="150.35332"
       y1="61.761063"
       x1="154.54283"
       id="linearGradient986"
       xlink:href="#linearGradient1117"
       inkscape:collect="always" />
    <linearGradient
       gradientUnits="userSpaceOnUse"
       y2="69.668121"
       x2="129.89798"
       y1="69.846169"
       x1="137.17426"
       id="linearGradient1002"
       xlink:href="#linearGradient1000"
       inkscape:collect="always" />
    <linearGradient
       gradientUnits="userSpaceOnUse"
       y2="52.847157"
       x2="146.3708"
       y1="52.847153"
       x1="153.50223"
       id="linearGradient1014"
       xlink:href="#linearGradient1012"
       inkscape:collect="always" />
    <linearGradient
       gradientTransform="translate(18.071698,26.884989)"
       y2="52.847157"
       x2="146.3708"
       y1="52.847153"
       x1="153.50223"
       gradientUnits="userSpaceOnUse"
       id="linearGradient1049"
       xlink:href="#linearGradient1012"
       inkscape:collect="always" />
    <linearGradient
       gradientTransform="translate(18.071698,26.884989)"
       y2="55.088482"
       x2="150.35332"
       y1="61.761063"
       x1="154.54283"
       gradientUnits="userSpaceOnUse"
       id="linearGradient1051"
       xlink:href="#linearGradient984"
       inkscape:collect="always" />
    <linearGradient
       gradientUnits="userSpaceOnUse"
       y2="53.849144"
       x2="174.99588"
       y1="50.324009"
       x1="174.97031"
       id="linearGradient1063"
       xlink:href="#linearGradient1061"
       inkscape:collect="always" />
    <linearGradient
       y2="53.849144"
       x2="174.99588"
       y1="50.324009"
       x1="174.97031"
       gradientUnits="userSpaceOnUse"
       id="linearGradient1077"
       xlink:href="#linearGradient1061"
       inkscape:collect="always" />
    <linearGradient
       gradientUnits="userSpaceOnUse"
       y2="90.296951"
       x2="198.88904"
       y1="85.133606"
       x1="192.89569"
       id="linearGradient1085"
       xlink:href="#linearGradient1083"
       inkscape:collect="always" />
    <linearGradient
       gradientUnits="userSpaceOnUse"
       y2="44.748226"
       x2="92.080872"
       y1="46.350643"
       x1="96.528191"
       id="linearGradient1103"
       xlink:href="#linearGradient1101"
       inkscape:collect="always" />
  </defs>
  <sodipodi:namedview
     units="px"
     inkscape:window-maximized="1"
     inkscape:window-y="-8"
     inkscape:window-x="-8"
     inkscape:window-height="716"
     inkscape:window-width="1366"
     inkscape:guide-bbox="true"
     showguides="true"
     inkscape:snap-global="false"
     showgrid="false"
     inkscape:document-rotation="0"
     inkscape:current-layer="layer1"
     inkscape:document-units="mm"
     inkscape:cy="154.75739"
     inkscape:cx="400.10526"
     inkscape:zoom="0.76690114"
     inkscape:pageshadow="2"
     inkscape:pageopacity="0"
     borderopacity="1.0"
     bordercolor="#666666"
     pagecolor="#ffffff"
     id="base">
    <sodipodi:guide
       id="guide1144"
       orientation="0,-1"
       position="132.82623,-15.7599" />
  </sodipodi:namedview>
  <metadata
     id="metadata5">
    <rdf:RDF>
      <cc:Work
         rdf:about="">
        <dc:format>image/svg+xml</dc:format>
        <dc:type
           rdf:resource="http://purl.org/dc/dcmitype/StillImage" />
        <dc:title></dc:title>
      </cc:Work>
    </rdf:RDF>
  </metadata>
  <g
     transform="translate(-75.354242,-41.739688)"
     id="layer1"
     inkscape:groupmode="layer"
     inkscape:label="Layer 1">
    <path
       sodipodi:nodetypes="csc"
       inkscape:connector-curvature="0"
       id="path1058"
       d="m 78.524551,52.444197 c -2.717339,-1.781717 -2.618801,-6.62703 0.233641,-8.577364 3.434549,-2.348346 9.074025,-0.71177 9.074025,3.994402"
       style="fill:none;fill-opacity:1;stroke:#000000;stroke-width:0.529167;stroke-linecap:round;stroke-linejoin:round;stroke-miterlimit:4;stroke-dasharray:none;stroke-opacity:1" />
    <path
       style="fill:none;fill-opacity:1;stroke:#000000;stroke-width:0.529167;stroke-linecap:round;stroke-linejoin:round;stroke-miterlimit:4;stroke-dasharray:none;stroke-opacity:1"
       d="m 85.858512,56.097005 c 2.717339,1.781717 2.618801,6.62703 -0.233641,8.577364 -3.434549,2.348346 -9.074025,0.71177 -9.074025,-3.994402"
       id="path1060"
       inkscape:connector-curvature="0"
       sodipodi:nodetypes="csc" />
    <path
       sodipodi:nodetypes="ccc"
       inkscape:connector-curvature="0"
       id="path1062"
       d="m 92.341619,42.896758 5.94675,11.425774 5.813111,-11.49259"
       style="fill:none;fill-opacity:1;stroke:url(#linearGradient1103);stroke-width:0.529167;stroke-linecap:round;stroke-linejoin:round;stroke-miterlimit:4;stroke-dasharray:none;stroke-opacity:1" />
    <path
       sodipodi:nodetypes="cc"
       inkscape:connector-curvature="0"
       id="path1064"
       d="m 98.288465,54.229168 -0.04451,11.681911"
       style="fill:none;fill-opacity:1;stroke:url(#linearGradient944);stroke-width:0.529167;stroke-linecap:round;stroke-linejoin:round;stroke-miterlimit:4;stroke-dasharray:none;stroke-opacity:1" />
    <path
       sodipodi:nodetypes="ccc"
       inkscape:connector-curvature="0"
       id="path1066"
       d="m 110.18186,65.748303 -0.0668,-22.784726 5.54249,8.084903"
       style="fill:none;fill-opacity:1;stroke:url(#linearGradient952);stroke-width:0.529167;stroke-linecap:round;stroke-linejoin:round;stroke-miterlimit:4;stroke-dasharray:none;stroke-opacity:1" />
    <path
       style="fill:none;fill-opacity:1;stroke:url(#linearGradient960);stroke-width:0.529167;stroke-linecap:round;stroke-linejoin:round;stroke-miterlimit:4;stroke-dasharray:none;stroke-opacity:1"
       d="m 121.67449,42.896955 0.0668,22.784727 -5.51956,-8.230411"
       id="path1068"
       inkscape:connector-curvature="0"
       sodipodi:nodetypes="ccc" />
    <path
       id="path1006"
       d="m 157.24818,48.412127 c -0.13766,2.476727 -1.87404,4.841326 -5.23865,4.841326 h -6.61492"
       style="fill:none;fill-opacity:1;stroke:url(#linearGradient1014);stroke-width:0.529167;stroke-linecap:round;stroke-linejoin:round;stroke-miterlimit:4;stroke-dasharray:none;stroke-opacity:1"
       inkscape:connector-curvature="0" />
    <path
       id="path1074"
       d="M 145.39462,65.681487 V 42.829942 h 6.54811 c 3.67526,0 5.45681,2.858875 5.30545,5.582185"
       style="fill:none;fill-opacity:1;stroke:#000000;stroke-width:0.529167;stroke-linecap:round;stroke-linejoin:round;stroke-miterlimit:4;stroke-dasharray:none;stroke-opacity:1"
       inkscape:connector-curvature="0" />
    <path
       sodipodi:nodetypes="cc"
       inkscape:connector-curvature="0"
       id="path1076"
       d="m 149.20497,53.811914 7.68225,11.869573"
       style="fill:none;fill-opacity:1;stroke:url(#linearGradient986);stroke-width:0.529167;stroke-linecap:round;stroke-linejoin:round;stroke-miterlimit:4;stroke-dasharray:none;stroke-opacity:1" />
    <g
       id="g1067">
      <path
         inkscape:connector-curvature="0"
         style="fill:none;fill-opacity:1;stroke:url(#linearGradient1063);stroke-width:0.529167;stroke-linecap:round;stroke-linejoin:round;stroke-miterlimit:4;stroke-dasharray:none;stroke-opacity:1"
         d="M 174.79425,54.422687 V 48.743281"
         id="path1055" />
      <path
         inkscape:connector-curvature="0"
         style="fill:none;fill-opacity:1;stroke:#000000;stroke-width:0.529167;stroke-linecap:round;stroke-linejoin:round;stroke-miterlimit:4;stroke-dasharray:none;stroke-opacity:1"
         d="m 174.79425,48.743281 c 0,-7.846811 -11.32554,-7.833379 -11.32554,0 v 5.679406 5.679406 c 0,7.833379 11.32554,7.846811 11.32554,0 v -5.679406"
         id="path1080" />
    </g>
    <path
       sodipodi:nodetypes="cc"
       inkscape:connector-curvature="0"
       id="path1095"
       d="m 127.35589,69.490077 v 22.71791"
       style="fill:none;fill-opacity:1;stroke:#000000;stroke-width:0.529167;stroke-linecap:round;stroke-linejoin:round;stroke-miterlimit:4;stroke-dasharray:none;stroke-opacity:1" />
    <path
       sodipodi:nodetypes="cc"
       inkscape:connector-curvature="0"
       id="path1097"
       d="m 127.48953,80.982666 h 9.48806"
       style="fill:none;fill-opacity:1;stroke:#000000;stroke-width:0.529167;stroke-linecap:round;stroke-linejoin:round;stroke-miterlimit:4;stroke-dasharray:none;stroke-opacity:1" />
    <path
       sodipodi:nodetypes="cc"
       inkscape:connector-curvature="0"
       id="path1099"
       d="m 128.0914,69.490075 h 12.6699"
       style="fill:none;fill-opacity:1;stroke:url(#linearGradient1002);stroke-width:0.529167;stroke-linecap:round;stroke-linejoin:round;stroke-miterlimit:4;stroke-dasharray:none;stroke-opacity:1" />
    <path
       sodipodi:nodetypes="ccccc"
       inkscape:connector-curvature="0"
       id="path1101"
       d="m 181.4092,92.542071 0.0668,-22.584274 7.75082,21.515197 7.61718,-21.582015 v 22.651092"
       style="fill:none;fill-opacity:1;stroke:url(#linearGradient1085);stroke-width:0.529167;stroke-linecap:round;stroke-linejoin:round;stroke-miterlimit:4;stroke-dasharray:none;stroke-opacity:1" />
    <path
       sodipodi:nodetypes="ccc"
       inkscape:connector-curvature="0"
       d="M 127.40306,65.567152 134.21609,54.232126 141.02913,42.8971"
       style="fill:none;fill-opacity:1;stroke:#000000;stroke-width:0.529167;stroke-linecap:round;stroke-linejoin:round;stroke-miterlimit:4;stroke-dasharray:none;stroke-opacity:1"
       id="path1188" />
    <path
       sodipodi:nodetypes="ccc"
       inkscape:connector-curvature="0"
       d="M 140.91786,65.567152 134.00467,54.232126 127.09148,42.8971"
       style="fill:none;fill-opacity:1;stroke:url(#linearGradient974);stroke-width:0.529167;stroke-linecap:round;stroke-linejoin:round;stroke-miterlimit:4;stroke-dasharray:none;stroke-opacity:1"
       id="path1190" />
    <text
       id="text835"
       y="57.074406"
       x="82.776787"
       style="font-size:50.8px;line-height:1.25;font-family:sans-serif;letter-spacing:0px;word-spacing:0px;stroke-width:0.264583"
       xml:space="preserve"><tspan
         style="stroke-width:0.264583"
         y="57.074406"
         x="82.776787"
         id="tspan833"
         sodipodi:role="line" /></text>
    <text
       id="text981"
       y="88.466217"
       x="85.258972"
       style="font-style:normal;font-variant:normal;font-weight:normal;font-stretch:normal;font-size:7.7611px;line-height:1.25;font-family:sans-serif;-inkscape-font-specification:sans-serif;text-align:justify;writing-mode:lr-tb;opacity:1;fill:#000000;fill-opacity:1;stroke:none;stroke-width:0.499999;stroke-linecap:round;stroke-linejoin:round;stroke-miterlimit:4;stroke-dasharray:none;stroke-opacity:1"
       xml:space="preserve"><tspan
         style="font-style:normal;font-variant:normal;font-weight:normal;font-stretch:normal;font-family:sans-serif;-inkscape-font-specification:sans-serif;fill:#000000;fill-opacity:1;stroke:none;stroke-width:0.5"
         y="88.466217"
         x="85.258972"
         id="tspan979"
         sodipodi:role="line" /></text>
    <g
       id="g1248"
       style="fill:#000000;fill-opacity:1;stroke:none">
      <g
         aria-label="ARCHITECTURAL GEOMETRY"
         transform="translate(3.0735992,3.8754083)"
         id="flowRoot983"
         style="font-style:normal;font-variant:normal;font-weight:normal;font-stretch:normal;font-size:4.93889px;line-height:1.25;font-family:Abel;-inkscape-font-specification:Abel;text-align:justify;writing-mode:lr-tb;opacity:1;fill:#000000;fill-opacity:1;stroke:none;stroke-width:0.5;stroke-linecap:round;stroke-linejoin:round;stroke-miterlimit:4;stroke-dasharray:none;stroke-opacity:1">
        <path
           d="m 74.364854,82.112308 h -1.461911 l -0.246945,0.879122 h -0.375355 l 0.938389,-3.417712 h 0.829733 l 0.938389,3.417712 h -0.375355 z m -1.37795,-0.340784 h 1.293989 L 73.76231,79.899685 h -0.256823 z"
           style="font-style:normal;font-variant:normal;font-weight:normal;font-stretch:normal;font-family:Cairo;-inkscape-font-specification:Cairo;fill:#000000;fill-opacity:1;stroke:none"
           id="path1113"
           inkscape:connector-curvature="0" />
        <path
           d="m 75.524027,79.573718 h 1.264356 q 0.548217,0 0.819856,0.256822 0.271639,0.251884 0.271639,0.780345 0,0.795161 -0.627239,0.992717 l 0.656872,1.387828 h -0.419806 l -0.617361,-1.308806 h -0.968022 v 1.308806 h -0.380295 z m 1.269295,1.773062 q 0.696383,0 0.696383,-0.721078 0,-0.716139 -0.701322,-0.716139 h -0.884061 v 1.437217 z"
           style="font-style:normal;font-variant:normal;font-weight:normal;font-stretch:normal;font-family:Cairo;-inkscape-font-specification:Cairo;fill:#000000;fill-opacity:1;stroke:none"
           id="path1115"
           inkscape:connector-curvature="0" />
        <path
           d="m 79.72818,83.040819 q -0.523522,0 -0.805039,-0.192617 -0.281517,-0.197555 -0.385233,-0.572911 -0.103717,-0.375356 -0.103717,-0.992717 0,-0.612422 0.103717,-0.987778 0.103716,-0.380294 0.375355,-0.572911 0.276578,-0.197556 0.790223,-0.197556 0.40005,0 0.923572,0.108656 l -0.01482,0.321028 q -0.498828,-0.0889 -0.859367,-0.0889 -0.385234,0 -0.582789,0.138289 -0.197556,0.138289 -0.271639,0.4445 -0.06915,0.306211 -0.06915,0.889 0,0.503767 0.06421,0.790222 0.06914,0.281517 0.276578,0.429684 0.207433,0.143228 0.627239,0.143228 0.340783,0 0.814917,-0.0889 l 0.01482,0.325966 q -0.508705,0.103717 -0.898877,0.103717 z"
           style="font-style:normal;font-variant:normal;font-weight:normal;font-stretch:normal;font-family:Cairo;-inkscape-font-specification:Cairo;fill:#000000;fill-opacity:1;stroke:none"
           id="path1117"
           inkscape:connector-curvature="0" />
        <path
           d="m 83.748051,79.573718 v 3.417712 h -0.375356 v -1.545873 h -1.738489 v 1.545873 h -0.380295 v -3.417712 h 0.380295 v 1.531056 h 1.738489 v -1.531056 z"
           style="font-style:normal;font-variant:normal;font-weight:normal;font-stretch:normal;font-family:Cairo;-inkscape-font-specification:Cairo;fill:#000000;fill-opacity:1;stroke:none"
           id="path1119"
           inkscape:connector-curvature="0" />
        <path
           d="m 84.59152,79.573718 h 0.380295 V 82.99143 H 84.59152 Z"
           style="font-style:normal;font-variant:normal;font-weight:normal;font-stretch:normal;font-family:Cairo;-inkscape-font-specification:Cairo;fill:#000000;fill-opacity:1;stroke:none"
           id="path1121"
           inkscape:connector-curvature="0" />
        <path
           d="m 86.503334,79.914502 h -1.051983 v -0.340784 h 2.469445 v 0.340784 H 86.87869 v 3.076928 h -0.375356 z"
           style="font-style:normal;font-variant:normal;font-weight:normal;font-stretch:normal;font-family:Cairo;-inkscape-font-specification:Cairo;fill:#000000;fill-opacity:1;stroke:none"
           id="path1123"
           inkscape:connector-curvature="0" />
        <path
           d="m 88.782092,79.909563 v 1.180394 h 1.402645 v 0.330906 h -1.402645 v 1.234723 h 1.698978 v 0.335844 h -2.079273 v -3.417712 h 2.079273 v 0.335845 z"
           style="font-style:normal;font-variant:normal;font-weight:normal;font-stretch:normal;font-family:Cairo;-inkscape-font-specification:Cairo;fill:#000000;fill-opacity:1;stroke:none"
           id="path1125"
           inkscape:connector-curvature="0" />
        <path
           d="m 92.258683,83.040819 q -0.523522,0 -0.805039,-0.192617 -0.281516,-0.197555 -0.385233,-0.572911 -0.103717,-0.375356 -0.103717,-0.992717 0,-0.612422 0.103717,-0.987778 0.103717,-0.380294 0.375356,-0.572911 0.276577,-0.197556 0.790222,-0.197556 0.40005,0 0.923572,0.108656 l -0.01482,0.321028 q -0.498828,-0.0889 -0.859367,-0.0889 -0.385233,0 -0.582789,0.138289 -0.197556,0.138289 -0.271639,0.4445 -0.06915,0.306211 -0.06915,0.889 0,0.503767 0.06421,0.790222 0.06915,0.281517 0.276578,0.429684 0.207433,0.143228 0.627239,0.143228 0.340783,0 0.814917,-0.0889 l 0.01482,0.325966 q -0.508705,0.103717 -0.898877,0.103717 z"
           style="font-style:normal;font-variant:normal;font-weight:normal;font-stretch:normal;font-family:Cairo;-inkscape-font-specification:Cairo;fill:#000000;fill-opacity:1;stroke:none"
           id="path1127"
           inkscape:connector-curvature="0" />
        <path
           d="m 94.4808,79.914502 h -1.051984 v -0.340784 h 2.469445 v 0.340784 H 94.856155 V 82.99143 H 94.4808 Z"
           style="font-style:normal;font-variant:normal;font-weight:normal;font-stretch:normal;font-family:Cairo;-inkscape-font-specification:Cairo;fill:#000000;fill-opacity:1;stroke:none"
           id="path1129"
           inkscape:connector-curvature="0" />
        <path
           d="m 97.544839,83.040819 q -0.602544,0 -0.898878,-0.256822 -0.291394,-0.261762 -0.291394,-0.829734 v -2.380545 h 0.380294 v 2.390423 q 0,0.740833 0.8001,0.740833 0.419806,0 0.627239,-0.1778 0.207434,-0.1778 0.207434,-0.563033 v -2.390423 h 0.375355 v 2.380545 q 0,0.563034 -0.301272,0.824795 -0.296333,0.261761 -0.898878,0.261761 z"
           style="font-style:normal;font-variant:normal;font-weight:normal;font-stretch:normal;font-family:Cairo;-inkscape-font-specification:Cairo;fill:#000000;fill-opacity:1;stroke:none"
           id="path1131"
           inkscape:connector-curvature="0" />
        <path
           d="m 99.562531,79.573718 h 1.264359 q 0.54821,0 0.81985,0.256822 0.27164,0.251884 0.27164,0.780345 0,0.795161 -0.62724,0.992717 l 0.65687,1.387828 h -0.4198 l -0.61736,-1.308806 h -0.968025 v 1.308806 h -0.380294 z m 1.269299,1.773062 q 0.69638,0 0.69638,-0.721078 0,-0.716139 -0.70132,-0.716139 h -0.884065 v 1.437217 z"
           style="font-style:normal;font-variant:normal;font-weight:normal;font-stretch:normal;font-family:Cairo;-inkscape-font-specification:Cairo;fill:#000000;fill-opacity:1;stroke:none"
           id="path1133"
           inkscape:connector-curvature="0" />
        <path
           d="m 104.34546,82.112308 h -1.46191 l -0.24695,0.879122 h -0.37535 l 0.93839,-3.417712 h 0.82973 l 0.93839,3.417712 h -0.37536 z m -1.37795,-0.340784 h 1.29399 l -0.51858,-1.871839 h -0.25683 z"
           style="font-style:normal;font-variant:normal;font-weight:normal;font-stretch:normal;font-family:Cairo;-inkscape-font-specification:Cairo;fill:#000000;fill-opacity:1;stroke:none"
           id="path1135"
           inkscape:connector-curvature="0" />
        <path
           d="m 107.38635,82.650647 v 0.340783 h -1.88172 v -3.417712 h 0.3803 v 3.076929 z"
           style="font-style:normal;font-variant:normal;font-weight:normal;font-stretch:normal;font-family:Cairo;-inkscape-font-specification:Cairo;fill:#000000;fill-opacity:1;stroke:none"
           id="path1137"
           inkscape:connector-curvature="0" />
        <path
           d="m 73.767249,89.576341 q -0.493889,0 -0.785284,-0.187677 -0.286456,-0.187678 -0.414867,-0.567973 -0.123472,-0.385233 -0.123472,-1.002594 0,-0.612423 0.123472,-0.997656 0.128411,-0.385234 0.414867,-0.572911 0.286456,-0.187678 0.775406,-0.187678 0.4445,0 0.953206,0.09878 l 0.167922,0.02963 -0.01482,0.316089 q -0.612422,-0.103717 -1.061861,-0.103717 -0.375356,0 -0.587728,0.143228 -0.207433,0.138289 -0.291395,0.4445 -0.08396,0.301272 -0.08396,0.829734 0,0.528461 0.08396,0.834672 0.08396,0.301272 0.291395,0.4445 0.207433,0.143228 0.582789,0.143228 0.330906,0 0.706261,-0.06915 v -1.051983 h -0.567972 v -0.340784 h 0.943328 v 1.679223 q -0.6223,0.118533 -1.11125,0.118533 z"
           style="font-style:normal;font-variant:normal;font-weight:normal;font-stretch:normal;font-family:Cairo;-inkscape-font-specification:Cairo;fill:#000000;fill-opacity:1;stroke:none"
           id="path1139"
           inkscape:connector-curvature="0" />
        <path
           d="m 76.000784,86.445085 v 1.180395 h 1.402645 v 0.330905 h -1.402645 v 1.234723 h 1.698979 v 0.335845 H 75.62049 v -3.417712 h 2.079273 v 0.335844 z"
           style="font-style:normal;font-variant:normal;font-weight:normal;font-stretch:normal;font-family:Cairo;-inkscape-font-specification:Cairo;fill:#000000;fill-opacity:1;stroke:none"
           id="path1141"
           inkscape:connector-curvature="0" />
        <path
           d="m 79.526766,89.576341 q -0.508706,0 -0.805039,-0.182739 -0.296333,-0.182738 -0.424744,-0.558094 -0.123473,-0.380295 -0.123473,-1.002595 0,-0.617361 0.128411,-1.002594 0.128412,-0.390173 0.424745,-0.577851 0.296333,-0.192616 0.795161,-0.192616 0.498828,0 0.795162,0.192616 0.296333,0.187678 0.424744,0.577851 0.13335,0.385233 0.13335,1.012472 0,0.627239 -0.128411,1.002595 -0.123472,0.375355 -0.419806,0.553155 -0.291394,0.1778 -0.8001,0.1778 z m 0,-0.335844 q 0.375356,0 0.57785,-0.138289 0.207434,-0.138289 0.291395,-0.434622 0.08396,-0.301273 0.08396,-0.824795 0,-0.523522 -0.0889,-0.834672 -0.08396,-0.31115 -0.291395,-0.459317 -0.207433,-0.153106 -0.57785,-0.153106 -0.370417,0 -0.57785,0.148167 -0.207433,0.148167 -0.296333,0.459317 -0.08396,0.31115 -0.08396,0.829733 0,0.518584 0.08396,0.824795 0.08396,0.301272 0.291394,0.4445 0.212372,0.138289 0.587729,0.138289 z"
           style="font-style:normal;font-variant:normal;font-weight:normal;font-stretch:normal;font-family:Cairo;-inkscape-font-specification:Cairo;fill:#000000;fill-opacity:1;stroke:none"
           id="path1143"
           inkscape:connector-curvature="0" />
        <path
           d="m 84.881294,86.109241 v 3.417712 H 84.501 V 86.51423 h -0.06915 l -0.992716,2.88925 h -0.424745 l -0.992717,-2.88925 h -0.06914 v 3.012723 h -0.380295 v -3.417712 h 0.686506 l 0.968022,2.894189 0.968023,-2.894189 z"
           style="font-style:normal;font-variant:normal;font-weight:normal;font-stretch:normal;font-family:Cairo;-inkscape-font-specification:Cairo;fill:#000000;fill-opacity:1;stroke:none"
           id="path1145"
           inkscape:connector-curvature="0" />
        <path
           d="m 86.100428,86.445085 v 1.180395 h 1.402645 v 0.330905 h -1.402645 v 1.234723 h 1.698979 v 0.335845 h -2.079273 v -3.417712 h 2.079273 v 0.335844 z"
           style="font-style:normal;font-variant:normal;font-weight:normal;font-stretch:normal;font-family:Cairo;-inkscape-font-specification:Cairo;fill:#000000;fill-opacity:1;stroke:none"
           id="path1147"
           inkscape:connector-curvature="0" />
        <path
           d="m 89.146412,86.450024 h -1.051984 v -0.340783 h 2.469445 v 0.340783 h -1.042105 v 3.076929 h -0.375356 z"
           style="font-style:normal;font-variant:normal;font-weight:normal;font-stretch:normal;font-family:Cairo;-inkscape-font-specification:Cairo;fill:#000000;fill-opacity:1;stroke:none"
           id="path1149"
           inkscape:connector-curvature="0" />
        <path
           d="m 91.044874,86.109241 h 1.264356 q 0.548217,0 0.819856,0.256822 0.271639,0.251883 0.271639,0.780345 0,0.795161 -0.627239,0.992716 l 0.656872,1.387829 h -0.419805 l -0.617362,-1.308806 h -0.968022 v 1.308806 h -0.380295 z m 1.269295,1.773061 q 0.696384,0 0.696384,-0.721078 0,-0.716139 -0.701323,-0.716139 h -0.884061 v 1.437217 z"
           style="font-style:normal;font-variant:normal;font-weight:normal;font-stretch:normal;font-family:Cairo;-inkscape-font-specification:Cairo;fill:#000000;fill-opacity:1;stroke:none"
           id="path1151"
           inkscape:connector-curvature="0" />
        <path
           d="m 94.698419,88.089736 -1.091495,-1.980495 h 0.429683 l 0.84949,1.6002 0.849489,-1.6002 h 0.429683 l -1.086556,1.980495 v 1.437217 h -0.380294 z"
           style="font-style:normal;font-variant:normal;font-weight:normal;font-stretch:normal;font-family:Cairo;-inkscape-font-specification:Cairo;fill:#000000;fill-opacity:1;stroke:none"
           id="path1153"
           inkscape:connector-curvature="0" />
      </g>
    </g>
    <path
       sodipodi:nodetypes="cc"
       inkscape:connector-curvature="0"
       id="path920"
       d="m 78.503436,52.433593 c 2.528396,1.64417 3.387015,1.227577 7.299897,3.627693"
       style="fill:none;fill-opacity:1;stroke:url(#linearGradient928);stroke-width:0.529167;stroke-linecap:round;stroke-linejoin:round;stroke-miterlimit:4;stroke-dasharray:none;stroke-opacity:1" />
    <path
       style="fill:none;fill-opacity:1;stroke:url(#linearGradient1049);stroke-width:0.529167;stroke-linecap:round;stroke-linejoin:round;stroke-miterlimit:4;stroke-dasharray:none;stroke-opacity:1"
       d="m 175.31988,75.297116 c -0.13766,2.476727 -1.87404,4.841326 -5.23865,4.841326 h -6.61492"
       id="path1037"
       inkscape:connector-curvature="0" />
    <path
       style="fill:none;fill-opacity:1;stroke:#000000;stroke-width:0.529167;stroke-linecap:round;stroke-linejoin:round;stroke-miterlimit:4;stroke-dasharray:none;stroke-opacity:1"
       d="M 163.46632,92.566476 V 69.714931 h 6.54811 c 3.67526,0 5.45681,2.858875 5.30545,5.582185"
       id="path1039"
       inkscape:connector-curvature="0" />
    <path
       style="fill:none;fill-opacity:1;stroke:url(#linearGradient1051);stroke-width:0.529167;stroke-linecap:round;stroke-linejoin:round;stroke-miterlimit:4;stroke-dasharray:none;stroke-opacity:1"
       d="m 167.27667,80.696903 7.68225,11.869573"
       id="path1041"
       inkscape:connector-curvature="0"
       sodipodi:nodetypes="cc" />
    <g
       transform="translate(-18.003376,26.69032)"
       id="g1075">
      <path
         inkscape:connector-curvature="0"
         id="path1071"
         d="M 174.79425,54.422687 V 48.743281"
         style="fill:none;fill-opacity:1;stroke:url(#linearGradient1077);stroke-width:0.529167;stroke-linecap:round;stroke-linejoin:round;stroke-miterlimit:4;stroke-dasharray:none;stroke-opacity:1" />
      <path
         inkscape:connector-curvature="0"
         id="path1073"
         d="m 174.79425,48.743281 c 0,-7.846811 -11.32554,-7.833379 -11.32554,0 v 5.679406 5.679406 c 0,7.833379 11.32554,7.846811 11.32554,0 v -5.679406"
         style="fill:none;fill-opacity:1;stroke:#000000;stroke-width:0.529167;stroke-linecap:round;stroke-linejoin:round;stroke-miterlimit:4;stroke-dasharray:none;stroke-opacity:1" />
    </g>
    <path
       sodipodi:nodetypes="cc"
       inkscape:connector-curvature="0"
       id="path1120"
       d="M 232.33068,92.110152 255.10089,43.464704"
       style="fill:none;fill-opacity:0;stroke:#16adb9;stroke-width:0.529167;stroke-linecap:round;stroke-linejoin:round;stroke-miterlimit:4;stroke-dasharray:none;stroke-opacity:1" />
    <path
       style="fill:none;fill-opacity:0;stroke:#16adb9;stroke-width:0.529167;stroke-linecap:round;stroke-linejoin:round;stroke-miterlimit:4;stroke-dasharray:none;stroke-opacity:1"
       d="M 242.68078,92.110152 265.45099,43.464704"
       id="path1142"
       inkscape:connector-curvature="0"
       sodipodi:nodetypes="cc" />
  </g>
</svg>
