<?xml version="1.0" encoding="UTF-8" standalone="no"?>
<!DOCTYPE svg PUBLIC "-//W3C//DTD SVG 1.1//EN" "http://www.w3.org/Graphics/SVG/1.1/DTD/svg11.dtd">
<svg width="792pt" height="612pt" viewBox="0 0 792 612" overflow="visible" version="1.1" xmlns="http://www.w3.org/2000/svg">
  <path d="M401.2235,336.7845 C401.0715,340.3658 396.4925,343.789 393.0146,342.9214 C389.4334,342.7695 386.0101,338.1904 386.8777,334.7126 C387.0297,331.1313 391.6087,327.7081 395.0866,328.5757 C398.6678,328.7276 402.0911,333.3067 401.2235,336.7845 z" stroke="#000000" stroke-width="0.96" fill-opacity="0" />
  <path d="M352.3627,302.7957 C350.6295,301.8908 350.0002,298.8365 351.2344,297.3202 C352.1393,295.587 355.1936,294.9576 356.7099,296.1918 C358.4431,297.0967 359.0725,300.151 357.8382,301.6673 C356.9334,303.4005 353.8791,304.0299 352.3627,302.7957 z" stroke="#000000" stroke-width="0.96" fill-opacity="0" />
  <path d="M398.8433,326.0751 C399.8109,325.2897 401.7571,325.6935 402.3324,326.799 C403.1178,327.7665 402.714,329.7128 401.6085,330.288 C400.6409,331.0734 398.6947,330.6696 398.1194,329.5641 C397.334,328.5966 397.7378,326.6503 398.8433,326.0751 z" stroke="#000000" stroke-width="0.96" fill-opacity="0" />
  <path d="M216.6731,126.3143 C214.4635,127.9571 214.2657,132.3443 216.3186,134.1792 C217.9614,136.3889 222.3486,136.5866 224.1835,134.5338 C226.3931,132.891 226.5909,128.5037 224.5381,126.6688 C222.8953,124.4592 218.508,124.2614 216.6731,126.3143 z" stroke="#000000" stroke-width="0.96" fill-opacity="0" />
  <path d="M410.5446,305.3629 C410.1382,306.5405 408.2733,307.2256 407.2013,306.5912 C406.0237,306.1849 405.3386,304.32 405.973,303.248 C406.3793,302.0704 408.2442,301.3853 409.3163,302.0197 C410.4938,302.426 411.1789,304.2909 410.5446,305.3629 z" stroke="#000000" stroke-width="0.96" fill-opacity="0" />
  <path d="M414.5726,283.6895 C416.2139,282.6567 419.1451,283.6438 419.8274,285.4589 C420.8601,287.1002 419.8731,290.0314 418.058,290.7137 C416.4167,291.7464 413.4855,290.7594 412.8032,288.9442 C411.7704,287.303 412.7574,284.3718 414.5726,283.6895 z" stroke="#000000" stroke-width="0.96" fill-opacity="0" />
  <path d="M385.4176,532.7097 C384.545,531.3015 381.9247,530.96 380.7203,532.0974 C379.3121,532.97 378.9705,535.5903 380.108,536.7947 C380.9807,538.2029 383.6009,538.5445 384.8053,537.407 C386.2135,536.5344 386.5551,533.9141 385.4176,532.7097 z" stroke="#000000" stroke-width="0.96" fill-opacity="0" />
  <path d="M383.3413,332.6703 C382.5184,331.7311 382.8494,329.7672 383.9346,329.1495 C384.8738,328.3267 386.8377,328.6576 387.4554,329.7428 C388.2783,330.682 387.9473,332.6459 386.8621,333.2636 C385.9229,334.0865 383.959,333.7555 383.3413,332.6703 z" stroke="#000000" stroke-width="0.96" fill-opacity="0" />
  <path d="M401.7699,558.8215 C404.5625,558.9127 407.4911,555.5533 407.02,552.7993 C407.1111,550.0066 403.7518,547.078 400.9977,547.5492 C398.205,547.458 395.2764,550.8173 395.7476,553.5715 C395.6564,556.3641 399.0158,559.2927 401.7699,558.8215 z" stroke="#000000" stroke-width="0.96" fill-opacity="0" />
  <path d="M231.1496,298.3233 C243.0072,292.1224 254.1089,278.9861 258.3943,263.912 C262.6797,248.838 260.1489,231.8261 253.3268,220.3147 C247.1258,208.4571 233.9896,197.3555 218.9155,193.07 C203.8414,188.7846 186.8295,191.3154 175.3182,198.1376 C163.4606,204.3385 152.3589,217.4748 148.0735,232.5488 C143.7881,247.6229 146.3189,264.6348 153.1411,276.1461 C159.3419,288.0038 172.4782,299.1054 187.5523,303.3908 C202.6264,307.6762 219.6382,305.1454 231.1496,298.3233 z" stroke="#000000" stroke-width="0.96" fill-opacity="0" />
  <path d="M136.1038,326.323 C136.3543,332.916 139.8532,340.641 145.6582,345.741 C151.4632,350.8409 159.5744,353.316 166.1448,352.7155 C172.7379,352.465 180.4628,348.9662 185.5628,343.1611 C190.6628,337.3561 193.1379,329.245 192.5374,322.6746 C192.2869,316.0815 188.788,308.3566 182.983,303.2566 C177.178,298.1566 169.0668,295.6815 162.4964,296.282 C155.9033,296.5325 148.1784,300.0314 143.0784,305.8364 C137.9784,311.6414 135.5033,319.7525 136.1038,326.323 z" stroke="#000000" stroke-width="0.96" fill-opacity="0" />
  <path d="M156.8821,281.9957 C154.0807,277.1983 145.3271,275.8231 141.1897,279.5303 C136.3923,282.3317 135.0171,291.0853 138.7243,295.2227 C141.5257,300.0201 150.2792,301.3953 154.4167,297.6881 C159.2141,294.8867 160.5893,286.1332 156.8821,281.9957 z" stroke="#000000" stroke-width="0.96" fill-opacity="0" />
  <path d="M162.156,296.306 C163.8748,296.348 165.6597,294.2662 165.3559,292.5741 C165.3978,290.8553 163.3161,289.0704 161.6239,289.3742 C159.9052,289.3323 158.1202,291.414 158.4241,293.1062 C158.3821,294.825 160.4639,296.6099 162.156,296.306 z" stroke="#000000" stroke-width="0.96" fill-opacity="0" />
  <path d="M135.7146,302.2068 C135.4202,304.4019 137.8361,306.979 140.0455,306.8268 C142.2405,307.1212 144.8176,304.7054 144.6655,302.4959 C144.9599,300.3009 142.544,297.7238 140.3345,297.8759 C138.1395,297.5815 135.5624,299.9974 135.7146,302.2068 z" stroke="#000000" stroke-width="0.96" fill-opacity="0" />
  <path d="M150.0159,269.5945 C149.2077,266.7914 144.9286,264.9638 142.3448,266.3181 C139.5417,267.1263 137.7141,271.4054 139.0684,273.9892 C139.8766,276.7923 144.1557,278.6199 146.7395,277.2656 C149.5426,276.4574 151.3702,272.1783 150.0159,269.5945 z" stroke="#000000" stroke-width="0.96" fill-opacity="0" />
  <path d="M204.3624,318.8205 C207.3554,316.3157 207.2777,310.0911 204.2231,307.6618 C201.7182,304.6688 195.4937,304.7466 193.0643,307.8011 C190.0714,310.306 190.1491,316.5305 193.2037,318.9599 C195.7085,321.9528 201.9331,321.8751 204.3624,318.8205 z" stroke="#000000" stroke-width="0.96" fill-opacity="0" />
  <path d="M400.2224,346.9025 C400.3141,348.8416 398.0101,350.9102 396.092,350.6108 C394.1529,350.7025 392.0844,348.3984 392.3838,346.4804 C392.2921,344.5413 394.5961,342.4727 396.5142,342.7721 C398.4532,342.6805 400.5218,344.9845 400.2224,346.9025 z" stroke="#000000" stroke-width="0.96" fill-opacity="0" />
  <path d="M190.6677,304.1828 C189.3291,303.7364 187.4276,304.9404 187.2588,306.3413 C186.8123,307.6799 188.0164,309.5814 189.4173,309.7502 C190.7559,310.1967 192.6574,308.9926 192.8262,307.5917 C193.2727,306.2531 192.0686,304.3516 190.6677,304.1828 z" stroke="#000000" stroke-width="0.96" fill-opacity="0" />
  <path d="M211.8732,311.7697 C213.3757,310.7225 213.5964,307.8098 212.269,306.5481 C211.2217,305.0457 208.3091,304.825 207.0474,306.1524 C205.545,307.1996 205.3242,310.1123 206.6517,311.374 C207.6989,312.8764 210.6116,313.0971 211.8732,311.7697 z" stroke="#000000" stroke-width="0.96" fill-opacity="0" />
  <path d="M143.4851,372.4934 C144.3231,376.1395 147.0905,380.0719 150.8644,382.2978 C154.6383,384.5237 159.4187,385.0432 163.0151,384.0126 C166.6611,383.1746 170.5936,380.4072 172.8195,376.6333 C175.0454,372.8594 175.5649,368.079 174.5343,364.4826 C173.6963,360.8365 170.9289,356.9041 167.155,354.6782 C163.3811,352.4523 158.6007,351.9328 155.0043,352.9634 C151.3582,353.8014 147.4258,356.5688 145.1999,360.3427 C142.974,364.1166 142.4545,368.897 143.4851,372.4934 z" stroke="#000000" stroke-width="0.96" fill-opacity="0" />
  <path d="M148.0314,347.611 C145.9437,345.7985 141.5987,346.5509 140.242,348.9599 C138.4295,351.0475 139.1819,355.3925 141.5909,356.7492 C143.6785,358.5617 148.0236,357.8093 149.3802,355.4003 C151.1927,353.3127 150.4403,348.9677 148.0314,347.611 z" stroke="#000000" stroke-width="0.96" fill-opacity="0" />
  <path d="M179.4093,357.2738 C180.4625,355.2477 179.0205,351.9031 176.8242,351.278 C174.798,350.2248 171.4535,351.6668 170.8284,353.8631 C169.7752,355.8893 171.2172,359.2338 173.4135,359.8589 C175.4397,360.9121 178.7842,359.47 179.4093,357.2738 z" stroke="#000000" stroke-width="0.96" fill-opacity="0" />
  <path d="M151.6158,398.1774 C152.9055,403.0326 160.2063,406.3344 164.7038,404.0965 C169.559,402.8067 172.8607,395.506 170.6228,391.0085 C169.3331,386.1533 162.0324,382.8515 157.5348,385.0894 C152.6797,386.3792 149.3779,393.6799 151.6158,398.1774 z" stroke="#000000" stroke-width="0.96" fill-opacity="0" />
  <path d="M247.0037,167.1181 C247.8695,160.5969 245.7341,152.4157 240.8898,146.425 C236.0456,140.4343 228.4924,136.634 221.9345,136.116 C215.4134,135.2502 207.2321,137.3855 201.2414,142.2298 C195.2507,147.0741 191.4504,154.6273 190.9324,161.1852 C190.0666,167.7063 192.202,175.8876 197.0462,181.8783 C201.8905,187.869 209.4437,191.6692 216.0016,192.1873 C222.5227,193.0531 230.704,190.9177 236.6947,186.0734 C242.6854,181.2292 246.4856,173.676 247.0037,167.1181 z" stroke="#000000" stroke-width="0.96" fill-opacity="0" />
  <path d="M234.9785,200.4721 C237.9877,202.9439 244.0768,201.7175 245.8944,198.2734 C248.3662,195.2642 247.1397,189.1752 243.6957,187.3576 C240.6865,184.8857 234.5975,186.1122 232.7799,189.5562 C230.308,192.5654 231.5345,198.6545 234.9785,200.4721 z" stroke="#000000" stroke-width="0.96" fill-opacity="0" />
  <path d="M227.7343,190.9463 C226.3587,191.2469 225.3431,193.2501 225.9137,194.5374 C226.2143,195.9131 228.2176,196.9287 229.5049,196.3581 C230.8805,196.0574 231.8961,194.0542 231.3255,192.7669 C231.0249,191.3912 229.0217,190.3756 227.7343,190.9463 z" stroke="#000000" stroke-width="0.96" fill-opacity="0" />
  <path d="M246.4345,183.6133 C246.5329,182.0932 244.7534,180.4389 243.2445,180.6476 C241.7244,180.5493 240.0701,182.3287 240.2789,183.8376 C240.1805,185.3577 241.96,187.012 243.4689,186.8033 C244.989,186.9016 246.6433,185.1222 246.4345,183.6133 z" stroke="#000000" stroke-width="0.96" fill-opacity="0" />
  <path d="M242.6506,206.5782 C243.8447,207.9621 246.759,207.8817 247.875,206.4342 C249.2589,205.2401 249.1785,202.3258 247.7309,201.2097 C246.5368,199.8259 243.6226,199.9063 242.5065,201.3538 C241.1227,202.5479 241.203,205.4622 242.6506,206.5782 z" stroke="#000000" stroke-width="0.96" fill-opacity="0" />
  <path d="M174.5972,176.3893 C171.1619,180.7414 173.0765,189.3752 178.0294,191.8671 C182.3815,195.3024 191.0153,193.3878 193.5072,188.4349 C196.9425,184.0828 195.028,175.449 190.075,172.957 C185.7229,169.5217 177.0891,171.4363 174.5972,176.3893 z" stroke="#000000" stroke-width="0.96" fill-opacity="0" />
  <path d="M190.877,166.5379 C190.913,164.329 188.2195,162.0573 186.0484,162.4654 C183.8395,162.4294 181.5678,165.1229 181.9759,167.294 C181.9399,169.5029 184.6334,171.7746 186.8045,171.3665 C189.0134,171.4025 191.2851,168.709 190.877,166.5379 z" stroke="#000000" stroke-width="0.96" fill-opacity="0" />
  <path d="M198.0733,191.1169 C199.7892,191.1357 201.5424,189.0341 201.2164,187.3495 C201.2352,185.6337 199.1336,183.8804 197.449,184.2064 C195.7332,184.1876 193.9799,186.2892 194.3059,187.9738 C194.2871,189.6897 196.3887,191.4429 198.0733,191.1169 z" stroke="#000000" stroke-width="0.96" fill-opacity="0" />
  <path d="M166.0398,190.8813 C164.3934,193.2844 165.7033,197.7423 168.388,198.8729 C170.7911,200.5193 175.249,199.2095 176.3796,196.5248 C178.026,194.1216 176.7162,189.6637 174.0315,188.5331 C171.6283,186.8867 167.1704,188.1966 166.0398,190.8813 z" stroke="#000000" stroke-width="0.96" fill-opacity="0" />
  <path d="M256.1573,132.612 C257.7429,129.2419 257.9938,124.4614 256.4075,120.3981 C254.8212,116.3349 251.3975,112.989 247.948,111.5847 C244.5779,109.9991 239.7974,109.7481 235.7341,111.3344 C231.6709,112.9208 228.325,116.3444 226.9207,119.794 C225.3351,123.1641 225.0841,127.9446 226.6705,132.0078 C228.2568,136.071 231.6804,139.417 235.13,140.8213 C238.5,142.4068 243.2806,142.6578 247.3438,141.0715 C251.4071,139.4852 254.753,136.0615 256.1573,132.612 z" stroke="#000000" stroke-width="0.96" fill-opacity="0" />
  <path d="M242.5499,148.7019 C243.5982,150.7206 247.1501,151.4607 248.9174,150.0285 C250.9361,148.9802 251.6761,145.4284 250.244,143.6611 C249.1957,141.6423 245.6438,140.9023 243.8766,142.3344 C241.8578,143.3827 241.1178,146.9346 242.5499,148.7019 z" stroke="#000000" stroke-width="0.96" fill-opacity="0" />
  <path d="M405.2732,287.8079 C408.4596,286.1722 413.6941,288.4608 414.657,291.9106 C416.2927,295.097 414.0042,300.3315 410.5543,301.2944 C407.3679,302.9301 402.1335,300.6416 401.1705,297.1917 C399.5348,294.0053 401.8233,288.7709 405.2732,287.8079 z" stroke="#000000" stroke-width="0.96" fill-opacity="0" />
  <path d="M267.3396,112.688 C270.5996,108.9009 269.2064,101.0534 264.842,98.61979 C261.0549,95.35983 253.2074,96.75302 250.7738,101.1174 C247.5139,104.9045 248.9071,112.752 253.2714,115.1856 C257.0586,118.4455 264.906,117.0524 267.3396,112.688 z" stroke="#000000" stroke-width="0.96" fill-opacity="0" />
  <path d="M272.3196,284.5994 C275.4899,284.2539 279.0953,282.3037 281.3564,279.3311 C283.6176,276.3584 284.5346,272.3633 284.0212,269.2158 C283.6758,266.0455 281.7256,262.4401 278.7529,260.1789 C275.7802,257.9177 271.7851,257.0008 268.6376,257.5142 C265.4673,257.8596 261.8619,259.8098 259.6008,262.7825 C257.3396,265.7551 256.4226,269.7502 256.936,272.8977 C257.2814,276.0681 259.2316,279.6734 262.2043,281.9346 C265.177,284.1958 269.1721,285.1128 272.3196,284.5994 z" stroke="#000000" stroke-width="0.96" fill-opacity="0" />
  <path d="M251.1232,279.7772 C249.4769,281.7984 250.3147,285.871 252.6252,287.0781 C254.6464,288.7244 258.719,287.8866 259.9262,285.5761 C261.5724,283.5549 260.7346,279.4823 258.4241,278.2751 C256.4029,276.6288 252.3303,277.4667 251.1232,279.7772 z" stroke="#000000" stroke-width="0.96" fill-opacity="0" />
  <path d="M257.4125,275.0653 C257.2375,274.1867 255.9753,273.5172 255.1497,273.8649 C254.2712,274.0399 253.6016,275.3022 253.9494,276.1277 C254.1244,277.0063 255.3866,277.6758 256.2122,277.328 C257.0907,277.153 257.7603,275.8908 257.4125,275.0653 z" stroke="#000000" stroke-width="0.96" fill-opacity="0" />
  <path d="M262.8937,286.2763 C263.8286,286.1674 264.6367,284.9021 264.3424,284.0081 C264.2335,283.0732 262.9682,282.265 262.0742,282.5594 C261.1392,282.6683 260.3311,283.9335 260.6255,284.8276 C260.7344,285.7625 261.9996,286.5706 262.8937,286.2763 z" stroke="#000000" stroke-width="0.96" fill-opacity="0" />
  <path d="M246.8131,285.5056 C245.8145,286.4588 245.9857,288.654 247.1199,289.4409 C248.0732,290.4395 250.2684,290.2683 251.0553,289.1341 C252.0539,288.1809 251.8827,285.9857 250.7485,285.1987 C249.7953,284.2002 247.6,284.3713 246.8131,285.5056 z" stroke="#000000" stroke-width="0.96" fill-opacity="0" />
  <path d="M269.8886,249.5635 C268.5359,247.3367 264.4201,246.7632 262.5102,248.5352 C260.2835,249.8879 259.7099,254.0038 261.482,255.9137 C262.8347,258.1404 266.9505,258.714 268.8604,256.9419 C271.0871,255.5892 271.6607,251.4734 269.8886,249.5635 z" stroke="#000000" stroke-width="0.96" fill-opacity="0" />
  <path d="M272.0456,257.4797 C272.9645,257.6813 274.1402,256.7489 274.1532,255.8083 C274.3548,254.8894 273.4224,253.7137 272.4818,253.7006 C271.5629,253.4991 270.3872,254.4314 270.3741,255.3721 C270.1726,256.291 271.1049,257.4667 272.0456,257.4797 z" stroke="#000000" stroke-width="0.96" fill-opacity="0" />
  <path d="M259.7182,258.1355 C259.4753,258.9974 260.2957,260.1667 261.1888,260.2316 C262.0508,260.4745 263.2201,259.6541 263.285,258.761 C263.5279,257.899 262.7075,256.7297 261.8143,256.6648 C260.9524,256.4219 259.7831,257.2423 259.7182,258.1355 z" stroke="#000000" stroke-width="0.96" fill-opacity="0" />
  <path d="M265.6126,243.5116 C264.9729,242.2895 262.8175,241.8479 261.7487,242.7199 C260.5266,243.3596 260.0849,245.515 260.9569,246.5839 C261.5967,247.806 263.7521,248.2476 264.8209,247.3756 C266.043,246.7358 266.4846,244.5804 265.6126,243.5116 z" stroke="#000000" stroke-width="0.96" fill-opacity="0" />
  <path d="M289.169,283.5389 C292.1816,283.8729 295.632,280.4867 295.3547,277.4684 C295.6887,274.4559 292.3025,271.0054 289.2842,271.2828 C286.2717,270.9487 282.8212,274.335 283.0986,277.3532 C282.7645,280.3658 286.1507,283.8163 289.169,283.5389 z" stroke="#000000" stroke-width="0.96" fill-opacity="0" />
  <path d="M280.6279,280.2101 C279.8661,280.9001 279.9505,282.5372 280.7793,283.1451 C281.4692,283.907 283.1064,283.8225 283.7143,282.9937 C284.4761,282.3037 284.3917,280.6666 283.5629,280.0587 C282.8729,279.2969 281.2357,279.3813 280.6279,280.2101 z" stroke="#000000" stroke-width="0.96" fill-opacity="0" />
  <path d="M287.5161,268.2093 C286.8032,267.4692 285.1697,267.604 284.5878,268.4509 C283.8477,269.1638 283.9825,270.7973 284.8294,271.3792 C285.5423,272.1193 287.1758,271.9845 287.7577,271.1376 C288.4978,270.4247 288.363,268.7913 287.5161,268.2093 z" stroke="#000000" stroke-width="0.96" fill-opacity="0" />
  <path d="M298.0296,283.9586 C299.7204,284.2773 301.8191,282.5092 301.792,280.7889 C302.1107,279.0981 300.3426,276.9994 298.6223,277.0266 C296.9315,276.7078 294.8328,278.476 294.8599,280.1963 C294.5412,281.8871 296.3093,283.9857 298.0296,283.9586 z" stroke="#000000" stroke-width="0.96" fill-opacity="0" />
  <path d="M456.7716,451.255 C445.7939,444.5191 429.4591,441.8318 414.8884,445.7331 C400.3177,449.6345 387.5111,460.1244 381.368,471.4445 C374.632,482.4222 371.9447,498.757 375.8461,513.3277 C379.7474,527.8984 390.2374,540.705 401.5575,546.8482 C412.5351,553.5841 428.87,556.2714 443.4407,552.3701 C458.0114,548.4687 470.818,537.9787 476.9612,526.6587 C483.6971,515.681 486.3843,499.3462 482.483,484.7755 C478.5817,470.2047 468.0917,457.3981 456.7716,451.255 z" stroke="#000000" stroke-width="0.96" fill-opacity="0" />
  <path d="M526.2095,515.346 C531.4542,511.9305 536.0378,505.3194 537.3615,498.1099 C538.6851,490.9003 536.7487,483.0923 533.0593,478.0364 C529.6438,472.7918 523.0328,468.2081 515.8232,466.8845 C508.6137,465.5608 500.8056,467.4972 495.7498,471.1866 C490.5051,474.6021 485.9214,481.2132 484.5978,488.4227 C483.2742,495.6323 485.2106,503.4403 488.8999,508.4962 C492.3155,513.7408 498.9265,518.3245 506.136,519.6481 C513.3456,520.9718 521.1537,519.0354 526.2095,515.346 z" stroke="#000000" stroke-width="0.96" fill-opacity="0" />
  <path d="M480.1446,520.2104 C477.6466,524.844 480.8542,532.6033 485.8948,534.1205 C490.5284,536.6184 498.2877,533.4109 499.8049,528.3702 C502.3028,523.7367 499.0953,515.9774 494.0547,514.4602 C489.4211,511.9622 481.6618,515.1698 480.1446,520.2104 z" stroke="#000000" stroke-width="0.96" fill-opacity="0" />
  <path d="M489.1616,508.8687 C488.3502,507.4507 485.7795,507.0237 484.5532,508.1032 C483.1351,508.9147 482.7081,511.4854 483.7877,512.7117 C484.5991,514.1297 487.1698,514.5567 488.3961,513.4772 C489.8141,512.6657 490.2411,510.0951 489.1616,508.8687 z" stroke="#000000" stroke-width="0.96" fill-opacity="0" />
  <path d="M506.9126,527.3947 C508.8307,526.5577 509.7304,523.3433 508.5255,521.6321 C507.6885,519.7141 504.4741,518.8143 502.763,520.0192 C500.8449,520.8563 499.9452,524.0707 501.1501,525.7817 C501.9871,527.6999 505.2015,528.5995 506.9126,527.3947 z" stroke="#000000" stroke-width="0.96" fill-opacity="0" />
  <path d="M473.5068,531.9215 C471.6442,533.9658 472.2924,538.329 474.6689,539.7434 C476.7132,541.606 481.0764,540.9577 482.4908,538.5812 C484.3534,536.537 483.7051,532.1738 481.3286,530.7593 C479.2844,528.8968 474.9212,529.545 473.5068,531.9215 z" stroke="#000000" stroke-width="0.96" fill-opacity="0" />
  <path d="M486.881,463.2948 C483.3579,462.0563 478.2748,465.1615 477.7686,468.8615 C476.53,472.3847 479.6353,477.4678 483.3353,477.974 C486.8585,479.2125 491.9416,476.1073 492.4478,472.4073 C493.6863,468.8841 490.5811,463.801 486.881,463.2948 z" stroke="#000000" stroke-width="0.96" fill-opacity="0" />
  <path d="M496.8243,470.4828 C498.1351,469.8417 498.6645,467.5753 497.7733,466.4198 C497.1322,465.109 494.8658,464.5797 493.7103,465.4708 C492.3995,466.1119 491.8701,468.3783 492.7613,469.5338 C493.4024,470.8446 495.6688,471.374 496.8243,470.4828 z" stroke="#000000" stroke-width="0.96" fill-opacity="0" />
  <path d="M481.5704,481.7227 C481.8624,483.0389 483.7834,484.0052 485.0142,483.455 C486.3304,483.163 487.2967,481.242 486.7465,480.0112 C486.4545,478.695 484.5334,477.7287 483.3027,478.2789 C481.9865,478.5709 481.0202,480.4919 481.5704,481.7227 z" stroke="#000000" stroke-width="0.96" fill-opacity="0" />
  <path d="M477.39,460.56 C475.7891,459.8353 473.2793,461.0829 472.8906,462.7966 C472.1658,464.3975 473.4135,466.9073 475.1272,467.296 C476.728,468.0208 479.2379,466.7731 479.6266,465.0594 C480.3513,463.4586 479.1037,460.9487 477.39,460.56 z" stroke="#000000" stroke-width="0.96" fill-opacity="0" />
  <path d="M560.0998,487.2444 C562.6747,484.8254 564.5649,480.6965 564.5841,476.5589 C564.6033,472.4212 562.7516,468.2749 560.1992,465.8322 C557.7802,463.2572 553.6513,461.367 549.5137,461.3478 C545.376,461.3286 541.2297,463.1804 538.787,465.7327 C536.212,468.1517 534.3218,472.2806 534.3026,476.4182 C534.2834,480.5559 536.1352,484.7022 538.6876,487.145 C541.1065,489.7199 545.2355,491.6101 549.3731,491.6293 C553.5107,491.6485 557.657,489.7968 560.0998,487.2444 z" stroke="#000000" stroke-width="0.96" fill-opacity="0" />
  <path d="M537.7158,495.42 C537.2457,497.9828 539.939,501.148 542.5441,501.0942 C545.107,501.5643 548.2722,498.871 548.2184,496.266 C548.6885,493.7031 545.9952,490.5379 543.3901,490.5917 C540.8272,490.1216 537.662,492.8149 537.7158,495.42 z" stroke="#000000" stroke-width="0.96" fill-opacity="0" />
  <path d="M530.5541,465.1808 C528.3903,465.2883 526.3414,468.0708 526.881,470.1689 C526.9886,472.3327 529.7711,474.3816 531.8692,473.842 C534.033,473.7345 536.0819,470.952 535.5423,468.8538 C535.4348,466.6901 532.6523,464.6411 530.5541,465.1808 z" stroke="#000000" stroke-width="0.96" fill-opacity="0" />
  <path d="M577.1726,468.515 C580.5353,465.1786 579.8027,457.6587 575.8593,455.0341 C572.5229,451.6714 565.003,452.4041 562.3784,456.3474 C559.0157,459.6838 559.7484,467.2037 563.6917,469.8284 C567.0281,473.191 574.548,472.4584 577.1726,468.515 z" stroke="#000000" stroke-width="0.96" fill-opacity="0" />
  <path d="M340.222,505.118 C334.4261,507.8163 328.8383,513.8414 326.461,520.9415 C324.0837,528.0416 324.917,536.2166 327.9195,541.8609 C330.6179,547.6568 336.643,553.2446 343.743,555.6219 C350.8431,557.9991 359.0181,557.1659 364.6624,554.1634 C370.4583,551.465 376.0461,545.4399 378.4234,538.3398 C380.8007,531.2398 379.9674,523.0648 376.9649,517.4205 C374.2665,511.6246 368.2414,506.0368 361.1414,503.6595 C354.0413,501.2822 345.8663,502.1155 340.222,505.118 z" stroke="#000000" stroke-width="0.96" fill-opacity="0" />
  <path d="M373.9863,497.6291 C374.4661,493.8652 370.2984,489.4769 366.5147,489.7621 C362.7508,489.2823 358.3625,493.45 358.6478,497.2337 C358.1679,500.9976 362.3357,505.3859 366.1193,505.1006 C369.8832,505.5805 374.2715,501.4128 373.9863,497.6291 z" stroke="#000000" stroke-width="0.96" fill-opacity="0" />
  <path d="M369.9041,508.5272 C370.8654,509.5014 373.0387,509.2957 373.8001,508.1584 C374.7744,507.1971 374.5686,505.0238 373.4313,504.2624 C372.47,503.2882 370.2968,503.4939 369.5353,504.6312 C368.5611,505.5925 368.7668,507.7658 369.9041,508.5272 z" stroke="#000000" stroke-width="0.96" fill-opacity="0" />
  <path d="M354.1289,496.9447 C352.8237,497.6566 352.3875,499.9874 353.3468,501.1231 C354.0587,502.4283 356.3895,502.8645 357.5253,501.9052 C358.8304,501.1933 359.2667,498.8625 358.3073,497.7267 C357.5955,496.4216 355.2646,495.9853 354.1289,496.9447 z" stroke="#000000" stroke-width="0.96" fill-opacity="0" />
  <path d="M375.0566,488.1432 C375.5832,486.4407 374.0101,484.0732 372.2366,483.899 C370.5341,483.3724 368.1666,484.9455 367.9924,486.719 C367.4659,488.4215 369.0389,490.789 370.8124,490.9632 C372.5149,491.4897 374.8824,489.9167 375.0566,488.1432 z" stroke="#000000" stroke-width="0.96" fill-opacity="0" />
  <path d="M385.6292,559.4026 C390.9421,559.9221 396.9413,553.88 396.3839,548.5709 C396.9034,543.2581 390.8612,537.2589 385.5522,537.8163 C380.2393,537.2968 374.2401,543.3389 374.7975,548.6479 C374.278,553.9608 380.3202,559.96 385.6292,559.4026 z" stroke="#000000" stroke-width="0.96" fill-opacity="0" />
  <path d="M369.1673,551.3425 C367.3573,552.4661 366.9208,555.8361 368.3849,557.3838 C369.5086,559.1938 372.8785,559.6302 374.4262,558.1662 C376.2362,557.0425 376.6727,553.6726 375.2086,552.1249 C374.0849,550.3149 370.715,549.8784 369.1673,551.3425 z" stroke="#000000" stroke-width="0.96" fill-opacity="0" />
  <path d="M192.5905,323.9244 C192.4673,325.4467 194.2244,327.1338 195.7404,326.9489 C197.2626,327.072 198.9498,325.3149 198.7649,323.799 C198.888,322.2767 197.1309,320.5896 195.615,320.7745 C194.0927,320.6513 192.4056,322.4084 192.5905,323.9244 z" stroke="#000000" stroke-width="0.96" fill-opacity="0" />
  <path d="M397.1394,295.1858 C395.9759,294.7351 395.3597,292.8427 396.0348,291.7932 C396.4855,290.6297 398.3779,290.0135 399.4273,290.6886 C400.5909,291.1393 401.2071,293.0318 400.532,294.0812 C400.0813,295.2447 398.1888,295.8609 397.1394,295.1858 z" stroke="#000000" stroke-width="0.96" fill-opacity="0" />
  <path d="M306.9189,515.8632 C303.3038,516.3555 299.2404,518.6962 296.7456,522.1652 C294.2507,525.6341 293.3245,530.2311 294.0081,533.8149 C294.5003,537.4301 296.8411,541.4935 300.3101,543.9883 C303.779,546.4832 308.376,547.4094 311.9598,546.7258 C315.5749,546.2336 319.6383,543.8928 322.1332,540.4238 C324.628,536.9549 325.5543,532.3578 324.8707,528.774 C324.3784,525.1589 322.0376,521.0955 318.5687,518.6007 C315.0998,516.1058 310.5027,515.1796 306.9189,515.8632 z" stroke="#000000" stroke-width="0.96" fill-opacity="0" />
  <path d="M327.4078,518.5063 C328.5137,516.5726 327.2391,513.256 325.1228,512.5607 C323.1891,511.4547 319.8725,512.7293 319.1772,514.8456 C318.0712,516.7794 319.3458,520.0959 321.4621,520.7913 C323.3958,521.8972 326.7124,520.6226 327.4078,518.5063 z" stroke="#000000" stroke-width="0.96" fill-opacity="0" />
  <path d="M322.8332,551.5908 C325.3517,552.5162 329.035,550.3368 329.4361,547.6837 C330.3616,545.1652 328.1822,541.4819 325.5291,541.0808 C323.0106,540.1553 319.3273,542.3348 318.9262,544.9878 C318.0008,547.5063 320.1801,551.1896 322.8332,551.5908 z" stroke="#000000" stroke-width="0.96" fill-opacity="0" />
  <path d="M284.4748,517.3372 C279.5957,516.6904 273.8768,522.068 274.2224,526.9776 C273.5757,531.8566 278.9533,537.5756 283.8629,537.23 C288.7419,537.8767 294.4608,532.4991 294.1152,527.5895 C294.762,522.7104 289.3844,516.9915 284.4748,517.3372 z" stroke="#000000" stroke-width="0.96" fill-opacity="0" />
  <path d="M424.8538,423.7986 C421.2789,418.2549 410.8231,417.0831 406.1096,421.6978 C400.566,425.2727 399.3941,435.7285 404.0088,440.4419 C407.5837,445.9856 418.0395,447.1575 422.753,442.5428 C428.2966,438.9679 429.4685,428.5121 424.8538,423.7986 z" stroke="#000000" stroke-width="0.96" fill-opacity="0" />
  <path d="M431.4339,443.9016 C433.9413,444.2605 436.913,441.5237 436.7613,438.9953 C437.1202,436.488 434.3834,433.5162 431.855,433.6679 C429.3477,433.309 426.3759,436.0459 426.5276,438.5742 C426.1687,441.0816 428.9055,444.0533 431.4339,443.9016 z" stroke="#000000" stroke-width="0.96" fill-opacity="0" />
  <path d="M424.3596,441.0257 C423.7157,441.612 423.791,442.9991 424.4947,443.5122 C425.0811,444.1561 426.4681,444.0808 426.9812,443.3771 C427.6252,442.7908 427.5498,441.4038 426.8462,440.8906 C426.2598,440.2467 424.8728,440.322 424.3596,441.0257 z" stroke="#000000" stroke-width="0.96" fill-opacity="0" />
  <path d="M430.9676,430.8416 C430.4097,430.1152 428.9494,430.0723 428.3498,430.7646 C427.6234,431.3225 427.5805,432.7828 428.2729,433.3824 C428.8308,434.1088 430.291,434.1517 430.8906,433.4594 C431.617,432.9015 431.6599,431.4412 430.9676,430.8416 z" stroke="#000000" stroke-width="0.96" fill-opacity="0" />
  <path d="M438.3512,444.6248 C439.6422,444.9797 441.3824,443.7421 441.4709,442.4061 C441.8258,441.1152 440.5882,439.3749 439.2523,439.2864 C437.9613,438.9315 436.221,440.1692 436.1325,441.5051 C435.7776,442.796 437.0153,444.5363 438.3512,444.6248 z" stroke="#000000" stroke-width="0.96" fill-opacity="0" />
  <path d="M396.7917,443.499 C395.6219,445.7571 397.2332,449.4796 399.6801,450.1723 C401.9382,451.3421 405.6608,449.7308 406.3535,447.2839 C407.5232,445.0258 405.912,441.3032 403.465,440.6105 C401.2069,439.4408 397.4844,441.052 396.7917,443.499 z" stroke="#000000" stroke-width="0.96" fill-opacity="0" />
  <path d="M402.3086,437.6807 C402.0115,436.8106 400.6366,436.3004 399.8438,436.7661 C398.9737,437.0631 398.4634,438.438 398.9291,439.2309 C399.2262,440.101 400.6011,440.6113 401.394,440.1456 C402.2641,439.8485 402.7743,438.4735 402.3086,437.6807 z" stroke="#000000" stroke-width="0.96" fill-opacity="0" />
  <path d="M409.0951,447.6328 C409.9362,447.3991 410.4953,446.1241 410.0975,445.347 C409.8638,444.506 408.5887,443.9469 407.8117,444.3447 C406.9707,444.5784 406.4115,445.8535 406.8093,446.6305 C407.0431,447.4715 408.3181,448.0306 409.0951,447.6328 z" stroke="#000000" stroke-width="0.96" fill-opacity="0" />
  <path d="M393.92,450.1448 C393.2278,451.2997 393.9573,453.3197 395.2277,453.7659 C396.3826,454.458 398.4026,453.7285 398.8488,452.4582 C399.5409,451.3032 398.8115,449.2833 397.5411,448.8371 C396.3861,448.145 394.3662,448.8744 393.92,450.1448 z" stroke="#000000" stroke-width="0.96" fill-opacity="0" />
  <path d="M415.5244,410.1917 C414.2942,407.4894 409.714,406.2849 407.3135,408.0326 C404.6111,409.2628 403.4067,413.843 405.1543,416.2435 C406.3846,418.9459 410.9648,420.1503 413.3652,418.4027 C416.0676,417.1724 417.272,412.5922 415.5244,410.1917 z" stroke="#000000" stroke-width="0.96" fill-opacity="0" />
  <path d="M417.0128,419.0354 C417.9741,419.3284 419.3054,418.4358 419.3994,417.4353 C419.6924,416.4741 418.7998,415.1428 417.7993,415.0487 C416.8381,414.7557 415.5068,415.6483 415.4127,416.6488 C415.1198,417.61 416.0123,418.9413 417.0128,419.0354 z" stroke="#000000" stroke-width="0.96" fill-opacity="0" />
  <path d="M403.4731,419.2944 C403.2116,420.2664 404.1491,421.5695 405.1538,421.6306 C406.1257,421.8921 407.4289,420.9545 407.49,419.9499 C407.7515,418.9779 406.8139,417.6747 405.8093,417.6137 C404.8373,417.3522 403.5341,418.2898 403.4731,419.2944 z" stroke="#000000" stroke-width="0.96" fill-opacity="0" />
  <path d="M411.4332,402.5201 C410.8533,400.9342 408.3086,400.0518 406.8713,400.9382 C405.2854,401.5182 404.403,404.0629 405.2894,405.5001 C405.8693,407.086 408.414,407.9684 409.8513,407.082 C411.4372,406.5021 412.3196,403.9574 411.4332,402.5201 z" stroke="#000000" stroke-width="0.96" fill-opacity="0" />
  <path d="M479.1799,183.8186 C478.351,196.5972 483.5681,212.2077 493.7601,223.2096 C503.952,234.2115 519.1188,240.6047 531.9235,240.7535 C544.7021,241.5824 560.3126,236.3653 571.3145,226.1734 C582.3163,215.9814 588.7096,200.8146 588.8584,188.01 C589.6873,175.2314 584.4702,159.6209 574.2782,148.619 C564.0863,137.6171 548.9195,131.2238 536.1149,131.0751 C523.3362,130.2462 507.7257,135.4633 496.7238,145.6552 C485.722,155.8472 479.3287,171.014 479.1799,183.8186 z" stroke="#000000" stroke-width="0.96" fill-opacity="0" />
  <path d="M504.6488,91.84454 C499.1703,88.64439 491.0967,87.49544 483.9623,89.57253 C476.8279,91.64961 470.6328,96.95275 467.7282,102.5935 C464.528,108.072 463.3791,116.1456 465.4562,123.28 C467.5333,130.4144 472.8364,136.6095 478.4772,139.5141 C483.9557,142.7142 492.0293,143.8632 499.1637,141.7861 C506.298,139.709 512.4932,134.4059 515.3978,128.7651 C518.5979,123.2866 519.7469,115.213 517.6698,108.0786 C515.5927,100.9443 510.2896,94.74909 504.6488,91.84454 z" stroke="#000000" stroke-width="0.96" fill-opacity="0" />
  <path d="M529.9478,131.1863 C535.2422,131.3281 540.756,124.928 539.8323,119.7129 C539.9742,114.4185 533.5741,108.9047 528.3589,109.8283 C523.0646,109.6865 517.5508,116.0866 518.4744,121.3017 C518.3326,126.5961 524.7327,132.1099 529.9478,131.1863 z" stroke="#000000" stroke-width="0.96" fill-opacity="0" />
  <path d="M515.675,128.2468 C514.7719,129.6209 515.5593,132.1227 517.0866,132.7317 C518.4607,133.635 520.9625,132.8476 521.5716,131.3202 C522.4748,129.9461 521.6874,127.4443 520.16,126.8352 C518.7859,125.932 516.2842,126.7194 515.675,128.2468 z" stroke="#000000" stroke-width="0.96" fill-opacity="0" />
  <path d="M524.3078,103.8526 C522.6858,102.4985 519.3767,103.1377 518.3757,104.9985 C517.0216,106.6206 517.6608,109.9296 519.5216,110.9306 C521.1436,112.2847 524.4526,111.6455 525.4537,109.7847 C526.8078,108.1627 526.1686,104.8537 524.3078,103.8526 z" stroke="#000000" stroke-width="0.96" fill-opacity="0" />
  <path d="M543.4325,131.8484 C546.1017,132.597 549.7184,130.053 549.916,127.2878 C550.6646,124.6185 548.1206,121.0019 545.3554,120.8042 C542.6861,120.0557 539.0695,122.5997 538.8718,125.3649 C538.1233,128.0341 540.6672,131.6508 543.4325,131.8484 z" stroke="#000000" stroke-width="0.96" fill-opacity="0" />
  <path d="M475.8354,151.318 C476.3699,155.05 481.5211,158.1526 485.0699,156.88 C488.802,156.3455 491.9046,151.1943 490.6319,147.6454 C490.0974,143.9133 484.9462,140.8108 481.3973,142.0834 C477.6653,142.6179 474.5627,147.7691 475.8354,151.318 z" stroke="#000000" stroke-width="0.96" fill-opacity="0" />
  <path d="M477.6517,139.0419 C476.4654,138.1621 474.1819,138.7411 473.5582,140.0799 C472.6784,141.2662 473.2574,143.5496 474.5961,144.1734 C475.7824,145.0531 478.0659,144.4742 478.6896,143.1354 C479.5694,141.9491 478.9904,139.6657 477.6517,139.0419 z" stroke="#000000" stroke-width="0.96" fill-opacity="0" />
  <path d="M494.8119,147.5148 C495.8564,146.6443 495.8338,144.4759 494.7715,143.6275 C493.901,142.583 491.7326,142.6056 490.8842,143.6679 C489.8397,144.5383 489.8623,146.7067 490.9246,147.5552 C491.795,148.5996 493.9634,148.5771 494.8119,147.5148 z" stroke="#000000" stroke-width="0.96" fill-opacity="0" />
  <path d="M477.821,161.0901 C477.9212,162.8587 480.2079,164.5181 481.9203,164.065 C483.6889,163.9648 485.3483,161.6781 484.8952,159.9656 C484.795,158.1971 482.5083,156.5377 480.7958,156.9908 C479.0273,157.091 477.3679,159.3777 477.821,161.0901 z" stroke="#000000" stroke-width="0.96" fill-opacity="0" />
  <path d="M463.4709,73.85937 C460.0692,72.62502 455.4214,72.80745 451.6311,74.70377 C447.8409,76.6001 444.9081,80.21031 443.8562,83.67287 C442.6219,87.07464 442.8043,91.7224 444.7006,95.51266 C446.5969,99.30294 450.2072,102.2357 453.6697,103.2876 C457.0715,104.5219 461.7192,104.3395 465.5095,102.4432 C469.2998,100.5469 472.2325,96.93664 473.2844,93.47408 C474.5188,90.07231 474.3363,85.42455 472.44,81.63428 C470.5437,77.84401 466.9335,74.91122 463.4709,73.85937 z" stroke="#000000" stroke-width="0.96" fill-opacity="0" />
  <path d="M481.2717,90.5114 C483.8233,89.75795 485.465,85.84484 484.2148,83.49637 C483.4613,80.94477 479.5482,79.30305 477.1997,80.55328 C474.6481,81.30672 473.0064,85.21983 474.2567,87.56831 C475.0101,90.1199 478.9232,91.76162 481.2717,90.5114 z" stroke="#000000" stroke-width="0.96" fill-opacity="0" />
  <path d="M457.1219,111.0564 C458.2317,112.9686 461.714,113.5253 463.3645,112.0543 C465.2768,110.9445 465.8334,107.4623 464.3624,105.8117 C463.2527,103.8995 459.7704,103.3428 458.1198,104.8138 C456.2076,105.9236 455.6509,109.4058 457.1219,111.0564 z" stroke="#000000" stroke-width="0.96" fill-opacity="0" />
  <path d="M438.3372,66.92627 C433.7007,65.40086 427.1403,69.59277 426.5765,74.44111 C425.0511,79.07764 429.243,85.63796 434.0913,86.20181 C438.7278,87.72721 445.2882,83.53529 445.852,78.68696 C447.3774,74.05043 443.1855,67.4901 438.3372,66.92627 z" stroke="#000000" stroke-width="0.96" fill-opacity="0" />
  <path d="M579.9775,261.0398 C584.928,264.8215 592.6555,266.9188 599.8586,265.759 C607.0617,264.5992 613.7404,260.1823 617.2537,255.0379 C621.0353,250.0874 623.1327,242.3599 621.9729,235.1568 C620.8131,227.9537 616.3962,221.275 611.2518,217.7617 C606.3013,213.9801 598.5737,211.8827 591.3706,213.0425 C584.1675,214.2023 577.4888,218.6192 573.9756,223.7636 C570.1939,228.7141 568.0966,236.4417 569.2563,243.6448 C570.4161,250.8479 574.8331,257.5266 579.9775,261.0398 z" stroke="#000000" stroke-width="0.96" fill-opacity="0" />
  <path d="M558.1817,235.1881 C554.6946,236.4803 552.7755,242.0927 554.7412,245.2495 C556.0334,248.7366 561.6459,250.6558 564.8027,248.69 C568.2897,247.3978 570.2089,241.7853 568.2432,238.6285 C566.9509,235.1415 561.3385,233.2223 558.1817,235.1881 z" stroke="#000000" stroke-width="0.96" fill-opacity="0" />
  <path d="M569.5117,233.7964 C569.9244,232.5194 568.7622,230.7218 567.4283,230.5739 C566.1513,230.1613 564.3537,231.3234 564.2057,232.6573 C563.7932,233.9343 564.9553,235.7319 566.2892,235.8798 C567.5662,236.2924 569.3638,235.1303 569.5117,233.7964 z" stroke="#000000" stroke-width="0.96" fill-opacity="0" />
  <path d="M566.6148,252.7298 C567.8241,253.5359 570.0397,252.8544 570.5868,251.5079 C571.3929,250.2986 570.7113,248.083 569.3649,247.5359 C568.1556,246.7298 565.94,247.4114 565.3929,248.7578 C564.5868,249.9671 565.2684,252.1827 566.6148,252.7298 z" stroke="#000000" stroke-width="0.96" fill-opacity="0" />
  <path d="M549.4405,238.5823 C547.7198,238.9021 546.3802,241.3511 547.0389,242.9725 C547.3588,244.6931 549.8077,246.0327 551.4291,245.3741 C553.1498,245.0542 554.4894,242.6052 553.8307,240.9838 C553.5108,239.2632 551.0619,237.9236 549.4405,238.5823 z" stroke="#000000" stroke-width="0.96" fill-opacity="0" />
  <path d="M606.8611,197.3738 C604.9731,192.4934 597.0379,189.9056 592.6357,192.7347 C587.7553,194.6228 585.1675,202.558 587.9966,206.9601 C589.8847,211.8405 597.8199,214.4283 602.222,211.5992 C607.1025,209.7112 609.6902,201.776 606.8611,197.3738 z" stroke="#000000" stroke-width="0.96" fill-opacity="0" />
  <path d="M607.0921,215.2961 C608.871,216.3755 611.9987,215.2656 612.6992,213.3063 C613.7787,211.5274 612.6687,208.3997 610.7094,207.6992 C608.9305,206.6197 605.8028,207.7297 605.1023,209.689 C604.0228,211.4679 605.1328,214.5956 607.0921,215.2961 z" stroke="#000000" stroke-width="0.96" fill-opacity="0" />
  <path d="M583.6176,209.4033 C582.7775,210.7941 583.6494,213.2346 585.1804,213.7784 C586.5712,214.6184 589.0118,213.7466 589.5555,212.2155 C590.3956,210.8247 589.5237,208.3842 587.9926,207.8404 C586.6018,207.0004 584.1613,207.8722 583.6176,209.4033 z" stroke="#000000" stroke-width="0.96" fill-opacity="0" />
  <path d="M599.2359,183.481 C598.0836,180.9865 593.8387,179.8952 591.6262,181.5248 C589.1317,182.6771 588.0405,186.9219 589.67,189.1344 C590.8223,191.629 595.0671,192.7202 597.2797,191.0907 C599.7742,189.9383 600.8654,185.6935 599.2359,183.481 z" stroke="#000000" stroke-width="0.96" fill-opacity="0" />
  <path d="M604.1962,284.7993 C606.2366,287.6676 610.0573,290.0906 614.1391,290.6679 C618.2209,291.2452 622.5637,289.9768 625.3195,287.7869 C628.1877,285.7465 630.6107,281.9258 631.188,277.844 C631.7653,273.7622 630.4969,269.4194 628.307,266.6636 C626.2666,263.7953 622.4459,261.3723 618.3641,260.795 C614.2823,260.2177 609.9395,261.4862 607.1837,263.6761 C604.3155,265.7165 601.8925,269.5372 601.3152,273.619 C600.7379,277.7007 602.0063,282.0436 604.1962,284.7993 z" stroke="#000000" stroke-width="0.96" fill-opacity="0" />
  <path d="M597.2751,266.0468 C595.1182,265.9631 592.8398,268.5443 593.1907,270.6741 C593.107,272.831 595.6882,275.1093 597.8179,274.7584 C599.9749,274.8422 602.2532,272.261 601.9023,270.1312 C601.986,267.9743 599.4049,265.696 597.2751,266.0468 z" stroke="#000000" stroke-width="0.96" fill-opacity="0" />
  <path d="M627.755,255.2735 C627.4407,252.6984 623.9414,250.4903 621.4818,251.315 C618.9067,251.6292 616.6986,255.1285 617.5233,257.5881 C617.8376,260.1632 621.3369,262.3713 623.7964,261.5467 C626.3715,261.2324 628.5797,257.7331 627.755,255.2735 z" stroke="#000000" stroke-width="0.96" fill-opacity="0" />
  <path d="M615.504,303.2715 C617.1353,307.7036 624.2576,310.1565 628.2721,307.6689 C632.7042,306.0375 635.157,298.9153 632.6694,294.9008 C631.0381,290.4687 623.9158,288.0158 619.9013,290.5034 C615.4692,292.1348 613.0164,299.257 615.504,303.2715 z" stroke="#000000" stroke-width="0.96" fill-opacity="0" />
  <path d="M469.9608,224.9832 C466.79,230.7395 470.7068,240.4625 476.9824,242.4135 C482.7388,245.5843 492.4617,241.6675 494.4127,235.3919 C497.5835,229.6355 493.6667,219.9126 487.3911,217.9616 C481.6348,214.7908 471.9118,218.7075 469.9608,224.9832 z" stroke="#000000" stroke-width="0.96" fill-opacity="0" />
  <path d="M484.5615,209.6981 C483.6998,207.317 479.8883,205.9809 477.7286,207.3029 C475.3476,208.1646 474.0115,211.976 475.3335,214.1357 C476.1951,216.5168 480.0066,217.8529 482.1663,216.5309 C484.5474,215.6692 485.8835,211.8578 484.5615,209.6981 z" stroke="#000000" stroke-width="0.96" fill-opacity="0" />
  <path d="M485.352,217.2825 C486.171,217.5736 487.3566,216.855 487.4775,215.9943 C487.7686,215.1753 487.05,213.9896 486.1893,213.8688 C485.3703,213.5777 484.1847,214.2962 484.0638,215.157 C483.7727,215.976 484.4912,217.1616 485.352,217.2825 z" stroke="#000000" stroke-width="0.96" fill-opacity="0" />
  <path d="M473.2665,216.2643 C472.8903,217.0992 473.5427,218.406 474.4361,218.607 C475.2709,218.9832 476.5777,218.3308 476.7787,217.4374 C477.155,216.6026 476.5026,215.2958 475.6092,215.0948 C474.7743,214.7186 473.4676,215.371 473.2665,216.2643 z" stroke="#000000" stroke-width="0.96" fill-opacity="0" />
  <path d="M481.9505,203.2516 C481.6574,201.9437 479.7456,200.987 478.5231,201.5365 C477.2151,201.8295 476.2585,203.7414 476.808,204.9639 C477.101,206.2718 479.0128,207.2285 480.2354,206.679 C481.5433,206.386 482.5,204.4741 481.9505,203.2516 z" stroke="#000000" stroke-width="0.96" fill-opacity="0" />
  <path d="M500.4597,240.2952 C502.9828,240.259 505.4823,237.1043 504.9405,234.6398 C504.9043,232.1166 501.7496,229.6171 499.285,230.159 C496.7619,230.1951 494.2624,233.3499 494.8043,235.8144 C494.8404,238.3376 497.9951,240.837 500.4597,240.2952 z" stroke="#000000" stroke-width="0.96" fill-opacity="0" />
  <path d="M492.7843,238.2032 C492.1631,238.8719 492.3632,240.3138 493.1429,240.7881 C493.8115,241.4093 495.2534,241.2092 495.7278,240.4295 C496.3489,239.7609 496.1489,238.319 495.3692,237.8447 C494.7006,237.2235 493.2587,237.4235 492.7843,238.2032 z" stroke="#000000" stroke-width="0.96" fill-opacity="0" />
  <path d="M498.3162,227.592 C497.7177,226.964 496.3381,227.0706 495.8431,227.7829 C495.2152,228.3814 495.3217,229.761 496.0341,230.256 C496.6326,230.8839 498.0121,230.7774 498.5071,230.065 C499.135,229.4665 499.0285,228.087 498.3162,227.592 z" stroke="#000000" stroke-width="0.96" fill-opacity="0" />
  <path d="M507.6071,239.6951 C508.9393,239.7603 510.3632,238.1797 510.1596,236.8615 C510.2248,235.5293 508.6441,234.1054 507.326,234.3089 C505.9937,234.2437 504.5699,235.8244 504.7734,237.1426 C504.7082,238.4748 506.2889,239.8987 507.6071,239.6951 z" stroke="#000000" stroke-width="0.96" fill-opacity="0" />
  <path d="M462.45,239.6507 C460.6702,242.0158 461.7985,246.6001 464.4727,247.869 C466.8377,249.6487 471.422,248.5204 472.6909,245.8462 C474.4706,243.4812 473.3423,238.8969 470.6682,237.628 C468.3031,235.8483 463.7188,236.9766 462.45,239.6507 z" stroke="#000000" stroke-width="0.96" fill-opacity="0" />
  <path d="M469.4986,234.1335 C469.2989,233.1505 467.8826,232.4062 466.9597,232.7992 C465.9767,232.9989 465.2324,234.4152 465.6254,235.3381 C465.8252,236.3211 467.2414,237.0654 468.1643,236.6724 C469.1473,236.4727 469.8916,235.0564 469.4986,234.1335 z" stroke="#000000" stroke-width="0.96" fill-opacity="0" />
  <path d="M476.1555,245.8701 C477.1298,245.6373 477.8245,244.1985 477.4009,243.2907 C477.1681,242.3165 475.7293,241.6218 474.8215,242.0454 C473.8473,242.2782 473.1526,243.7169 473.5762,244.6247 C473.809,245.599 475.2478,246.2937 476.1555,245.8701 z" stroke="#000000" stroke-width="0.96" fill-opacity="0" />
  <path d="M457.6844,246.9034 C456.5745,248.1696 457.0204,250.818 458.4837,251.6511 C459.7499,252.761 462.3983,252.3151 463.2314,250.8518 C464.3412,249.5855 463.8954,246.9371 462.4321,246.104 C461.1659,244.9942 458.5175,245.4401 457.6844,246.9034 z" stroke="#000000" stroke-width="0.96" fill-opacity="0" />
  <path d="M385.5403,293.5857 C389.6097,292.6628 394.9009,293.5399 398.9646,296.2547 C403.0282,298.9694 405.8643,303.5216 406.5697,307.6344 C407.4926,311.7038 406.6154,316.995 403.9007,321.0587 C401.186,325.1223 396.6337,327.9584 392.521,328.6638 C388.4515,329.5867 383.1603,328.7095 379.0967,325.9948 C375.033,323.2801 372.1969,318.7278 371.4915,314.6151 C370.5686,310.5457 371.4458,305.2545 374.1606,301.1908 C376.8753,297.1272 381.4275,294.291 385.5403,293.5857 z" stroke="#000000" stroke-width="0.96" fill-opacity="0" />
  <path d="M360.6615,308.7954 C357.6264,306.8554 356.9636,301.1483 359.4733,298.5642 C361.4133,295.5291 367.1205,294.8663 369.7045,297.376 C372.7396,299.3161 373.4024,305.0232 370.8927,307.6072 C368.9526,310.6423 363.2455,311.3051 360.6615,308.7954 z" stroke="#000000" stroke-width="0.96" fill-opacity="0" />
  <path d="M371.1757,312.127 C371.3716,313.3638 370.0407,314.8531 368.7897,314.7968 C367.5529,314.9927 366.0636,313.6618 366.1199,312.4108 C365.924,311.174 367.2549,309.6847 368.5059,309.741 C369.7427,309.545 371.232,310.876 371.1757,312.127 z" stroke="#000000" stroke-width="0.96" fill-opacity="0" />
  <path d="M373.2727,295.3545 C374.5019,295.1168 376.035,296.3962 376.0211,297.648 C376.2588,298.8772 374.9793,300.4103 373.7275,300.3964 C372.4984,300.6341 370.9653,299.3547 370.9791,298.1028 C370.7415,296.8737 372.0209,295.3406 373.2727,295.3545 z" stroke="#000000" stroke-width="0.96" fill-opacity="0" />
  <path d="M642.3029,283.1368 C639.1533,252.8441 630.1693,220.5916 614.2393,190.233 C598.3093,159.8743 575.4335,131.4095 547.6936,108.9534 C519.9536,86.49725 487.3496,70.04972 454.3394,60.79018 C421.3292,51.53064 387.913,49.45907 357.6284,52.686 C327.3356,55.83564 295.0831,64.81971 264.7245,80.74965 C234.3658,96.6796 205.901,119.5554 183.4449,147.2954 C160.9887,175.0353 144.5412,207.6394 135.2817,240.6495 C126.0221,273.6597 123.9506,307.076 127.1775,337.3606 C130.3271,367.6534 139.3112,399.9059 155.2411,430.2645 C171.1711,460.6231 194.0469,489.0879 221.7869,511.544 C249.5268,534.0002 282.1309,550.4477 315.1411,559.7073 C348.1512,568.9668 381.5675,571.0384 411.8521,567.8115 C442.1448,564.6618 474.3973,555.6777 504.756,539.7478 C535.1146,523.8179 563.5794,500.942 586.0355,473.2021 C608.4917,445.4621 624.9392,412.8581 634.1987,379.8479 C643.4583,346.8377 645.5298,313.4215 642.3029,283.1368 z" stroke="#000000" stroke-width="0.96" fill-opacity="0" />
  <path d="M343.5669,64.51878 C330.0576,66.7646 315.8291,71.68285 302.6414,79.66645 C289.4537,87.65006 277.3068,98.69905 267.9902,111.766 C258.6737,124.833 252.1876,139.918 248.9387,154.9878 C245.6897,170.0576 245.678,185.1122 247.9583,198.6157 C250.2042,212.1249 255.1224,226.3535 263.106,239.5412 C271.0896,252.7289 282.1386,264.8758 295.2056,274.1923 C308.2726,283.5089 323.3576,289.995 338.4274,293.2439 C353.4972,296.4928 368.5518,296.5045 382.0552,294.2242 C395.5645,291.9784 409.793,287.0602 422.9807,279.0766 C436.1685,271.093 448.3154,260.044 457.6319,246.977 C466.9484,233.91 473.4346,218.825 476.6835,203.7552 C479.9324,188.6854 479.9441,173.6308 477.6638,160.1273 C475.418,146.6181 470.4997,132.3895 462.5161,119.2018 C454.5325,106.0141 443.4835,93.8672 430.4165,84.55068 C417.3495,75.23416 402.2646,68.74802 387.1948,65.4991 C372.125,62.25018 357.0704,62.23848 343.5669,64.51878 z" stroke="#000000" stroke-width="0.96" fill-opacity="0" />
  <path d="M621.2044,388.7544 C625.4247,376.0965 627.6712,361.6016 626.8034,346.6066 C625.9356,331.6116 621.9537,316.1165 614.9442,302.1396 C607.9348,288.1628 597.8979,275.7043 586.3993,266.0406 C574.9007,256.377 561.9404,249.5084 549.2717,245.3204 C536.6138,241.1001 522.119,238.8536 507.124,239.7214 C492.129,240.5892 476.6339,244.5711 462.657,251.5806 C448.6801,258.59 436.2216,268.6269 426.558,280.1255 C416.8944,291.6241 410.0258,304.5844 405.8377,317.2531 C401.6174,329.911 399.371,344.4059 400.2387,359.4008 C401.1065,374.3958 405.0885,389.891 412.0979,403.8678 C419.1074,417.8446 429.1443,430.3032 440.6429,439.9668 C452.1414,449.6304 465.1018,456.499 477.7704,460.687 C490.4283,464.9074 504.9232,467.1538 519.9182,466.286 C534.9132,465.4183 550.4083,461.4363 564.3851,454.4269 C578.362,447.4174 590.8206,437.3806 600.4841,425.8819 C610.1478,414.3833 617.0164,401.423 621.2044,388.7544 z" stroke="#000000" stroke-width="0.96" fill-opacity="0" />
  <polygon fill="#000000" fill-opacity="1.0" points="653.7896,311.1248 656.4617,299.546 650.6985,299.6507" />
  <polygon fill="#000000" fill-opacity="1.0" points="389.0306,41.2322 400.4432,44.54301 400.6586,38.78288" />
  <path d="M325.5167,289.692 C338.5487,294.079 351.8662,301.2302 363.6617,311.2534 C375.4572,321.2766 385.7307,334.1719 392.8758,348.6149 C400.0208,363.0579 404.0374,379.0485 404.8476,394.5063 C405.6577,409.9641 403.2614,424.8889 398.8411,437.9097 C394.4541,450.9417 387.303,464.2592 377.2798,476.0547 C367.2566,487.8503 354.3612,498.1237 339.9182,505.2688 C325.4753,512.4138 309.4846,516.4305 294.0269,517.2406 C278.5691,518.0507 263.6442,515.6544 250.6234,511.2341 C237.5914,506.8471 224.2739,499.696 212.4784,489.6728 C200.6829,479.6496 190.4094,466.7542 183.2643,452.3112 C176.1193,437.8683 172.1027,421.8776 171.2925,406.4199 C170.4824,390.9621 172.8788,376.0372 177.299,363.0164 C181.686,349.9844 188.8371,336.6669 198.8604,324.8714 C208.8836,313.0759 221.7789,302.8024 236.2219,295.6573 C250.6649,288.5123 266.6555,284.4957 282.1133,283.6855 C297.571,282.8754 312.4959,285.2718 325.5167,289.692 z" stroke="#000000" stroke-width="0.96" fill-opacity="0" />
  <path d="M653.5801,299.5987 C652.425,269.5605 645.9525,237.534 633.0945,206.7672 C620.2366,176.0004 600.9934,146.4932 576.8057,121.8365 C552.618,97.17985 523.4858,77.37357 492.9716,63.92725 C462.4573,50.48092 430.561,43.39454 400.5505,41.66293" stroke="#000000" stroke-width="0.96" fill-opacity="0" />
  <path d="M632.5267,284.1659 C629.4966,255.023 620.8535,223.9947 605.5283,194.7884 C590.2029,165.582 568.1954,138.1977 541.5084,116.5939 C514.8214,94.99013 483.4549,79.1669 451.6976,70.25882 C419.9404,61.35074 387.7925,59.3578 358.6574,62.46225 C329.5145,65.49233 298.4862,74.1354 269.2798,89.46069 C240.0735,104.786 212.6892,126.7935 191.0854,153.4805 C169.4816,180.1676 153.6584,211.5341 144.7503,243.2913 C135.8422,275.0485 133.8493,307.1964 136.9538,336.3315 C139.9838,365.4745 148.6269,396.5027 163.9522,425.7091 C179.2775,454.9154 201.285,482.2997 227.972,503.9035 C254.6591,525.5073 286.0256,541.3306 317.7828,550.2386 C349.54,559.1467 381.6879,561.1396 410.823,558.0352 C439.9659,555.0051 470.9943,546.3621 500.2006,531.0367 C529.4069,515.7114 556.7913,493.7039 578.395,467.0169 C599.9988,440.3299 615.822,408.9633 624.7301,377.2061 C633.6382,345.4489 635.6312,313.3011 632.5267,284.1659 z" stroke="#000000" stroke-width="0.96" fill-opacity="0" />
  <text x="350.486418476477" y="186.411198678282" font-family="Cambria" font-size="48.8099">a</text>
  <text x="497.101692993496" y="364.899358959871" font-family="Cambria" font-size="48.8099">b</text>
  <text x="271.866633590539" y="416.958405708668" font-family="Cambria" font-size="48.8099">c</text>
  <text x="612.352794465351" y="120.923385142107" font-family="Cambria" font-size="48.8099">С0</text>
  <polygon fill="#000000" fill-opacity="1.0" points="575.6902,120.7061 587.1478,113.6753 582.4912,109.1106" />
  <path d="M575.6901,120.7061 L591.8309,104.2403 L609.0924,104.2403" stroke="#000000" stroke-width="0.96" fill-opacity="0" />
  <path d="M479.18,183.8186 L439.1464,267.317 L527.3369,240.3852 z" stroke="#0000FF" stroke-width="0.96" fill-opacity="0" />
  <path d="M439.1464,267.317 L325.5167,289.692 L402.4917,376.3763 z" stroke="#0000FF" stroke-width="0.96" fill-opacity="0" />
  <path d="M325.5167,289.692 L255.8872,225.51 L231.1496,298.3233 z" stroke="#0000FF" stroke-width="0.96" fill-opacity="0" />
  <path d="M575.6902,120.7061 L591.8309,104.2403" stroke="#000000" stroke-width="0.96" fill-opacity="0" />
</svg>