<?xml version="1.0" encoding="UTF-8" standalone="no"?>
<svg
   xmlns:dc="http://purl.org/dc/elements/1.1/"
   xmlns:cc="http://creativecommons.org/ns#"
   xmlns:rdf="http://www.w3.org/1999/02/22-rdf-syntax-ns#"
   xmlns:svg="http://www.w3.org/2000/svg"
   xmlns="http://www.w3.org/2000/svg"
   xmlns:sodipodi="http://sodipodi.sourceforge.net/DTD/sodipodi-0.dtd"
   xmlns:inkscape="http://www.inkscape.org/namespaces/inkscape"
   inkscape:version="1.0beta2 (368ca91, 2020-02-26)"
   sodipodi:docname="thumb.svg"
   id="svg1862"
   version="1.1"
   overflow="visible"
   viewBox="0 0 500.56448 500.5986"
   height="500.5986pt"
   width="500.56448pt">
  <metadata
     id="metadata1868">
    <rdf:RDF>
      <cc:Work
         rdf:about="">
        <dc:format>image/svg+xml</dc:format>
        <dc:type
           rdf:resource="http://purl.org/dc/dcmitype/StillImage" />
      </cc:Work>
    </rdf:RDF>
  </metadata>
  <defs
     id="defs1866" />
  <sodipodi:namedview
     inkscape:current-layer="svg1862"
     inkscape:window-maximized="1"
     inkscape:window-y="-8"
     inkscape:window-x="-8"
     inkscape:cy="323.02434"
     inkscape:cx="245.5631"
     inkscape:zoom="0.4469697"
     showgrid="false"
     id="namedview1864"
     inkscape:window-height="716"
     inkscape:window-width="1366"
     inkscape:pageshadow="2"
     inkscape:pageopacity="0"
     guidetolerance="10"
     gridtolerance="10"
     objecttolerance="10"
     borderopacity="1"
     bordercolor="#666666"
     pagecolor="#ffffff" />
  <path
     inkscape:connector-curvature="0"
     style="stroke-width:2.25;stroke-miterlimit:4;stroke-dasharray:none"
     id="path1560"
     fill-opacity="0"
     stroke-width="0.96"
     stroke="#000000"
     d="m 266.7655,276.81801 c -0.152,3.5813 -4.731,7.0045 -8.2089,6.1369 -3.5812,-0.1519 -7.0045,-4.731 -6.1369,-8.2088 0.152,-3.5813 4.731,-7.0045 8.2089,-6.1369 3.5812,0.1519 7.0045,4.731 6.1369,8.2088 z" />
  <path
     inkscape:connector-curvature="0"
     style="stroke-width:2.25;stroke-miterlimit:4;stroke-dasharray:none"
     id="path1562"
     fill-opacity="0"
     stroke-width="0.96"
     stroke="#000000"
     d="m 217.9047,242.82921 c -1.7332,-0.9049 -2.3625,-3.9592 -1.1283,-5.4755 0.9049,-1.7332 3.9592,-2.3626 5.4755,-1.1284 1.7332,0.9049 2.3626,3.9592 1.1283,5.4755 -0.9048,1.7332 -3.9591,2.3626 -5.4755,1.1284 z" />
  <path
     inkscape:connector-curvature="0"
     style="stroke-width:2.25;stroke-miterlimit:4;stroke-dasharray:none"
     id="path1564"
     fill-opacity="0"
     stroke-width="0.96"
     stroke="#000000"
     d="m 264.3853,266.10861 c 0.9676,-0.7854 2.9138,-0.3816 3.4891,0.7239 0.7854,0.9675 0.3816,2.9138 -0.7239,3.489 -0.9676,0.7854 -2.9138,0.3816 -3.4891,-0.7239 -0.7854,-0.9675 -0.3816,-2.9138 0.7239,-3.489 z" />
  <path
     inkscape:connector-curvature="0"
     style="stroke-width:2.25;stroke-miterlimit:4;stroke-dasharray:none"
     id="path1566"
     fill-opacity="0"
     stroke-width="0.96"
     stroke="#000000"
     d="m 82.215103,66.347814 c -2.2096,1.6428 -2.4074,6.03 -0.3545,7.8649 1.6428,2.2097 6.03,2.4074 7.8649,0.3546 2.2096,-1.6428 2.4074,-6.0301 0.3546,-7.865 -1.6428,-2.2096 -6.0301,-2.4074 -7.865,-0.3545 z" />
  <path
     inkscape:connector-curvature="0"
     style="stroke-width:2.25;stroke-miterlimit:4;stroke-dasharray:none"
     id="path1568"
     fill-opacity="0"
     stroke-width="0.96"
     stroke="#000000"
     d="m 276.0866,245.39641 c -0.4064,1.1776 -2.2713,1.8627 -3.3433,1.2283 -1.1776,-0.4063 -1.8627,-2.2712 -1.2283,-3.3432 0.4063,-1.1776 2.2712,-1.8627 3.3433,-1.2283 1.1775,0.4063 1.8626,2.2712 1.2283,3.3432 z" />
  <path
     inkscape:connector-curvature="0"
     style="stroke-width:2.25;stroke-miterlimit:4;stroke-dasharray:none"
     id="path1570"
     fill-opacity="0"
     stroke-width="0.96"
     stroke="#000000"
     d="m 280.1146,223.72301 c 1.6413,-1.0328 4.5725,-0.0457 5.2548,1.7694 1.0327,1.6413 0.0457,4.5725 -1.7694,5.2548 -1.6413,1.0327 -4.5725,0.0457 -5.2548,-1.7695 -1.0328,-1.6412 -0.0458,-4.5724 1.7694,-5.2547 z" />
  <path
     inkscape:connector-curvature="0"
     style="stroke-width:2.25;stroke-miterlimit:4;stroke-dasharray:none"
     id="path1572"
     fill-opacity="0"
     stroke-width="0.96"
     stroke="#000000"
     d="m 250.9596,472.74321 c -0.8726,-1.4082 -3.4929,-1.7497 -4.6973,-0.6123 -1.4082,0.8726 -1.7498,3.4929 -0.6123,4.6973 0.8727,1.4082 3.4929,1.7498 4.6973,0.6123 1.4082,-0.8726 1.7498,-3.4929 0.6123,-4.6973 z" />
  <path
     inkscape:connector-curvature="0"
     style="stroke-width:2.25;stroke-miterlimit:4;stroke-dasharray:none"
     id="path1574"
     fill-opacity="0"
     stroke-width="0.96"
     stroke="#000000"
     d="m 248.8833,272.70381 c -0.8229,-0.9392 -0.4919,-2.9031 0.5933,-3.5208 0.9392,-0.8228 2.9031,-0.4919 3.5208,0.5933 0.8229,0.9392 0.4919,2.9031 -0.5933,3.5208 -0.9392,0.8229 -2.9031,0.4919 -3.5208,-0.5933 z" />
  <path
     inkscape:connector-curvature="0"
     style="stroke-width:2.25;stroke-miterlimit:4;stroke-dasharray:none"
     id="path1576"
     fill-opacity="0"
     stroke-width="0.96"
     stroke="#000000"
     d="m 267.3119,498.85501 c 2.7926,0.0912 5.7212,-3.2682 5.2501,-6.0222 0.0911,-2.7927 -3.2682,-5.7213 -6.0223,-5.2501 -2.7927,-0.0912 -5.7213,3.2681 -5.2501,6.0223 -0.0912,2.7926 3.2682,5.7212 6.0223,5.25 z" />
  <path
     inkscape:connector-curvature="0"
     style="stroke-width:2.25;stroke-miterlimit:4;stroke-dasharray:none"
     id="path1578"
     fill-opacity="0"
     stroke-width="0.96"
     stroke="#000000"
     d="m 96.691603,238.35681 c 11.857597,-6.2009 22.959297,-19.3372 27.244697,-34.4113 4.2854,-15.074 1.7546,-32.0859 -5.0675,-43.5973 -6.201,-11.8576 -19.337197,-22.9592 -34.411297,-27.2447 -15.0741,-4.2854 -32.086,-1.7546 -43.5973,5.0676 -11.8576,6.2009 -22.9593,19.3372 -27.2447,34.4112 -4.2853996,15.0741 -1.7546,32.086 5.0676,43.5973 6.2008,11.8577 19.3371,22.9593 34.4112,27.2447 15.0741,4.2854 32.0859,1.7546 43.5973,-5.0675 z" />
  <path
     inkscape:connector-curvature="0"
     style="stroke-width:2.25;stroke-miterlimit:4;stroke-dasharray:none"
     id="path1580"
     fill-opacity="0"
     stroke-width="0.96"
     stroke="#000000"
     d="m 1.6458034,266.35651 c 0.2505,6.593 3.7494,14.318 9.5543996,19.418 5.805,5.0999 13.9162,7.575 20.4866,6.9745 6.5931,-0.2505 14.318,-3.7493 19.418,-9.5544 5.1,-5.805 7.5751,-13.9161 6.9746,-20.4865 -0.2505,-6.5931 -3.7494,-14.318 -9.5544,-19.418 -5.805,-5.1 -13.9162,-7.5751 -20.4866,-6.9746 -6.5931,0.2505 -14.318,3.7494 -19.4179996,9.5544 -5.1,5.805 -7.5751,13.9161 -6.9746,20.4866 z" />
  <path
     inkscape:connector-curvature="0"
     style="stroke-width:2.25;stroke-miterlimit:4;stroke-dasharray:none"
     id="path1582"
     fill-opacity="0"
     stroke-width="0.96"
     stroke="#000000"
     d="m 22.424103,222.02921 c -2.8014,-4.7974 -11.555,-6.1726 -15.6923996,-2.4654 -4.7974,2.8014 -6.17260003,11.555 -2.4654,15.6924 2.8014,4.7974 11.5548996,6.1726 15.6923996,2.4654 4.7974,-2.8014 6.1726,-11.5549 2.4654,-15.6924 z" />
  <path
     inkscape:connector-curvature="0"
     style="stroke-width:2.25;stroke-miterlimit:4;stroke-dasharray:none"
     id="path1584"
     fill-opacity="0"
     stroke-width="0.96"
     stroke="#000000"
     d="m 27.698003,236.33951 c 1.7188,0.042 3.5037,-2.0398 3.1999,-3.7319 0.0419,-1.7188 -2.0398,-3.5037 -3.732,-3.1999 -1.7187,-0.0419 -3.5037,2.0398 -3.1998,3.732 -0.042,1.7188 2.0398,3.5037 3.7319,3.1998 z" />
  <path
     inkscape:connector-curvature="0"
     style="stroke-width:2.25;stroke-miterlimit:4;stroke-dasharray:none"
     id="path1586"
     fill-opacity="0"
     stroke-width="0.96"
     stroke="#000000"
     d="m 1.2566034,242.24031 c -0.29440003,2.1951 2.1215,4.7722 4.3309,4.62 2.195,0.2944 4.7720996,-2.1214 4.6199996,-4.3309 0.2944,-2.195 -2.1214996,-4.7721 -4.3309996,-4.62 -2.195,-0.2944 -4.7721,2.1215 -4.6199,4.3309 z" />
  <path
     inkscape:connector-curvature="0"
     style="stroke-width:2.25;stroke-miterlimit:4;stroke-dasharray:none"
     id="path1588"
     fill-opacity="0"
     stroke-width="0.96"
     stroke="#000000"
     d="m 15.557903,209.62801 c -0.8082,-2.8031 -5.0873,-4.6307 -7.6710996,-3.2764 -2.8031,0.8082 -4.6307,5.0873 -3.2764,7.6711 0.8082,2.8031 5.0873,4.6307 7.6710996,3.2764 2.8031,-0.8082 4.6307,-5.0873 3.2764,-7.6711 z" />
  <path
     inkscape:connector-curvature="0"
     style="stroke-width:2.25;stroke-miterlimit:4;stroke-dasharray:none"
     id="path1590"
     fill-opacity="0"
     stroke-width="0.96"
     stroke="#000000"
     d="m 69.904403,258.85401 c 2.993,-2.5048 2.9153,-8.7294 -0.1393,-11.1587 -2.5049,-2.993 -8.7294,-2.9152 -11.1588,0.1393 -2.9929,2.5049 -2.9152,8.7294 0.1394,11.1588 2.5048,2.9929 8.7294,2.9152 11.1587,-0.1394 z" />
  <path
     inkscape:connector-curvature="0"
     style="stroke-width:2.25;stroke-miterlimit:4;stroke-dasharray:none"
     id="path1592"
     fill-opacity="0"
     stroke-width="0.96"
     stroke="#000000"
     d="m 265.7644,286.93601 c 0.0917,1.9391 -2.2123,4.0077 -4.1304,3.7083 -1.9391,0.0917 -4.0076,-2.2124 -3.7082,-4.1304 -0.0917,-1.9391 2.2123,-4.0077 4.1304,-3.7083 1.939,-0.0916 4.0076,2.2124 3.7082,4.1304 z" />
  <path
     inkscape:connector-curvature="0"
     style="stroke-width:2.25;stroke-miterlimit:4;stroke-dasharray:none"
     id="path1594"
     fill-opacity="0"
     stroke-width="0.96"
     stroke="#000000"
     d="m 56.209703,244.21631 c -1.3386,-0.4464 -3.2401,0.7576 -3.4089,2.1585 -0.4465,1.3386 0.7576,3.2401 2.1585,3.4089 1.3386,0.4465 3.2401,-0.7576 3.4089,-2.1585 0.4465,-1.3386 -0.7576,-3.2401 -2.1585,-3.4089 z" />
  <path
     inkscape:connector-curvature="0"
     style="stroke-width:2.25;stroke-miterlimit:4;stroke-dasharray:none"
     id="path1596"
     fill-opacity="0"
     stroke-width="0.96"
     stroke="#000000"
     d="m 77.415203,251.80321 c 1.5025,-1.0472 1.7232,-3.9599 0.3958,-5.2216 -1.0473,-1.5024 -3.9599,-1.7231 -5.2216,-0.3957 -1.5024,1.0472 -1.7232,3.9599 -0.3957,5.2216 1.0472,1.5024 3.9599,1.7231 5.2215,0.3957 z" />
  <path
     inkscape:connector-curvature="0"
     style="stroke-width:2.25;stroke-miterlimit:4;stroke-dasharray:none"
     id="path1598"
     fill-opacity="0"
     stroke-width="0.96"
     stroke="#000000"
     d="m 9.0271034,312.52691 c 0.838,3.6461 3.6053996,7.5785 7.3792996,9.8044 3.7739,2.2259 8.5543,2.7454 12.1507,1.7148 3.646,-0.838 7.5785,-3.6054 9.8044,-7.3793 2.2259,-3.7739 2.7454,-8.5543 1.7148,-12.1507 -0.838,-3.6461 -3.6054,-7.5785 -7.3793,-9.8044 -3.7739,-2.2259 -8.5543,-2.7454 -12.1507,-1.7148 -3.6461,0.838 -7.5785,3.6054 -9.8044,7.3793 -2.2258996,3.7739 -2.7453996,8.5543 -1.7147996,12.1507 z" />
  <path
     inkscape:connector-curvature="0"
     style="stroke-width:2.25;stroke-miterlimit:4;stroke-dasharray:none"
     id="path1600"
     fill-opacity="0"
     stroke-width="0.96"
     stroke="#000000"
     d="m 13.573403,287.64451 c -2.0877,-1.8125 -6.4326996,-1.0601 -7.7893996,1.3489 -1.8125,2.0876 -1.0601,6.4326 1.3489,7.7893 2.0876,1.8125 6.4326996,1.0601 7.7892996,-1.3489 1.8125,-2.0876 1.0601,-6.4326 -1.3488,-7.7893 z" />
  <path
     inkscape:connector-curvature="0"
     style="stroke-width:2.25;stroke-miterlimit:4;stroke-dasharray:none"
     id="path1602"
     fill-opacity="0"
     stroke-width="0.96"
     stroke="#000000"
     d="m 44.951303,297.30731 c 1.0532,-2.0261 -0.3888,-5.3707 -2.5851,-5.9958 -2.0262,-1.0532 -5.3707,0.3888 -5.9958,2.5851 -1.0532,2.0262 0.3888,5.3707 2.5851,5.9958 2.0262,1.0532 5.3707,-0.3889 5.9958,-2.5851 z" />
  <path
     inkscape:connector-curvature="0"
     style="stroke-width:2.25;stroke-miterlimit:4;stroke-dasharray:none"
     id="path1604"
     fill-opacity="0"
     stroke-width="0.96"
     stroke="#000000"
     d="m 17.157803,338.21091 c 1.2897,4.8552 8.5905,8.157 13.088,5.9191 4.8552,-1.2898 8.1569,-8.5905 5.919,-13.088 -1.2897,-4.8552 -8.5904,-8.157 -13.088,-5.9191 -4.8551,1.2898 -8.1569,8.5905 -5.919,13.088 z" />
  <path
     inkscape:connector-curvature="0"
     style="stroke-width:2.25;stroke-miterlimit:4;stroke-dasharray:none"
     id="path1606"
     fill-opacity="0"
     stroke-width="0.96"
     stroke="#000000"
     d="m 112.5457,107.15161 c 0.8658,-6.5212 -1.2696,-14.702396 -6.1139,-20.693096 -4.8442,-5.9907 -12.397397,-9.791 -18.955297,-10.309 -6.5211,-0.8658 -14.7024,1.2695 -20.6931,6.1138 -5.9907,4.8443 -9.791,12.3975 -10.309,18.955396 -0.8658,6.5211 1.2696,14.7024 6.1138,20.6931 4.8443,5.9907 12.3975,9.7909 18.9554,10.309 6.5211,0.8658 14.7024,-1.2696 20.693097,-6.1139 5.9907,-4.8442 9.7909,-12.3974 10.309,-18.9553 z" />
  <path
     inkscape:connector-curvature="0"
     style="stroke-width:2.25;stroke-miterlimit:4;stroke-dasharray:none"
     id="path1608"
     fill-opacity="0"
     stroke-width="0.96"
     stroke="#000000"
     d="m 100.5205,140.50561 c 3.0092,2.4718 9.0983,1.2454 10.9159,-2.1987 2.4718,-3.0092 1.2453,-9.0982 -2.1987,-10.9158 -3.0092,-2.4719 -9.0982,-1.2454 -10.915797,2.1986 -2.4719,3.0092 -1.2454,9.0983 2.198597,10.9159 z" />
  <path
     inkscape:connector-curvature="0"
     style="stroke-width:2.25;stroke-miterlimit:4;stroke-dasharray:none"
     id="path1610"
     fill-opacity="0"
     stroke-width="0.96"
     stroke="#000000"
     d="m 93.276303,130.97981 c -1.3756,0.3006 -2.3912,2.3038 -1.8206,3.5911 0.3006,1.3757 2.3039,2.3913 3.5912,1.8207 1.3756,-0.3007 2.3912,-2.3039 1.8206,-3.5912 -0.3006,-1.3757 -2.3038,-2.3913 -3.5912,-1.8206 z" />
  <path
     inkscape:connector-curvature="0"
     style="stroke-width:2.25;stroke-miterlimit:4;stroke-dasharray:none"
     id="path1612"
     fill-opacity="0"
     stroke-width="0.96"
     stroke="#000000"
     d="m 111.9765,123.64681 c 0.0984,-1.5201 -1.6811,-3.1744 -3.19,-2.9657 -1.5201,-0.0983 -3.1744,1.6811 -2.9656,3.19 -0.0984,1.5201 1.6811,3.1744 3.19,2.9657 1.5201,0.0983 3.1744,-1.6811 2.9656,-3.19 z" />
  <path
     inkscape:connector-curvature="0"
     style="stroke-width:2.25;stroke-miterlimit:4;stroke-dasharray:none"
     id="path1614"
     fill-opacity="0"
     stroke-width="0.96"
     stroke="#000000"
     d="m 108.1926,146.61171 c 1.1941,1.3839 4.1084,1.3035 5.2244,-0.144 1.3839,-1.1941 1.3035,-4.1084 -0.1441,-5.2245 -1.1941,-1.3838 -4.1083,-1.3034 -5.2244,0.1441 -1.3838,1.1941 -1.3035,4.1084 0.1441,5.2244 z" />
  <path
     inkscape:connector-curvature="0"
     style="stroke-width:2.25;stroke-miterlimit:4;stroke-dasharray:none"
     id="path1616"
     fill-opacity="0"
     stroke-width="0.96"
     stroke="#000000"
     d="m 40.139203,116.42281 c -3.4353,4.3521 -1.5207,12.9859 3.4322,15.4778 4.3521,3.4353 12.9859,1.5207 15.4778,-3.4322 3.4353,-4.3521 1.5208,-12.9859 -3.4322,-15.4779 -4.3521,-3.4353 -12.9859,-1.5207 -15.4778,3.4323 z" />
  <path
     inkscape:connector-curvature="0"
     style="stroke-width:2.25;stroke-miterlimit:4;stroke-dasharray:none"
     id="path1618"
     fill-opacity="0"
     stroke-width="0.96"
     stroke="#000000"
     d="m 56.419003,106.57141 c 0.036,-2.2089 -2.6575,-4.4806 -4.8286,-4.0725 -2.2089,-0.036 -4.4806,2.6575 -4.0725,4.8286 -0.036,2.2089 2.6575,4.4806 4.8286,4.0725 2.2089,0.036 4.4806,-2.6575 4.0725,-4.8286 z" />
  <path
     inkscape:connector-curvature="0"
     style="stroke-width:2.25;stroke-miterlimit:4;stroke-dasharray:none"
     id="path1620"
     fill-opacity="0"
     stroke-width="0.96"
     stroke="#000000"
     d="m 63.615303,131.15041 c 1.7159,0.0188 3.4691,-2.0828 3.1431,-3.7674 0.0188,-1.7158 -2.0828,-3.4691 -3.7674,-3.1431 -1.7158,-0.0188 -3.4691,2.0828 -3.1431,3.7674 -0.0188,1.7159 2.0828,3.4691 3.7674,3.1431 z" />
  <path
     inkscape:connector-curvature="0"
     style="stroke-width:2.25;stroke-miterlimit:4;stroke-dasharray:none"
     id="path1622"
     fill-opacity="0"
     stroke-width="0.96"
     stroke="#000000"
     d="m 31.581803,130.91481 c -1.6464,2.4031 -0.3365,6.861 2.3482,7.9916 2.4031,1.6464 6.861,0.3366 7.9916,-2.3481 1.6464,-2.4032 0.3366,-6.8611 -2.3481,-7.9917 -2.4032,-1.6464 -6.8611,-0.3365 -7.9917,2.3482 z" />
  <path
     inkscape:connector-curvature="0"
     style="stroke-width:2.25;stroke-miterlimit:4;stroke-dasharray:none"
     id="path1624"
     fill-opacity="0"
     stroke-width="0.96"
     stroke="#000000"
     d="m 121.6993,72.645514 c 1.5856,-3.3701 1.8365,-8.1506 0.2502,-12.2139 -1.5863,-4.0632 -5.01,-7.4091 -8.4595,-8.8134 -3.3701,-1.5856 -8.1506,-1.8366 -12.2139,-0.2503 -4.063197,1.5864 -7.409097,5.01 -8.813397,8.4596 -1.5856,3.3701 -1.8366,8.1506 -0.2502,12.2138 1.5863,4.0632 5.0099,7.4092 8.459497,8.8135 3.37,1.5855 8.1506,1.8365 12.2138,0.2502 4.0633,-1.5863 7.4092,-5.01 8.8135,-8.4595 z" />
  <path
     inkscape:connector-curvature="0"
     style="stroke-width:2.25;stroke-miterlimit:4;stroke-dasharray:none"
     id="path1626"
     fill-opacity="0"
     stroke-width="0.96"
     stroke="#000000"
     d="m 108.0919,88.735414 c 1.0483,2.0187 4.6002,2.7588 6.3675,1.3266 2.0187,-1.0483 2.7587,-4.6001 1.3266,-6.3674 -1.0483,-2.0188 -4.6002,-2.7588 -6.3674,-1.3267 -2.0188,1.0483 -2.7588,4.6002 -1.3267,6.3675 z" />
  <path
     inkscape:connector-curvature="0"
     style="stroke-width:2.25;stroke-miterlimit:4;stroke-dasharray:none"
     id="path1628"
     fill-opacity="0"
     stroke-width="0.96"
     stroke="#000000"
     d="m 270.8152,227.84141 c 3.1864,-1.6357 8.4209,0.6529 9.3838,4.1027 1.6357,3.1864 -0.6528,8.4209 -4.1027,9.3838 -3.1864,1.6357 -8.4208,-0.6528 -9.3838,-4.1027 -1.6357,-3.1864 0.6528,-8.4208 4.1027,-9.3838 z" />
  <path
     inkscape:connector-curvature="0"
     style="stroke-width:2.25;stroke-miterlimit:4;stroke-dasharray:none"
     id="path1630"
     fill-opacity="0"
     stroke-width="0.96"
     stroke="#000000"
     d="m 132.8816,52.721514 c 3.26,-3.7871 1.8668,-11.6346 -2.4976,-14.06821 -3.7871,-3.25996 -11.6346,-1.86677 -14.0682,2.49761 -3.2599,3.7871 -1.8667,11.6346 2.4976,14.0682 3.7872,3.2599 11.6346,1.8668 14.0682,-2.4976 z" />
  <path
     inkscape:connector-curvature="0"
     style="stroke-width:2.25;stroke-miterlimit:4;stroke-dasharray:none"
     id="path1632"
     fill-opacity="0"
     stroke-width="0.96"
     stroke="#000000"
     d="m 137.8616,224.63291 c 3.1703,-0.3455 6.7757,-2.2957 9.0368,-5.2683 2.2612,-2.9727 3.1782,-6.9678 2.6648,-10.1153 -0.3454,-3.1703 -2.2956,-6.7757 -5.2683,-9.0369 -2.9727,-2.2612 -6.9678,-3.1781 -10.1153,-2.6647 -3.1703,0.3454 -6.7757,2.2956 -9.0368,5.2683 -2.2612,2.9726 -3.1782,6.9677 -2.6648,10.1152 0.3454,3.1704 2.2956,6.7757 5.2683,9.0369 2.9727,2.2612 6.9678,3.1782 10.1153,2.6648 z" />
  <path
     inkscape:connector-curvature="0"
     style="stroke-width:2.25;stroke-miterlimit:4;stroke-dasharray:none"
     id="path1634"
     fill-opacity="0"
     stroke-width="0.96"
     stroke="#000000"
     d="m 116.6652,219.81071 c -1.6463,2.0212 -0.8085,6.0938 1.502,7.3009 2.0212,1.6463 6.0938,0.8085 7.301,-1.502 1.6462,-2.0212 0.8084,-6.0938 -1.5021,-7.301 -2.0212,-1.6463 -6.0938,-0.8084 -7.3009,1.5021 z" />
  <path
     inkscape:connector-curvature="0"
     style="stroke-width:2.25;stroke-miterlimit:4;stroke-dasharray:none"
     id="path1636"
     fill-opacity="0"
     stroke-width="0.96"
     stroke="#000000"
     d="m 122.9545,215.09881 c -0.175,-0.8786 -1.4372,-1.5481 -2.2628,-1.2004 -0.8785,0.175 -1.5481,1.4373 -1.2003,2.2628 0.175,0.8786 1.4372,1.5481 2.2628,1.2003 0.8785,-0.175 1.5481,-1.4372 1.2003,-2.2627 z" />
  <path
     inkscape:connector-curvature="0"
     style="stroke-width:2.25;stroke-miterlimit:4;stroke-dasharray:none"
     id="path1638"
     fill-opacity="0"
     stroke-width="0.96"
     stroke="#000000"
     d="m 128.4357,226.30981 c 0.9349,-0.1089 1.743,-1.3742 1.4487,-2.2682 -0.1089,-0.9349 -1.3742,-1.7431 -2.2682,-1.4487 -0.935,0.1089 -1.7431,1.3741 -1.4487,2.2682 0.1089,0.9349 1.3741,1.743 2.2682,1.4487 z" />
  <path
     inkscape:connector-curvature="0"
     style="stroke-width:2.25;stroke-miterlimit:4;stroke-dasharray:none"
     id="path1640"
     fill-opacity="0"
     stroke-width="0.96"
     stroke="#000000"
     d="m 112.3551,225.53911 c -0.9986,0.9532 -0.8274,3.1484 0.3068,3.9353 0.9533,0.9986 3.1485,0.8274 3.9354,-0.3068 0.9986,-0.9532 0.8274,-3.1484 -0.3068,-3.9354 -0.9532,-0.9985 -3.1485,-0.8274 -3.9354,0.3069 z" />
  <path
     inkscape:connector-curvature="0"
     style="stroke-width:2.25;stroke-miterlimit:4;stroke-dasharray:none"
     id="path1642"
     fill-opacity="0"
     stroke-width="0.96"
     stroke="#000000"
     d="m 135.4306,189.59701 c -1.3527,-2.2268 -5.4685,-2.8003 -7.3784,-1.0283 -2.2267,1.3527 -2.8003,5.4686 -1.0282,7.3785 1.3527,2.2267 5.4685,2.8003 7.3784,1.0282 2.2267,-1.3527 2.8003,-5.4685 1.0282,-7.3784 z" />
  <path
     inkscape:connector-curvature="0"
     style="stroke-width:2.25;stroke-miterlimit:4;stroke-dasharray:none"
     id="path1644"
     fill-opacity="0"
     stroke-width="0.96"
     stroke="#000000"
     d="m 137.5876,197.51321 c 0.9189,0.2016 2.0946,-0.7308 2.1076,-1.6714 0.2016,-0.9189 -0.7308,-2.0946 -1.6714,-2.1077 -0.9189,-0.2015 -2.0946,0.7308 -2.1077,1.6715 -0.2015,0.9189 0.7308,2.0946 1.6715,2.1076 z" />
  <path
     inkscape:connector-curvature="0"
     style="stroke-width:2.25;stroke-miterlimit:4;stroke-dasharray:none"
     id="path1646"
     fill-opacity="0"
     stroke-width="0.96"
     stroke="#000000"
     d="m 125.2602,198.16901 c -0.2429,0.8619 0.5775,2.0312 1.4706,2.0961 0.862,0.2429 2.0313,-0.5775 2.0962,-1.4706 0.2429,-0.862 -0.5775,-2.0313 -1.4707,-2.0962 -0.8619,-0.2429 -2.0312,0.5775 -2.0961,1.4707 z" />
  <path
     inkscape:connector-curvature="0"
     style="stroke-width:2.25;stroke-miterlimit:4;stroke-dasharray:none"
     id="path1648"
     fill-opacity="0"
     stroke-width="0.96"
     stroke="#000000"
     d="m 131.1546,183.54511 c -0.6397,-1.2221 -2.7951,-1.6637 -3.8639,-0.7917 -1.2221,0.6397 -1.6638,2.7951 -0.7918,3.864 0.6398,1.2221 2.7952,1.6637 3.864,0.7917 1.2221,-0.6398 1.6637,-2.7952 0.7917,-3.864 z" />
  <path
     inkscape:connector-curvature="0"
     style="stroke-width:2.25;stroke-miterlimit:4;stroke-dasharray:none"
     id="path1650"
     fill-opacity="0"
     stroke-width="0.96"
     stroke="#000000"
     d="m 154.711,223.57241 c 3.0126,0.334 6.463,-3.0522 6.1857,-6.0705 0.334,-3.0125 -3.0522,-6.463 -6.0705,-6.1856 -3.0125,-0.3341 -6.463,3.0522 -6.1856,6.0704 -0.3341,3.0126 3.0521,6.4631 6.0704,6.1857 z" />
  <path
     inkscape:connector-curvature="0"
     style="stroke-width:2.25;stroke-miterlimit:4;stroke-dasharray:none"
     id="path1652"
     fill-opacity="0"
     stroke-width="0.96"
     stroke="#000000"
     d="m 146.1699,220.24361 c -0.7618,0.69 -0.6774,2.3271 0.1514,2.935 0.6899,0.7619 2.3271,0.6774 2.935,-0.1514 0.7618,-0.69 0.6774,-2.3271 -0.1514,-2.935 -0.69,-0.7618 -2.3272,-0.6774 -2.935,0.1514 z" />
  <path
     inkscape:connector-curvature="0"
     style="stroke-width:2.25;stroke-miterlimit:4;stroke-dasharray:none"
     id="path1654"
     fill-opacity="0"
     stroke-width="0.96"
     stroke="#000000"
     d="m 153.0581,208.24281 c -0.7129,-0.7401 -2.3464,-0.6053 -2.9283,0.2416 -0.7401,0.7129 -0.6053,2.3464 0.2416,2.9283 0.7129,0.7401 2.3464,0.6053 2.9283,-0.2416 0.7401,-0.7129 0.6053,-2.3463 -0.2416,-2.9283 z" />
  <path
     inkscape:connector-curvature="0"
     style="stroke-width:2.25;stroke-miterlimit:4;stroke-dasharray:none"
     id="path1656"
     fill-opacity="0"
     stroke-width="0.96"
     stroke="#000000"
     d="m 163.5716,223.99211 c 1.6908,0.3187 3.7895,-1.4494 3.7624,-3.1697 0.3187,-1.6908 -1.4494,-3.7895 -3.1697,-3.7623 -1.6908,-0.3188 -3.7895,1.4494 -3.7624,3.1697 -0.3187,1.6908 1.4494,3.7894 3.1697,3.7623 z" />
  <path
     inkscape:connector-curvature="0"
     style="stroke-width:2.25;stroke-miterlimit:4;stroke-dasharray:none"
     id="path1658"
     fill-opacity="0"
     stroke-width="0.96"
     stroke="#000000"
     d="m 322.3136,391.28851 c -10.9777,-6.7359 -27.3125,-9.4232 -41.8832,-5.5219 -14.5707,3.9014 -27.3773,14.3913 -33.5204,25.7114 -6.736,10.9777 -9.4233,27.3125 -5.5219,41.8832 3.9013,14.5707 14.3913,27.3773 25.7114,33.5205 10.9776,6.7359 27.3125,9.4232 41.8832,5.5219 14.5707,-3.9014 27.3773,-14.3914 33.5205,-25.7114 6.7359,-10.9777 9.4231,-27.3125 5.5218,-41.8832 -3.9013,-14.5708 -14.3913,-27.3774 -25.7114,-33.5205 z" />
  <path
     inkscape:connector-curvature="0"
     style="stroke-width:2.25;stroke-miterlimit:4;stroke-dasharray:none"
     id="path1660"
     fill-opacity="0"
     stroke-width="0.96"
     stroke="#000000"
     d="m 391.7515,455.37951 c 5.2447,-3.4155 9.8283,-10.0266 11.152,-17.2361 1.3236,-7.2096 -0.6128,-15.0176 -4.3022,-20.0735 -3.4155,-5.2446 -10.0265,-9.8283 -17.2361,-11.1519 -7.2095,-1.3237 -15.0176,0.6127 -20.0734,4.3021 -5.2447,3.4155 -9.8284,10.0266 -11.152,17.2361 -1.3236,7.2096 0.6128,15.0176 4.3021,20.0735 3.4156,5.2446 10.0266,9.8283 17.2361,11.1519 7.2096,1.3237 15.0177,-0.6127 20.0735,-4.3021 z" />
  <path
     inkscape:connector-curvature="0"
     style="stroke-width:2.25;stroke-miterlimit:4;stroke-dasharray:none"
     id="path1662"
     fill-opacity="0"
     stroke-width="0.96"
     stroke="#000000"
     d="m 345.6866,460.24391 c -2.498,4.6336 0.7096,12.3929 5.7502,13.9101 4.6336,2.4979 12.3929,-0.7096 13.9101,-5.7503 2.4979,-4.6335 -0.7096,-12.3928 -5.7502,-13.91 -4.6336,-2.498 -12.3929,0.7096 -13.9101,5.7502 z" />
  <path
     inkscape:connector-curvature="0"
     style="stroke-width:2.25;stroke-miterlimit:4;stroke-dasharray:none"
     id="path1664"
     fill-opacity="0"
     stroke-width="0.96"
     stroke="#000000"
     d="m 354.7036,448.90221 c -0.8114,-1.418 -3.3821,-1.845 -4.6084,-0.7655 -1.4181,0.8115 -1.8451,3.3822 -0.7655,4.6085 0.8114,1.418 3.3821,1.845 4.6084,0.7655 1.418,-0.8115 1.845,-3.3821 0.7655,-4.6085 z" />
  <path
     inkscape:connector-curvature="0"
     style="stroke-width:2.25;stroke-miterlimit:4;stroke-dasharray:none"
     id="path1666"
     fill-opacity="0"
     stroke-width="0.96"
     stroke="#000000"
     d="m 372.4546,467.42821 c 1.9181,-0.837 2.8178,-4.0514 1.6129,-5.7626 -0.837,-1.918 -4.0514,-2.8178 -5.7625,-1.6129 -1.9181,0.8371 -2.8178,4.0515 -1.6129,5.7625 0.837,1.9182 4.0514,2.8178 5.7625,1.613 z" />
  <path
     inkscape:connector-curvature="0"
     style="stroke-width:2.25;stroke-miterlimit:4;stroke-dasharray:none"
     id="path1668"
     fill-opacity="0"
     stroke-width="0.96"
     stroke="#000000"
     d="m 339.0488,471.95501 c -1.8626,2.0443 -1.2144,6.4075 1.1621,7.8219 2.0443,1.8626 6.4075,1.2143 7.8219,-1.1622 1.8626,-2.0442 1.2143,-6.4074 -1.1622,-7.8219 -2.0442,-1.8625 -6.4074,-1.2143 -7.8218,1.1622 z" />
  <path
     inkscape:connector-curvature="0"
     style="stroke-width:2.25;stroke-miterlimit:4;stroke-dasharray:none"
     id="path1670"
     fill-opacity="0"
     stroke-width="0.96"
     stroke="#000000"
     d="m 352.423,403.32831 c -3.5231,-1.2385 -8.6062,1.8667 -9.1124,5.5667 -1.2386,3.5232 1.8667,8.6063 5.5667,9.1125 3.5232,1.2385 8.6063,-1.8667 9.1125,-5.5667 1.2385,-3.5232 -1.8667,-8.6063 -5.5668,-9.1125 z" />
  <path
     inkscape:connector-curvature="0"
     style="stroke-width:2.25;stroke-miterlimit:4;stroke-dasharray:none"
     id="path1672"
     fill-opacity="0"
     stroke-width="0.96"
     stroke="#000000"
     d="m 362.3663,410.51631 c 1.3108,-0.6411 1.8402,-2.9075 0.949,-4.063 -0.6411,-1.3108 -2.9075,-1.8401 -4.063,-0.949 -1.3108,0.6411 -1.8402,2.9075 -0.949,4.063 0.6411,1.3108 2.9075,1.8402 4.063,0.949 z" />
  <path
     inkscape:connector-curvature="0"
     style="stroke-width:2.25;stroke-miterlimit:4;stroke-dasharray:none"
     id="path1674"
     fill-opacity="0"
     stroke-width="0.96"
     stroke="#000000"
     d="m 347.1124,421.75621 c 0.292,1.3162 2.213,2.2825 3.4438,1.7323 1.3162,-0.292 2.2825,-2.213 1.7323,-3.4438 -0.292,-1.3162 -2.2131,-2.2825 -3.4438,-1.7323 -1.3162,0.292 -2.2825,2.213 -1.7323,3.4438 z" />
  <path
     inkscape:connector-curvature="0"
     style="stroke-width:2.25;stroke-miterlimit:4;stroke-dasharray:none"
     id="path1676"
     fill-opacity="0"
     stroke-width="0.96"
     stroke="#000000"
     d="m 342.932,400.59351 c -1.6009,-0.7247 -4.1107,0.5229 -4.4994,2.2366 -0.7248,1.6009 0.5229,4.1107 2.2366,4.4994 1.6008,0.7248 4.1107,-0.5229 4.4994,-2.2366 0.7247,-1.6008 -0.5229,-4.1107 -2.2366,-4.4994 z" />
  <path
     inkscape:connector-curvature="0"
     style="stroke-width:2.25;stroke-miterlimit:4;stroke-dasharray:none"
     id="path1678"
     fill-opacity="0"
     stroke-width="0.96"
     stroke="#000000"
     d="m 425.6418,427.27791 c 2.5749,-2.419 4.4651,-6.5479 4.4843,-10.6855 0.0192,-4.1377 -1.8325,-8.284 -4.3849,-10.7267 -2.419,-2.575 -6.5479,-4.4652 -10.6855,-4.4844 -4.1377,-0.0192 -8.284,1.8326 -10.7267,4.3849 -2.575,2.419 -4.4652,6.5479 -4.4844,10.6855 -0.0192,4.1377 1.8326,8.284 4.385,10.7268 2.4189,2.5749 6.5479,4.4651 10.6855,4.4843 4.1376,0.0192 8.2839,-1.8325 10.7267,-4.3849 z" />
  <path
     inkscape:connector-curvature="0"
     style="stroke-width:2.25;stroke-miterlimit:4;stroke-dasharray:none"
     id="path1680"
     fill-opacity="0"
     stroke-width="0.96"
     stroke="#000000"
     d="m 403.2578,435.45351 c -0.4701,2.5628 2.2232,5.728 4.8283,5.6742 2.5629,0.4701 5.7281,-2.2232 5.6743,-4.8282 0.4701,-2.5629 -2.2232,-5.7281 -4.8283,-5.6743 -2.5629,-0.4701 -5.7281,2.2232 -5.6743,4.8283 z" />
  <path
     inkscape:connector-curvature="0"
     style="stroke-width:2.25;stroke-miterlimit:4;stroke-dasharray:none"
     id="path1682"
     fill-opacity="0"
     stroke-width="0.96"
     stroke="#000000"
     d="m 396.0961,405.21431 c -2.1638,0.1075 -4.2127,2.89 -3.6731,4.9881 0.1076,2.1638 2.8901,4.2127 4.9882,3.6731 2.1638,-0.1075 4.2127,-2.89 3.6731,-4.9882 -0.1075,-2.1637 -2.89,-4.2127 -4.9882,-3.673 z" />
  <path
     inkscape:connector-curvature="0"
     style="stroke-width:2.25;stroke-miterlimit:4;stroke-dasharray:none"
     id="path1684"
     fill-opacity="0"
     stroke-width="0.96"
     stroke="#000000"
     d="m 442.7146,408.54851 c 3.3627,-3.3364 2.6301,-10.8563 -1.3133,-13.4809 -3.3364,-3.3627 -10.8563,-2.63 -13.4809,1.3133 -3.3627,3.3364 -2.63,10.8563 1.3133,13.481 3.3364,3.3626 10.8563,2.63 13.4809,-1.3134 z" />
  <path
     inkscape:connector-curvature="0"
     style="stroke-width:2.25;stroke-miterlimit:4;stroke-dasharray:none"
     id="path1686"
     fill-opacity="0"
     stroke-width="0.96"
     stroke="#000000"
     d="m 205.764,445.15151 c -5.7959,2.6983 -11.3837,8.7234 -13.761,15.8235 -2.3773,7.1001 -1.544,15.2751 1.4585,20.9194 2.6984,5.7959 8.7235,11.3837 15.8235,13.761 7.1001,2.3772 15.2751,1.544 20.9194,-1.4585 5.7959,-2.6984 11.3837,-8.7235 13.761,-15.8236 2.3773,-7.1 1.544,-15.275 -1.4585,-20.9193 -2.6984,-5.7959 -8.7235,-11.3837 -15.8235,-13.761 -7.1001,-2.3773 -15.2751,-1.544 -20.9194,1.4585 z" />
  <path
     inkscape:connector-curvature="0"
     style="stroke-width:2.25;stroke-miterlimit:4;stroke-dasharray:none"
     id="path1688"
     fill-opacity="0"
     stroke-width="0.96"
     stroke="#000000"
     d="m 239.5283,437.66261 c 0.4798,-3.7639 -3.6879,-8.1522 -7.4716,-7.867 -3.7639,-0.4798 -8.1522,3.6879 -7.8669,7.4716 -0.4799,3.7639 3.6879,8.1522 7.4715,7.8669 3.7639,0.4799 8.1522,-3.6878 7.867,-7.4715 z" />
  <path
     inkscape:connector-curvature="0"
     style="stroke-width:2.25;stroke-miterlimit:4;stroke-dasharray:none"
     id="path1690"
     fill-opacity="0"
     stroke-width="0.96"
     stroke="#000000"
     d="m 235.4461,448.56071 c 0.9613,0.9742 3.1346,0.7685 3.896,-0.3688 0.9743,-0.9613 0.7685,-3.1346 -0.3688,-3.896 -0.9613,-0.9742 -3.1345,-0.7685 -3.896,0.3688 -0.9742,0.9613 -0.7685,3.1346 0.3688,3.896 z" />
  <path
     inkscape:connector-curvature="0"
     style="stroke-width:2.25;stroke-miterlimit:4;stroke-dasharray:none"
     id="path1692"
     fill-opacity="0"
     stroke-width="0.96"
     stroke="#000000"
     d="m 219.6709,436.97821 c -1.3052,0.7119 -1.7414,3.0427 -0.7821,4.1784 0.7119,1.3052 3.0427,1.7414 4.1785,0.7821 1.3051,-0.7119 1.7414,-3.0427 0.782,-4.1785 -0.7118,-1.3051 -3.0427,-1.7414 -4.1784,-0.782 z" />
  <path
     inkscape:connector-curvature="0"
     style="stroke-width:2.25;stroke-miterlimit:4;stroke-dasharray:none"
     id="path1694"
     fill-opacity="0"
     stroke-width="0.96"
     stroke="#000000"
     d="m 240.5986,428.17671 c 0.5266,-1.7025 -1.0465,-4.07 -2.82,-4.2442 -1.7025,-0.5266 -4.07,1.0465 -4.2442,2.82 -0.5265,1.7025 1.0465,4.07 2.82,4.2442 1.7025,0.5265 4.07,-1.0465 4.2442,-2.82 z" />
  <path
     inkscape:connector-curvature="0"
     style="stroke-width:2.25;stroke-miterlimit:4;stroke-dasharray:none"
     id="path1696"
     fill-opacity="0"
     stroke-width="0.96"
     stroke="#000000"
     d="m 251.1712,499.43611 c 5.3129,0.5195 11.3121,-5.5226 10.7547,-10.8317 0.5195,-5.3128 -5.5227,-11.312 -10.8317,-10.7546 -5.3129,-0.5195 -11.3121,5.5226 -10.7547,10.8316 -0.5195,5.3129 5.5227,11.3121 10.8317,10.7547 z" />
  <path
     inkscape:connector-curvature="0"
     style="stroke-width:2.25;stroke-miterlimit:4;stroke-dasharray:none"
     id="path1698"
     fill-opacity="0"
     stroke-width="0.96"
     stroke="#000000"
     d="m 234.7093,491.37601 c -1.81,1.1236 -2.2465,4.4936 -0.7824,6.0413 1.1237,1.81 4.4936,2.2464 6.0413,0.7824 1.81,-1.1237 2.2465,-4.4936 0.7824,-6.0413 -1.1237,-1.81 -4.4936,-2.2465 -6.0413,-0.7824 z" />
  <path
     inkscape:connector-curvature="0"
     style="stroke-width:2.25;stroke-miterlimit:4;stroke-dasharray:none"
     id="path1700"
     fill-opacity="0"
     stroke-width="0.96"
     stroke="#000000"
     d="m 58.132503,263.95791 c -0.1232,1.5223 1.6339,3.2094 3.1499,3.0245 1.5222,0.1231 3.2094,-1.634 3.0245,-3.1499 0.1231,-1.5223 -1.634,-3.2094 -3.1499,-3.0245 -1.5223,-0.1232 -3.2094,1.6339 -3.0245,3.1499 z" />
  <path
     inkscape:connector-curvature="0"
     style="stroke-width:2.25;stroke-miterlimit:4;stroke-dasharray:none"
     id="path1702"
     fill-opacity="0"
     stroke-width="0.96"
     stroke="#000000"
     d="m 262.6814,235.21931 c -1.1635,-0.4507 -1.7797,-2.3431 -1.1046,-3.3926 0.4507,-1.1635 2.3431,-1.7797 3.3925,-1.1046 1.1636,0.4507 1.7798,2.3432 1.1047,3.3926 -0.4507,1.1635 -2.3432,1.7797 -3.3926,1.1046 z" />
  <path
     inkscape:connector-curvature="0"
     style="stroke-width:2.25;stroke-miterlimit:4;stroke-dasharray:none"
     id="path1704"
     fill-opacity="0"
     stroke-width="0.96"
     stroke="#000000"
     d="m 172.4609,455.89671 c -3.6151,0.4923 -7.6785,2.833 -10.1733,6.302 -2.4949,3.4689 -3.4211,8.0659 -2.7375,11.6497 0.4922,3.6152 2.833,7.6786 6.302,10.1734 3.4689,2.4949 8.0659,3.4211 11.6497,2.7375 3.6151,-0.4922 7.6785,-2.833 10.1734,-6.302 2.4948,-3.4689 3.4211,-8.066 2.7375,-11.6498 -0.4923,-3.6151 -2.8331,-7.6785 -6.302,-10.1733 -3.4689,-2.4949 -8.066,-3.4211 -11.6498,-2.7375 z" />
  <path
     inkscape:connector-curvature="0"
     style="stroke-width:2.25;stroke-miterlimit:4;stroke-dasharray:none"
     id="path1706"
     fill-opacity="0"
     stroke-width="0.96"
     stroke="#000000"
     d="m 192.9498,458.53981 c 1.1059,-1.9337 -0.1687,-5.2503 -2.285,-5.9456 -1.9337,-1.106 -5.2503,0.1686 -5.9456,2.2849 -1.106,1.9338 0.1686,5.2503 2.2849,5.9457 1.9337,1.1059 5.2503,-0.1687 5.9457,-2.285 z" />
  <path
     inkscape:connector-curvature="0"
     style="stroke-width:2.25;stroke-miterlimit:4;stroke-dasharray:none"
     id="path1708"
     fill-opacity="0"
     stroke-width="0.96"
     stroke="#000000"
     d="m 188.3752,491.62431 c 2.5185,0.9254 6.2018,-1.254 6.6029,-3.9071 0.9255,-2.5185 -1.2539,-6.2018 -3.907,-6.6029 -2.5185,-0.9255 -6.2018,1.254 -6.6029,3.907 -0.9254,2.5185 1.2539,6.2018 3.907,6.603 z" />
  <path
     inkscape:connector-curvature="0"
     style="stroke-width:2.25;stroke-miterlimit:4;stroke-dasharray:none"
     id="path1710"
     fill-opacity="0"
     stroke-width="0.96"
     stroke="#000000"
     d="m 150.0168,457.37071 c -4.8791,-0.6468 -10.598,4.7308 -10.2524,9.6404 -0.6467,4.879 4.7309,10.598 9.6405,10.2524 4.879,0.6467 10.5979,-4.7309 10.2523,-9.6405 0.6468,-4.8791 -4.7308,-10.598 -9.6404,-10.2523 z" />
  <path
     inkscape:connector-curvature="0"
     style="stroke-width:2.25;stroke-miterlimit:4;stroke-dasharray:none"
     id="path1712"
     fill-opacity="0"
     stroke-width="0.96"
     stroke="#000000"
     d="m 290.3958,363.83211 c -3.5749,-5.5437 -14.0307,-6.7155 -18.7442,-2.1008 -5.5436,3.5749 -6.7155,14.0307 -2.1008,18.7441 3.5749,5.5437 14.0307,6.7156 18.7442,2.1009 5.5436,-3.5749 6.7155,-14.0307 2.1008,-18.7442 z" />
  <path
     inkscape:connector-curvature="0"
     style="stroke-width:2.25;stroke-miterlimit:4;stroke-dasharray:none"
     id="path1714"
     fill-opacity="0"
     stroke-width="0.96"
     stroke="#000000"
     d="m 296.9759,383.93511 c 2.5074,0.3589 5.4791,-2.3779 5.3274,-4.9063 0.3589,-2.5073 -2.3779,-5.4791 -4.9063,-5.3274 -2.5073,-0.3589 -5.4791,2.378 -5.3274,4.9063 -0.3589,2.5074 2.3779,5.4791 4.9063,5.3274 z" />
  <path
     inkscape:connector-curvature="0"
     style="stroke-width:2.25;stroke-miterlimit:4;stroke-dasharray:none"
     id="path1716"
     fill-opacity="0"
     stroke-width="0.96"
     stroke="#000000"
     d="m 289.9016,381.05921 c -0.6439,0.5863 -0.5686,1.9734 0.1351,2.4865 0.5864,0.6439 1.9734,0.5686 2.4865,-0.1351 0.644,-0.5863 0.5686,-1.9733 -0.135,-2.4865 -0.5864,-0.6439 -1.9734,-0.5686 -2.4866,0.1351 z" />
  <path
     inkscape:connector-curvature="0"
     style="stroke-width:2.25;stroke-miterlimit:4;stroke-dasharray:none"
     id="path1718"
     fill-opacity="0"
     stroke-width="0.96"
     stroke="#000000"
     d="m 296.5096,370.87511 c -0.5579,-0.7264 -2.0182,-0.7693 -2.6178,-0.077 -0.7264,0.5579 -0.7693,2.0182 -0.0769,2.6178 0.5579,0.7264 2.0181,0.7693 2.6177,0.077 0.7264,-0.5579 0.7693,-2.0182 0.077,-2.6178 z" />
  <path
     inkscape:connector-curvature="0"
     style="stroke-width:2.25;stroke-miterlimit:4;stroke-dasharray:none"
     id="path1720"
     fill-opacity="0"
     stroke-width="0.96"
     stroke="#000000"
     d="m 303.8932,384.65831 c 1.291,0.3549 3.0312,-0.8827 3.1197,-2.2187 0.3549,-1.2909 -0.8827,-3.0312 -2.2186,-3.1197 -1.291,-0.3549 -3.0313,0.8828 -3.1198,2.2187 -0.3549,1.2909 0.8828,3.0312 2.2187,3.1197 z" />
  <path
     inkscape:connector-curvature="0"
     style="stroke-width:2.25;stroke-miterlimit:4;stroke-dasharray:none"
     id="path1722"
     fill-opacity="0"
     stroke-width="0.96"
     stroke="#000000"
     d="m 262.3337,383.53251 c -1.1698,2.2581 0.4415,5.9806 2.8884,6.6733 2.2581,1.1698 5.9807,-0.4415 6.6734,-2.8884 1.1697,-2.2581 -0.4415,-5.9807 -2.8885,-6.6734 -2.2581,-1.1697 -5.9806,0.4415 -6.6733,2.8885 z" />
  <path
     inkscape:connector-curvature="0"
     style="stroke-width:2.25;stroke-miterlimit:4;stroke-dasharray:none"
     id="path1724"
     fill-opacity="0"
     stroke-width="0.96"
     stroke="#000000"
     d="m 267.8506,377.71421 c -0.2971,-0.8701 -1.672,-1.3803 -2.4648,-0.9146 -0.8701,0.297 -1.3804,1.6719 -0.9147,2.4648 0.2971,0.8701 1.672,1.3804 2.4649,0.9147 0.8701,-0.2971 1.3803,-1.6721 0.9146,-2.4649 z" />
  <path
     inkscape:connector-curvature="0"
     style="stroke-width:2.25;stroke-miterlimit:4;stroke-dasharray:none"
     id="path1726"
     fill-opacity="0"
     stroke-width="0.96"
     stroke="#000000"
     d="m 274.6371,387.66631 c 0.8411,-0.2337 1.4002,-1.5087 1.0024,-2.2858 -0.2337,-0.841 -1.5088,-1.4001 -2.2858,-1.0023 -0.841,0.2337 -1.4002,1.5088 -1.0024,2.2858 0.2338,0.841 1.5088,1.4001 2.2858,1.0023 z" />
  <path
     inkscape:connector-curvature="0"
     style="stroke-width:2.25;stroke-miterlimit:4;stroke-dasharray:none"
     id="path1728"
     fill-opacity="0"
     stroke-width="0.96"
     stroke="#000000"
     d="m 259.462,390.17831 c -0.6922,1.1549 0.0373,3.1749 1.3077,3.6211 1.1549,0.6921 3.1749,-0.0374 3.6211,-1.3077 0.6921,-1.155 -0.0373,-3.1749 -1.3077,-3.6211 -1.155,-0.6921 -3.1749,0.0373 -3.6211,1.3077 z" />
  <path
     inkscape:connector-curvature="0"
     style="stroke-width:2.25;stroke-miterlimit:4;stroke-dasharray:none"
     id="path1730"
     fill-opacity="0"
     stroke-width="0.96"
     stroke="#000000"
     d="m 281.0664,350.22521 c -1.2302,-2.7023 -5.8104,-3.9068 -8.2109,-2.1591 -2.7024,1.2302 -3.9068,5.8104 -2.1592,8.2109 1.2303,2.7024 5.8105,3.9068 8.2109,2.1592 2.7024,-1.2303 3.9068,-5.8105 2.1592,-8.211 z" />
  <path
     inkscape:connector-curvature="0"
     style="stroke-width:2.25;stroke-miterlimit:4;stroke-dasharray:none"
     id="path1732"
     fill-opacity="0"
     stroke-width="0.96"
     stroke="#000000"
     d="m 282.5548,359.06891 c 0.9613,0.293 2.2926,-0.5996 2.3866,-1.6001 0.293,-0.9612 -0.5996,-2.2925 -1.6001,-2.3866 -0.9612,-0.293 -2.2925,0.5996 -2.3866,1.6001 -0.2929,0.9612 0.5996,2.2925 1.6001,2.3866 z" />
  <path
     inkscape:connector-curvature="0"
     style="stroke-width:2.25;stroke-miterlimit:4;stroke-dasharray:none"
     id="path1734"
     fill-opacity="0"
     stroke-width="0.96"
     stroke="#000000"
     d="m 269.0151,359.32791 c -0.2615,0.972 0.676,2.2751 1.6807,2.3362 0.9719,0.2615 2.2751,-0.6761 2.3362,-1.6807 0.2615,-0.972 -0.6761,-2.2752 -1.6807,-2.3362 -0.972,-0.2615 -2.2752,0.6761 -2.3362,1.6807 z" />
  <path
     inkscape:connector-curvature="0"
     style="stroke-width:2.25;stroke-miterlimit:4;stroke-dasharray:none"
     id="path1736"
     fill-opacity="0"
     stroke-width="0.96"
     stroke="#000000"
     d="m 276.9752,342.55361 c -0.5799,-1.5859 -3.1246,-2.4683 -4.5619,-1.5819 -1.5859,0.58 -2.4683,3.1247 -1.5819,4.5619 0.5799,1.5859 3.1246,2.4683 4.5619,1.5819 1.5859,-0.5799 2.4683,-3.1246 1.5819,-4.5619 z" />
  <path
     inkscape:connector-curvature="0"
     style="stroke-width:2.25;stroke-miterlimit:4;stroke-dasharray:none"
     id="path1738"
     fill-opacity="0"
     stroke-width="0.96"
     stroke="#000000"
     d="m 344.7219,123.85211 c -0.8289,12.7786 4.3882,28.3891 14.5802,39.391 10.1919,11.0019 25.3587,17.3951 38.1634,17.5439 12.7786,0.8289 28.3891,-4.3882 39.391,-14.5801 11.0018,-10.192 17.3951,-25.3588 17.5439,-38.1634 0.8289,-12.7786 -4.3882,-28.389096 -14.5802,-39.390996 -10.1919,-11.0019 -25.3587,-17.3952 -38.1633,-17.5439 -12.7787,-0.8289 -28.3892,4.3882 -39.3911,14.5801 -11.0018,10.192 -17.3951,25.358796 -17.5439,38.163396 z" />
  <path
     inkscape:connector-curvature="0"
     style="stroke-width:2.25;stroke-miterlimit:4;stroke-dasharray:none"
     id="path1740"
     fill-opacity="0"
     stroke-width="0.96"
     stroke="#000000"
     d="m 370.1908,31.878054 c -5.4785,-3.20015 -13.5521,-4.3491 -20.6865,-2.27201 -7.1344,2.07708 -13.3295,7.38022 -16.2341,13.02097 -3.2002,5.4785 -4.3491,13.5521 -2.272,20.6865 2.0771,7.1344 7.3802,13.3295 13.021,16.2341 5.4785,3.2001 13.5521,4.3491 20.6865,2.272 7.1343,-2.0771 13.3295,-7.3802 16.2341,-13.021 3.2001,-5.4785 4.3491,-13.5521 2.272,-20.6865 -2.0771,-7.1343 -7.3802,-13.32951 -13.021,-16.23406 z" />
  <path
     inkscape:connector-curvature="0"
     style="stroke-width:2.25;stroke-miterlimit:4;stroke-dasharray:none"
     id="path1742"
     fill-opacity="0"
     stroke-width="0.96"
     stroke="#000000"
     d="m 395.4898,71.219814 c 5.2944,0.1418 10.8082,-6.2583 9.8845,-11.4734 0.1419,-5.2944 -6.2582,-10.8082 -11.4734,-9.8846 -5.2943,-0.1418 -10.8081,6.2583 -9.8845,11.4734 -0.1418,5.2944 6.2583,10.8082 11.4734,9.8846 z" />
  <path
     inkscape:connector-curvature="0"
     style="stroke-width:2.25;stroke-miterlimit:4;stroke-dasharray:none"
     id="path1744"
     fill-opacity="0"
     stroke-width="0.96"
     stroke="#000000"
     d="m 381.217,68.280314 c -0.9031,1.3741 -0.1157,3.8759 1.4116,4.4849 1.3741,0.9033 3.8759,0.1159 4.485,-1.4115 0.9032,-1.3741 0.1158,-3.8759 -1.4116,-4.485 -1.3741,-0.9032 -3.8758,-0.1158 -4.485,1.4116 z" />
  <path
     inkscape:connector-curvature="0"
     style="stroke-width:2.25;stroke-miterlimit:4;stroke-dasharray:none"
     id="path1746"
     fill-opacity="0"
     stroke-width="0.96"
     stroke="#000000"
     d="m 389.8498,43.886114 c -1.622,-1.3541 -4.9311,-0.7149 -5.9321,1.1459 -1.3541,1.6221 -0.7149,4.9311 1.1459,5.9321 1.622,1.3541 4.931,0.7149 5.9321,-1.1459 1.3541,-1.622 0.7149,-4.931 -1.1459,-5.9321 z" />
  <path
     inkscape:connector-curvature="0"
     style="stroke-width:2.25;stroke-miterlimit:4;stroke-dasharray:none"
     id="path1748"
     fill-opacity="0"
     stroke-width="0.96"
     stroke="#000000"
     d="m 408.9745,71.881914 c 2.6692,0.7486 6.2859,-1.7954 6.4835,-4.5606 0.7486,-2.6693 -1.7954,-6.2859 -4.5606,-6.4836 -2.6693,-0.7485 -6.2859,1.7955 -6.4836,4.5607 -0.7485,2.6692 1.7954,6.2859 4.5607,6.4835 z" />
  <path
     inkscape:connector-curvature="0"
     style="stroke-width:2.25;stroke-miterlimit:4;stroke-dasharray:none"
     id="path1750"
     fill-opacity="0"
     stroke-width="0.96"
     stroke="#000000"
     d="m 341.3774,91.351514 c 0.5345,3.732 5.6857,6.8346 9.2345,5.562 3.7321,-0.5345 6.8347,-5.6857 5.562,-9.2346 -0.5345,-3.7321 -5.6857,-6.8346 -9.2346,-5.562 -3.732,0.5345 -6.8346,5.6857 -5.5619,9.2346 z" />
  <path
     inkscape:connector-curvature="0"
     style="stroke-width:2.25;stroke-miterlimit:4;stroke-dasharray:none"
     id="path1752"
     fill-opacity="0"
     stroke-width="0.96"
     stroke="#000000"
     d="m 343.1937,79.075414 c -1.1863,-0.8798 -3.4698,-0.3008 -4.0935,1.038 -0.8798,1.1863 -0.3008,3.4697 1.0379,4.0935 1.1863,0.8797 3.4698,0.3008 4.0935,-1.038 0.8798,-1.1863 0.3008,-3.4697 -1.0379,-4.0935 z" />
  <path
     inkscape:connector-curvature="0"
     style="stroke-width:2.25;stroke-miterlimit:4;stroke-dasharray:none"
     id="path1754"
     fill-opacity="0"
     stroke-width="0.96"
     stroke="#000000"
     d="m 360.3539,87.548314 c 1.0445,-0.8705 1.0219,-3.0389 -0.0404,-3.8873 -0.8705,-1.0445 -3.0389,-1.0219 -3.8873,0.0404 -1.0445,0.8704 -1.0219,3.0388 0.0404,3.8873 0.8704,1.0444 3.0388,1.0219 3.8873,-0.0404 z" />
  <path
     inkscape:connector-curvature="0"
     style="stroke-width:2.25;stroke-miterlimit:4;stroke-dasharray:none"
     id="path1756"
     fill-opacity="0"
     stroke-width="0.96"
     stroke="#000000"
     d="m 343.363,101.12361 c 0.1002,1.7686 2.3869,3.428 4.0993,2.9749 1.7686,-0.1002 3.428,-2.3869 2.9749,-4.099396 -0.1002,-1.7685 -2.3869,-3.4279 -4.0994,-2.9748 -1.7685,0.1002 -3.4279,2.3869 -2.9748,4.099296 z" />
  <path
     inkscape:connector-curvature="0"
     style="stroke-width:2.25;stroke-miterlimit:4;stroke-dasharray:none"
     id="path1758"
     fill-opacity="0"
     stroke-width="0.96"
     stroke="#000000"
     d="m 329.0129,13.892884 c -3.4017,-1.23435 -8.0495,-1.05192 -11.8398,0.8444 -3.7902,1.89633 -6.723,5.50654 -7.7749,8.9691 -1.2343,3.40177 -1.0519,8.04953 0.8444,11.83979 1.8963,3.79028 5.5066,6.72304 8.9691,7.77494 3.4018,1.2343 8.0495,1.0519 11.8398,-0.8444 3.7903,-1.8963 6.723,-5.50656 7.7749,-8.96912 1.2344,-3.40177 1.0519,-8.04953 -0.8444,-11.8398 -1.8963,-3.79027 -5.5065,-6.72306 -8.9691,-7.77491 z" />
  <path
     inkscape:connector-curvature="0"
     style="stroke-width:2.25;stroke-miterlimit:4;stroke-dasharray:none"
     id="path1760"
     fill-opacity="0"
     stroke-width="0.96"
     stroke="#000000"
     d="m 346.8137,30.544914 c 2.5516,-0.75345 4.1933,-4.66656 2.9431,-7.01503 -0.7535,-2.5516 -4.6666,-4.19332 -7.0151,-2.94309 -2.5516,0.75344 -4.1933,4.66655 -2.943,7.01503 0.7534,2.55159 4.6665,4.19331 7.015,2.94309 z" />
  <path
     inkscape:connector-curvature="0"
     style="stroke-width:2.25;stroke-miterlimit:4;stroke-dasharray:none"
     id="path1762"
     fill-opacity="0"
     stroke-width="0.96"
     stroke="#000000"
     d="m 322.6639,51.089914 c 1.1098,1.9122 4.5921,2.4689 6.2426,0.9979 1.9123,-1.1098 2.4689,-4.592 0.9979,-6.2426 -1.1097,-1.9122 -4.592,-2.4689 -6.2426,-0.9979 -1.9122,1.1098 -2.4689,4.592 -0.9979,6.2426 z" />
  <path
     inkscape:connector-curvature="0"
     style="stroke-width:2.25;stroke-miterlimit:4;stroke-dasharray:none"
     id="path1764"
     fill-opacity="0"
     stroke-width="0.96"
     stroke="#000000"
     d="m 303.8792,6.9597837 c -4.6365,-1.52541 -11.1969,2.6665 -11.7607,7.5148403 -1.5254,4.63653 2.6665,11.19685 7.5148,11.7607 4.6365,1.5254 11.1969,-2.66652 11.7607,-7.51485 1.5254,-4.63653 -2.6665,-11.1968603 -7.5148,-11.7606903 z" />
  <path
     inkscape:connector-curvature="0"
     style="stroke-width:2.25;stroke-miterlimit:4;stroke-dasharray:none"
     id="path1766"
     fill-opacity="0"
     stroke-width="0.96"
     stroke="#000000"
     d="m 445.5195,201.07331 c 4.9505,3.7817 12.678,5.879 19.8811,4.7192 7.2031,-1.1598 13.8818,-5.5767 17.3951,-10.7211 3.7816,-4.9505 5.879,-12.678 4.7192,-19.8811 -1.1598,-7.2031 -5.5767,-13.8818 -10.7211,-17.3951 -4.9505,-3.7816 -12.6781,-5.879 -19.8812,-4.7192 -7.2031,1.1598 -13.8818,5.5767 -17.395,10.7211 -3.7817,4.9505 -5.879,12.6781 -4.7193,19.8812 1.1598,7.2031 5.5768,13.8818 10.7212,17.395 z" />
  <path
     inkscape:connector-curvature="0"
     style="stroke-width:2.25;stroke-miterlimit:4;stroke-dasharray:none"
     id="path1768"
     fill-opacity="0"
     stroke-width="0.96"
     stroke="#000000"
     d="m 423.7237,175.22161 c -3.4871,1.2922 -5.4062,6.9046 -3.4405,10.0614 1.2922,3.4871 6.9047,5.4063 10.0615,3.4405 3.487,-1.2922 5.4062,-6.9047 3.4405,-10.0615 -1.2923,-3.487 -6.9047,-5.4062 -10.0615,-3.4404 z" />
  <path
     inkscape:connector-curvature="0"
     style="stroke-width:2.25;stroke-miterlimit:4;stroke-dasharray:none"
     id="path1770"
     fill-opacity="0"
     stroke-width="0.96"
     stroke="#000000"
     d="m 435.0537,173.82991 c 0.4127,-1.277 -0.7495,-3.0746 -2.0834,-3.2225 -1.277,-0.4126 -3.0746,0.7495 -3.2226,2.0834 -0.4125,1.277 0.7496,3.0746 2.0835,3.2225 1.277,0.4126 3.0746,-0.7495 3.2225,-2.0834 z" />
  <path
     inkscape:connector-curvature="0"
     style="stroke-width:2.25;stroke-miterlimit:4;stroke-dasharray:none"
     id="path1772"
     fill-opacity="0"
     stroke-width="0.96"
     stroke="#000000"
     d="m 432.1568,192.76331 c 1.2093,0.8061 3.4249,0.1246 3.972,-1.2219 0.8061,-1.2093 0.1245,-3.4249 -1.2219,-3.972 -1.2093,-0.8061 -3.4249,-0.1245 -3.972,1.2219 -0.8061,1.2093 -0.1245,3.4249 1.2219,3.972 z" />
  <path
     inkscape:connector-curvature="0"
     style="stroke-width:2.25;stroke-miterlimit:4;stroke-dasharray:none"
     id="path1774"
     fill-opacity="0"
     stroke-width="0.96"
     stroke="#000000"
     d="m 414.9825,178.61581 c -1.7207,0.3198 -3.0603,2.7688 -2.4016,4.3902 0.3199,1.7206 2.7688,3.0602 4.3902,2.4016 1.7207,-0.3199 3.0603,-2.7689 2.4016,-4.3903 -0.3199,-1.7206 -2.7688,-3.0602 -4.3902,-2.4015 z" />
  <path
     inkscape:connector-curvature="0"
     style="stroke-width:2.25;stroke-miterlimit:4;stroke-dasharray:none"
     id="path1776"
     fill-opacity="0"
     stroke-width="0.96"
     stroke="#000000"
     d="m 472.4031,137.40731 c -1.888,-4.8804 -9.8232,-7.4682 -14.2254,-4.6391 -4.8804,1.8881 -7.4682,9.8233 -4.6391,14.2254 1.8881,4.8804 9.8233,7.4682 14.2254,4.6391 4.8805,-1.888 7.4682,-9.8232 4.6391,-14.2254 z" />
  <path
     inkscape:connector-curvature="0"
     style="stroke-width:2.25;stroke-miterlimit:4;stroke-dasharray:none"
     id="path1778"
     fill-opacity="0"
     stroke-width="0.96"
     stroke="#000000"
     d="m 472.6341,155.32961 c 1.7789,1.0794 4.9066,-0.0305 5.6071,-1.9898 1.0795,-1.7789 -0.0305,-4.9066 -1.9898,-5.6071 -1.7789,-1.0795 -4.9066,0.0305 -5.6071,1.9898 -1.0795,1.7789 0.0305,4.9066 1.9898,5.6071 z" />
  <path
     inkscape:connector-curvature="0"
     style="stroke-width:2.25;stroke-miterlimit:4;stroke-dasharray:none"
     id="path1780"
     fill-opacity="0"
     stroke-width="0.96"
     stroke="#000000"
     d="m 449.1596,149.43681 c -0.8401,1.3908 0.0318,3.8313 1.5628,4.3751 1.3908,0.84 3.8314,-0.0318 4.3751,-1.5629 0.8401,-1.3908 -0.0318,-3.8313 -1.5629,-4.3751 -1.3908,-0.84 -3.8313,0.0318 -4.375,1.5629 z" />
  <path
     inkscape:connector-curvature="0"
     style="stroke-width:2.25;stroke-miterlimit:4;stroke-dasharray:none"
     id="path1782"
     fill-opacity="0"
     stroke-width="0.96"
     stroke="#000000"
     d="m 464.7779,123.51451 c -1.1523,-2.4945 -5.3972,-3.5858 -7.6097,-1.9562 -2.4945,1.1523 -3.5857,5.3971 -1.9562,7.6096 1.1523,2.4946 5.3971,3.5858 7.6097,1.9563 2.4945,-1.1524 3.5857,-5.3972 1.9562,-7.6097 z" />
  <path
     inkscape:connector-curvature="0"
     style="stroke-width:2.25;stroke-miterlimit:4;stroke-dasharray:none"
     id="path1784"
     fill-opacity="0"
     stroke-width="0.96"
     stroke="#000000"
     d="m 469.7382,224.83281 c 2.0404,2.8683 5.8611,5.2913 9.9429,5.8686 4.0818,0.5773 8.4246,-0.6911 11.1804,-2.881 2.8682,-2.0404 5.2912,-5.8611 5.8685,-9.9429 0.5773,-4.0818 -0.6911,-8.4246 -2.881,-11.1804 -2.0404,-2.8683 -5.8611,-5.2913 -9.9429,-5.8686 -4.0818,-0.5773 -8.4246,0.6912 -11.1804,2.8811 -2.8682,2.0404 -5.2912,5.8611 -5.8685,9.9429 -0.5773,4.0817 0.6911,8.4246 2.881,11.1803 z" />
  <path
     inkscape:connector-curvature="0"
     style="stroke-width:2.25;stroke-miterlimit:4;stroke-dasharray:none"
     id="path1786"
     fill-opacity="0"
     stroke-width="0.96"
     stroke="#000000"
     d="m 462.8171,206.08031 c -2.1569,-0.0837 -4.4353,2.4975 -4.0844,4.6273 -0.0837,2.1569 2.4975,4.4352 4.6272,4.0843 2.157,0.0838 4.4353,-2.4974 4.0844,-4.6272 0.0837,-2.1569 -2.4974,-4.4352 -4.6272,-4.0844 z" />
  <path
     inkscape:connector-curvature="0"
     style="stroke-width:2.25;stroke-miterlimit:4;stroke-dasharray:none"
     id="path1788"
     fill-opacity="0"
     stroke-width="0.96"
     stroke="#000000"
     d="m 493.297,195.30701 c -0.3143,-2.5751 -3.8136,-4.7832 -6.2732,-3.9585 -2.5751,0.3142 -4.7832,3.8135 -3.9585,6.2731 0.3143,2.5751 3.8136,4.7832 6.2731,3.9586 2.5751,-0.3143 4.7833,-3.8136 3.9586,-6.2732 z" />
  <path
     inkscape:connector-curvature="0"
     style="stroke-width:2.25;stroke-miterlimit:4;stroke-dasharray:none"
     id="path1790"
     fill-opacity="0"
     stroke-width="0.96"
     stroke="#000000"
     d="m 481.046,243.30501 c 1.6313,4.4321 8.7536,6.885 12.7681,4.3974 4.4321,-1.6314 6.8849,-8.7536 4.3973,-12.7681 -1.6313,-4.4321 -8.7536,-6.885 -12.7681,-4.3974 -4.4321,1.6314 -6.8849,8.7536 -4.3973,12.7681 z" />
  <path
     inkscape:connector-curvature="0"
     style="stroke-width:2.25;stroke-miterlimit:4;stroke-dasharray:none"
     id="path1792"
     fill-opacity="0"
     stroke-width="0.96"
     stroke="#000000"
     d="m 335.5028,165.01671 c -3.1708,5.7563 0.746,15.4793 7.0216,17.4303 5.7564,3.1708 15.4793,-0.746 17.4303,-7.0216 3.1708,-5.7564 -0.746,-15.4793 -7.0216,-17.4303 -5.7563,-3.1708 -15.4793,0.7459 -17.4303,7.0216 z" />
  <path
     inkscape:connector-curvature="0"
     style="stroke-width:2.25;stroke-miterlimit:4;stroke-dasharray:none"
     id="path1794"
     fill-opacity="0"
     stroke-width="0.96"
     stroke="#000000"
     d="m 350.1035,149.73161 c -0.8617,-2.3811 -4.6732,-3.7172 -6.8329,-2.3952 -2.381,0.8617 -3.7171,4.6731 -2.3951,6.8328 0.8616,2.3811 4.6731,3.7172 6.8328,2.3952 2.3811,-0.8617 3.7172,-4.6731 2.3952,-6.8328 z" />
  <path
     inkscape:connector-curvature="0"
     style="stroke-width:2.25;stroke-miterlimit:4;stroke-dasharray:none"
     id="path1796"
     fill-opacity="0"
     stroke-width="0.96"
     stroke="#000000"
     d="m 350.894,157.31601 c 0.819,0.2911 2.0046,-0.4275 2.1255,-1.2882 0.2911,-0.819 -0.4275,-2.0047 -1.2882,-2.1255 -0.819,-0.2911 -2.0046,0.4274 -2.1255,1.2882 -0.2911,0.819 0.4274,2.0046 1.2882,2.1255 z" />
  <path
     inkscape:connector-curvature="0"
     style="stroke-width:2.25;stroke-miterlimit:4;stroke-dasharray:none"
     id="path1798"
     fill-opacity="0"
     stroke-width="0.96"
     stroke="#000000"
     d="m 338.8085,156.29781 c -0.3762,0.8349 0.2762,2.1417 1.1696,2.3427 0.8348,0.3762 2.1416,-0.2762 2.3426,-1.1696 0.3763,-0.8348 -0.2761,-2.1416 -1.1695,-2.3426 -0.8349,-0.3762 -2.1416,0.2762 -2.3427,1.1695 z" />
  <path
     inkscape:connector-curvature="0"
     style="stroke-width:2.25;stroke-miterlimit:4;stroke-dasharray:none"
     id="path1800"
     fill-opacity="0"
     stroke-width="0.96"
     stroke="#000000"
     d="m 347.4925,143.28511 c -0.2931,-1.3079 -2.2049,-2.2646 -3.4274,-1.7151 -1.308,0.293 -2.2646,2.2049 -1.7151,3.4274 0.293,1.3079 2.2048,2.2646 3.4274,1.7151 1.3079,-0.293 2.2646,-2.2049 1.7151,-3.4274 z" />
  <path
     inkscape:connector-curvature="0"
     style="stroke-width:2.25;stroke-miterlimit:4;stroke-dasharray:none"
     id="path1802"
     fill-opacity="0"
     stroke-width="0.96"
     stroke="#000000"
     d="m 366.0017,180.32871 c 2.5231,-0.0362 5.0226,-3.1909 4.4808,-5.6554 -0.0362,-2.5232 -3.1909,-5.0227 -5.6555,-4.4808 -2.5231,0.0361 -5.0226,3.1909 -4.4807,5.6554 0.0361,2.5232 3.1908,5.0226 5.6554,4.4808 z" />
  <path
     inkscape:connector-curvature="0"
     style="stroke-width:2.25;stroke-miterlimit:4;stroke-dasharray:none"
     id="path1804"
     fill-opacity="0"
     stroke-width="0.96"
     stroke="#000000"
     d="m 358.3263,178.23671 c -0.6212,0.6687 -0.4211,2.1106 0.3586,2.5849 0.6686,0.6212 2.1105,0.4211 2.5849,-0.3586 0.6211,-0.6686 0.4211,-2.1105 -0.3586,-2.5848 -0.6686,-0.6212 -2.1105,-0.4212 -2.5849,0.3585 z" />
  <path
     inkscape:connector-curvature="0"
     style="stroke-width:2.25;stroke-miterlimit:4;stroke-dasharray:none"
     id="path1806"
     fill-opacity="0"
     stroke-width="0.96"
     stroke="#000000"
     d="m 363.8582,167.62551 c -0.5985,-0.628 -1.9781,-0.5214 -2.4731,0.1909 -0.6279,0.5985 -0.5214,1.9781 0.191,2.4731 0.5985,0.6279 1.978,0.5214 2.473,-0.191 0.6279,-0.5985 0.5214,-1.978 -0.1909,-2.473 z" />
  <path
     inkscape:connector-curvature="0"
     style="stroke-width:2.25;stroke-miterlimit:4;stroke-dasharray:none"
     id="path1808"
     fill-opacity="0"
     stroke-width="0.96"
     stroke="#000000"
     d="m 373.1491,179.72861 c 1.3322,0.0652 2.7561,-1.5154 2.5525,-2.8336 0.0652,-1.3322 -1.5155,-2.7561 -2.8336,-2.5526 -1.3323,-0.0652 -2.7561,1.5155 -2.5526,2.8337 -0.0652,1.3322 1.5155,2.7561 2.8337,2.5525 z" />
  <path
     inkscape:connector-curvature="0"
     style="stroke-width:2.25;stroke-miterlimit:4;stroke-dasharray:none"
     id="path1810"
     fill-opacity="0"
     stroke-width="0.96"
     stroke="#000000"
     d="m 327.992,179.68421 c -1.7798,2.3651 -0.6515,6.9494 2.0227,8.2183 2.365,1.7797 6.9493,0.6514 8.2182,-2.0228 1.7797,-2.365 0.6514,-6.9493 -2.0227,-8.2182 -2.3651,-1.7797 -6.9494,-0.6514 -8.2182,2.0227 z" />
  <path
     inkscape:connector-curvature="0"
     style="stroke-width:2.25;stroke-miterlimit:4;stroke-dasharray:none"
     id="path1812"
     fill-opacity="0"
     stroke-width="0.96"
     stroke="#000000"
     d="m 335.0406,174.16701 c -0.1997,-0.983 -1.616,-1.7273 -2.5389,-1.3343 -0.983,0.1997 -1.7273,1.616 -1.3343,2.5389 0.1998,0.983 1.616,1.7273 2.5389,1.3343 0.983,-0.1997 1.7273,-1.616 1.3343,-2.5389 z" />
  <path
     inkscape:connector-curvature="0"
     style="stroke-width:2.25;stroke-miterlimit:4;stroke-dasharray:none"
     id="path1814"
     fill-opacity="0"
     stroke-width="0.96"
     stroke="#000000"
     d="m 341.6975,185.90361 c 0.9743,-0.2328 1.669,-1.6716 1.2454,-2.5794 -0.2328,-0.9742 -1.6716,-1.6689 -2.5794,-1.2453 -0.9742,0.2328 -1.6689,1.6715 -1.2453,2.5793 0.2328,0.9743 1.6716,1.669 2.5793,1.2454 z" />
  <path
     inkscape:connector-curvature="0"
     style="stroke-width:2.25;stroke-miterlimit:4;stroke-dasharray:none"
     id="path1816"
     fill-opacity="0"
     stroke-width="0.96"
     stroke="#000000"
     d="m 323.2264,186.93691 c -1.1099,1.2662 -0.664,3.9146 0.7993,4.7477 1.2662,1.1099 3.9146,0.664 4.7477,-0.7993 1.1098,-1.2663 0.664,-3.9147 -0.7993,-4.7478 -1.2662,-1.1098 -3.9146,-0.6639 -4.7477,0.7994 z" />
  <path
     inkscape:connector-curvature="0"
     style="stroke-width:2.25;stroke-miterlimit:4;stroke-dasharray:none"
     id="path1818"
     fill-opacity="0"
     stroke-width="0.96"
     stroke="#000000"
     d="m 251.0823,233.61921 c 4.0694,-0.9229 9.3606,-0.0458 13.4243,2.669 4.0636,2.7147 6.8997,7.2669 7.6051,11.3797 0.9229,4.0694 0.0457,9.3606 -2.669,13.4243 -2.7147,4.0636 -7.267,6.8997 -11.3797,7.6051 -4.0695,0.9229 -9.3607,0.0457 -13.4243,-2.669 -4.0637,-2.7147 -6.8998,-7.267 -7.6052,-11.3797 -0.9229,-4.0694 -0.0457,-9.3606 2.6691,-13.4243 2.7147,-4.0636 7.2669,-6.8998 11.3797,-7.6051 z" />
  <path
     inkscape:connector-curvature="0"
     style="stroke-width:2.25;stroke-miterlimit:4;stroke-dasharray:none"
     id="path1820"
     fill-opacity="0"
     stroke-width="0.96"
     stroke="#000000"
     d="m 226.2035,248.82891 c -3.0351,-1.94 -3.6979,-7.6471 -1.1882,-10.2312 1.94,-3.0351 7.6472,-3.6979 10.2312,-1.1882 3.0351,1.9401 3.6979,7.6472 1.1882,10.2312 -1.9401,3.0351 -7.6472,3.6979 -10.2312,1.1882 z" />
  <path
     inkscape:connector-curvature="0"
     style="stroke-width:2.25;stroke-miterlimit:4;stroke-dasharray:none"
     id="path1822"
     fill-opacity="0"
     stroke-width="0.96"
     stroke="#000000"
     d="m 236.7177,252.16051 c 0.1959,1.2368 -1.135,2.7261 -2.386,2.6698 -1.2368,0.1959 -2.7261,-1.135 -2.6698,-2.386 -0.1959,-1.2368 1.135,-2.7261 2.386,-2.6698 1.2368,-0.196 2.7261,1.135 2.6698,2.386 z" />
  <path
     inkscape:connector-curvature="0"
     style="stroke-width:2.25;stroke-miterlimit:4;stroke-dasharray:none"
     id="path1824"
     fill-opacity="0"
     stroke-width="0.96"
     stroke="#000000"
     d="m 238.8147,235.38801 c 1.2292,-0.2377 2.7623,1.0417 2.7484,2.2935 0.2377,1.2292 -1.0418,2.7623 -2.2936,2.7484 -1.2291,0.2377 -2.7622,-1.0417 -2.7484,-2.2936 -0.2376,-1.2291 1.0418,-2.7622 2.2936,-2.7483 z" />
  <path
     inkscape:connector-curvature="0"
     style="stroke-width:2.25;stroke-miterlimit:4;stroke-dasharray:none"
     id="path1828"
     fill-opacity="0"
     stroke-width="0.96"
     stroke="#000000"
     d="m 209.1089,4.5522937 c -13.5093,2.24582 -27.7378,7.1640703 -40.9255,15.1476703 -13.1877,7.98361 -25.3346,19.0326 -34.6512,32.09955 -9.3165,13.067 -15.8026,28.152 -19.0515,43.2218 -3.249,15.069796 -3.2607,30.124396 -0.9804,43.627896 2.2459,13.5092 7.1641,27.7378 15.1477,40.9255 7.9836,13.1877 19.0326,25.3346 32.0996,34.6511 13.067,9.3166 28.152,15.8027 43.2218,19.0516 15.0698,3.2489 30.1244,3.2606 43.6278,0.9803 13.5093,-2.2458 27.7378,-7.164 40.9255,-15.1476 13.1878,-7.9836 25.3347,-19.0326 34.6512,-32.0996 9.3165,-13.067 15.8027,-28.152 19.0516,-43.2218 3.2489,-15.0698 3.2606,-30.1244 0.9803,-43.6279 -2.2458,-13.509196 -7.1641,-27.737796 -15.1477,-40.925496 -7.9836,-13.1877 -19.0326,-25.3346 -32.0996,-34.65112 -13.067,-9.31652 -28.1519,-15.8026603 -43.2217,-19.0515803 -15.0698,-3.24892 -30.1244,-3.26062 -43.6279,-0.98032 z" />
  <path
     inkscape:connector-curvature="0"
     style="stroke-width:2.25;stroke-miterlimit:4;stroke-dasharray:none"
     id="path1830"
     fill-opacity="0"
     stroke-width="0.96"
     stroke="#000000"
     d="m 486.7464,328.78791 c 4.2203,-12.6579 6.4668,-27.1528 5.599,-42.1478 -0.8678,-14.995 -4.8497,-30.4901 -11.8592,-44.467 -7.0094,-13.9768 -17.0463,-26.4353 -28.5449,-36.099 -11.4986,-9.6636 -24.4589,-16.5322 -37.1276,-20.7202 -12.6579,-4.2203 -27.1527,-6.4668 -42.1477,-5.599 -14.995,0.8678 -30.4901,4.8497 -44.467,11.8592 -13.9769,7.0094 -26.4354,17.0463 -36.099,28.5449 -9.6636,11.4986 -16.5322,24.4589 -20.7203,37.1276 -4.2203,12.6579 -6.4667,27.1528 -5.599,42.1477 0.8678,14.995 4.8498,30.4902 11.8592,44.467 7.0095,13.9768 17.0464,26.4354 28.545,36.099 11.4985,9.6636 24.4589,16.5322 37.1275,20.7202 12.6579,4.2204 27.1528,6.4668 42.1478,5.599 14.995,-0.8677 30.4901,-4.8497 44.4669,-11.8591 13.9769,-7.0095 26.4355,-17.0463 36.099,-28.545 9.6637,-11.4986 16.5323,-24.4589 20.7203,-37.1275 z" />
  <path
     inkscape:connector-curvature="0"
     style="stroke-width:2.25;stroke-miterlimit:4;stroke-dasharray:none"
     id="path1836"
     fill-opacity="0"
     stroke-width="0.96"
     stroke="#000000"
     d="m 191.0587,229.72551 c 13.032,4.387 26.3495,11.5382 38.145,21.5614 11.7955,10.0232 22.069,22.9185 29.2141,37.3615 7.145,14.443 11.1616,30.4336 11.9718,45.8914 0.8101,15.4578 -1.5862,30.3826 -6.0065,43.4034 -4.387,13.032 -11.5381,26.3495 -21.5613,38.145 -10.0232,11.7956 -22.9186,22.069 -37.3616,29.2141 -14.4429,7.145 -30.4336,11.1617 -45.8913,11.9718 -15.4578,0.8101 -30.3827,-1.5862 -43.4035,-6.0065 -13.032,-4.387 -26.349497,-11.5381 -38.144997,-21.5613 -11.7955,-10.0232 -22.069,-22.9186 -29.2141,-37.3616 -7.145,-14.4429 -11.1616,-30.4336 -11.9718,-45.8913 -0.8101,-15.4578 1.5863,-30.3827 6.0065,-43.4035 4.387,-13.032 11.5381,-26.3495 21.5614,-38.145 10.0232,-11.7955 22.9185,-22.069 37.361497,-29.2141 14.443,-7.145 30.4336,-11.1616 45.8914,-11.9718 15.4577,-0.8101 30.3826,1.5863 43.4034,6.0065 z" />
  <path
     inkscape:connector-curvature="0"
     style="stroke-width:2.25;stroke-miterlimit:4;stroke-dasharray:none"
     id="path1840"
     fill-opacity="0"
     stroke-width="0.96"
     stroke="#000000"
     d="m 498.0687,224.19941 c -3.0301,-29.1429 -11.6732,-60.1712 -26.9984,-89.3775 -15.3254,-29.2064 -37.3329,-56.590696 -64.0199,-78.194496 -26.687,-21.60377 -58.0535,-37.427 -89.8108,-46.33508 -31.7572,-8.9080803 -63.9051,-10.90102034 -93.0402,-7.7965703 -29.1429,3.03008 -60.1712,11.6731503 -89.3776,26.9984403 -29.2063,15.32531 -56.590597,37.33281 -78.194397,64.01981 -21.6038,26.687096 -37.427,58.053596 -46.3351,89.810796 -8.9080996,31.7572 -10.90099963,63.9051 -7.7964996,93.0402 3.03,29.143 11.6730996,60.1712 26.9983996,89.3776 15.3253,29.2063 37.3328,56.5906 64.0198,78.1944 26.687097,21.6038 58.053597,37.4271 89.810797,46.3351 31.7572,8.9081 63.9051,10.901 93.0402,7.7966 29.1429,-3.0301 60.1713,-11.6731 89.3776,-26.9985 29.2063,-15.3253 56.5907,-37.3328 78.1944,-64.0198 21.6038,-26.687 37.427,-58.0536 46.3351,-89.8108 8.9081,-31.7572 10.9011,-63.905 7.7966,-93.0402 z" />
</svg>
