<?xml version="1.0" encoding="UTF-8" standalone="no"?>
<!DOCTYPE svg PUBLIC "-//W3C//DTD SVG 1.1//EN" "http://www.w3.org/Graphics/SVG/1.1/DTD/svg11.dtd">
<svg width="480pt" height="360pt" viewBox="0 0 480 360" overflow="visible" version="1.1" xmlns="http://www.w3.org/2000/svg">
  <path d="M88.49585,192.7883 C88.14833,205.8605 94.08082,221.5866 104.9101,232.4159 C115.7394,243.2452 131.4655,249.1777 144.5377,248.8302" stroke="#000000" stroke-width="0.96" fill-opacity="0" />
  <path d="M402.3301,147.9549 C401.9826,134.8828 407.9151,119.1566 418.7444,108.3273 C429.5737,97.49802 445.2998,91.56553 458.3719,91.91305" stroke="#000000" stroke-width="0.96" fill-opacity="0" />
  <path d="M189.3711,91.91305 C202.4433,92.26057 218.1694,86.32808 228.9987,75.49877 C239.828,64.66947 245.7605,48.94334 245.413,35.87122" stroke="#000000" stroke-width="0.96" fill-opacity="0" />
  <path d="M32.45402,91.91305 C45.52614,91.56553 61.25227,97.49802 72.08157,108.3273 C82.91088,119.1566 88.84337,134.8828 88.49585,147.9549" stroke="#000000" stroke-width="0.96" fill-opacity="0" />
  <path d="M77.28748,192.7883 C76.72835,198.3036 82.98058,204.5558 88.49585,203.9967 C94.01112,204.5558 100.2634,198.3036 99.70422,192.7883 C100.2634,187.2731 94.01112,181.0208 88.49585,181.58 C82.98058,181.0208 76.72835,187.2731 77.28748,192.7883 z" stroke="#000000" stroke-width="0.96" fill-opacity="0" />
  <path d="M144.5377,237.6218 C139.0224,237.0627 132.7702,243.3149 133.3293,248.8302 C132.7702,254.3455 139.0224,260.5977 144.5377,260.0385 C150.0529,260.5977 156.3052,254.3455 155.746,248.8302 C156.3052,243.3149 150.0529,237.0627 144.5377,237.6218 z" stroke="#000000" stroke-width="0.96" fill-opacity="0" />
  <path d="M32.45402,237.6218 C26.93874,237.0627 20.68652,243.3149 21.24565,248.8302 C20.68652,254.3455 26.93874,260.5977 32.45402,260.0385 C37.96929,260.5977 44.22152,254.3455 43.66238,248.8302 C44.22152,243.3149 37.96929,237.0627 32.45402,237.6218 z" stroke="#000000" stroke-width="0.96" fill-opacity="0" />
  <path d="M99.70422,304.872 C100.2634,299.3567 94.01112,293.1045 88.49585,293.6636 C82.98058,293.1045 76.72835,299.3567 77.28748,304.872 C76.72835,310.3873 82.98058,316.6395 88.49585,316.0804 C94.01112,316.6395 100.2634,310.3873 99.70422,304.872 z" stroke="#000000" stroke-width="0.96" fill-opacity="0" />
  <path d="M256.6213,304.872 C257.1805,299.3567 250.9283,293.1045 245.413,293.6636 C239.8977,293.1045 233.6455,299.3567 234.2046,304.872 C233.6455,310.3873 239.8977,316.6395 245.413,316.0804 C250.9283,316.6395 257.1805,310.3873 256.6213,304.872 z" stroke="#000000" stroke-width="0.96" fill-opacity="0" />
  <path d="M189.3711,237.6218 C183.8559,237.0627 177.6037,243.3149 178.1628,248.8302 C177.6037,254.3455 183.8559,260.5977 189.3711,260.0385 C194.8864,260.5977 201.1386,254.3455 200.5795,248.8302 C201.1386,243.3149 194.8864,237.0627 189.3711,237.6218 z" stroke="#000000" stroke-width="0.96" fill-opacity="0" />
  <path d="M301.4548,237.6218 C295.9395,237.0627 289.6873,243.3149 290.2464,248.8302 C289.6873,254.3455 295.9395,260.5977 301.4548,260.0385 C306.9701,260.5977 313.2223,254.3455 312.6632,248.8302 C313.2223,243.3149 306.9701,237.0627 301.4548,237.6218 z" stroke="#000000" stroke-width="0.96" fill-opacity="0" />
  <path d="M234.2046,192.7883 C233.6455,198.3036 239.8977,204.5558 245.413,203.9967 C250.9283,204.5558 257.1805,198.3036 256.6213,192.7883 C257.1805,187.2731 250.9283,181.0208 245.413,181.58 C239.8977,181.0208 233.6455,187.2731 234.2046,192.7883 z" stroke="#000000" stroke-width="0.96" fill-opacity="0" />
  <path d="M391.1217,192.7883 C390.5626,198.3036 396.8148,204.5558 402.3301,203.9967 C407.8454,204.5558 414.0976,198.3036 413.5385,192.7883 C414.0976,187.2731 407.8454,181.0208 402.3301,181.58 C396.8148,181.0208 390.5626,187.2731 391.1217,192.7883 z" stroke="#000000" stroke-width="0.96" fill-opacity="0" />
  <path d="M458.3719,237.6218 C452.8567,237.0627 446.6044,243.3149 447.1636,248.8302 C446.6044,254.3455 452.8567,260.5977 458.3719,260.0385 C463.8872,260.5977 470.1394,254.3455 469.5803,248.8302 C470.1394,243.3149 463.8872,237.0627 458.3719,237.6218 z" stroke="#000000" stroke-width="0.96" fill-opacity="0" />
  <path d="M346.2883,237.6218 C340.773,237.0627 334.5208,243.3149 335.0799,248.8302 C334.5208,254.3455 340.773,260.5977 346.2883,260.0385 C351.8036,260.5977 358.0558,254.3455 357.4966,248.8302 C358.0558,243.3149 351.8036,237.0627 346.2883,237.6218 z" stroke="#000000" stroke-width="0.96" fill-opacity="0" />
  <path d="M413.5385,304.872 C414.0976,299.3567 407.8454,293.1045 402.3301,293.6636 C396.8148,293.1045 390.5626,299.3567 391.1217,304.872 C390.5626,310.3873 396.8148,316.6395 402.3301,316.0804 C407.8454,316.6395 414.0976,310.3873 413.5385,304.872 z" stroke="#000000" stroke-width="0.96" fill-opacity="0" />
  <path d="M413.5385,147.9549 C414.0976,142.4396 407.8454,136.1874 402.3301,136.7465 C396.8148,136.1874 390.5626,142.4396 391.1217,147.9549 C390.5626,153.4702 396.8148,159.7224 402.3301,159.1632 C407.8454,159.7224 414.0976,153.4702 413.5385,147.9549 z" stroke="#000000" stroke-width="0.96" fill-opacity="0" />
  <path d="M346.2883,80.70468 C340.773,80.14555 334.5208,86.39777 335.0799,91.91305 C334.5208,97.42832 340.773,103.6805 346.2883,103.1214 C351.8036,103.6805 358.0558,97.42832 357.4966,91.91305 C358.0558,86.39777 351.8036,80.14555 346.2883,80.70468 z" stroke="#000000" stroke-width="0.96" fill-opacity="0" />
  <path d="M458.3719,80.70468 C452.8567,80.14555 446.6044,86.39777 447.1636,91.91305 C446.6044,97.42832 452.8567,103.6805 458.3719,103.1214 C463.8872,103.6805 470.1394,97.42832 469.5803,91.91305 C470.1394,86.39777 463.8872,80.14555 458.3719,80.70468 z" stroke="#000000" stroke-width="0.96" fill-opacity="0" />
  <path d="M391.1217,35.87122 C390.5626,41.38649 396.8148,47.63871 402.3301,47.07958 C407.8454,47.63871 414.0976,41.38649 413.5385,35.87122 C414.0976,30.35594 407.8454,24.10371 402.3301,24.66285 C396.8148,24.10371 390.5626,30.35594 391.1217,35.87122 z" stroke="#000000" stroke-width="0.96" fill-opacity="0" />
  <path d="M234.2046,35.87122 C233.6455,41.38649 239.8977,47.63871 245.413,47.07958 C250.9283,47.63871 257.1805,41.38649 256.6213,35.87122 C257.1805,30.35594 250.9283,24.10371 245.413,24.66285 C239.8977,24.10371 233.6455,30.35594 234.2046,35.87122 z" stroke="#000000" stroke-width="0.96" fill-opacity="0" />
  <path d="M301.4548,80.70468 C295.9395,80.14555 289.6873,86.39777 290.2464,91.91305 C289.6873,97.42832 295.9395,103.6805 301.4548,103.1214 C306.9701,103.6805 313.2223,97.42832 312.6632,91.91305 C313.2223,86.39777 306.9701,80.14555 301.4548,80.70468 z" stroke="#000000" stroke-width="0.96" fill-opacity="0" />
  <path d="M189.3711,80.70468 C183.8559,80.14555 177.6037,86.39777 178.1628,91.91305 C177.6037,97.42832 183.8559,103.6805 189.3711,103.1214 C194.8864,103.6805 201.1386,97.42832 200.5795,91.91305 C201.1386,86.39777 194.8864,80.14555 189.3711,80.70468 z" stroke="#000000" stroke-width="0.96" fill-opacity="0" />
  <path d="M256.6213,147.9549 C257.1805,142.4396 250.9283,136.1874 245.413,136.7465 C239.8977,136.1874 233.6455,142.4396 234.2046,147.9549 C233.6455,153.4702 239.8977,159.7224 245.413,159.1632 C250.9283,159.7224 257.1805,153.4702 256.6213,147.9549 z" stroke="#000000" stroke-width="0.96" fill-opacity="0" />
  <path d="M99.70422,147.9549 C100.2634,142.4396 94.01112,136.1874 88.49585,136.7465 C82.98058,136.1874 76.72835,142.4396 77.28748,147.9549 C76.72835,153.4702 82.98058,159.7224 88.49585,159.1632 C94.01112,159.7224 100.2634,153.4702 99.70422,147.9549 z" stroke="#000000" stroke-width="0.96" fill-opacity="0" />
  <path d="M32.45402,80.70468 C26.93874,80.14555 20.68652,86.39777 21.24565,91.91305 C20.68652,97.42832 26.93874,103.6805 32.45402,103.1214 C37.96929,103.6805 44.22152,97.42832 43.66238,91.91305 C44.22152,86.39777 37.96929,80.14555 32.45402,80.70468 z" stroke="#000000" stroke-width="0.96" fill-opacity="0" />
  <path d="M144.5377,80.70468 C139.0224,80.14555 132.7702,86.39777 133.3293,91.91305 C132.7702,97.42832 139.0224,103.6805 144.5377,103.1214 C150.0529,103.6805 156.3052,97.42832 155.746,91.91305 C156.3052,86.39777 150.0529,80.14555 144.5377,80.70468 z" stroke="#000000" stroke-width="0.96" fill-opacity="0" />
  <path d="M77.28748,35.87122 C76.72835,41.38649 82.98058,47.63871 88.49585,47.07958 C94.01112,47.63871 100.2634,41.38649 99.70422,35.87122 C100.2634,30.35594 94.01112,24.10371 88.49585,24.66285 C82.98058,24.10371 76.72835,30.35594 77.28748,35.87122 z" stroke="#000000" stroke-width="0.96" fill-opacity="0" />
  <path d="M144.5377,237.6218 L144.5377,192.7884 L99.70424,192.7884" stroke="#000000" stroke-width="0.96" fill-opacity="0" />
  <path d="M77.28751,192.7884 L32.45404,192.7884 L32.45404,237.6218" stroke="#000000" stroke-width="0.96" fill-opacity="0" />
  <path d="M32.45404,260.0386 L32.45404,304.872 L77.28751,304.872" stroke="#000000" stroke-width="0.96" fill-opacity="0" />
  <path d="M99.70424,304.872 L144.5377,304.872 L144.5377,260.0386" stroke="#000000" stroke-width="0.96" fill-opacity="0" />
  <path d="M256.6214,304.872 L301.4548,304.872 L301.4548,260.0386" stroke="#000000" stroke-width="0.96" fill-opacity="0" />
  <path d="M189.3712,260.0386 L189.3712,304.872 L234.2046,304.872" stroke="#000000" stroke-width="0.96" fill-opacity="0" />
  <path d="M234.2046,192.7884 L189.3712,192.7884 L189.3712,237.6218" stroke="#000000" stroke-width="0.96" fill-opacity="0" />
  <path d="M301.4548,237.6218 L301.4548,192.7884 L256.6214,192.7884" stroke="#000000" stroke-width="0.96" fill-opacity="0" />
  <path d="M458.372,237.6218 L458.372,192.7884 L413.5385,192.7884" stroke="#000000" stroke-width="0.96" fill-opacity="0" />
  <path d="M391.1218,192.7884 L346.2883,192.7884 L346.2883,237.6218" stroke="#000000" stroke-width="0.96" fill-opacity="0" />
  <path d="M346.2883,260.0386 L346.2883,304.872 L391.1218,304.872" stroke="#000000" stroke-width="0.96" fill-opacity="0" />
  <path d="M413.5385,304.872 L458.372,304.872 L458.372,260.0386" stroke="#000000" stroke-width="0.96" fill-opacity="0" />
  <path d="M413.5385,147.9549 L458.372,147.9549 L458.372,103.1214" stroke="#000000" stroke-width="0.96" fill-opacity="0" />
  <path d="M346.2883,103.1214 L346.2883,147.9549 L391.1218,147.9549" stroke="#000000" stroke-width="0.96" fill-opacity="0" />
  <path d="M391.1218,35.87123 L346.2883,35.87123 L346.2883,80.7047" stroke="#000000" stroke-width="0.96" fill-opacity="0" />
  <path d="M458.372,80.7047 L458.372,35.87123 L413.5385,35.87123" stroke="#000000" stroke-width="0.96" fill-opacity="0" />
  <path d="M301.4548,80.7047 L301.4548,35.87123 L256.6214,35.87123" stroke="#000000" stroke-width="0.96" fill-opacity="0" />
  <path d="M234.2046,35.87123 L189.3712,35.87123 L189.3712,80.7047" stroke="#000000" stroke-width="0.96" fill-opacity="0" />
  <path d="M189.3712,103.1214 L189.3712,147.9549 L234.2046,147.9549" stroke="#000000" stroke-width="0.96" fill-opacity="0" />
  <path d="M256.6214,147.9549 L301.4548,147.9549 L301.4548,103.1214" stroke="#000000" stroke-width="0.96" fill-opacity="0" />
  <path d="M99.70424,147.9549 L144.5377,147.9549 L144.5377,103.1214" stroke="#000000" stroke-width="0.96" fill-opacity="0" />
  <path d="M32.45404,103.1214 L32.45404,147.9549 L77.28751,147.9549" stroke="#000000" stroke-width="0.96" fill-opacity="0" />
  <path d="M77.28751,35.87123 L32.45404,35.87123 L32.45404,80.7047" stroke="#000000" stroke-width="0.96" fill-opacity="0" />
  <path d="M144.5377,80.7047 L144.5377,35.87123 L99.70424,35.87123" stroke="#000000" stroke-width="0.96" fill-opacity="0" />
  <path d="M245.413,192.7884 L245.413,304.872" stroke="#000000" stroke-width="0.96" fill-opacity="0" />
  <path d="M346.2883,248.8302 L458.372,248.8302" stroke="#000000" stroke-width="0.96" fill-opacity="0" />
</svg>