<?xml version="1.0" encoding="UTF-8" standalone="no"?>
<!DOCTYPE svg PUBLIC "-//W3C//DTD SVG 1.1//EN" "http://www.w3.org/Graphics/SVG/1.1/DTD/svg11.dtd">
<svg width="480pt" height="288pt" viewBox="0 0 480 288" overflow="visible" version="1.1" xmlns="http://www.w3.org/2000/svg">
  <path d="M44.95345,95.11035 L45.9292,95.11035" stroke="#000000" stroke-width="0.96" fill-opacity="0" />
  <path d="M47.88068,95.11035 L49.83217,95.11035" stroke="#000000" stroke-width="0.96" fill-opacity="0" />
  <path d="M51.78365,95.11035 L53.73514,95.11035" stroke="#000000" stroke-width="0.96" fill-opacity="0" />
  <path d="M55.68663,95.11035 L57.63811,95.11035" stroke="#000000" stroke-width="0.96" fill-opacity="0" />
  <path d="M59.5896,95.11035 L61.54108,95.11035" stroke="#000000" stroke-width="0.96" fill-opacity="0" />
  <path d="M63.49257,95.11035 L65.44405,95.11035" stroke="#000000" stroke-width="0.96" fill-opacity="0" />
  <path d="M67.39554,95.11035 L69.34702,95.11035" stroke="#000000" stroke-width="0.96" fill-opacity="0" />
  <path d="M71.29851,95.11035 L73.24999,95.11035" stroke="#000000" stroke-width="0.96" fill-opacity="0" />
  <path d="M75.20148,95.11035 L77.15296,95.11035" stroke="#000000" stroke-width="0.96" fill-opacity="0" />
  <path d="M79.10445,95.11035 L81.05594,95.11035" stroke="#000000" stroke-width="0.96" fill-opacity="0" />
  <path d="M83.00742,95.11035 L84.95891,95.11035" stroke="#000000" stroke-width="0.96" fill-opacity="0" />
  <path d="M86.91039,95.11035 L88.86188,95.11035" stroke="#000000" stroke-width="0.96" fill-opacity="0" />
  <path d="M90.81336,95.11035 L92.76485,95.11035" stroke="#000000" stroke-width="0.96" fill-opacity="0" />
  <path d="M94.71633,95.11035 L96.66782,95.11035" stroke="#000000" stroke-width="0.96" fill-opacity="0" />
  <path d="M98.61931,95.11035 L100.5708,95.11035" stroke="#000000" stroke-width="0.96" fill-opacity="0" />
  <path d="M102.5223,95.11035 L104.4738,95.11035" stroke="#000000" stroke-width="0.96" fill-opacity="0" />
  <path d="M106.4252,95.11035 L108.3767,95.11035" stroke="#000000" stroke-width="0.96" fill-opacity="0" />
  <path d="M110.3282,95.11035 L112.2797,95.11035" stroke="#000000" stroke-width="0.96" fill-opacity="0" />
  <path d="M114.2312,95.11035 L116.1827,95.11035" stroke="#000000" stroke-width="0.96" fill-opacity="0" />
  <path d="M118.1342,95.11035 L120.0856,95.11035" stroke="#000000" stroke-width="0.96" fill-opacity="0" />
  <path d="M122.0371,95.11035 L123.9886,95.11035" stroke="#000000" stroke-width="0.96" fill-opacity="0" />
  <path d="M125.9401,95.11035 L127.8916,95.11035" stroke="#000000" stroke-width="0.96" fill-opacity="0" />
  <path d="M129.8431,95.11035 L131.7946,95.11035" stroke="#000000" stroke-width="0.96" fill-opacity="0" />
  <path d="M133.746,95.11035 L135.6975,95.11035" stroke="#000000" stroke-width="0.96" fill-opacity="0" />
  <path d="M137.649,95.11035 L139.6005,95.11035" stroke="#000000" stroke-width="0.96" fill-opacity="0" />
  <path d="M141.552,95.11035 L143.5035,95.11035" stroke="#000000" stroke-width="0.96" fill-opacity="0" />
  <path d="M145.455,95.11035 L147.4064,95.11035" stroke="#000000" stroke-width="0.96" fill-opacity="0" />
  <path d="M149.3579,95.11035 L151.3094,95.11035" stroke="#000000" stroke-width="0.96" fill-opacity="0" />
  <path d="M153.2609,95.11035 L155.2124,95.11035" stroke="#000000" stroke-width="0.96" fill-opacity="0" />
  <path d="M157.1639,95.11035 L159.1154,95.11035" stroke="#000000" stroke-width="0.96" fill-opacity="0" />
  <path d="M161.0668,95.11035 L163.0183,95.11035" stroke="#000000" stroke-width="0.96" fill-opacity="0" />
  <path d="M164.9698,95.11035 L166.9213,95.11035" stroke="#000000" stroke-width="0.96" fill-opacity="0" />
  <path d="M168.8728,95.11035 L170.8243,95.11035" stroke="#000000" stroke-width="0.96" fill-opacity="0" />
  <path d="M172.7758,95.11035 L174.7272,95.11035" stroke="#000000" stroke-width="0.96" fill-opacity="0" />
  <path d="M176.6787,95.11035 L178.6302,95.11035" stroke="#000000" stroke-width="0.96" fill-opacity="0" />
  <path d="M180.5817,95.11035 L182.5332,95.11035" stroke="#000000" stroke-width="0.96" fill-opacity="0" />
  <path d="M184.4847,95.11035 L186.4362,95.11035" stroke="#000000" stroke-width="0.96" fill-opacity="0" />
  <path d="M188.3876,95.11035 L190.3391,95.11035" stroke="#000000" stroke-width="0.96" fill-opacity="0" />
  <path d="M192.2906,95.11035 L194.2421,95.11035" stroke="#000000" stroke-width="0.96" fill-opacity="0" />
  <path d="M196.1936,95.11035 L198.1451,95.11035" stroke="#000000" stroke-width="0.96" fill-opacity="0" />
  <path d="M200.0965,95.11035 L202.048,95.11035" stroke="#000000" stroke-width="0.96" fill-opacity="0" />
  <path d="M203.9995,95.11035 L205.951,95.11035" stroke="#000000" stroke-width="0.96" fill-opacity="0" />
  <path d="M207.9025,95.11035 L209.854,95.11035" stroke="#000000" stroke-width="0.96" fill-opacity="0" />
  <path d="M211.8055,95.11035 L213.7569,95.11035" stroke="#000000" stroke-width="0.96" fill-opacity="0" />
  <path d="M215.7084,95.11035 L217.6599,95.11035" stroke="#000000" stroke-width="0.96" fill-opacity="0" />
  <path d="M219.6114,95.11035 L221.5629,95.11035" stroke="#000000" stroke-width="0.96" fill-opacity="0" />
  <path d="M223.5144,95.11035 L225.4659,95.11035" stroke="#000000" stroke-width="0.96" fill-opacity="0" />
  <path d="M227.4173,95.11035 L229.3688,95.11035" stroke="#000000" stroke-width="0.96" fill-opacity="0" />
  <path d="M231.3203,95.11035 L233.2718,95.11035" stroke="#000000" stroke-width="0.96" fill-opacity="0" />
  <path d="M235.2233,95.11035 L237.1748,95.11035" stroke="#000000" stroke-width="0.96" fill-opacity="0" />
  <path d="M239.1263,95.11035 L241.0777,95.11035" stroke="#000000" stroke-width="0.96" fill-opacity="0" />
  <path d="M243.0292,95.11035 L244.9807,95.11035" stroke="#000000" stroke-width="0.96" fill-opacity="0" />
  <path d="M246.9322,95.11035 L248.8837,95.11035" stroke="#000000" stroke-width="0.96" fill-opacity="0" />
  <path d="M250.8352,95.11035 L252.7867,95.11035" stroke="#000000" stroke-width="0.96" fill-opacity="0" />
  <path d="M254.7381,95.11035 L256.6896,95.11035" stroke="#000000" stroke-width="0.96" fill-opacity="0" />
  <path d="M258.6411,95.11035 L260.5926,95.11035" stroke="#000000" stroke-width="0.96" fill-opacity="0" />
  <path d="M262.5441,95.11035 L264.4956,95.11035" stroke="#000000" stroke-width="0.96" fill-opacity="0" />
  <path d="M266.4471,95.11035 L268.3985,95.11035" stroke="#000000" stroke-width="0.96" fill-opacity="0" />
  <path d="M270.35,95.11035 L272.3015,95.11035" stroke="#000000" stroke-width="0.96" fill-opacity="0" />
  <path d="M274.253,95.11035 L276.2045,95.11035" stroke="#000000" stroke-width="0.96" fill-opacity="0" />
  <path d="M278.156,95.11035 L280.1075,95.11035" stroke="#000000" stroke-width="0.96" fill-opacity="0" />
  <path d="M282.0589,95.11035 L284.0104,95.11035" stroke="#000000" stroke-width="0.96" fill-opacity="0" />
  <path d="M285.9619,95.11035 L287.9134,95.11035" stroke="#000000" stroke-width="0.96" fill-opacity="0" />
  <path d="M289.8649,95.11035 L291.8164,95.11035" stroke="#000000" stroke-width="0.96" fill-opacity="0" />
  <path d="M293.7679,95.11035 L295.7193,95.11035" stroke="#000000" stroke-width="0.96" fill-opacity="0" />
  <path d="M297.6708,95.11035 L299.6223,95.11035" stroke="#000000" stroke-width="0.96" fill-opacity="0" />
  <path d="M301.5738,95.11035 L303.5253,95.11035" stroke="#000000" stroke-width="0.96" fill-opacity="0" />
  <path d="M305.4768,95.11035 L307.4283,95.11035" stroke="#000000" stroke-width="0.96" fill-opacity="0" />
  <path d="M309.3797,95.11035 L311.3312,95.11035" stroke="#000000" stroke-width="0.96" fill-opacity="0" />
  <path d="M313.2827,95.11035 L315.2342,95.11035" stroke="#000000" stroke-width="0.96" fill-opacity="0" />
  <path d="M317.1857,95.11035 L319.1372,95.11035" stroke="#000000" stroke-width="0.96" fill-opacity="0" />
  <path d="M321.0887,95.11035 L323.0401,95.11035" stroke="#000000" stroke-width="0.96" fill-opacity="0" />
  <path d="M324.9916,95.11035 L326.9431,95.11035" stroke="#000000" stroke-width="0.96" fill-opacity="0" />
  <path d="M328.8946,95.11035 L330.8461,95.11035" stroke="#000000" stroke-width="0.96" fill-opacity="0" />
  <path d="M332.7975,95.11035 L334.7491,95.11035" stroke="#000000" stroke-width="0.96" fill-opacity="0" />
  <path d="M336.7005,95.11035 L338.652,95.11035" stroke="#000000" stroke-width="0.96" fill-opacity="0" />
  <path d="M340.6035,95.11035 L342.555,95.11035" stroke="#000000" stroke-width="0.96" fill-opacity="0" />
  <path d="M344.5065,95.11035 L346.4579,95.11035" stroke="#000000" stroke-width="0.96" fill-opacity="0" />
  <path d="M348.4095,95.11035 L350.3609,95.11035" stroke="#000000" stroke-width="0.96" fill-opacity="0" />
  <path d="M352.3124,95.11035 L354.2639,95.11035" stroke="#000000" stroke-width="0.96" fill-opacity="0" />
  <path d="M356.2154,95.11035 L358.1669,95.11035" stroke="#000000" stroke-width="0.96" fill-opacity="0" />
  <path d="M360.1183,95.11035 L362.0699,95.11035" stroke="#000000" stroke-width="0.96" fill-opacity="0" />
  <path d="M364.0213,95.11035 L365.9728,95.11035" stroke="#000000" stroke-width="0.96" fill-opacity="0" />
  <path d="M367.9243,95.11035 L369.8758,95.11035" stroke="#000000" stroke-width="0.96" fill-opacity="0" />
  <path d="M371.8273,95.11035 L373.7787,95.11035" stroke="#000000" stroke-width="0.96" fill-opacity="0" />
  <path d="M375.7303,95.11035 L377.6817,95.11035" stroke="#000000" stroke-width="0.96" fill-opacity="0" />
  <path d="M379.6332,95.11035 L381.5847,95.11035" stroke="#000000" stroke-width="0.96" fill-opacity="0" />
  <path d="M383.5362,95.11035 L385.4877,95.11035" stroke="#000000" stroke-width="0.96" fill-opacity="0" />
  <path d="M387.4391,95.11035 L389.3906,95.11035" stroke="#000000" stroke-width="0.96" fill-opacity="0" />
  <path d="M391.3421,95.11035 L393.2936,95.11035" stroke="#000000" stroke-width="0.96" fill-opacity="0" />
  <path d="M395.2451,95.11035 L397.1966,95.11035" stroke="#000000" stroke-width="0.96" fill-opacity="0" />
  <path d="M399.1481,95.11035 L401.0995,95.11035" stroke="#000000" stroke-width="0.96" fill-opacity="0" />
  <path d="M403.051,95.11035 L405.0025,95.11035" stroke="#000000" stroke-width="0.96" fill-opacity="0" />
  <path d="M406.954,95.11035 L408.9055,95.11035" stroke="#000000" stroke-width="0.96" fill-opacity="0" />
  <path d="M410.857,95.11035 L412.8085,95.11035" stroke="#000000" stroke-width="0.96" fill-opacity="0" />
  <path d="M414.7599,95.11035 L416.7114,95.11035" stroke="#000000" stroke-width="0.96" fill-opacity="0" />
  <path d="M418.6629,95.11035 L420.6144,95.11035" stroke="#000000" stroke-width="0.96" fill-opacity="0" />
  <path d="M422.5659,95.11035 L424.5174,95.11035" stroke="#000000" stroke-width="0.96" fill-opacity="0" />
  <path d="M426.4689,95.11035 L428.4203,95.11035" stroke="#000000" stroke-width="0.96" fill-opacity="0" />
  <path d="M430.3718,95.11035 L432.3233,95.11035" stroke="#000000" stroke-width="0.96" fill-opacity="0" />
  <path d="M434.2748,95.11035 L435.2505,95.11035" stroke="#000000" stroke-width="0.96" fill-opacity="0" />
  <path d="M386.4634,46.32322 L386.4634,47.29896" stroke="#000000" stroke-width="0.96" fill-opacity="0" />
  <path d="M386.4634,49.25045 L386.4634,51.20193" stroke="#000000" stroke-width="0.96" fill-opacity="0" />
  <path d="M386.4634,53.15342 L386.4634,55.1049" stroke="#000000" stroke-width="0.96" fill-opacity="0" />
  <path d="M386.4634,57.05639 L386.4634,59.00787" stroke="#000000" stroke-width="0.96" fill-opacity="0" />
  <path d="M386.4634,60.95936 L386.4634,62.91084" stroke="#000000" stroke-width="0.96" fill-opacity="0" />
  <path d="M386.4634,64.86233 L386.4634,66.81381" stroke="#000000" stroke-width="0.96" fill-opacity="0" />
  <path d="M386.4634,68.7653 L386.4634,70.71678" stroke="#000000" stroke-width="0.96" fill-opacity="0" />
  <path d="M386.4634,72.66827 L386.4634,74.61976" stroke="#000000" stroke-width="0.96" fill-opacity="0" />
  <path d="M386.4634,76.57124 L386.4634,78.52273" stroke="#000000" stroke-width="0.96" fill-opacity="0" />
  <path d="M386.4634,80.47421 L386.4634,82.4257" stroke="#000000" stroke-width="0.96" fill-opacity="0" />
  <path d="M386.4634,84.37718 L386.4634,86.32867" stroke="#000000" stroke-width="0.96" fill-opacity="0" />
  <path d="M386.4634,88.28015 L386.4634,90.23164" stroke="#000000" stroke-width="0.96" fill-opacity="0" />
  <path d="M386.4634,92.18313 L386.4634,94.13461" stroke="#000000" stroke-width="0.96" fill-opacity="0" />
  <path d="M386.4634,96.0861 L386.4634,98.03758" stroke="#000000" stroke-width="0.96" fill-opacity="0" />
  <path d="M386.4634,99.98907 L386.4634,101.9406" stroke="#000000" stroke-width="0.96" fill-opacity="0" />
  <path d="M386.4634,103.892 L386.4634,105.8435" stroke="#000000" stroke-width="0.96" fill-opacity="0" />
  <path d="M386.4634,107.795 L386.4634,109.7465" stroke="#000000" stroke-width="0.96" fill-opacity="0" />
  <path d="M386.4634,111.698 L386.4634,113.6495" stroke="#000000" stroke-width="0.96" fill-opacity="0" />
  <path d="M386.4634,115.601 L386.4634,117.5524" stroke="#000000" stroke-width="0.96" fill-opacity="0" />
  <path d="M386.4634,119.5039 L386.4634,121.4554" stroke="#000000" stroke-width="0.96" fill-opacity="0" />
  <path d="M386.4634,123.4069 L386.4634,125.3584" stroke="#000000" stroke-width="0.96" fill-opacity="0" />
  <path d="M386.4634,127.3099 L386.4634,129.2614" stroke="#000000" stroke-width="0.96" fill-opacity="0" />
  <path d="M386.4634,131.2128 L386.4634,133.1643" stroke="#000000" stroke-width="0.96" fill-opacity="0" />
  <path d="M386.4634,135.1158 L386.4634,137.0673" stroke="#000000" stroke-width="0.96" fill-opacity="0" />
  <path d="M386.4634,139.0188 L386.4634,140.9703" stroke="#000000" stroke-width="0.96" fill-opacity="0" />
  <path d="M386.4634,142.9218 L386.4634,144.8732" stroke="#000000" stroke-width="0.96" fill-opacity="0" />
  <path d="M386.4634,146.8247 L386.4634,148.7762" stroke="#000000" stroke-width="0.96" fill-opacity="0" />
  <path d="M386.4634,150.7277 L386.4634,152.6792" stroke="#000000" stroke-width="0.96" fill-opacity="0" />
  <path d="M386.4634,154.6307 L386.4634,156.5821" stroke="#000000" stroke-width="0.96" fill-opacity="0" />
  <path d="M386.4634,158.5336 L386.4634,160.4851" stroke="#000000" stroke-width="0.96" fill-opacity="0" />
  <path d="M386.4634,162.4366 L386.4634,164.3881" stroke="#000000" stroke-width="0.96" fill-opacity="0" />
  <path d="M386.4634,166.3396 L386.4634,168.2911" stroke="#000000" stroke-width="0.96" fill-opacity="0" />
  <path d="M386.4634,170.2425 L386.4634,172.194" stroke="#000000" stroke-width="0.96" fill-opacity="0" />
  <path d="M386.4634,174.1455 L386.4634,176.097" stroke="#000000" stroke-width="0.96" fill-opacity="0" />
  <path d="M386.4634,178.0485 L386.4634,180" stroke="#000000" stroke-width="0.96" fill-opacity="0" />
  <path d="M386.4634,181.9515 L386.4634,183.9029" stroke="#000000" stroke-width="0.96" fill-opacity="0" />
  <path d="M386.4634,185.8544 L386.4634,187.8059" stroke="#000000" stroke-width="0.96" fill-opacity="0" />
  <path d="M386.4634,189.7574 L386.4634,191.7089" stroke="#000000" stroke-width="0.96" fill-opacity="0" />
  <path d="M386.4634,193.6604 L386.4634,195.6119" stroke="#000000" stroke-width="0.96" fill-opacity="0" />
  <path d="M386.4634,197.5633 L386.4634,199.5148" stroke="#000000" stroke-width="0.96" fill-opacity="0" />
  <path d="M386.4634,201.4663 L386.4634,203.4178" stroke="#000000" stroke-width="0.96" fill-opacity="0" />
  <path d="M386.4634,205.3693 L386.4634,207.3208" stroke="#000000" stroke-width="0.96" fill-opacity="0" />
  <path d="M386.4634,209.2722 L386.4634,211.2237" stroke="#000000" stroke-width="0.96" fill-opacity="0" />
  <path d="M386.4634,213.1752 L386.4634,215.1267" stroke="#000000" stroke-width="0.96" fill-opacity="0" />
  <path d="M386.4634,217.0782 L386.4634,219.0297" stroke="#000000" stroke-width="0.96" fill-opacity="0" />
  <path d="M386.4634,220.9812 L386.4634,222.9326" stroke="#000000" stroke-width="0.96" fill-opacity="0" />
  <path d="M386.4634,224.8841 L386.4634,226.8356" stroke="#000000" stroke-width="0.96" fill-opacity="0" />
  <path d="M386.4634,228.7871 L386.4634,230.7386" stroke="#000000" stroke-width="0.96" fill-opacity="0" />
  <path d="M386.4634,232.6901 L386.4634,234.6416" stroke="#000000" stroke-width="0.96" fill-opacity="0" />
  <path d="M386.4634,236.593 L386.4634,238.5445" stroke="#000000" stroke-width="0.96" fill-opacity="0" />
  <path d="M386.4634,240.496 L386.4634,241.4718" stroke="#000000" stroke-width="0.96" fill-opacity="0" />
  <path d="M288.8891,46.32322 L288.8891,47.29896" stroke="#000000" stroke-width="0.96" fill-opacity="0" />
  <path d="M288.8891,49.25045 L288.8891,51.20193" stroke="#000000" stroke-width="0.96" fill-opacity="0" />
  <path d="M288.8891,53.15342 L288.8891,55.1049" stroke="#000000" stroke-width="0.96" fill-opacity="0" />
  <path d="M288.8891,57.05639 L288.8891,59.00787" stroke="#000000" stroke-width="0.96" fill-opacity="0" />
  <path d="M288.8891,60.95936 L288.8891,62.91084" stroke="#000000" stroke-width="0.96" fill-opacity="0" />
  <path d="M288.8891,64.86233 L288.8891,66.81381" stroke="#000000" stroke-width="0.96" fill-opacity="0" />
  <path d="M288.8891,68.7653 L288.8891,70.71678" stroke="#000000" stroke-width="0.96" fill-opacity="0" />
  <path d="M288.8891,72.66827 L288.8891,74.61976" stroke="#000000" stroke-width="0.96" fill-opacity="0" />
  <path d="M288.8891,76.57124 L288.8891,78.52273" stroke="#000000" stroke-width="0.96" fill-opacity="0" />
  <path d="M288.8891,80.47421 L288.8891,82.4257" stroke="#000000" stroke-width="0.96" fill-opacity="0" />
  <path d="M288.8891,84.37718 L288.8891,86.32867" stroke="#000000" stroke-width="0.96" fill-opacity="0" />
  <path d="M288.8891,88.28015 L288.8891,90.23164" stroke="#000000" stroke-width="0.96" fill-opacity="0" />
  <path d="M288.8891,92.18313 L288.8891,94.13461" stroke="#000000" stroke-width="0.96" fill-opacity="0" />
  <path d="M288.8891,96.0861 L288.8891,98.03758" stroke="#000000" stroke-width="0.96" fill-opacity="0" />
  <path d="M288.8891,99.98907 L288.8891,101.9406" stroke="#000000" stroke-width="0.96" fill-opacity="0" />
  <path d="M288.8891,103.892 L288.8891,105.8435" stroke="#000000" stroke-width="0.96" fill-opacity="0" />
  <path d="M288.8891,107.795 L288.8891,109.7465" stroke="#000000" stroke-width="0.96" fill-opacity="0" />
  <path d="M288.8891,111.698 L288.8891,113.6495" stroke="#000000" stroke-width="0.96" fill-opacity="0" />
  <path d="M288.8891,115.601 L288.8891,117.5524" stroke="#000000" stroke-width="0.96" fill-opacity="0" />
  <path d="M288.8891,119.5039 L288.8891,121.4554" stroke="#000000" stroke-width="0.96" fill-opacity="0" />
  <path d="M288.8891,123.4069 L288.8891,125.3584" stroke="#000000" stroke-width="0.96" fill-opacity="0" />
  <path d="M288.8891,127.3099 L288.8891,129.2614" stroke="#000000" stroke-width="0.96" fill-opacity="0" />
  <path d="M288.8891,131.2128 L288.8891,133.1643" stroke="#000000" stroke-width="0.96" fill-opacity="0" />
  <path d="M288.8891,135.1158 L288.8891,137.0673" stroke="#000000" stroke-width="0.96" fill-opacity="0" />
  <path d="M288.8891,139.0188 L288.8891,140.9703" stroke="#000000" stroke-width="0.96" fill-opacity="0" />
  <path d="M288.8891,142.9218 L288.8891,144.8732" stroke="#000000" stroke-width="0.96" fill-opacity="0" />
  <path d="M288.8891,146.8247 L288.8891,148.7762" stroke="#000000" stroke-width="0.96" fill-opacity="0" />
  <path d="M288.8891,150.7277 L288.8891,152.6792" stroke="#000000" stroke-width="0.96" fill-opacity="0" />
  <path d="M288.8891,154.6307 L288.8891,156.5821" stroke="#000000" stroke-width="0.96" fill-opacity="0" />
  <path d="M288.8891,158.5336 L288.8891,160.4851" stroke="#000000" stroke-width="0.96" fill-opacity="0" />
  <path d="M288.8891,162.4366 L288.8891,164.3881" stroke="#000000" stroke-width="0.96" fill-opacity="0" />
  <path d="M288.8891,166.3396 L288.8891,168.2911" stroke="#000000" stroke-width="0.96" fill-opacity="0" />
  <path d="M288.8891,170.2425 L288.8891,172.194" stroke="#000000" stroke-width="0.96" fill-opacity="0" />
  <path d="M288.8891,174.1455 L288.8891,176.097" stroke="#000000" stroke-width="0.96" fill-opacity="0" />
  <path d="M288.8891,178.0485 L288.8891,180" stroke="#000000" stroke-width="0.96" fill-opacity="0" />
  <path d="M288.8891,181.9515 L288.8891,183.9029" stroke="#000000" stroke-width="0.96" fill-opacity="0" />
  <path d="M288.8891,185.8544 L288.8891,187.8059" stroke="#000000" stroke-width="0.96" fill-opacity="0" />
  <path d="M288.8891,189.7574 L288.8891,191.7089" stroke="#000000" stroke-width="0.96" fill-opacity="0" />
  <path d="M288.8891,193.6604 L288.8891,195.6119" stroke="#000000" stroke-width="0.96" fill-opacity="0" />
  <path d="M288.8891,197.5633 L288.8891,199.5148" stroke="#000000" stroke-width="0.96" fill-opacity="0" />
  <path d="M288.8891,201.4663 L288.8891,203.4178" stroke="#000000" stroke-width="0.96" fill-opacity="0" />
  <path d="M288.8891,205.3693 L288.8891,207.3208" stroke="#000000" stroke-width="0.96" fill-opacity="0" />
  <path d="M288.8891,209.2722 L288.8891,211.2237" stroke="#000000" stroke-width="0.96" fill-opacity="0" />
  <path d="M288.8891,213.1752 L288.8891,215.1267" stroke="#000000" stroke-width="0.96" fill-opacity="0" />
  <path d="M288.8891,217.0782 L288.8891,219.0297" stroke="#000000" stroke-width="0.96" fill-opacity="0" />
  <path d="M288.8891,220.9812 L288.8891,222.9326" stroke="#000000" stroke-width="0.96" fill-opacity="0" />
  <path d="M288.8891,224.8841 L288.8891,226.8356" stroke="#000000" stroke-width="0.96" fill-opacity="0" />
  <path d="M288.8891,228.7871 L288.8891,230.7386" stroke="#000000" stroke-width="0.96" fill-opacity="0" />
  <path d="M288.8891,232.6901 L288.8891,234.6416" stroke="#000000" stroke-width="0.96" fill-opacity="0" />
  <path d="M288.8891,236.593 L288.8891,238.5445" stroke="#000000" stroke-width="0.96" fill-opacity="0" />
  <path d="M288.8891,240.496 L288.8891,241.4718" stroke="#000000" stroke-width="0.96" fill-opacity="0" />
  <path d="M191.3149,46.32322 L191.3149,47.29896" stroke="#000000" stroke-width="0.96" fill-opacity="0" />
  <path d="M191.3149,49.25045 L191.3149,51.20193" stroke="#000000" stroke-width="0.96" fill-opacity="0" />
  <path d="M191.3149,53.15342 L191.3149,55.1049" stroke="#000000" stroke-width="0.96" fill-opacity="0" />
  <path d="M191.3149,57.05639 L191.3149,59.00787" stroke="#000000" stroke-width="0.96" fill-opacity="0" />
  <path d="M191.3149,60.95936 L191.3149,62.91084" stroke="#000000" stroke-width="0.96" fill-opacity="0" />
  <path d="M191.3149,64.86233 L191.3149,66.81381" stroke="#000000" stroke-width="0.96" fill-opacity="0" />
  <path d="M191.3149,68.7653 L191.3149,70.71678" stroke="#000000" stroke-width="0.96" fill-opacity="0" />
  <path d="M191.3149,72.66827 L191.3149,74.61976" stroke="#000000" stroke-width="0.96" fill-opacity="0" />
  <path d="M191.3149,76.57124 L191.3149,78.52273" stroke="#000000" stroke-width="0.96" fill-opacity="0" />
  <path d="M191.3149,80.47421 L191.3149,82.4257" stroke="#000000" stroke-width="0.96" fill-opacity="0" />
  <path d="M191.3149,84.37718 L191.3149,86.32867" stroke="#000000" stroke-width="0.96" fill-opacity="0" />
  <path d="M191.3149,88.28015 L191.3149,90.23164" stroke="#000000" stroke-width="0.96" fill-opacity="0" />
  <path d="M191.3149,92.18313 L191.3149,94.13461" stroke="#000000" stroke-width="0.96" fill-opacity="0" />
  <path d="M191.3149,96.0861 L191.3149,98.03758" stroke="#000000" stroke-width="0.96" fill-opacity="0" />
  <path d="M191.3149,99.98907 L191.3149,101.9406" stroke="#000000" stroke-width="0.96" fill-opacity="0" />
  <path d="M191.3149,103.892 L191.3149,105.8435" stroke="#000000" stroke-width="0.96" fill-opacity="0" />
  <path d="M191.3149,107.795 L191.3149,109.7465" stroke="#000000" stroke-width="0.96" fill-opacity="0" />
  <path d="M191.3149,111.698 L191.3149,113.6495" stroke="#000000" stroke-width="0.96" fill-opacity="0" />
  <path d="M191.3149,115.601 L191.3149,117.5524" stroke="#000000" stroke-width="0.96" fill-opacity="0" />
  <path d="M191.3149,119.5039 L191.3149,121.4554" stroke="#000000" stroke-width="0.96" fill-opacity="0" />
  <path d="M191.3149,123.4069 L191.3149,125.3584" stroke="#000000" stroke-width="0.96" fill-opacity="0" />
  <path d="M191.3149,127.3099 L191.3149,129.2614" stroke="#000000" stroke-width="0.96" fill-opacity="0" />
  <path d="M191.3149,131.2128 L191.3149,133.1643" stroke="#000000" stroke-width="0.96" fill-opacity="0" />
  <path d="M191.3149,135.1158 L191.3149,137.0673" stroke="#000000" stroke-width="0.96" fill-opacity="0" />
  <path d="M191.3149,139.0188 L191.3149,140.9703" stroke="#000000" stroke-width="0.96" fill-opacity="0" />
  <path d="M191.3149,142.9218 L191.3149,144.8732" stroke="#000000" stroke-width="0.96" fill-opacity="0" />
  <path d="M191.3149,146.8247 L191.3149,148.7762" stroke="#000000" stroke-width="0.96" fill-opacity="0" />
  <path d="M191.3149,150.7277 L191.3149,152.6792" stroke="#000000" stroke-width="0.96" fill-opacity="0" />
  <path d="M191.3149,154.6307 L191.3149,156.5821" stroke="#000000" stroke-width="0.96" fill-opacity="0" />
  <path d="M191.3149,158.5336 L191.3149,160.4851" stroke="#000000" stroke-width="0.96" fill-opacity="0" />
  <path d="M191.3149,162.4366 L191.3149,164.3881" stroke="#000000" stroke-width="0.96" fill-opacity="0" />
  <path d="M191.3149,166.3396 L191.3149,168.2911" stroke="#000000" stroke-width="0.96" fill-opacity="0" />
  <path d="M191.3149,170.2425 L191.3149,172.194" stroke="#000000" stroke-width="0.96" fill-opacity="0" />
  <path d="M191.3149,174.1455 L191.3149,176.097" stroke="#000000" stroke-width="0.96" fill-opacity="0" />
  <path d="M191.3149,178.0485 L191.3149,180" stroke="#000000" stroke-width="0.96" fill-opacity="0" />
  <path d="M191.3149,181.9515 L191.3149,183.9029" stroke="#000000" stroke-width="0.96" fill-opacity="0" />
  <path d="M191.3149,185.8544 L191.3149,187.8059" stroke="#000000" stroke-width="0.96" fill-opacity="0" />
  <path d="M191.3149,189.7574 L191.3149,191.7089" stroke="#000000" stroke-width="0.96" fill-opacity="0" />
  <path d="M191.3149,193.6604 L191.3149,195.6119" stroke="#000000" stroke-width="0.96" fill-opacity="0" />
  <path d="M191.3149,197.5633 L191.3149,199.5148" stroke="#000000" stroke-width="0.96" fill-opacity="0" />
  <path d="M191.3149,201.4663 L191.3149,203.4178" stroke="#000000" stroke-width="0.96" fill-opacity="0" />
  <path d="M191.3149,205.3693 L191.3149,207.3208" stroke="#000000" stroke-width="0.96" fill-opacity="0" />
  <path d="M191.3149,209.2722 L191.3149,211.2237" stroke="#000000" stroke-width="0.96" fill-opacity="0" />
  <path d="M191.3149,213.1752 L191.3149,215.1267" stroke="#000000" stroke-width="0.96" fill-opacity="0" />
  <path d="M191.3149,217.0782 L191.3149,219.0297" stroke="#000000" stroke-width="0.96" fill-opacity="0" />
  <path d="M191.3149,220.9812 L191.3149,222.9326" stroke="#000000" stroke-width="0.96" fill-opacity="0" />
  <path d="M191.3149,224.8841 L191.3149,226.8356" stroke="#000000" stroke-width="0.96" fill-opacity="0" />
  <path d="M191.3149,228.7871 L191.3149,230.7386" stroke="#000000" stroke-width="0.96" fill-opacity="0" />
  <path d="M191.3149,232.6901 L191.3149,234.6416" stroke="#000000" stroke-width="0.96" fill-opacity="0" />
  <path d="M191.3149,236.593 L191.3149,238.5445" stroke="#000000" stroke-width="0.96" fill-opacity="0" />
  <path d="M191.3149,240.496 L191.3149,241.4718" stroke="#000000" stroke-width="0.96" fill-opacity="0" />
  <path d="M93.74059,46.32322 L93.74059,47.29896" stroke="#000000" stroke-width="0.96" fill-opacity="0" />
  <path d="M93.74059,49.25045 L93.74059,51.20193" stroke="#000000" stroke-width="0.96" fill-opacity="0" />
  <path d="M93.74059,53.15342 L93.74059,55.1049" stroke="#000000" stroke-width="0.96" fill-opacity="0" />
  <path d="M93.74059,57.05639 L93.74059,59.00787" stroke="#000000" stroke-width="0.96" fill-opacity="0" />
  <path d="M93.74059,60.95936 L93.74059,62.91084" stroke="#000000" stroke-width="0.96" fill-opacity="0" />
  <path d="M93.74059,64.86233 L93.74059,66.81381" stroke="#000000" stroke-width="0.96" fill-opacity="0" />
  <path d="M93.74059,68.7653 L93.74059,70.71678" stroke="#000000" stroke-width="0.96" fill-opacity="0" />
  <path d="M93.74059,72.66827 L93.74059,74.61976" stroke="#000000" stroke-width="0.96" fill-opacity="0" />
  <path d="M93.74059,76.57124 L93.74059,78.52273" stroke="#000000" stroke-width="0.96" fill-opacity="0" />
  <path d="M93.74059,80.47421 L93.74059,82.4257" stroke="#000000" stroke-width="0.96" fill-opacity="0" />
  <path d="M93.74059,84.37718 L93.74059,86.32867" stroke="#000000" stroke-width="0.96" fill-opacity="0" />
  <path d="M93.74059,88.28015 L93.74059,90.23164" stroke="#000000" stroke-width="0.96" fill-opacity="0" />
  <path d="M93.74059,92.18313 L93.74059,94.13461" stroke="#000000" stroke-width="0.96" fill-opacity="0" />
  <path d="M93.74059,96.0861 L93.74059,98.03758" stroke="#000000" stroke-width="0.96" fill-opacity="0" />
  <path d="M93.74059,99.98907 L93.74059,101.9406" stroke="#000000" stroke-width="0.96" fill-opacity="0" />
  <path d="M93.74059,103.892 L93.74059,105.8435" stroke="#000000" stroke-width="0.96" fill-opacity="0" />
  <path d="M93.74059,107.795 L93.74059,109.7465" stroke="#000000" stroke-width="0.96" fill-opacity="0" />
  <path d="M93.74059,111.698 L93.74059,113.6495" stroke="#000000" stroke-width="0.96" fill-opacity="0" />
  <path d="M93.74059,115.601 L93.74059,117.5524" stroke="#000000" stroke-width="0.96" fill-opacity="0" />
  <path d="M93.74059,119.5039 L93.74059,121.4554" stroke="#000000" stroke-width="0.96" fill-opacity="0" />
  <path d="M93.74059,123.4069 L93.74059,125.3584" stroke="#000000" stroke-width="0.96" fill-opacity="0" />
  <path d="M93.74059,127.3099 L93.74059,129.2614" stroke="#000000" stroke-width="0.96" fill-opacity="0" />
  <path d="M93.74059,131.2128 L93.74059,133.1643" stroke="#000000" stroke-width="0.96" fill-opacity="0" />
  <path d="M93.74059,135.1158 L93.74059,137.0673" stroke="#000000" stroke-width="0.96" fill-opacity="0" />
  <path d="M93.74059,139.0188 L93.74059,140.9703" stroke="#000000" stroke-width="0.96" fill-opacity="0" />
  <path d="M93.74059,142.9218 L93.74059,144.8732" stroke="#000000" stroke-width="0.96" fill-opacity="0" />
  <path d="M93.74059,146.8247 L93.74059,148.7762" stroke="#000000" stroke-width="0.96" fill-opacity="0" />
  <path d="M93.74059,150.7277 L93.74059,152.6792" stroke="#000000" stroke-width="0.96" fill-opacity="0" />
  <path d="M93.74059,154.6307 L93.74059,156.5821" stroke="#000000" stroke-width="0.96" fill-opacity="0" />
  <path d="M93.74059,158.5336 L93.74059,160.4851" stroke="#000000" stroke-width="0.96" fill-opacity="0" />
  <path d="M93.74059,162.4366 L93.74059,164.3881" stroke="#000000" stroke-width="0.96" fill-opacity="0" />
  <path d="M93.74059,166.3396 L93.74059,168.2911" stroke="#000000" stroke-width="0.96" fill-opacity="0" />
  <path d="M93.74059,170.2425 L93.74059,172.194" stroke="#000000" stroke-width="0.96" fill-opacity="0" />
  <path d="M93.74059,174.1455 L93.74059,176.097" stroke="#000000" stroke-width="0.96" fill-opacity="0" />
  <path d="M93.74059,178.0485 L93.74059,180" stroke="#000000" stroke-width="0.96" fill-opacity="0" />
  <path d="M93.74059,181.9515 L93.74059,183.9029" stroke="#000000" stroke-width="0.96" fill-opacity="0" />
  <path d="M93.74059,185.8544 L93.74059,187.8059" stroke="#000000" stroke-width="0.96" fill-opacity="0" />
  <path d="M93.74059,189.7574 L93.74059,191.7089" stroke="#000000" stroke-width="0.96" fill-opacity="0" />
  <path d="M93.74059,193.6604 L93.74059,195.6119" stroke="#000000" stroke-width="0.96" fill-opacity="0" />
  <path d="M93.74059,197.5633 L93.74059,199.5148" stroke="#000000" stroke-width="0.96" fill-opacity="0" />
  <path d="M93.74059,201.4663 L93.74059,203.4178" stroke="#000000" stroke-width="0.96" fill-opacity="0" />
  <path d="M93.74059,205.3693 L93.74059,207.3208" stroke="#000000" stroke-width="0.96" fill-opacity="0" />
  <path d="M93.74059,209.2722 L93.74059,211.2237" stroke="#000000" stroke-width="0.96" fill-opacity="0" />
  <path d="M93.74059,213.1752 L93.74059,215.1267" stroke="#000000" stroke-width="0.96" fill-opacity="0" />
  <path d="M93.74059,217.0782 L93.74059,219.0297" stroke="#000000" stroke-width="0.96" fill-opacity="0" />
  <path d="M93.74059,220.9812 L93.74059,222.9326" stroke="#000000" stroke-width="0.96" fill-opacity="0" />
  <path d="M93.74059,224.8841 L93.74059,226.8356" stroke="#000000" stroke-width="0.96" fill-opacity="0" />
  <path d="M93.74059,228.7871 L93.74059,230.7386" stroke="#000000" stroke-width="0.96" fill-opacity="0" />
  <path d="M93.74059,232.6901 L93.74059,234.6416" stroke="#000000" stroke-width="0.96" fill-opacity="0" />
  <path d="M93.74059,236.593 L93.74059,238.5445" stroke="#000000" stroke-width="0.96" fill-opacity="0" />
  <path d="M93.74059,240.496 L93.74059,241.4718" stroke="#000000" stroke-width="0.96" fill-opacity="0" />
  <path d="M410.857,95.11035 C411.0082,89.42039 408.426,82.57521 403.7123,77.8615 C398.9986,73.14777 392.1534,70.56552 386.4634,70.71678" stroke="#000000" stroke-width="0.96" fill-opacity="0" />
  <path d="M362.0699,143.8975 C362.2211,138.2075 359.6389,131.3624 354.9251,126.6486 C350.2114,121.9349 343.3662,119.3527 337.6763,119.5039" stroke="#000000" stroke-width="0.96" fill-opacity="0" />
  <path d="M288.8891,119.5039 C283.1992,119.6552 276.354,117.0729 271.6403,112.3592 C266.9266,107.6455 264.3443,100.8003 264.4956,95.11035 C264.3443,89.42039 266.9266,82.57521 271.6403,77.8615 C276.354,73.14777 283.1992,70.56552 288.8891,70.71678" stroke="#000000" stroke-width="0.96" fill-opacity="0" />
  <path d="M386.4634,217.0782 C392.1534,217.2295 398.9986,214.6472 403.7123,209.9335 C408.426,205.2198 411.0082,198.3746 410.857,192.6846" stroke="#000000" stroke-width="0.96" fill-opacity="0" />
  <path d="M337.6763,168.2911 C343.3662,168.4423 350.2114,165.8601 354.9251,161.1463 C359.6389,156.4326 362.2211,149.5874 362.0699,143.8975" stroke="#000000" stroke-width="0.96" fill-opacity="0" />
  <path d="M93.74059,217.0782 C88.05063,217.2295 81.20545,214.6472 76.49174,209.9335 C71.77802,205.2198 69.19576,198.3746 69.34702,192.6846" stroke="#000000" stroke-width="0.96" fill-opacity="0" />
  <path d="M215.7084,95.11035 C215.8597,89.42039 213.2774,82.57521 208.5637,77.8615 C203.85,73.14777 197.0048,70.56552 191.3149,70.71678 C185.6249,70.56552 178.7797,73.14777 174.066,77.8615 C169.3523,82.57521 166.77,89.42039 166.9213,95.11035" stroke="#000000" stroke-width="0.96" fill-opacity="0" />
  <path d="M118.1342,95.11035 C118.2854,89.42039 115.7032,82.57521 110.9894,77.8615 C106.2757,73.14777 99.43055,70.56552 93.74059,70.71678 C88.05063,70.56552 81.20545,73.14777 76.49174,77.8615 C71.77802,82.57521 69.19576,89.42039 69.34702,95.11035" stroke="#000000" stroke-width="0.96" fill-opacity="0" />
  <path d="M142.5277,168.2911 C136.8378,168.4423 129.9926,165.8601 125.2789,161.1463 C120.5652,156.4326 117.9829,149.5874 118.1342,143.8975" stroke="#000000" stroke-width="0.96" fill-opacity="0" />
  <path d="M142.5277,168.2911 C148.2177,168.4423 155.0629,165.8601 159.7766,161.1463 C164.4903,156.4326 167.0726,149.5874 166.9213,143.8975" stroke="#000000" stroke-width="0.96" fill-opacity="0" />
  <path d="M240.102,168.2911 C234.412,168.4423 227.5669,165.8601 222.8531,161.1463 C218.1394,156.4326 215.5572,149.5874 215.7084,143.8975" stroke="#000000" stroke-width="0.96" fill-opacity="0" />
  <path d="M44.95345,192.6846 L45.9292,192.6846" stroke="#000000" stroke-width="0.96" fill-opacity="0" />
  <path d="M47.88068,192.6846 L49.83217,192.6846" stroke="#000000" stroke-width="0.96" fill-opacity="0" />
  <path d="M51.78365,192.6846 L53.73514,192.6846" stroke="#000000" stroke-width="0.96" fill-opacity="0" />
  <path d="M55.68663,192.6846 L57.63811,192.6846" stroke="#000000" stroke-width="0.96" fill-opacity="0" />
  <path d="M59.5896,192.6846 L61.54108,192.6846" stroke="#000000" stroke-width="0.96" fill-opacity="0" />
  <path d="M63.49257,192.6846 L65.44405,192.6846" stroke="#000000" stroke-width="0.96" fill-opacity="0" />
  <path d="M67.39554,192.6846 L69.34702,192.6846" stroke="#000000" stroke-width="0.96" fill-opacity="0" />
  <path d="M71.29851,192.6846 L73.24999,192.6846" stroke="#000000" stroke-width="0.96" fill-opacity="0" />
  <path d="M75.20148,192.6846 L77.15296,192.6846" stroke="#000000" stroke-width="0.96" fill-opacity="0" />
  <path d="M79.10445,192.6846 L81.05594,192.6846" stroke="#000000" stroke-width="0.96" fill-opacity="0" />
  <path d="M83.00742,192.6846 L84.95891,192.6846" stroke="#000000" stroke-width="0.96" fill-opacity="0" />
  <path d="M86.91039,192.6846 L88.86188,192.6846" stroke="#000000" stroke-width="0.96" fill-opacity="0" />
  <path d="M90.81336,192.6846 L92.76485,192.6846" stroke="#000000" stroke-width="0.96" fill-opacity="0" />
  <path d="M94.71633,192.6846 L96.66782,192.6846" stroke="#000000" stroke-width="0.96" fill-opacity="0" />
  <path d="M98.61931,192.6846 L100.5708,192.6846" stroke="#000000" stroke-width="0.96" fill-opacity="0" />
  <path d="M102.5223,192.6846 L104.4738,192.6846" stroke="#000000" stroke-width="0.96" fill-opacity="0" />
  <path d="M106.4252,192.6846 L108.3767,192.6846" stroke="#000000" stroke-width="0.96" fill-opacity="0" />
  <path d="M110.3282,192.6846 L112.2797,192.6846" stroke="#000000" stroke-width="0.96" fill-opacity="0" />
  <path d="M114.2312,192.6846 L116.1827,192.6846" stroke="#000000" stroke-width="0.96" fill-opacity="0" />
  <path d="M118.1342,192.6846 L120.0856,192.6846" stroke="#000000" stroke-width="0.96" fill-opacity="0" />
  <path d="M122.0371,192.6846 L123.9886,192.6846" stroke="#000000" stroke-width="0.96" fill-opacity="0" />
  <path d="M125.9401,192.6846 L127.8916,192.6846" stroke="#000000" stroke-width="0.96" fill-opacity="0" />
  <path d="M129.8431,192.6846 L131.7946,192.6846" stroke="#000000" stroke-width="0.96" fill-opacity="0" />
  <path d="M133.746,192.6846 L135.6975,192.6846" stroke="#000000" stroke-width="0.96" fill-opacity="0" />
  <path d="M137.649,192.6846 L139.6005,192.6846" stroke="#000000" stroke-width="0.96" fill-opacity="0" />
  <path d="M141.552,192.6846 L143.5035,192.6846" stroke="#000000" stroke-width="0.96" fill-opacity="0" />
  <path d="M145.455,192.6846 L147.4064,192.6846" stroke="#000000" stroke-width="0.96" fill-opacity="0" />
  <path d="M149.3579,192.6846 L151.3094,192.6846" stroke="#000000" stroke-width="0.96" fill-opacity="0" />
  <path d="M153.2609,192.6846 L155.2124,192.6846" stroke="#000000" stroke-width="0.96" fill-opacity="0" />
  <path d="M157.1639,192.6846 L159.1154,192.6846" stroke="#000000" stroke-width="0.96" fill-opacity="0" />
  <path d="M161.0668,192.6846 L163.0183,192.6846" stroke="#000000" stroke-width="0.96" fill-opacity="0" />
  <path d="M164.9698,192.6846 L166.9213,192.6846" stroke="#000000" stroke-width="0.96" fill-opacity="0" />
  <path d="M168.8728,192.6846 L170.8243,192.6846" stroke="#000000" stroke-width="0.96" fill-opacity="0" />
  <path d="M172.7758,192.6846 L174.7272,192.6846" stroke="#000000" stroke-width="0.96" fill-opacity="0" />
  <path d="M176.6787,192.6846 L178.6302,192.6846" stroke="#000000" stroke-width="0.96" fill-opacity="0" />
  <path d="M180.5817,192.6846 L182.5332,192.6846" stroke="#000000" stroke-width="0.96" fill-opacity="0" />
  <path d="M184.4847,192.6846 L186.4362,192.6846" stroke="#000000" stroke-width="0.96" fill-opacity="0" />
  <path d="M188.3876,192.6846 L190.3391,192.6846" stroke="#000000" stroke-width="0.96" fill-opacity="0" />
  <path d="M192.2906,192.6846 L194.2421,192.6846" stroke="#000000" stroke-width="0.96" fill-opacity="0" />
  <path d="M196.1936,192.6846 L198.1451,192.6846" stroke="#000000" stroke-width="0.96" fill-opacity="0" />
  <path d="M200.0965,192.6846 L202.048,192.6846" stroke="#000000" stroke-width="0.96" fill-opacity="0" />
  <path d="M203.9995,192.6846 L205.951,192.6846" stroke="#000000" stroke-width="0.96" fill-opacity="0" />
  <path d="M207.9025,192.6846 L209.854,192.6846" stroke="#000000" stroke-width="0.96" fill-opacity="0" />
  <path d="M211.8055,192.6846 L213.7569,192.6846" stroke="#000000" stroke-width="0.96" fill-opacity="0" />
  <path d="M215.7084,192.6846 L217.6599,192.6846" stroke="#000000" stroke-width="0.96" fill-opacity="0" />
  <path d="M219.6114,192.6846 L221.5629,192.6846" stroke="#000000" stroke-width="0.96" fill-opacity="0" />
  <path d="M223.5144,192.6846 L225.4659,192.6846" stroke="#000000" stroke-width="0.96" fill-opacity="0" />
  <path d="M227.4173,192.6846 L229.3688,192.6846" stroke="#000000" stroke-width="0.96" fill-opacity="0" />
  <path d="M231.3203,192.6846 L233.2718,192.6846" stroke="#000000" stroke-width="0.96" fill-opacity="0" />
  <path d="M235.2233,192.6846 L237.1748,192.6846" stroke="#000000" stroke-width="0.96" fill-opacity="0" />
  <path d="M239.1263,192.6846 L241.0777,192.6846" stroke="#000000" stroke-width="0.96" fill-opacity="0" />
  <path d="M243.0292,192.6846 L244.9807,192.6846" stroke="#000000" stroke-width="0.96" fill-opacity="0" />
  <path d="M246.9322,192.6846 L248.8837,192.6846" stroke="#000000" stroke-width="0.96" fill-opacity="0" />
  <path d="M250.8352,192.6846 L252.7867,192.6846" stroke="#000000" stroke-width="0.96" fill-opacity="0" />
  <path d="M254.7381,192.6846 L256.6896,192.6846" stroke="#000000" stroke-width="0.96" fill-opacity="0" />
  <path d="M258.6411,192.6846 L260.5926,192.6846" stroke="#000000" stroke-width="0.96" fill-opacity="0" />
  <path d="M262.5441,192.6846 L264.4956,192.6846" stroke="#000000" stroke-width="0.96" fill-opacity="0" />
  <path d="M266.4471,192.6846 L268.3985,192.6846" stroke="#000000" stroke-width="0.96" fill-opacity="0" />
  <path d="M270.35,192.6846 L272.3015,192.6846" stroke="#000000" stroke-width="0.96" fill-opacity="0" />
  <path d="M274.253,192.6846 L276.2045,192.6846" stroke="#000000" stroke-width="0.96" fill-opacity="0" />
  <path d="M278.156,192.6846 L280.1075,192.6846" stroke="#000000" stroke-width="0.96" fill-opacity="0" />
  <path d="M282.0589,192.6846 L284.0104,192.6846" stroke="#000000" stroke-width="0.96" fill-opacity="0" />
  <path d="M285.9619,192.6846 L287.9134,192.6846" stroke="#000000" stroke-width="0.96" fill-opacity="0" />
  <path d="M289.8649,192.6846 L291.8164,192.6846" stroke="#000000" stroke-width="0.96" fill-opacity="0" />
  <path d="M293.7679,192.6846 L295.7193,192.6846" stroke="#000000" stroke-width="0.96" fill-opacity="0" />
  <path d="M297.6708,192.6846 L299.6223,192.6846" stroke="#000000" stroke-width="0.96" fill-opacity="0" />
  <path d="M301.5738,192.6846 L303.5253,192.6846" stroke="#000000" stroke-width="0.96" fill-opacity="0" />
  <path d="M305.4768,192.6846 L307.4283,192.6846" stroke="#000000" stroke-width="0.96" fill-opacity="0" />
  <path d="M309.3797,192.6846 L311.3312,192.6846" stroke="#000000" stroke-width="0.96" fill-opacity="0" />
  <path d="M313.2827,192.6846 L315.2342,192.6846" stroke="#000000" stroke-width="0.96" fill-opacity="0" />
  <path d="M317.1857,192.6846 L319.1372,192.6846" stroke="#000000" stroke-width="0.96" fill-opacity="0" />
  <path d="M321.0887,192.6846 L323.0401,192.6846" stroke="#000000" stroke-width="0.96" fill-opacity="0" />
  <path d="M324.9916,192.6846 L326.9431,192.6846" stroke="#000000" stroke-width="0.96" fill-opacity="0" />
  <path d="M328.8946,192.6846 L330.8461,192.6846" stroke="#000000" stroke-width="0.96" fill-opacity="0" />
  <path d="M332.7975,192.6846 L334.7491,192.6846" stroke="#000000" stroke-width="0.96" fill-opacity="0" />
  <path d="M336.7005,192.6846 L338.652,192.6846" stroke="#000000" stroke-width="0.96" fill-opacity="0" />
  <path d="M340.6035,192.6846 L342.555,192.6846" stroke="#000000" stroke-width="0.96" fill-opacity="0" />
  <path d="M344.5065,192.6846 L346.4579,192.6846" stroke="#000000" stroke-width="0.96" fill-opacity="0" />
  <path d="M348.4095,192.6846 L350.3609,192.6846" stroke="#000000" stroke-width="0.96" fill-opacity="0" />
  <path d="M352.3124,192.6846 L354.2639,192.6846" stroke="#000000" stroke-width="0.96" fill-opacity="0" />
  <path d="M356.2154,192.6846 L358.1669,192.6846" stroke="#000000" stroke-width="0.96" fill-opacity="0" />
  <path d="M360.1183,192.6846 L362.0699,192.6846" stroke="#000000" stroke-width="0.96" fill-opacity="0" />
  <path d="M364.0213,192.6846 L365.9728,192.6846" stroke="#000000" stroke-width="0.96" fill-opacity="0" />
  <path d="M367.9243,192.6846 L369.8758,192.6846" stroke="#000000" stroke-width="0.96" fill-opacity="0" />
  <path d="M371.8273,192.6846 L373.7787,192.6846" stroke="#000000" stroke-width="0.96" fill-opacity="0" />
  <path d="M375.7303,192.6846 L377.6817,192.6846" stroke="#000000" stroke-width="0.96" fill-opacity="0" />
  <path d="M379.6332,192.6846 L381.5847,192.6846" stroke="#000000" stroke-width="0.96" fill-opacity="0" />
  <path d="M383.5362,192.6846 L385.4877,192.6846" stroke="#000000" stroke-width="0.96" fill-opacity="0" />
  <path d="M387.4391,192.6846 L389.3906,192.6846" stroke="#000000" stroke-width="0.96" fill-opacity="0" />
  <path d="M391.3421,192.6846 L393.2936,192.6846" stroke="#000000" stroke-width="0.96" fill-opacity="0" />
  <path d="M395.2451,192.6846 L397.1966,192.6846" stroke="#000000" stroke-width="0.96" fill-opacity="0" />
  <path d="M399.1481,192.6846 L401.0995,192.6846" stroke="#000000" stroke-width="0.96" fill-opacity="0" />
  <path d="M403.051,192.6846 L405.0025,192.6846" stroke="#000000" stroke-width="0.96" fill-opacity="0" />
  <path d="M406.954,192.6846 L408.9055,192.6846" stroke="#000000" stroke-width="0.96" fill-opacity="0" />
  <path d="M410.857,192.6846 L412.8085,192.6846" stroke="#000000" stroke-width="0.96" fill-opacity="0" />
  <path d="M414.7599,192.6846 L416.7114,192.6846" stroke="#000000" stroke-width="0.96" fill-opacity="0" />
  <path d="M418.6629,192.6846 L420.6144,192.6846" stroke="#000000" stroke-width="0.96" fill-opacity="0" />
  <path d="M422.5659,192.6846 L424.5174,192.6846" stroke="#000000" stroke-width="0.96" fill-opacity="0" />
  <path d="M426.4689,192.6846 L428.4203,192.6846" stroke="#000000" stroke-width="0.96" fill-opacity="0" />
  <path d="M430.3718,192.6846 L432.3233,192.6846" stroke="#000000" stroke-width="0.96" fill-opacity="0" />
  <path d="M434.2748,192.6846 L435.2505,192.6846" stroke="#000000" stroke-width="0.96" fill-opacity="0" />
  <path d="M44.95348,241.4718 L435.2506,241.4718 L435.2506,46.32324 L44.95348,46.32324 z" stroke="#000000" stroke-width="0.96" fill-opacity="0" />
  <path d="M93.74061,217.0782 L386.4634,217.0782" stroke="#000000" stroke-width="0.96" fill-opacity="0" />
  <path d="M410.857,95.11038 L410.857,192.6846" stroke="#000000" stroke-width="0.96" fill-opacity="0" />
  <path d="M240.102,168.2911 L337.6763,168.2911" stroke="#000000" stroke-width="0.96" fill-opacity="0" />
  <path d="M288.8892,119.5039 L337.6763,119.5039" stroke="#000000" stroke-width="0.96" fill-opacity="0" />
  <path d="M288.8892,70.71681 L386.4634,70.71681" stroke="#000000" stroke-width="0.96" fill-opacity="0" />
  <path d="M215.7085,95.11038 L215.7085,143.8975" stroke="#000000" stroke-width="0.96" fill-opacity="0" />
  <path d="M166.9213,95.11038 L166.9213,143.8975" stroke="#000000" stroke-width="0.96" fill-opacity="0" />
  <path d="M118.1342,95.11038 L118.1342,143.8975" stroke="#000000" stroke-width="0.96" fill-opacity="0" />
  <path d="M69.34705,95.11038 L69.34705,192.6846" stroke="#000000" stroke-width="0.96" fill-opacity="0" />
  <path d="M337.6763,95.11038 L337.6763,143.8975" stroke="#000000" stroke-width="0.96" fill-opacity="0" />
  <path d="M337.6763,46.32324 L337.6763,95.11038" stroke="#000000" stroke-width="0.96" fill-opacity="0" />
  <path d="M240.102,95.11038 L240.102,143.8975" stroke="#000000" stroke-width="0.96" fill-opacity="0" />
  <path d="M240.102,46.32324 L240.102,95.11038" stroke="#000000" stroke-width="0.96" fill-opacity="0" />
  <path d="M142.5278,95.11038 L142.5278,143.8975" stroke="#000000" stroke-width="0.96" fill-opacity="0" />
  <path d="M142.5278,46.32324 L142.5278,95.11038" stroke="#000000" stroke-width="0.96" fill-opacity="0" />
  <path d="M337.6763,192.6846 L337.6763,241.4718" stroke="#000000" stroke-width="0.96" fill-opacity="0" />
  <path d="M337.6763,143.8975 L337.6763,192.6846" stroke="#000000" stroke-width="0.96" fill-opacity="0" />
  <path d="M240.102,192.6846 L240.102,241.4718" stroke="#000000" stroke-width="0.96" fill-opacity="0" />
  <path d="M240.102,143.8975 L240.102,192.6846" stroke="#000000" stroke-width="0.96" fill-opacity="0" />
  <path d="M142.5278,192.6846 L142.5278,241.4718" stroke="#000000" stroke-width="0.96" fill-opacity="0" />
  <path d="M142.5278,143.8975 L142.5278,192.6846" stroke="#000000" stroke-width="0.96" fill-opacity="0" />
  <path d="M44.95348,143.8975 L435.2506,143.8975" stroke="#000000" stroke-width="0.96" fill-opacity="0" />
</svg>