<?xml version="1.0" encoding="UTF-8" standalone="no"?>
<!DOCTYPE svg PUBLIC "-//W3C//DTD SVG 1.1//EN" "http://www.w3.org/Graphics/SVG/1.1/DTD/svg11.dtd">
<svg width="480pt" height="240pt" viewBox="0 0 480 240" overflow="visible" version="1.1" xmlns="http://www.w3.org/2000/svg">
  <polygon fill="#000000" fill-opacity="1.0" points="69.4805,22.12691 66.80767,32.81821 72.15332,32.81821" />
  <path d="M278.016,15.11631 C297.7044,15.09119 319.0476,18.68442 339.6433,26.87133 C360.239,35.05824 380.0872,47.83884 396.4016,64.15323 C412.716,80.46762 425.4966,100.3158 433.6835,120.9115 C441.8704,141.5072 445.4637,162.8504 445.4385,182.5388" stroke="#000000" stroke-width="0.96" fill-opacity="0" />
  <path d="M69.48049,182.5388 L69.48049,32.8182" stroke="#000000" stroke-width="0.96" fill-opacity="0" />
  <polygon fill="#000000" fill-opacity="1.0" points="434.4061,146.8438 423.3881,146.6171 424.5776,151.8287" />
  <path d="M278.016,22.12689 C296.88,22.10283 317.3295,25.54559 337.0628,33.38969 C356.7961,41.23379 375.8131,53.47922 391.4444,69.11047 C407.0756,84.74171 419.321,103.7588 427.1651,123.492 C435.0092,143.2253 438.452,163.6748 438.4279,182.5388" stroke="#000000" stroke-width="0.96" fill-opacity="0" />
  <polygon fill="#000000" fill-opacity="1.0" points="422.5422,112.9387 411.75,115.1694 414.0694,119.9856" />
  <path d="M278.016,182.5388 L423.9828,149.2229" stroke="#000000" stroke-width="0.96" fill-opacity="0" />
  <polygon fill="#000000" fill-opacity="1.0" points="403.4312,82.52364 393.4059,87.09986 396.7388,91.27926" />
  <path d="M278.016,182.5388 L412.9096,117.5775" stroke="#000000" stroke-width="0.96" fill-opacity="0" />
  <polygon fill="#000000" fill-opacity="1.0" points="378.0313,57.12374 369.2756,63.81606 373.455,67.14902" />
  <path d="M278.016,182.5388 L395.0723,89.18954" stroke="#000000" stroke-width="0.96" fill-opacity="0" />
  <polygon fill="#000000" fill-opacity="1.0" points="347.6162,38.01269 340.5692,46.48552 345.3855,48.80491" />
  <path d="M278.016,182.5388 L371.3653,65.48252" stroke="#000000" stroke-width="0.96" fill-opacity="0" />
  <polygon fill="#000000" fill-opacity="1.0" points="313.7111,26.14877 308.7262,35.97726 313.9378,37.16678" />
  <path d="M278.016,182.5388 L342.9774,47.6452" stroke="#000000" stroke-width="0.96" fill-opacity="0" />
  <polygon fill="#000000" fill-opacity="1.0" points="438.428,182.5389 427.7367,179.866 427.7367,185.2117" />
  <path d="M278.016,182.5388 L311.332,36.57201" stroke="#000000" stroke-width="0.96" fill-opacity="0" />
  <polygon fill="#000000" fill-opacity="1.0" points="278.016,22.12691 275.3432,32.81821 280.6888,32.81821" />
  <path d="M278.016,182.5388 L427.7366,182.5388" stroke="#000000" stroke-width="0.96" fill-opacity="0" />
  <polygon fill="#000000" fill-opacity="1.0" points="212.0689,164.7153 201.1286,163.3892 201.7917,168.6936" />
  <path d="M278.016,182.5388 L278.016,32.8182" stroke="#000000" stroke-width="0.96" fill-opacity="0" />
  <polygon fill="#000000" fill-opacity="1.0" points="194.2453,146.8918 183.2311,147.2589 184.6997,152.3989" />
  <path d="M69.48049,182.5388 L201.4601,166.0414" stroke="#000000" stroke-width="0.96" fill-opacity="0" />
  <polygon fill="#000000" fill-opacity="1.0" points="176.4218,129.0682 165.6639,131.4589 168.0545,136.2402" />
  <path d="M69.48049,182.5388 L183.9654,149.8289" stroke="#000000" stroke-width="0.96" fill-opacity="0" />
  <polygon fill="#000000" fill-opacity="1.0" points="158.5983,111.2447 148.58,115.8363 151.9194,120.0106" />
  <path d="M69.48049,182.5388 L166.8592,133.8495" stroke="#000000" stroke-width="0.96" fill-opacity="0" />
  <polygon fill="#000000" fill-opacity="1.0" points="140.7747,93.42111 132.0088,100.0999 136.183,103.4393" />
  <path d="M69.48049,182.5388 L150.2497,117.9234" stroke="#000000" stroke-width="0.96" fill-opacity="0" />
  <polygon fill="#000000" fill-opacity="1.0" points="122.9511,75.59756 115.7792,83.96483 120.5605,86.35548" />
  <path d="M69.48049,182.5388 L134.0959,101.7696" stroke="#000000" stroke-width="0.96" fill-opacity="0" />
  <polygon fill="#000000" fill-opacity="1.0" points="105.1276,57.77401 99.62048,67.31967 104.7605,68.78823" />
  <path d="M69.48049,182.5388 L118.1698,85.16013" stroke="#000000" stroke-width="0.96" fill-opacity="0" />
  <polygon fill="#000000" fill-opacity="1.0" points="87.30405,39.95046 83.32577,50.22768 88.63014,50.89072" />
  <path d="M69.48049,182.5388 L102.1905,68.05393" stroke="#000000" stroke-width="0.96" fill-opacity="0" />
  <polygon fill="#000000" fill-opacity="1.0" points="229.8924,182.5389 219.2011,179.866 219.2011,185.2117" />
  <path d="M69.48049,182.5388 L85.97794,50.55919" stroke="#000000" stroke-width="0.96" fill-opacity="0" />
  <path d="M69.48049,182.5388 L219.2011,182.5388" stroke="#000000" stroke-width="0.96" fill-opacity="0" />
  <text x="310.098420704472" y="214.621248379734" font-family="Arial" font-size="11.15909">сферическая</text>
  <text x="117.604081228694" y="214.621248379734" font-family="Arial" font-size="11.15909">линейная</text>
  <path d="M74.43774,17.16969 L234.8497,177.5816" stroke="#000000" stroke-width="0.96" fill-opacity="0" />
  <path d="M69.48051,22.12692 L229.8924,182.5388" stroke="#000000" stroke-width="0.96" fill-opacity="0" />
</svg>