<?xml version="1.0" encoding="UTF-8" standalone="no"?>
<!DOCTYPE svg PUBLIC "-//W3C//DTD SVG 1.1//EN" "http://www.w3.org/Graphics/SVG/1.1/DTD/svg11.dtd">
<svg width="792pt" height="612pt" viewBox="0 0 792 612" overflow="visible" version="1.1" xmlns="http://www.w3.org/2000/svg">
  <path d="M559.11,268.0724 C546.73,233.1099 521.0807,198.6517 487.6648,175.3141 C454.2489,151.9765 413.0663,139.7597 375.979,140.1744 C359.0833,140.0414 340.7264,144.959 325.1656,154.4573 C309.6049,163.9557 296.8402,178.0347 289.2354,193.1228 C281.3942,208.0893 277.377,226.664 278.7122,244.8457 C280.0473,263.0274 286.7347,280.816 296.6782,294.4765 C306.4054,308.2919 321.0898,320.3552 337.8712,327.4785 C354.6526,334.6019 373.5309,336.7852 390.2259,334.1855 C406.9598,331.8489 424.4013,324.3026 438.4077,312.633 C452.414,300.9635 462.9851,285.1708 468.3043,269.1337" stroke="#000000" stroke-width="0.96" fill-opacity="0" />
  <path d="M639.1523,117.785 C637.6959,112.122 633.2134,106.0893 627.2271,102.7636 C621.2407,99.43783 613.7505,98.819 608.1729,100.5742 C602.5099,102.0306 596.4772,106.5131 593.1515,112.4994 C589.8257,118.4858 589.207,125.976 590.9622,131.5536 C592.4186,137.2166 596.9011,143.2493 602.8874,146.575 C608.8737,149.9008 616.3639,150.5196 621.9415,148.7644 C627.6046,147.308 633.6372,142.8255 636.963,136.8391 C640.2887,130.8528 640.9075,123.3626 639.1523,117.785 z" stroke="#000000" stroke-width="0.96" fill-opacity="0" />
  <path d="M574.8097,262.3149 L572.2161,255.598" stroke="#000000" stroke-width="0.96" fill-opacity="0" />
  <path d="M568.3428,246.6503 L564.0638,237.8941" stroke="#000000" stroke-width="0.96" fill-opacity="0" />
  <path d="M559.3851,229.3417 L554.3168,221.0121" stroke="#000000" stroke-width="0.96" fill-opacity="0" />
  <path d="M548.8699,212.9238 L543.0562,205.0944" stroke="#000000" stroke-width="0.96" fill-opacity="0" />
  <path d="M536.8876,197.5403 L530.3691,190.2689" stroke="#000000" stroke-width="0.96" fill-opacity="0" />
  <path d="M523.5321,183.3153 L516.3822,176.6838" stroke="#000000" stroke-width="0.96" fill-opacity="0" />
  <path d="M508.9346,170.3884 L501.205,164.4425" stroke="#000000" stroke-width="0.96" fill-opacity="0" />
  <path d="M493.2098,158.8587 L484.9659,153.6488" stroke="#000000" stroke-width="0.96" fill-opacity="0" />
  <path d="M476.4908,148.8239 L467.8025,144.3942" stroke="#000000" stroke-width="0.96" fill-opacity="0" />
  <path d="M458.9193,140.3692 L449.8602,136.7573" stroke="#000000" stroke-width="0.96" fill-opacity="0" />
  <path d="M440.6443,133.5664 L431.2912,130.8031" stroke="#000000" stroke-width="0.96" fill-opacity="0" />
  <path d="M421.8208,128.4733 L412.2532,126.582" stroke="#000000" stroke-width="0.96" fill-opacity="0" />
  <path d="M402.6089,125.1332 L392.9081,124.13" stroke="#000000" stroke-width="0.96" fill-opacity="0" />
  <path d="M383.1718,123.5745 L375.979,123.4523" stroke="#000000" stroke-width="0.96" fill-opacity="0" />
  <path d="M375.979,140.1744 C337.6861,139.689 294.7775,152.8819 260.5918,177.9639 C226.4062,203.0458 200.9435,240.0168 189.9138,276.69 C177.9581,313.0719 177.6649,357.9619 191.3306,398.0994 C204.9962,438.2368 232.6208,473.6216 264.2931,495.1494 C295.4096,517.473 338.1422,531.2254 380.5307,530.236 C422.9192,529.2466 464.9636,513.5153 495.0045,489.7642 C525.6379,466.7821 551.5815,430.147 563.3596,389.4156 C575.1376,348.6843 572.7502,303.8568 559.11,268.0724" stroke="#000000" stroke-width="0.96" fill-opacity="0" />
  <path d="M531.0326,239.6467 C504.3149,180.6656 444.2407,140.1744 375.979,140.1744" stroke="#000000" stroke-width="0.96" fill-opacity="0" />
  <path d="M515.1711,236.5111 C494.758,180.8246 440.0599,140.1744 375.979,140.1744" stroke="#000000" stroke-width="0.96" fill-opacity="0" />
  <path d="M501.426,238.1363 C488.4273,183.1874 437.7225,140.1744 375.979,140.1744" stroke="#000000" stroke-width="0.96" fill-opacity="0" />
  <path d="M487.892,244.1173 C484.537,188.045 436.961,140.1744 375.979,140.1744" stroke="#000000" stroke-width="0.96" fill-opacity="0" />
  <path d="M468.3043,269.1337 C463.1837,283.0729 465.9003,301.1054 474.9003,312.9174 C483.3251,325.1462 499.617,333.3394 514.4576,332.8108 C529.3065,332.9924 545.4023,324.4207 553.5391,311.9984 C562.2606,299.9793 564.555,281.8882 559.11,268.0724 C556.0315,259.3682 549.6063,250.7811 541.239,245.0098 C532.8716,239.2385 522.5621,236.2831 513.332,236.4975 C504.0993,236.4988 493.8617,239.6944 485.6315,245.6597 C477.4013,251.625 471.1786,260.3599 468.3043,269.1337 C478.6017,241.0646 473.2503,204.8245 455.2798,180.9296 C438.4511,156.2171 405.869,139.4722 375.979,140.1744" stroke="#000000" stroke-width="0.96" fill-opacity="0" />
  <text x="504.725496885651" y="293.744974277339" font-family="Arial" font-size="40.70763">c</text>
  <text x="364.670179058999" y="405.963210299936" font-family="Arial" font-size="40.70763">b</text>
  <text x="361.190543833493" y="248.50971634575" font-family="Arial" font-size="40.70763">a</text>
  <polygon fill="#000000" fill-opacity="1.0" points="498.7399,162.6621 516.0396,152.4165 509.1829,145.4808" />
  <path d="M498.7398,162.662 L537.1702,124.6693 L590.7175,124.6693" stroke="#000000" stroke-width="0.96" fill-opacity="0" />
  <path d="M632.7768,106.9498 L597.3377,142.3889" stroke="#000000" stroke-width="0.96" fill-opacity="0" />
  <path d="M597.3377,106.9498 L632.7768,142.3889" stroke="#000000" stroke-width="0.96" fill-opacity="0" />
</svg>