<?xml version="1.0" encoding="UTF-8" standalone="no"?>
<!DOCTYPE svg PUBLIC "-//W3C//DTD SVG 1.1//EN" "http://www.w3.org/Graphics/SVG/1.1/DTD/svg11.dtd">
<svg width="480pt" height="240pt" viewBox="0 0 480 240" overflow="visible" version="1.1" xmlns="http://www.w3.org/2000/svg">
  <path d="M414.9954,160.8169 C398.567,166.3371 381.9964,170.5988 365.2478,169.1139 C348.4913,167.6261 331.6454,160.4244 314.9983,160.8161 C298.3531,161.2 281.7639,169.187 265.0497,169.1131 C248.335,169.0302 231.6521,160.8885 215.0008,160.8153 C198.349,160.733 181.5722,168.7174 164.8512,169.1123 C148.1324,169.4995 131.6127,162.2875 115.0029,160.8145 C98.38514,159.3385 81.5909,163.5688 64.65232,169.1115" stroke="#000000" stroke-width="0.96" fill-opacity="0" />
  <path d="M366.6476,168.9933 L363.8788,169.2319" stroke="#000000" stroke-width="0.96" fill-opacity="0" />
  <path d="M315.8347,160.6032 L314.1801,161.0243" stroke="#000000" stroke-width="0.96" fill-opacity="0" />
  <path d="M265.3297,168.9925 L264.7759,169.2311" stroke="#000000" stroke-width="0.96" fill-opacity="0" />
  <path d="M214.722,160.6024 L215.2735,161.0235" stroke="#000000" stroke-width="0.96" fill-opacity="0" />
  <path d="M164.0115,168.9917 L165.6726,169.2303" stroke="#000000" stroke-width="0.96" fill-opacity="0" />
  <path d="M113.609,160.6016 L116.3664,161.0228" stroke="#000000" stroke-width="0.96" fill-opacity="0" />
  <path d="M416.9471,160.604 C400.3382,166.1855 383.5838,170.4948 366.6475,168.9933 C349.7031,167.4889 332.6674,160.2071 315.8347,160.6032 C299.0041,160.9913 282.2308,169.0671 265.3297,168.9925 C248.4281,168.9087 231.5589,160.6763 214.722,160.6024 C197.8847,160.5192 180.9196,168.5923 164.0115,168.9917 C147.1057,169.3831 130.4034,162.0909 113.6089,160.6015 C96.80641,159.1092 79.82345,163.3863 62.69287,168.9909" stroke="#000000" stroke-width="0.96" fill-opacity="0" />
  <path d="M66.56893,169.2295 C83.31979,163.7472 99.92944,159.5628 116.3664,161.0227 C132.7957,162.4798 149.1367,169.6133 165.6726,169.2303 C182.2106,168.8397 198.8032,160.9422 215.2734,161.0235 C231.7433,161.096 248.244,169.1492 264.7758,169.2311 C281.3072,169.3042 297.7162,161.4041 314.1801,161.0243 C330.6458,160.6369 347.3059,167.7603 363.8788,169.2319 C380.4438,170.7006 396.8346,166.4854 413.0863,161.0251" stroke="#000000" stroke-width="0.96" fill-opacity="0" />
  <path d="M62.69289,168.9909 L66.56895,169.2296" stroke="#000000" stroke-width="0.96" fill-opacity="0" />
  <path d="M413.0864,161.0251 L416.9471,160.604" stroke="#000000" stroke-width="0.96" fill-opacity="0" />
  <path d="M418.952,160.6521 C401.7421,154.4276 384.6329,149.6683 367.6474,151.3281 C350.6674,152.9857 333.7503,161.0874 316.694,160.6513 C299.6362,160.2092 282.5393,151.2367 265.5298,151.3273 C248.5206,151.411 231.4892,160.5594 214.4357,160.6505 C197.3824,160.7347 180.4168,151.7601 163.4118,151.3264 C146.4055,150.8868 129.2599,158.9808 112.1769,160.6497 C95.09954,162.3164 78.14662,157.5328 61.2935,151.3256" stroke="#000000" stroke-width="0.96" fill-opacity="0" />
  <path d="M366.2192,151.3844 L369.1083,151.2706" stroke="#000000" stroke-width="0.96" fill-opacity="0" />
  <path d="M315.8347,160.6032 L317.573,160.7006" stroke="#000000" stroke-width="0.96" fill-opacity="0" />
  <path d="M265.2442,151.3835 L265.8221,151.2698" stroke="#000000" stroke-width="0.96" fill-opacity="0" />
  <path d="M214.722,160.6024 L214.1428,160.6998" stroke="#000000" stroke-width="0.96" fill-opacity="0" />
  <path d="M164.2687,151.3827 L162.5354,151.2689" stroke="#000000" stroke-width="0.96" fill-opacity="0" />
  <path d="M113.609,160.6016 L110.7121,160.6989" stroke="#000000" stroke-width="0.96" fill-opacity="0" />
  <path d="M416.9471,160.604 C399.9318,154.4492 383.0151,149.7431 366.2192,151.3843 C349.4288,153.0234 332.6998,161.0344 315.8347,160.6032 C298.9682,160.1661 282.0634,151.2939 265.2441,151.3835 C248.4251,151.4663 231.5844,160.5123 214.722,160.6024 C197.86,160.6856 181.0836,151.8115 164.2687,151.3827 C147.4524,150.948 130.5001,158.9514 113.6089,160.6015 C96.72326,162.2495 79.95927,157.5197 63.29286,151.3818" stroke="#000000" stroke-width="0.96" fill-opacity="0" />
  <path d="M59.24837,151.2681 C76.29244,157.5463 93.4386,162.3848 110.7121,160.6989 C127.9913,159.0108 145.3346,150.8242 162.5354,151.2689 C179.7348,151.7075 196.894,160.7849 214.1427,160.6998 C231.3919,160.6075 248.6183,151.3544 265.8221,151.2698 C283.0261,151.1781 300.3195,160.2534 317.573,160.7006 C334.825,161.1417 351.9345,152.9471 369.1083,151.2706 C386.2878,149.5919 403.5938,154.4055 421.0029,160.7014" stroke="#000000" stroke-width="0.96" fill-opacity="0" />
  <path d="M63.29288,151.3819 L59.24839,151.2681" stroke="#000000" stroke-width="0.96" fill-opacity="0" />
  <path d="M421.0029,160.7014 L416.9471,160.604" stroke="#000000" stroke-width="0.96" fill-opacity="0" />
  <path d="M408.3827,177.7841 C392.665,182.116 376.757,185.4678 360.61,184.3002 C344.4522,183.1295 328.175,177.4751 312.1641,177.7834 C296.1557,178.0832 280.2227,184.3562 264.1219,184.2995 C248.0204,184.2329 231.9616,177.8387 215.9451,177.7826 C199.928,177.7168 183.7433,183.9869 167.6334,184.2988 C151.5265,184.6021 135.6866,178.9365 119.7257,177.7819 C103.7542,176.6241 87.54646,179.9415 71.14459,184.298" stroke="#000000" stroke-width="0.96" fill-opacity="0" />
  <path d="M361.8867,183.8384 L359.3598,184.7526" stroke="#000000" stroke-width="0.96" fill-opacity="0" />
  <path d="M312.9258,177.254 L311.4181,178.3018" stroke="#000000" stroke-width="0.96" fill-opacity="0" />
  <path d="M264.3773,183.8377 L263.8718,184.7518" stroke="#000000" stroke-width="0.96" fill-opacity="0" />
  <path d="M215.6912,177.2533 L216.1937,178.3011" stroke="#000000" stroke-width="0.96" fill-opacity="0" />
  <path d="M166.8675,183.8369 L168.3835,184.7511" stroke="#000000" stroke-width="0.96" fill-opacity="0" />
  <path d="M118.4563,177.2525 L120.9689,178.3003" stroke="#000000" stroke-width="0.96" fill-opacity="0" />
  <path d="M410.16,177.2548 C394.2798,181.6314 378.2053,185.0181 361.8867,183.8384 C345.557,182.6554 329.1054,176.9425 312.9258,177.254 C296.7488,177.5569 280.6487,183.8949 264.3773,183.8376 C248.1052,183.7703 231.8766,177.3098 215.6912,177.2533 C199.5053,177.1867 183.1482,183.5217 166.8675,183.8369 C150.5898,184.1433 134.5849,178.419 118.4563,177.2525 C102.3169,176.0828 85.93626,179.4343 69.35737,183.8362" stroke="#000000" stroke-width="0.96" fill-opacity="0" />
  <path d="M72.89477,184.7504 C89.12334,180.4381 105.1618,177.1542 120.9689,178.3003 C136.7656,179.4433 152.4438,185.0514 168.3835,184.7511 C184.3261,184.4425 200.342,178.2359 216.1936,178.301 C232.0449,178.3566 247.9374,184.686 263.8718,184.7518 C279.8055,184.808 295.5749,178.5986 311.4181,178.3018 C327.2638,177.9966 343.3703,183.5938 359.3598,184.7525 C375.3388,185.9082 391.0836,182.5906 406.6422,178.3025" stroke="#000000" stroke-width="0.96" fill-opacity="0" />
  <path d="M69.35738,183.8362 L72.89478,184.7504" stroke="#000000" stroke-width="0.96" fill-opacity="0" />
  <path d="M406.6422,178.3025 L410.16,177.2548" stroke="#000000" stroke-width="0.96" fill-opacity="0" />
  <path d="M411.992,176.9697 C395.3234,172.046 378.8294,168.2931 362.5483,169.6024 C346.2768,170.9085 330.1141,177.3125 313.711,176.969 C297.3051,176.6169 280.8319,169.528 264.5097,169.6016 C248.1879,169.6654 231.8279,176.8939 215.4296,176.9682 C199.0318,177.0327 182.7852,169.9408 166.4708,169.6008 C150.1539,169.2523 133.597,175.6452 117.1478,176.9674 C100.7083,178.2865 84.48409,174.4992 68.43146,169.6" stroke="#000000" stroke-width="0.96" fill-opacity="0" />
  <path d="M361.2461,169.965 L363.8788,169.2319" stroke="#000000" stroke-width="0.96" fill-opacity="0" />
  <path d="M312.9258,177.254 L314.5133,176.6777" stroke="#000000" stroke-width="0.96" fill-opacity="0" />
  <path d="M264.2492,169.9642 L264.7759,169.2311" stroke="#000000" stroke-width="0.96" fill-opacity="0" />
  <path d="M215.6912,177.2533 L215.1622,176.677" stroke="#000000" stroke-width="0.96" fill-opacity="0" />
  <path d="M167.252,169.9635 L165.6726,169.2303" stroke="#000000" stroke-width="0.96" fill-opacity="0" />
  <path d="M118.4563,177.2525 L115.8108,176.6762" stroke="#000000" stroke-width="0.96" fill-opacity="0" />
  <path d="M410.16,177.2548 C393.6719,172.383 377.3548,168.6694 361.2461,169.965 C345.1468,171.2574 329.154,177.5939 312.9258,177.254 C296.6949,176.9058 280.3982,169.8914 264.2492,169.9642 C248.1007,170.0274 231.9147,177.1798 215.6912,177.2533 C199.4683,177.3171 183.3934,170.2999 167.252,169.9635 C151.1083,169.6187 134.7296,175.9443 118.4563,177.2525 C102.1925,178.5576 86.13948,174.8104 70.2544,169.9627" stroke="#000000" stroke-width="0.96" fill-opacity="0" />
  <path d="M66.56893,169.2295 C82.79267,174.1812 99.19171,178.0095 115.8108,176.6762 C132.4398,175.3396 149.1788,168.878 165.6726,169.2303 C182.1639,169.5739 198.5858,176.7421 215.1622,176.6769 C231.7392,176.6018 248.2771,169.2955 264.7758,169.2311 C281.2751,169.1566 297.9286,176.3218 314.5132,176.6777 C331.0952,177.0249 347.4313,170.5519 363.8788,169.2319 C380.3359,167.9086 397.0107,171.7016 413.8639,176.6785" stroke="#000000" stroke-width="0.96" fill-opacity="0" />
  <path d="M70.25443,169.9627 L66.56895,169.2296" stroke="#000000" stroke-width="0.96" fill-opacity="0" />
  <path d="M413.864,176.6785 L410.16,177.2548" stroke="#000000" stroke-width="0.96" fill-opacity="0" />
  <path d="M402.6181,192.6422 C387.4698,195.9712 372.1193,198.5492 356.5141,197.6512 C340.8974,196.7506 325.1536,192.4044 309.6933,192.6415 C294.2358,192.8715 278.8584,197.6938 263.3025,197.6505 C247.7458,197.5989 232.2345,192.6835 216.7682,192.6408 C201.3015,192.5898 185.6562,197.4097 170.0905,197.6498 C154.5281,197.8828 139.2499,193.5271 123.8428,192.6401 C108.4244,191.7505 92.75479,194.2993 76.8783,197.6492" stroke="#000000" stroke-width="0.96" fill-opacity="0" />
  <path d="M357.6751,196.8508 L355.3758,198.4361" stroke="#000000" stroke-width="0.96" fill-opacity="0" />
  <path d="M310.3857,191.7938 L309.0145,193.4728" stroke="#000000" stroke-width="0.96" fill-opacity="0" />
  <path d="M263.5347,196.8501 L263.0748,198.4354" stroke="#000000" stroke-width="0.96" fill-opacity="0" />
  <path d="M216.5376,191.7931 L216.9945,193.4721" stroke="#000000" stroke-width="0.96" fill-opacity="0" />
  <path d="M169.394,196.8494 L170.7735,198.4347" stroke="#000000" stroke-width="0.96" fill-opacity="0" />
  <path d="M122.6891,191.7924 L124.9741,193.4714" stroke="#000000" stroke-width="0.96" fill-opacity="0" />
  <path d="M404.2335,191.7945 C388.9381,195.1548 373.4365,197.7572 357.675,196.8507 C341.902,195.9415 325.9992,191.5544 310.3857,191.7938 C294.7748,192.0259 279.2458,196.8937 263.5347,196.85 C247.8228,196.7979 232.1572,191.8361 216.5375,191.7931 C200.9173,191.7415 185.1151,196.6069 169.394,196.8493 C153.6763,197.0845 138.2484,192.6877 122.6891,191.7924 C107.1183,190.8944 91.29114,193.467 75.25301,196.8486" stroke="#000000" stroke-width="0.96" fill-opacity="0" />
  <path d="M78.47182,198.434 C94.18991,195.1152 109.7052,192.5899 124.9741,193.4714 C140.2319,194.3502 155.3633,198.6655 170.7734,198.4347 C186.1868,198.1968 201.6781,193.4216 216.9944,193.4721 C232.3103,193.5144 247.6703,198.3843 263.0748,198.4354 C278.4785,198.4783 293.7072,193.7007 309.0145,193.4728 C324.3245,193.2378 339.9124,197.5438 355.3758,198.4361 C370.8279,199.3256 386.0302,196.7717 401.0342,193.4734" stroke="#000000" stroke-width="0.96" fill-opacity="0" />
  <path d="M75.25304,196.8487 L78.47185,198.434" stroke="#000000" stroke-width="0.96" fill-opacity="0" />
  <path d="M401.0343,193.4735 L404.2335,191.7945" stroke="#000000" stroke-width="0.96" fill-opacity="0" />
  <path d="M405.9044,191.1754 C389.7669,187.3411 373.8338,184.423 358.149,185.4412 C342.4754,186.4564 326.929,191.4416 311.1018,191.1747 C295.2714,190.8997 279.3624,185.3825 263.6296,185.4405 C247.8973,185.4893 232.1205,191.1153 216.2989,191.174 C200.478,191.2234 184.8336,185.7034 169.1098,185.4398 C153.3834,185.1681 137.3767,190.1428 121.4957,191.1733 C105.6259,192.2007 90.00785,189.2501 74.58972,185.4391" stroke="#000000" stroke-width="0.96" fill-opacity="0" />
  <path d="M356.9626,186.1161 L359.3598,184.7526" stroke="#000000" stroke-width="0.96" fill-opacity="0" />
  <path d="M310.3857,191.7938 L311.8327,190.5429" stroke="#000000" stroke-width="0.96" fill-opacity="0" />
  <path d="M263.3923,186.1154 L263.8718,184.7518" stroke="#000000" stroke-width="0.96" fill-opacity="0" />
  <path d="M216.5376,191.7931 L216.0554,190.5422" stroke="#000000" stroke-width="0.96" fill-opacity="0" />
  <path d="M169.8216,186.1147 L168.3835,184.7511" stroke="#000000" stroke-width="0.96" fill-opacity="0" />
  <path d="M122.6891,191.7924 L120.2777,190.5414" stroke="#000000" stroke-width="0.96" fill-opacity="0" />
  <path d="M404.2335,191.7945 C388.2619,187.9976 372.4906,185.1077 356.9626,186.1161 C341.4456,187.1215 326.0532,192.0582 310.3857,191.7938 C294.715,191.5215 278.9673,186.058 263.3923,186.1153 C247.8178,186.1637 232.1996,191.735 216.5375,191.7931 C200.8761,191.842 185.3878,186.3758 169.8216,186.1146 C154.2528,185.8457 138.4094,190.772 122.6891,191.7924 C106.9799,192.8098 91.51727,189.8881 76.25063,186.1139" stroke="#000000" stroke-width="0.96" fill-opacity="0" />
  <path d="M72.89477,184.7504 C88.46742,188.5991 104.2441,191.5791 120.2777,190.5414 C136.3228,189.5007 152.4961,184.4767 168.3835,184.7511 C184.268,185.0173 200.0716,190.592 216.0553,190.5421 C232.0398,190.4828 247.9785,184.801 263.8718,184.7518 C279.7656,184.6932 295.8392,190.2651 311.8327,190.5428 C327.8228,190.8124 343.5264,185.7778 359.3598,184.7525 C375.2046,183.7243 391.3029,186.6712 407.6096,190.5436" stroke="#000000" stroke-width="0.96" fill-opacity="0" />
  <path d="M76.25065,186.114 L72.89478,184.7504" stroke="#000000" stroke-width="0.96" fill-opacity="0" />
  <path d="M407.6096,190.5436 L404.2335,191.7945" stroke="#000000" stroke-width="0.96" fill-opacity="0" />
  <path d="M397.4999,205.8897 C382.8166,208.3532 367.9443,210.2604 352.8344,209.596 C337.7137,208.9298 322.4744,205.7137 307.4997,205.8891 C292.5276,206.0594 277.6303,209.6275 262.5663,209.5954 C247.5017,209.5573 232.4794,205.9202 217.4991,205.8884 C202.5184,205.8508 187.371,209.4172 172.298,209.5947 C157.2279,209.7671 142.4232,206.5443 127.4982,205.8878 C112.5627,205.2294 97.39252,207.1157 82.02933,209.5941" stroke="#000000" stroke-width="0.96" fill-opacity="0" />
  <path d="M353.885,208.4643 L351.803,210.7071" stroke="#000000" stroke-width="0.96" fill-opacity="0" />
  <path d="M308.1263,204.7263 L306.8845,207.0307" stroke="#000000" stroke-width="0.96" fill-opacity="0" />
  <path d="M262.7765,208.4636 L262.36,210.7065" stroke="#000000" stroke-width="0.96" fill-opacity="0" />
  <path d="M217.2903,204.7256 L217.7041,207.0301" stroke="#000000" stroke-width="0.96" fill-opacity="0" />
  <path d="M171.6677,208.463 L172.9168,210.7059" stroke="#000000" stroke-width="0.96" fill-opacity="0" />
  <path d="M126.454,204.725 L128.5235,207.0294" stroke="#000000" stroke-width="0.96" fill-opacity="0" />
  <path d="M398.962,204.7269 C384.1453,207.211 369.1363,209.1342 353.885,208.4642 C338.6228,207.7924 323.2397,204.5494 308.1263,204.7263 C293.0155,204.8979 277.9809,208.496 262.7765,208.4636 C247.5714,208.4251 232.4095,204.7576 217.2903,204.7256 C202.1707,204.6876 186.8814,208.2839 171.6677,208.4629 C156.4571,208.6368 141.5168,205.3869 126.454,204.725 C111.3804,204.0611 96.06781,205.963 80.55858,208.4623" stroke="#000000" stroke-width="0.96" fill-opacity="0" />
  <path d="M83.47319,210.7052 C98.69308,208.2473 113.7235,206.3764 128.5235,207.0294 C143.3131,207.6806 157.9847,210.8768 172.9167,210.7058 C187.8518,210.5298 202.8597,206.9927 217.7041,207.0301 C232.548,207.0616 247.4332,210.6687 262.36,210.7065 C277.2861,210.7384 292.0485,207.1996 306.8845,207.0307 C321.7229,206.8567 336.8212,210.0464 351.8029,210.7071 C366.7742,211.366 381.5121,209.4746 396.0645,207.0313" stroke="#000000" stroke-width="0.96" fill-opacity="0" />
  <path d="M80.55861,208.4623 L83.47321,210.7052" stroke="#000000" stroke-width="0.96" fill-opacity="0" />
  <path d="M396.0645,207.0314 L398.962,204.727" stroke="#000000" stroke-width="0.96" fill-opacity="0" />
  <path d="M400.4801,203.7779 C384.8619,200.8784 369.4465,198.6722 354.2773,199.442 C339.1192,200.2095 324.0873,203.9791 308.7769,203.7773 C293.4633,203.5692 278.0717,199.3974 262.855,199.4413 C247.6388,199.4781 232.3784,203.7321 217.0735,203.7766 C201.7693,203.8139 186.6402,199.64 171.4324,199.4407 C156.222,199.2352 140.7336,202.9967 125.3697,203.776 C110.0171,204.5529 94.91421,202.3215 80.00951,199.44" stroke="#000000" stroke-width="0.96" fill-opacity="0" />
  <path d="M353.1996,200.429 L355.3758,198.4361" stroke="#000000" stroke-width="0.96" fill-opacity="0" />
  <path d="M308.1263,204.7263 L309.4401,202.81" stroke="#000000" stroke-width="0.96" fill-opacity="0" />
  <path d="M262.6395,200.4284 L263.0748,198.4354" stroke="#000000" stroke-width="0.96" fill-opacity="0" />
  <path d="M217.2903,204.7256 L216.8525,202.8093" stroke="#000000" stroke-width="0.96" fill-opacity="0" />
  <path d="M172.079,200.4277 L170.7735,198.4347" stroke="#000000" stroke-width="0.96" fill-opacity="0" />
  <path d="M126.454,204.725 L124.2646,202.8087" stroke="#000000" stroke-width="0.96" fill-opacity="0" />
  <path d="M398.962,204.7269 C383.4948,201.8529 368.2263,199.6659 353.1996,200.429 C338.1837,201.1898 323.2917,204.9263 308.1263,204.7263 C292.9578,204.5201 277.7129,200.3848 262.6394,200.4284 C247.5665,200.4648 232.4502,204.6816 217.2903,204.7256 C202.1311,204.7626 187.1436,200.6253 172.079,200.4277 C157.0117,200.224 141.6717,203.9526 126.454,204.725 C111.2472,205.4951 96.28545,203.2834 81.51821,200.427" stroke="#000000" stroke-width="0.96" fill-opacity="0" />
  <path d="M78.47182,198.434 C93.51654,201.3411 108.7633,203.5926 124.2646,202.8086 C139.7773,202.0224 155.417,198.2274 170.7734,198.4347 C186.1271,198.6357 201.4006,202.8469 216.8525,202.8093 C232.3052,202.7644 247.7125,198.4724 263.0748,198.4354 C278.4375,198.391 293.9785,202.6 309.4401,202.81 C324.8984,203.0136 340.0727,199.2103 355.3758,198.4361 C370.6901,197.6594 386.2554,199.8852 402.0274,202.8107" stroke="#000000" stroke-width="0.96" fill-opacity="0" />
  <path d="M81.51823,200.4271 L78.47185,198.434" stroke="#000000" stroke-width="0.96" fill-opacity="0" />
  <path d="M402.0274,202.8107 L398.962,204.727" stroke="#000000" stroke-width="0.96" fill-opacity="0" />
  <path d="M395.5696,215.1428 C380.4589,213.0584 365.5266,211.4711 350.8115,212.0248 C336.1061,212.5771 321.512,215.2875 306.6723,215.1422 C291.8299,214.9928 276.9187,211.9929 262.1617,212.0242 C247.405,212.0509 232.6095,215.1099 217.7747,215.1416 C202.9406,215.1685 188.2607,212.1672 173.5115,212.0236 C158.76,211.8759 143.7634,214.581 128.8768,215.1409 C114,215.6994 99.34312,214.0956 84.8611,212.023" stroke="#000000" stroke-width="0.96" fill-opacity="0" />
  <path d="M349.8375,213.3195 L351.803,210.7071" stroke="#000000" stroke-width="0.96" fill-opacity="0" />
  <path d="M306.0847,216.4129 L307.2706,213.8487" stroke="#000000" stroke-width="0.96" fill-opacity="0" />
  <path d="M261.9668,213.3188 L262.36,210.7065" stroke="#000000" stroke-width="0.96" fill-opacity="0" />
  <path d="M217.9706,216.4123 L217.5754,213.8481" stroke="#000000" stroke-width="0.96" fill-opacity="0" />
  <path d="M174.0959,213.3182 L172.9168,210.7059" stroke="#000000" stroke-width="0.96" fill-opacity="0" />
  <path d="M129.8562,216.4117 L127.8799,213.8475" stroke="#000000" stroke-width="0.96" fill-opacity="0" />
  <path d="M394.1985,216.4135 C379.2235,214.3451 364.4238,212.7699 349.8375,213.3194 C335.2608,213.8675 320.7933,216.557 306.0846,216.4129 C291.3733,216.2647 276.5943,213.2877 261.9668,213.3188 C247.3397,213.3453 232.6744,216.3808 217.9705,216.4122 C203.2673,216.439 188.7156,213.4607 174.0959,213.3182 C159.4738,213.1717 144.611,215.856 129.8561,216.4116 C115.111,216.9658 100.5819,215.3744 86.22461,213.3176" stroke="#000000" stroke-width="0.96" fill-opacity="0" />
  <path d="M83.47319,210.7052 C98.08212,212.7939 112.8691,214.4102 127.8799,213.8474 C142.9007,213.2831 158.0334,210.557 172.9167,210.7058 C187.7976,210.8505 202.608,213.8752 217.5754,213.8481 C232.5434,213.8161 247.4715,210.7333 262.36,210.7065 C277.2489,210.6749 292.2947,213.6982 307.2706,213.8487 C322.2436,213.9951 336.9666,211.2636 351.8029,210.7071 C366.6492,210.1491 381.7165,211.7486 396.9655,213.8493" stroke="#000000" stroke-width="0.96" fill-opacity="0" />
  <path d="M86.22463,213.3176 L83.47321,210.7052" stroke="#000000" stroke-width="0.96" fill-opacity="0" />
  <path d="M396.9655,213.8493 L394.1985,216.4135" stroke="#000000" stroke-width="0.96" fill-opacity="0" />
  <path d="M423.0447,102.7145 C405.7906,95.73454 388.4296,90.35454 370.935,92.229 C353.4345,94.10609 335.8669,103.208 318.4484,102.7135 C301.0314,102.2261 283.6566,92.13352 266.1879,92.22803 C248.7188,92.33069 231.2733,102.6187 213.8517,102.7126 C196.4298,102.8146 178.9142,92.72446 161.4403,92.22705 C143.9681,91.7367 126.6451,100.8479 109.2546,102.7116 C91.8582,104.578 74.3293,99.22649 56.69233,92.22607" stroke="#000000" stroke-width="0.96" fill-opacity="0" />
  <path d="M372.4732,92.29927 L369.4323,92.16039" stroke="#000000" stroke-width="0.96" fill-opacity="0" />
  <path d="M319.3687,102.9067 L317.5493,102.5249" stroke="#000000" stroke-width="0.96" fill-opacity="0" />
  <path d="M266.4956,92.29828 L265.8873,92.15943" stroke="#000000" stroke-width="0.96" fill-opacity="0" />
  <path d="M213.5451,102.9057 L214.1514,102.5239" stroke="#000000" stroke-width="0.96" fill-opacity="0" />
  <path d="M160.5175,92.29729 L162.3419,92.15847" stroke="#000000" stroke-width="0.96" fill-opacity="0" />
  <path d="M107.7211,102.9047 L110.753,102.523" stroke="#000000" stroke-width="0.96" fill-opacity="0" />
  <path d="M425.1918,102.9076 C407.7375,95.84599 390.1736,90.40276 372.4732,92.29924 C354.7666,94.19841 336.9912,103.4069 319.3686,102.9067 C301.7476,102.4136 284.1696,92.20269 266.4955,92.29826 C248.8211,92.40218 231.1709,102.8107 213.545,102.9057 C195.9189,103.009 178.1968,92.80058 160.5175,92.29727 C142.8399,91.8012 125.315,101.0192 107.721,102.9047 C90.12101,104.7929 72.38536,99.37888 54.53908,92.29629" stroke="#000000" stroke-width="0.96" fill-opacity="0" />
  <path d="M58.79615,92.15748 C76.22867,99.07762 93.55559,104.368 110.753,102.5229 C127.9446,100.6805 145.0704,91.67368 162.3419,92.15844 C179.615,92.6501 196.929,102.6247 214.1514,102.5239 C231.3734,102.431 248.6188,92.26084 265.8873,92.15941 C283.1554,92.06594 300.3318,102.0429 317.5493,102.5248 C334.7682,103.0136 352.1331,94.01588 369.4322,92.16037 C386.7256,90.30742 403.8884,95.62565 420.9468,102.5258" stroke="#000000" stroke-width="0.96" fill-opacity="0" />
  <path d="M54.53909,92.29631 L58.79618,92.1575" stroke="#000000" stroke-width="0.96" fill-opacity="0" />
  <path d="M420.9468,102.5258 L425.1918,102.9076" stroke="#000000" stroke-width="0.96" fill-opacity="0" />
  <path d="M427.3946,102.8277 C409.4843,110.6842 391.612,116.7063 373.7869,114.6063 C355.9639,112.5073 338.1648,102.2747 320.3127,102.8267 C302.4601,103.3815 284.5925,114.7176 266.7582,114.6054 C248.924,114.4963 231.0815,102.9382 213.2304,102.8257 C195.3795,102.7164 177.5617,114.0535 159.729,114.6044 C141.8959,115.1581 124.0099,104.929 106.1477,102.8248 C88.28764,100.7216 70.47457,106.7548 52.69946,114.6035" stroke="#000000" stroke-width="0.96" fill-opacity="0" />
  <path d="M372.2151,114.5479 L375.3966,114.6662" stroke="#000000" stroke-width="0.96" fill-opacity="0" />
  <path d="M319.3687,102.9067 L321.2795,102.7449" stroke="#000000" stroke-width="0.96" fill-opacity="0" />
  <path d="M266.4438,114.5469 L267.0802,114.6653" stroke="#000000" stroke-width="0.96" fill-opacity="0" />
  <path d="M213.5451,102.9057 L212.9083,102.7439" stroke="#000000" stroke-width="0.96" fill-opacity="0" />
  <path d="M160.6721,114.546 L158.7634,114.6643" stroke="#000000" stroke-width="0.96" fill-opacity="0" />
  <path d="M107.7211,102.9047 L104.5366,102.7429" stroke="#000000" stroke-width="0.96" fill-opacity="0" />
  <path d="M425.1918,102.9076 C407.4927,110.6718 389.8309,116.6232 372.2151,114.5478 C354.6013,112.4735 337.0108,102.3611 319.3686,102.9067 C301.7259,103.4549 284.0686,114.6578 266.4438,114.5469 C248.819,114.4391 231.1862,103.0168 213.545,102.9057 C195.904,102.7977 178.2952,114.0015 160.6721,114.546 C143.0483,115.0931 125.3731,104.9842 107.721,102.9047 C90.07103,100.8263 72.46696,106.7885 54.89995,114.545" stroke="#000000" stroke-width="0.96" fill-opacity="0" />
  <path d="M50.44603,114.6633 C68.43423,106.7202 86.4613,100.6143 104.5365,102.7429 C122.614,104.8724 140.7157,115.2246 158.7633,114.6643 C176.8104,114.1068 194.8424,102.6332 212.9082,102.7438 C230.9742,102.8577 249.0315,114.5549 267.0802,114.6652 C285.129,114.7788 303.2119,103.3063 321.2795,102.7448 C339.3466,102.1861 357.3593,112.542 375.3966,114.6662 C393.436,116.7915 411.5237,110.697 429.6504,102.7458" stroke="#000000" stroke-width="0.96" fill-opacity="0" />
  <path d="M54.89996,114.545 L50.44605,114.6633" stroke="#000000" stroke-width="0.96" fill-opacity="0" />
  <path d="M429.6504,102.7458 L425.1918,102.9076" stroke="#000000" stroke-width="0.96" fill-opacity="0" />
  <path d="M415.5823,81.79456 C399.1825,76.27404 382.5904,72.00347 365.7566,73.49071 C348.912,74.98186 331.9465,82.18666 315.2502,81.7936 C298.5566,81.41103 281.9392,73.41758 265.1522,73.48974 C248.3644,73.57407 231.6197,81.72134 214.9177,81.79265 C198.2153,81.87608 181.3436,73.88621 164.5473,73.48877 C147.7541,73.10187 131.2306,80.32044 114.5849,81.79169 C97.92843,83.26685 81.03332,79.03879 63.94212,73.48779" stroke="#000000" stroke-width="0.96" fill-opacity="0" />
  <path d="M367.1593,73.87618 L364.3846,73.11369" stroke="#000000" stroke-width="0.96" fill-opacity="0" />
  <path d="M316.0873,82.27038 L314.4314,81.32725" stroke="#000000" stroke-width="0.96" fill-opacity="0" />
  <path d="M265.4327,73.87521 L264.8777,73.11273" stroke="#000000" stroke-width="0.96" fill-opacity="0" />
  <path d="M214.6388,82.26942 L215.1906,81.3263" stroke="#000000" stroke-width="0.96" fill-opacity="0" />
  <path d="M163.7058,73.87423 L165.3705,73.11176" stroke="#000000" stroke-width="0.96" fill-opacity="0" />
  <path d="M113.19,82.26846 L115.9495,81.32536" stroke="#000000" stroke-width="0.96" fill-opacity="0" />
  <path d="M417.5353,82.27132 C400.9567,76.69028 384.1815,72.37251 367.1592,73.87617 C350.1259,75.38383 332.9689,82.66776 316.0872,82.27036 C299.2083,81.88367 282.4072,73.8023 265.4327,73.87518 C248.4575,73.96051 231.5263,82.19737 214.6388,82.26939 C197.7508,82.35381 180.6898,74.2761 163.7058,73.8742 C146.725,73.48308 130.0199,80.78111 113.1899,82.26842 C96.34898,83.75974 79.26401,79.48542 61.97853,73.87322" stroke="#000000" stroke-width="0.96" fill-opacity="0" />
  <path d="M65.86286,73.11078 C82.76411,78.60188 99.47353,82.78468 115.9494,81.32534 C132.4148,79.8698 148.7607,72.72897 165.3705,73.11174 C181.9832,73.50483 198.6697,81.40875 215.1906,81.32628 C231.711,81.25567 248.2733,73.19605 264.8777,73.1127 C281.4814,73.04127 297.9191,80.94869 314.4314,81.32722 C330.9463,81.71602 347.7245,74.58867 364.3846,73.11366 C381.034,71.64249 397.447,75.86689 413.6718,81.32817" stroke="#000000" stroke-width="0.96" fill-opacity="0" />
  <path d="M61.97853,73.87325 L65.86288,73.1108" stroke="#000000" stroke-width="0.96" fill-opacity="0" />
  <path d="M413.6719,81.32819 L417.5354,82.27134" stroke="#000000" stroke-width="0.96" fill-opacity="0" />
  <path d="M419.5456,82.49271 C402.1823,88.72988 384.9786,93.48794 367.9698,91.82773 C350.9698,90.17102 334.0693,82.05638 316.9489,82.49173 C299.8259,82.93655 282.6412,91.91965 265.5947,91.82677 C248.5486,91.7448 231.4678,82.58444 214.3517,82.49076 C197.2361,82.40801 180.2587,91.39436 163.2193,91.82582 C146.1777,92.26671 128.9167,84.16441 111.7541,82.48978 C94.6004,80.81869 77.64339,85.61499 60.84345,91.82487" stroke="#000000" stroke-width="0.96" fill-opacity="0" />
  <path d="M366.5401,91.50254 L369.4323,92.16039" stroke="#000000" stroke-width="0.96" fill-opacity="0" />
  <path d="M316.0873,82.27038 L317.8302,82.7182" stroke="#000000" stroke-width="0.96" fill-opacity="0" />
  <path d="M265.3087,91.5016 L265.8873,92.15943" stroke="#000000" stroke-width="0.96" fill-opacity="0" />
  <path d="M214.6388,82.26942 L214.058,82.71722" stroke="#000000" stroke-width="0.96" fill-opacity="0" />
  <path d="M164.0771,91.50066 L162.3419,92.15847" stroke="#000000" stroke-width="0.96" fill-opacity="0" />
  <path d="M113.19,82.26846 L110.2854,82.71624" stroke="#000000" stroke-width="0.96" fill-opacity="0" />
  <path d="M417.5353,82.27132 C400.3694,88.43898 383.3594,93.14433 366.54,91.50252 C349.7292,89.86414 333.0158,81.83982 316.0872,82.27036 C299.1563,82.71014 282.1649,91.59336 265.3087,91.50158 C248.4529,91.42046 231.5631,82.36197 214.6388,82.26939 C197.715,82.18751 180.9263,91.0739 164.0771,91.50063 C147.2256,91.93659 130.1596,83.92432 113.1899,82.26842 C96.22888,80.61597 79.46015,85.35873 62.845,91.49969" stroke="#000000" stroke-width="0.96" fill-opacity="0" />
  <path d="M58.79615,92.15748 C75.78504,85.87713 92.93459,81.02605 110.2854,82.71621 C127.6452,84.40998 145.1058,92.60438 162.3419,92.15844 C179.5758,91.72215 196.7462,82.63357 214.058,82.71719 C231.3703,82.81201 248.6466,92.07657 265.8873,92.15941 C283.1284,92.25339 300.5108,83.16813 317.8302,82.71818 C335.1469,82.27792 352.2386,90.48492 369.4322,92.16037 C386.6348,93.8394 404.0367,89.02745 421.602,82.71916" stroke="#000000" stroke-width="0.96" fill-opacity="0" />
  <path d="M62.84501,91.49971 L58.79618,92.1575" stroke="#000000" stroke-width="0.96" fill-opacity="0" />
  <path d="M421.602,82.71919 L417.5354,82.27134" stroke="#000000" stroke-width="0.96" fill-opacity="0" />
  <path d="M409.1979,63.81383 C393.4673,59.48615 377.5083,56.13221 361.2611,57.29993 C345.001,58.47145 328.5972,64.1218 312.514,63.81288 C296.4338,63.51411 280.4444,57.24344 264.253,57.29897 C248.0608,57.36629 231.9198,63.75722 215.8298,63.81193 C199.7392,63.87838 183.447,57.61118 167.2446,57.298 C151.0458,56.99504 135.1684,62.65874 119.1452,63.81098 C103.1093,64.96698 86.78954,61.65425 70.23573,57.29704" stroke="#000000" stroke-width="0.96" fill-opacity="0" />
  <path d="M362.5387,58.00762 L360.01,56.60689" stroke="#000000" stroke-width="0.96" fill-opacity="0" />
  <path d="M313.2754,64.58656 L311.7683,63.05515" stroke="#000000" stroke-width="0.96" fill-opacity="0" />
  <path d="M264.5086,58.00665 L264.0028,56.60593" stroke="#000000" stroke-width="0.96" fill-opacity="0" />
  <path d="M215.5761,64.58561 L216.0783,63.05421" stroke="#000000" stroke-width="0.96" fill-opacity="0" />
  <path d="M166.4782,58.00568 L167.9952,56.60498" stroke="#000000" stroke-width="0.96" fill-opacity="0" />
  <path d="M117.8764,64.58465 L120.388,63.05327" stroke="#000000" stroke-width="0.96" fill-opacity="0" />
  <path d="M410.9743,64.5875 C395.0827,60.21612 378.9578,56.82799 362.5386,58.0076 C346.1062,59.19109 329.5271,64.89862 313.2754,64.58654 C297.0267,64.28483 280.8708,57.9506 264.5085,58.00663 C248.1455,58.0747 231.8348,64.53039 215.576,64.58558 C199.3168,64.65276 182.8516,58.32208 166.4781,58.00565 C150.1084,57.69966 134.0668,63.42081 117.8764,64.58462 C101.6729,65.75227 85.17965,62.4062 68.44735,58.00468" stroke="#000000" stroke-width="0.96" fill-opacity="0" />
  <path d="M71.98721,56.60399 C88.36629,60.91779 104.5161,64.19782 120.388,63.05324 C136.2473,61.91236 151.9639,56.30497 167.9952,56.60495 C184.0301,56.91494 200.1529,63.11992 216.0783,63.05418 C232.0031,62.99996 247.9778,56.6725 264.0027,56.60591 C280.0269,56.55088 295.8531,62.75926 311.7683,63.05513 C327.6865,63.36095 343.9186,57.76665 360.01,56.60686 C376.0888,55.4508 391.8853,58.77121 407.4579,63.05607" stroke="#000000" stroke-width="0.96" fill-opacity="0" />
  <path d="M68.44736,58.0047 L71.98724,56.60402" stroke="#000000" stroke-width="0.96" fill-opacity="0" />
  <path d="M407.458,63.0561 L410.9743,64.58752" stroke="#000000" stroke-width="0.96" fill-opacity="0" />
  <path d="M412.8091,65.12207 C395.988,70.04929 379.3872,73.79803 363.0539,72.48953 C346.7326,71.18499 330.5485,64.77849 314.0617,65.1211 C297.5715,65.4744 280.9965,72.56362 264.6115,72.48858 C248.2271,72.42583 231.7947,65.1961 215.314,65.12013 C198.834,65.05652 182.5441,72.14939 166.1688,72.48763 C149.7906,72.83649 133.1106,66.44392 116.5659,65.11916 C100.0333,63.79839 83.7719,67.59027 67.72574,72.48668" stroke="#000000" stroke-width="0.96" fill-opacity="0" />
  <path d="M361.7514,71.87864 L364.3846,73.11369" stroke="#000000" stroke-width="0.96" fill-opacity="0" />
  <path d="M313.2754,64.58656 L314.8652,65.66728" stroke="#000000" stroke-width="0.96" fill-opacity="0" />
  <path d="M264.351,71.87769 L264.8777,73.11273" stroke="#000000" stroke-width="0.96" fill-opacity="0" />
  <path d="M215.5761,64.58561 L215.0463,65.66631" stroke="#000000" stroke-width="0.96" fill-opacity="0" />
  <path d="M166.9503,71.87675 L165.3705,73.11176" stroke="#000000" stroke-width="0.96" fill-opacity="0" />
  <path d="M117.8764,64.58465 L115.227,65.66533" stroke="#000000" stroke-width="0.96" fill-opacity="0" />
  <path d="M410.9743,64.5875 C394.3357,69.4635 377.9125,73.17361 361.7513,71.87861 C345.6019,70.58749 329.5868,64.24744 313.2754,64.58654 C296.9605,64.9361 280.5628,71.95187 264.351,71.87767 C248.1397,71.8155 231.8816,64.66069 215.576,64.58558 C199.2713,64.52256 183.1526,71.54192 166.9503,71.87672 C150.7451,72.22195 134.2445,65.89554 117.8764,64.58462 C101.5201,63.2776 85.42928,67.02996 69.54919,71.87579" stroke="#000000" stroke-width="0.96" fill-opacity="0" />
  <path d="M65.86286,73.11078 C82.07858,68.16273 98.51425,64.33049 115.227,65.66531 C131.9521,67.00418 148.8155,73.46433 165.3705,73.11174 C181.9225,72.77001 198.3873,65.60206 215.0462,65.66628 C231.706,65.74313 248.3163,73.04936 264.8777,73.1127 C281.4396,73.1886 298.1957,66.02438 314.8651,65.66726 C331.5311,65.32106 347.8877,71.79543 364.3846,73.11366 C380.8937,74.43594 397.6762,70.64777 414.6837,65.66824" stroke="#000000" stroke-width="0.96" fill-opacity="0" />
  <path d="M69.54922,71.8758 L65.86288,73.1108" stroke="#000000" stroke-width="0.96" fill-opacity="0" />
  <path d="M414.6837,65.66827 L410.9743,64.58752" stroke="#000000" stroke-width="0.96" fill-opacity="0" />
  <path d="M403.6177,48.02798 C388.4233,44.70589 372.9978,42.13013 357.2804,43.02682 C341.5499,43.92657 325.6739,48.26435 310.1225,48.02703 C294.5741,47.79788 279.1178,42.98347 263.4568,43.02587 C247.7951,43.07775 232.1852,47.98434 216.6269,48.02608 C201.0681,48.07726 185.3051,43.26565 169.633,43.02491 C153.9646,42.79239 138.6216,47.1409 123.131,48.02514 C107.6275,48.91241 91.83671,46.36977 75.80875,43.02395" stroke="#000000" stroke-width="0.96" fill-opacity="0" />
  <path d="M358.4398,44.05685 L356.1435,42.01682" stroke="#000000" stroke-width="0.96" fill-opacity="0" />
  <path d="M310.8133,49.10267 L309.4451,46.97221" stroke="#000000" stroke-width="0.96" fill-opacity="0" />
  <path d="M263.6888,44.05588 L263.2294,42.01587" stroke="#000000" stroke-width="0.96" fill-opacity="0" />
  <path d="M216.3967,49.10172 L216.8527,46.97128" stroke="#000000" stroke-width="0.96" fill-opacity="0" />
  <path d="M168.9374,44.05491 L170.3151,42.01492" stroke="#000000" stroke-width="0.96" fill-opacity="0" />
  <path d="M121.9798,49.10077 L124.26,46.97034" stroke="#000000" stroke-width="0.96" fill-opacity="0" />
  <path d="M405.2295,49.1036 C389.8893,45.75133 374.3134,43.15191 358.4398,44.05683 C342.5529,44.96486 326.5176,49.34216 310.8133,49.10265 C295.1121,48.87146 279.5047,44.01313 263.6888,44.05586 C247.8719,44.10826 232.108,49.05963 216.3967,49.10169 C200.6848,49.15338 184.7647,44.29789 168.9374,44.05489 C153.1138,43.82027 137.6221,48.20851 121.9798,49.10074 C106.3244,49.99606 90.37593,47.43039 74.18563,44.05393" stroke="#000000" stroke-width="0.96" fill-opacity="0" />
  <path d="M77.40041,42.01394 C93.26924,45.32967 108.9055,47.84968 124.26,46.97031 C139.6018,46.09392 154.7989,41.78443 170.3151,42.01489 C185.8349,42.25342 201.4439,47.02193 216.8527,46.97125 C232.2609,46.92984 247.7197,42.06721 263.2294,42.01585 C278.7383,41.97379 294.0466,46.74504 309.445,46.97219 C324.8465,47.20736 340.5663,42.90841 356.1434,42.0168 C371.7077,41.12819 386.9858,43.68071 402.037,46.97313" stroke="#000000" stroke-width="0.96" fill-opacity="0" />
  <path d="M74.18565,44.05395 L77.40044,42.01397" stroke="#000000" stroke-width="0.96" fill-opacity="0" />
  <path d="M402.0371,46.97315 L405.2295,49.10363" stroke="#000000" stroke-width="0.96" fill-opacity="0" />
  <path d="M406.9001,49.95539 C390.6109,53.78705 374.5609,56.69905 358.8008,55.68243 C343.0538,54.66927 327.4557,49.68843 311.5293,49.95442 C295.599,50.22976 279.5769,55.7404 263.7609,55.68149 C247.9454,55.6333 232.078,50.01318 216.1581,49.95346 C200.239,49.90453 184.5262,55.41837 168.7206,55.68054 C152.912,55.952 136.776,50.98331 120.7866,49.9525 C104.8104,48.92516 89.12859,51.87485 73.68004,55.67959" stroke="#000000" stroke-width="0.96" fill-opacity="0" />
  <path d="M357.6157,54.77647 L360.01,56.60689" stroke="#000000" stroke-width="0.96" fill-opacity="0" />
  <path d="M310.8133,49.10267 L312.2599,50.82362" stroke="#000000" stroke-width="0.96" fill-opacity="0" />
  <path d="M263.5239,54.77553 L264.0028,56.60593" stroke="#000000" stroke-width="0.96" fill-opacity="0" />
  <path d="M216.3967,49.10172 L215.9146,50.82265" stroke="#000000" stroke-width="0.96" fill-opacity="0" />
  <path d="M169.4317,54.77459 L167.9952,56.60498" stroke="#000000" stroke-width="0.96" fill-opacity="0" />
  <path d="M121.9798,49.10077 L119.569,50.82168" stroke="#000000" stroke-width="0.96" fill-opacity="0" />
  <path d="M405.2295,49.1036 C389.1072,52.89887 373.2193,55.7835 357.6157,54.77645 C342.0248,53.77279 326.58,48.83914 310.8133,49.10265 C295.0428,49.37531 279.1823,54.83382 263.5238,54.77551 C247.8659,54.72773 232.157,49.16079 216.3967,49.10169 C200.6372,49.05317 185.0798,54.51481 169.4316,54.77457 C153.7804,55.04343 137.8082,50.12171 121.9798,49.10074 C106.1644,48.08318 90.63742,51.00476 75.3391,54.77363" stroke="#000000" stroke-width="0.96" fill-opacity="0" />
  <path d="M71.98721,56.60399 C87.58897,52.76269 103.4287,49.78436 119.5689,50.82166 C135.7226,51.8625 152.0259,56.87905 167.9952,56.60495 C183.9612,56.34032 199.8327,50.77327 215.9146,50.82263 C231.9974,50.88299 248.0266,56.55732 264.0027,56.60591 C279.9795,56.66544 296.1666,51.10166 312.2599,50.8236 C328.3494,50.55507 344.1037,55.58402 360.01,56.60686 C375.9297,57.63323 392.1452,54.69333 408.6049,50.82457" stroke="#000000" stroke-width="0.96" fill-opacity="0" />
  <path d="M75.33913,54.77365 L71.98724,56.60402" stroke="#000000" stroke-width="0.96" fill-opacity="0" />
  <path d="M408.6049,50.8246 L405.2295,49.10363" stroke="#000000" stroke-width="0.96" fill-opacity="0" />
  <path d="M398.6519,33.92161 C383.8949,31.4661 368.9278,29.56343 353.6957,30.22579 C338.4518,30.89028 323.0756,34.09597 307.9943,33.92067 C292.9157,33.75102 277.9207,30.19335 262.7399,30.22484 C247.5583,30.2629 232.4239,33.88869 217.3363,33.91973 C202.2482,33.9573 186.9747,30.40156 171.7837,30.22389 C156.5962,30.05191 141.7041,33.26504 126.6781,33.91879 C111.6403,34.57463 96.34135,32.69489 80.82725,30.22294" stroke="#000000" stroke-width="0.96" fill-opacity="0" />
  <path d="M354.7423,31.57297 L352.6681,28.90302" stroke="#000000" stroke-width="0.96" fill-opacity="0" />
  <path d="M308.6181,35.29729 L307.3817,32.5689" stroke="#000000" stroke-width="0.96" fill-opacity="0" />
  <path d="M262.9492,31.57201 L262.5344,28.90208" stroke="#000000" stroke-width="0.96" fill-opacity="0" />
  <path d="M217.1284,35.29634 L217.5405,32.56796" stroke="#000000" stroke-width="0.96" fill-opacity="0" />
  <path d="M171.1558,31.57105 L172.4003,28.90113" stroke="#000000" stroke-width="0.96" fill-opacity="0" />
  <path d="M125.6385,35.29539 L127.699,32.56704" stroke="#000000" stroke-width="0.96" fill-opacity="0" />
  <path d="M400.1075,35.29821 C385.2184,32.82322 370.1153,30.90527 354.7423,31.57295 C339.3572,32.24277 323.8375,35.47398 308.6181,35.29726 C293.4015,35.1263 278.27,31.54028 262.9492,31.57199 C247.6277,31.61039 232.3542,35.26506 217.1284,35.29632 C201.9021,35.33422 186.4869,31.75015 171.1558,31.57103 C155.8282,31.3977 140.8016,34.63646 125.6384,35.29537 C110.4633,35.95641 95.02232,34.06179 79.36211,31.57008" stroke="#000000" stroke-width="0.96" fill-opacity="0" />
  <path d="M82.26589,28.90016 C97.6366,31.35263 112.796,33.21774 127.699,32.56701 C142.5904,31.91834 157.3502,28.73046 172.4003,28.9011 C187.4536,29.07734 202.5881,32.60519 217.5405,32.56794 C232.4923,32.53711 247.4902,28.93978 262.5343,28.90205 C277.5777,28.87078 292.4387,32.40052 307.3817,32.56887 C322.3274,32.74278 337.5627,29.56221 352.6681,28.90299 C367.7619,28.24585 382.5954,30.1335 397.2226,32.56981" stroke="#000000" stroke-width="0.96" fill-opacity="0" />
  <path d="M79.36214,31.5701 L82.26591,28.90018" stroke="#000000" stroke-width="0.96" fill-opacity="0" />
  <path d="M397.2226,32.56984 L400.1075,35.29824" stroke="#000000" stroke-width="0.96" fill-opacity="0" />
  <path d="M401.6219,36.46544 C385.8524,39.35885 370.3118,41.55805 355.0486,40.79024 C339.7979,40.02501 324.6895,36.26362 309.2672,36.46448 C293.8411,36.67231 278.3272,40.83378 263.0104,40.7893 C247.6942,40.75282 232.3282,36.50861 216.9121,36.46353 C201.4967,36.42649 186.2787,40.59035 170.9719,40.78835 C155.6622,40.99329 140.0393,37.24097 124.5567,36.46257 C109.0867,35.68676 93.89837,37.91408 78.93313,40.78741" stroke="#000000" stroke-width="0.96" fill-opacity="0" />
  <path d="M353.9742,39.58662 L356.1435,42.01682" stroke="#000000" stroke-width="0.96" fill-opacity="0" />
  <path d="M308.6181,35.29729 L309.9286,37.65401" stroke="#000000" stroke-width="0.96" fill-opacity="0" />
  <path d="M262.7955,39.58568 L263.2294,42.01587" stroke="#000000" stroke-width="0.96" fill-opacity="0" />
  <path d="M217.1284,35.29634 L216.6917,37.65305" stroke="#000000" stroke-width="0.96" fill-opacity="0" />
  <path d="M171.6165,39.58474 L170.3151,42.01492" stroke="#000000" stroke-width="0.96" fill-opacity="0" />
  <path d="M125.6385,35.29539 L123.4544,37.65209" stroke="#000000" stroke-width="0.96" fill-opacity="0" />
  <path d="M400.1075,35.29821 C384.4893,38.16716 369.0956,40.34798 353.9742,39.5866 C338.8651,38.82775 323.8957,35.09808 308.6181,35.29726 C293.3369,35.5033 277.9695,39.62973 262.7955,39.58566 C247.6221,39.54945 232.3999,35.34098 217.1284,35.29632 C201.8577,35.25956 186.7806,39.38834 171.6165,39.58472 C156.4495,39.78791 140.9751,36.06715 125.6384,35.29537 C110.3141,34.52613 95.26617,36.73456 80.43723,39.58379" stroke="#000000" stroke-width="0.96" fill-opacity="0" />
  <path d="M77.40041,42.01394 C92.50446,39.1161 107.8359,36.86958 123.4543,37.65207 C139.0857,38.43719 154.86,42.2216 170.3151,42.01489 C185.7672,41.81524 201.1289,37.61571 216.6916,37.65303 C232.2552,37.69854 247.7676,41.9791 263.2294,42.01585 C278.6917,42.06074 294.3549,37.86364 309.9286,37.65399 C325.4986,37.45143 340.7484,41.24507 356.1434,42.0168 C371.5512,42.79114 387.2416,40.57324 403.1653,37.65495" stroke="#000000" stroke-width="0.96" fill-opacity="0" />
  <path d="M80.43726,39.58381 L77.40044,42.01397" stroke="#000000" stroke-width="0.96" fill-opacity="0" />
  <path d="M403.1653,37.65497 L400.1075,35.29824" stroke="#000000" stroke-width="0.96" fill-opacity="0" />
  <path d="M396.8331,24.2722 C381.5717,26.34916 366.5073,27.92953 351.6825,27.37779 C336.8683,26.82769 322.177,24.12689 307.2148,24.27125 C292.2495,24.42006 277.2083,27.40854 262.3372,27.37685 C247.4665,27.35027 232.553,24.30238 217.5962,24.2703 C202.64,24.24336 187.854,27.23337 172.9916,27.37591 C158.1266,27.52287 142.9914,24.82785 127.9773,24.26936 C112.9741,23.71251 98.21355,25.31082 83.64574,27.37497" stroke="#000000" stroke-width="0.96" fill-opacity="0" />
  <path d="M350.7139,25.87906 L352.6681,28.90302" stroke="#000000" stroke-width="0.96" fill-opacity="0" />
  <path d="M306.6301,22.795 L307.8098,25.77369" stroke="#000000" stroke-width="0.96" fill-opacity="0" />
  <path d="M262.1435,25.87813 L262.5344,28.90208" stroke="#000000" stroke-width="0.96" fill-opacity="0" />
  <path d="M217.7911,22.79407 L217.3979,25.77273" stroke="#000000" stroke-width="0.96" fill-opacity="0" />
  <path d="M173.5727,25.8772 L172.4003,28.90113" stroke="#000000" stroke-width="0.96" fill-opacity="0" />
  <path d="M128.9517,22.79311 L126.9856,25.77178" stroke="#000000" stroke-width="0.96" fill-opacity="0" />
  <path d="M395.4688,22.79592 C380.343,24.8578 365.4108,26.42681 350.7139,25.87904 C336.0276,25.33288 321.4619,22.65165 306.6301,22.79498 C291.7952,22.94268 276.8858,25.90955 262.1434,25.8781 C247.4016,25.85169 232.6176,22.82586 217.791,22.79404 C202.9651,22.76727 188.3065,25.73563 173.5727,25.87717 C158.8363,26.02306 143.8345,23.34752 128.9517,22.79309 C114.0796,22.2403 99.44591,23.82697 85.00166,25.87624" stroke="#000000" stroke-width="0.96" fill-opacity="0" />
  <path d="M82.26589,28.90016 C96.95938,26.82092 111.849,25.2108 126.9856,25.77176 C142.1333,26.33439 157.4043,29.04916 172.4003,28.9011 C187.3936,28.75754 202.3091,25.74559 217.3979,25.77271 C232.4873,25.80504 247.5326,28.8753 262.5343,28.90205 C277.5365,28.93399 292.7117,25.92359 307.8098,25.77366 C322.9047,25.62825 337.7239,28.3489 352.6681,28.90299 C367.6232,29.45876 382.8221,27.86687 398.2214,25.77461" stroke="#000000" stroke-width="0.96" fill-opacity="0" />
  <path d="M85.00169,25.87626 L82.26591,28.90018" stroke="#000000" stroke-width="0.96" fill-opacity="0" />
  <path d="M398.2215,25.77464 L395.4689,22.79595" stroke="#000000" stroke-width="0.96" fill-opacity="0" />
  <path d="M422.7479,141.0173 C405.4118,147.9907 388.0347,153.352 370.6066,151.4831 C353.1761,149.6132 335.72,140.5245 318.321,141.0165 C300.9225,141.5058 283.5401,151.5792 266.1218,151.4822 C248.7033,151.3821 231.294,141.1123 213.8937,141.0156 C196.4933,140.9157 179.0569,150.9882 161.6365,151.4814 C144.2168,151.9718 126.8544,142.8795 109.466,141.0147 C92.07542,139.1489 74.63383,144.4992 57.15092,151.4805" stroke="#000000" stroke-width="0.96" fill-opacity="0" />
  <path d="M372.14,151.7005 L369.1083,151.2706" stroke="#000000" stroke-width="0.96" fill-opacity="0" />
  <path d="M319.2401,141.111 L317.423,140.9241" stroke="#000000" stroke-width="0.96" fill-opacity="0" />
  <path d="M266.4285,151.6997 L265.8221,151.2698" stroke="#000000" stroke-width="0.96" fill-opacity="0" />
  <path d="M213.5875,141.1101 L214.193,140.9233" stroke="#000000" stroke-width="0.96" fill-opacity="0" />
  <path d="M160.7166,151.6988 L162.5354,151.2689" stroke="#000000" stroke-width="0.96" fill-opacity="0" />
  <path d="M107.9344,141.1092 L110.9626,140.9224" stroke="#000000" stroke-width="0.96" fill-opacity="0" />
  <path d="M424.8923,141.1119 C407.3536,148.1671 389.7729,153.5914 372.14,151.7005 C354.5048,149.8086 336.8432,140.6132 319.2401,141.111 C301.6375,141.606 284.0514,151.7977 266.4285,151.6997 C248.8055,151.5984 231.1919,141.208 213.5874,141.1101 C195.9829,141.009 178.3415,151.1998 160.7166,151.6988 C143.0923,152.195 125.5266,142.9959 107.9344,141.1092 C90.3399,139.2215 72.6932,144.6346 55.00422,151.6979" stroke="#000000" stroke-width="0.96" fill-opacity="0" />
  <path d="M59.24837,151.2681 C76.52995,144.367 93.77116,139.078 110.9626,140.9224 C128.1517,142.7658 145.3156,151.7537 162.5354,151.2689 C179.7558,150.7814 196.992,140.8246 214.193,140.9232 C231.3938,141.0189 248.6035,151.1708 265.8221,151.2698 C283.0405,151.3656 300.2239,141.4078 317.423,140.9241 C334.6226,140.4378 351.878,149.4222 369.1083,151.2706 C386.3363,153.118 403.5146,147.8184 420.6526,140.925" stroke="#000000" stroke-width="0.96" fill-opacity="0" />
  <path d="M55.00425,151.6979 L59.24839,151.2681" stroke="#000000" stroke-width="0.96" fill-opacity="0" />
  <path d="M420.6526,140.925 L424.8923,141.1119" stroke="#000000" stroke-width="0.96" fill-opacity="0" />
  <path d="M427.0879,141.4857 C409.3333,133.6546 391.5408,127.6348 373.7011,129.7329 C355.8594,131.832 337.9939,142.0375 320.1811,141.4848 C302.3688,140.9349 284.5715,129.6233 266.7409,129.732 C248.9102,129.8439 231.0878,141.3754 213.2738,141.4839 C195.4598,141.5956 177.6127,130.2849 159.7803,129.7311 C141.9484,129.18 124.1692,139.3891 106.3662,141.483 C88.56113,143.578 70.70918,137.5692 52.8192,129.7302" stroke="#000000" stroke-width="0.96" fill-opacity="0" />
  <path d="M372.1313,129.4969 L375.3088,129.9747" stroke="#000000" stroke-width="0.96" fill-opacity="0" />
  <path d="M319.2401,141.111 L321.1447,141.8677" stroke="#000000" stroke-width="0.96" fill-opacity="0" />
  <path d="M266.4269,129.496 L267.0625,129.9737" stroke="#000000" stroke-width="0.96" fill-opacity="0" />
  <path d="M213.5875,141.1101 L212.9527,141.8668" stroke="#000000" stroke-width="0.96" fill-opacity="0" />
  <path d="M160.7221,129.4951 L158.8158,129.9728" stroke="#000000" stroke-width="0.96" fill-opacity="0" />
  <path d="M107.9344,141.1092 L104.7603,141.8659" stroke="#000000" stroke-width="0.96" fill-opacity="0" />
  <path d="M424.8923,141.1119 C407.3453,133.3726 389.7613,127.4234 372.1313,129.4969 C354.4992,131.5713 336.8439,141.6572 319.2401,141.111 C301.6368,140.5674 284.0481,129.3885 266.4269,129.496 C248.8056,129.6065 231.1924,141.0028 213.5874,141.1101 C195.9824,141.2204 178.3451,130.0424 160.7221,129.4951 C143.0997,128.9504 125.5286,139.0398 107.9344,141.1092 C90.33813,143.1796 72.69608,137.2412 55.01689,129.4941" stroke="#000000" stroke-width="0.96" fill-opacity="0" />
  <path d="M50.56867,129.9718 C68.67452,137.9051 86.74142,143.9859 104.7603,141.8658 C122.7771,139.7468 140.7695,129.4151 158.8158,129.9728 C176.8627,130.5333 194.9246,141.9798 212.9527,141.8667 C230.9807,141.757 249.0174,130.087 267.0625,129.9737 C285.1075,129.8637 303.1185,141.3111 321.1447,141.8677 C339.1715,142.427 357.2523,132.099 375.3088,129.9747 C393.363,127.8514 411.3691,133.9435 429.3362,141.8686" stroke="#000000" stroke-width="0.96" fill-opacity="0" />
  <path d="M55.01692,129.4942 L50.56868,129.9719" stroke="#000000" stroke-width="0.96" fill-opacity="0" />
  <path d="M429.3363,141.8686 L424.8923,141.1119" stroke="#000000" stroke-width="0.96" fill-opacity="0" />
</svg>