<?xml version="1.0" encoding="UTF-8" standalone="no"?>
<!DOCTYPE svg PUBLIC "-//W3C//DTD SVG 1.1//EN" "http://www.w3.org/Graphics/SVG/1.1/DTD/svg11.dtd">
<svg width="480pt" height="240pt" viewBox="0 0 480 240" overflow="visible" version="1.1" xmlns="http://www.w3.org/2000/svg">
  <path d="M58.8994,216.5939 C59.14017,188.8353 72.05284,147.7586 72.29361,120" stroke="#000000" stroke-width="0.96" fill-opacity="0" />
  <path d="M95.43411,120 C95.19335,147.7586 82.28067,188.8353 82.03991,216.5939 L58.89943,216.5939" stroke="#000000" stroke-width="0.96" fill-opacity="0" />
  <path d="M95.43414,120 L72.29362,120" stroke="#000000" stroke-width="0.96" fill-opacity="0" />
  <path d="M43.62299,216.5939 C43.35176,188.5146 28.6326,148.0792 28.36138,120" stroke="#000000" stroke-width="0.96" fill-opacity="0" />
  <path d="M50.57114,120 C50.84237,148.0792 65.56152,188.5146 65.83275,216.5939 L43.62301,216.5939" stroke="#000000" stroke-width="0.96" fill-opacity="0" />
  <path d="M50.57117,120 L28.3614,120" stroke="#000000" stroke-width="0.96" fill-opacity="0" />
  <path d="M229.2694,216.5939 C229.1509,189.86 223.0368,146.7339 222.9183,120" stroke="#000000" stroke-width="0.96" fill-opacity="0" />
  <path d="M195.7923,120 C195.9108,146.7339 202.0249,189.86 202.1434,216.5939 L229.2694,216.5939" stroke="#000000" stroke-width="0.96" fill-opacity="0" />
  <path d="M195.7923,120 L222.9183,120" stroke="#000000" stroke-width="0.96" fill-opacity="0" />
  <path d="M170.1237,216.5939 C170.2628,189.7119 177.4836,146.8819 177.6227,120" stroke="#000000" stroke-width="0.96" fill-opacity="0" />
  <path d="M204.0457,120 C203.9066,146.8819 196.6858,189.7119 196.5467,216.5939 L170.1237,216.5939" stroke="#000000" stroke-width="0.96" fill-opacity="0" />
  <path d="M204.0457,120 L177.6227,120" stroke="#000000" stroke-width="0.96" fill-opacity="0" />
  <path d="M152.4701,216.5939 C152.3084,189.5401 143.8653,147.0537 143.7036,120" stroke="#000000" stroke-width="0.96" fill-opacity="0" />
  <path d="M169.3752,120 C169.5368,147.0537 177.98,189.5401 178.1416,216.5939 L152.4701,216.5939" stroke="#000000" stroke-width="0.96" fill-opacity="0" />
  <path d="M169.3752,120 L143.7037,120" stroke="#000000" stroke-width="0.96" fill-opacity="0" />
  <path d="M269.1088,216.5939 C269.1758,190.1926 272.5924,146.4012 272.6595,120" stroke="#000000" stroke-width="0.96" fill-opacity="0" />
  <path d="M301.5911,120 C301.524,146.4012 298.1075,190.1926 298.0404,216.5939 L269.1088,216.5939" stroke="#000000" stroke-width="0.96" fill-opacity="0" />
  <path d="M301.5912,120 L272.6595,120" stroke="#000000" stroke-width="0.96" fill-opacity="0" />
  <path d="M249.5943,216.5939 C249.5118,190.0979 245.2938,146.4959 245.2113,120" stroke="#000000" stroke-width="0.96" fill-opacity="0" />
  <path d="M273.5927,120 C273.6753,146.4959 277.8932,190.0979 277.9757,216.5939 L249.5943,216.5939" stroke="#000000" stroke-width="0.96" fill-opacity="0" />
  <path d="M273.5928,120 L245.2113,120" stroke="#000000" stroke-width="0.96" fill-opacity="0" />
  <path d="M220.7958,216.5939 C220.8954,189.9878 226.0108,146.6061 226.1104,120" stroke="#000000" stroke-width="0.96" fill-opacity="0" />
  <path d="M253.8896,120 C253.79,146.6061 248.6746,189.9878 248.575,216.5939 L220.7958,216.5939" stroke="#000000" stroke-width="0.96" fill-opacity="0" />
  <path d="M253.8896,120 L226.1104,120" stroke="#000000" stroke-width="0.96" fill-opacity="0" />
  <path d="M339.9135,216.5939 C339.8828,190.4006 338.3348,146.1932 338.3041,120" stroke="#000000" stroke-width="0.96" fill-opacity="0" />
  <path d="M368.5642,120 C368.5948,146.1932 370.1429,190.4006 370.1735,216.5939 L339.9135,216.5939" stroke="#000000" stroke-width="0.96" fill-opacity="0" />
  <path d="M368.5642,120 L338.3041,120" stroke="#000000" stroke-width="0.96" fill-opacity="0" />
  <path d="M315.5989,216.5939 C315.6401,190.3427 317.725,146.2512 317.7662,120" stroke="#000000" stroke-width="0.96" fill-opacity="0" />
  <path d="M347.638,120 C347.5968,146.2512 345.5118,190.3427 345.4707,216.5939 L315.5989,216.5939" stroke="#000000" stroke-width="0.96" fill-opacity="0" />
  <path d="M347.638,120 L317.7662,120" stroke="#000000" stroke-width="0.96" fill-opacity="0" />
  <path d="M295.3652,216.5939 C295.3119,190.2737 292.6051,146.3201 292.5518,120" stroke="#000000" stroke-width="0.96" fill-opacity="0" />
  <path d="M321.9805,120 C322.0338,146.3201 324.7406,190.2737 324.7939,216.5939 L295.3653,216.5939" stroke="#000000" stroke-width="0.96" fill-opacity="0" />
  <path d="M321.9805,120 L292.5518,120" stroke="#000000" stroke-width="0.96" fill-opacity="0" />
  <path d="M404.8596,216.5939 L405.3015,120" stroke="#000000" stroke-width="0.96" fill-opacity="0" />
  <path d="M436.391,120 L435.9491,216.5939 L404.8597,216.5939" stroke="#000000" stroke-width="0.96" fill-opacity="0" />
  <path d="M436.391,120 L405.3015,120" stroke="#000000" stroke-width="0.96" fill-opacity="0" />
  <path d="M383.6366,216.5939 C383.6223,190.4873 382.9025,146.1066 382.8882,120" stroke="#000000" stroke-width="0.96" fill-opacity="0" />
  <path d="M413.7577,120 C413.7719,146.1066 414.4917,190.4873 414.506,216.5939 L383.6366,216.5939" stroke="#000000" stroke-width="0.96" fill-opacity="0" />
  <path d="M413.7577,120 L382.8882,120" stroke="#000000" stroke-width="0.96" fill-opacity="0" />
  <path d="M360.718,216.5939 C360.7397,190.4486 361.8334,146.1453 361.8551,120" stroke="#000000" stroke-width="0.96" fill-opacity="0" />
  <path d="M392.4479,120 C392.4262,146.1453 391.3326,190.4486 391.3109,216.5939 L360.7181,216.5939" stroke="#000000" stroke-width="0.96" fill-opacity="0" />
  <path d="M392.4479,120 L361.8551,120" stroke="#000000" stroke-width="0.96" fill-opacity="0" />
  <path d="M426.8919,216.5939 L426.6757,120" stroke="#000000" stroke-width="0.96" fill-opacity="0" />
  <path d="M448.1617,120 L448.3779,216.5939 L426.8919,216.5939" stroke="#000000" stroke-width="0.96" fill-opacity="0" />
  <path d="M448.1618,120 L426.6757,120" stroke="#000000" stroke-width="0.96" fill-opacity="0" />
  <path d="M116.4354,23.40614 C116.6214,50.65951 126.4124,92.74664 126.5984,120" stroke="#000000" stroke-width="0.96" fill-opacity="0" />
  <path d="M151.4714,120 C151.2854,92.74664 141.4944,50.65951 141.3084,23.40614 L116.4354,23.40617" stroke="#000000" stroke-width="0.96" fill-opacity="0" />
  <path d="M151.4714,120 L126.5984,120" stroke="#000000" stroke-width="0.96" fill-opacity="0" />
  <path d="M99.90987,23.40614 C99.69749,50.89225 88.42154,92.51389 88.20915,120" stroke="#000000" stroke-width="0.96" fill-opacity="0" />
  <path d="M112.2379,120 C112.4503,92.51389 123.7263,50.89225 123.9387,23.40614 L99.9099,23.40617" stroke="#000000" stroke-width="0.96" fill-opacity="0" />
  <path d="M112.238,120 L88.20918,120" stroke="#000000" stroke-width="0.96" fill-opacity="0" />
  <path d="M58.8994,23.40614 C59.14017,51.16472 72.05284,92.24142 72.29361,120" stroke="#000000" stroke-width="0.96" fill-opacity="0" />
  <path d="M95.43411,120 C95.19335,92.24142 82.28067,51.16472 82.03991,23.40614 L58.89943,23.40617" stroke="#000000" stroke-width="0.96" fill-opacity="0" />
  <path d="M95.43414,120 L72.29362,120" stroke="#000000" stroke-width="0.96" fill-opacity="0" />
  <path d="M43.62299,23.40614 C43.35176,51.48538 28.6326,91.92076 28.36138,120" stroke="#000000" stroke-width="0.96" fill-opacity="0" />
  <path d="M50.57114,120 C50.84237,91.92076 65.56152,51.48538 65.83275,23.40614 L43.62301,23.40617" stroke="#000000" stroke-width="0.96" fill-opacity="0" />
  <path d="M50.57117,120 L28.3614,120" stroke="#000000" stroke-width="0.96" fill-opacity="0" />
  <path d="M229.2694,23.40614 C229.1509,50.13999 223.0368,93.26615 222.9183,120" stroke="#000000" stroke-width="0.96" fill-opacity="0" />
  <path d="M195.7923,120 C195.9108,93.26615 202.0249,50.13999 202.1434,23.40614 L229.2694,23.40617" stroke="#000000" stroke-width="0.96" fill-opacity="0" />
  <path d="M195.7923,120 L222.9183,120" stroke="#000000" stroke-width="0.96" fill-opacity="0" />
  <path d="M170.1237,23.40614 C170.2628,50.28809 177.4836,93.11806 177.6227,120" stroke="#000000" stroke-width="0.96" fill-opacity="0" />
  <path d="M204.0457,120 C203.9066,93.11806 196.6858,50.28809 196.5467,23.40614 L170.1237,23.40617" stroke="#000000" stroke-width="0.96" fill-opacity="0" />
  <path d="M204.0457,120 L177.6227,120" stroke="#000000" stroke-width="0.96" fill-opacity="0" />
  <path d="M152.4701,23.40614 C152.3084,50.45987 143.8653,92.94627 143.7036,120" stroke="#000000" stroke-width="0.96" fill-opacity="0" />
  <path d="M169.3752,120 C169.5368,92.94627 177.98,50.45987 178.1416,23.40614 L152.4701,23.40617" stroke="#000000" stroke-width="0.96" fill-opacity="0" />
  <path d="M169.3752,120 L143.7037,120" stroke="#000000" stroke-width="0.96" fill-opacity="0" />
  <path d="M269.1088,23.40614 C269.1758,49.80736 272.5924,93.59879 272.6595,120" stroke="#000000" stroke-width="0.96" fill-opacity="0" />
  <path d="M301.5911,120 C301.524,93.59879 298.1075,49.80736 298.0404,23.40614 L269.1088,23.40617" stroke="#000000" stroke-width="0.96" fill-opacity="0" />
  <path d="M301.5912,120 L272.6595,120" stroke="#000000" stroke-width="0.96" fill-opacity="0" />
  <path d="M249.5943,23.40614 C249.5118,49.90208 245.2938,93.50406 245.2113,120" stroke="#000000" stroke-width="0.96" fill-opacity="0" />
  <path d="M273.5927,120 C273.6753,93.50406 277.8932,49.90208 277.9757,23.40614 L249.5943,23.40617" stroke="#000000" stroke-width="0.96" fill-opacity="0" />
  <path d="M273.5928,120 L245.2113,120" stroke="#000000" stroke-width="0.96" fill-opacity="0" />
  <path d="M220.7958,23.40614 C220.8954,50.01223 226.0108,93.39391 226.1104,120" stroke="#000000" stroke-width="0.96" fill-opacity="0" />
  <path d="M253.8896,120 C253.79,93.39391 248.6746,50.01223 248.575,23.40614 L220.7958,23.40617" stroke="#000000" stroke-width="0.96" fill-opacity="0" />
  <path d="M253.8896,120 L226.1104,120" stroke="#000000" stroke-width="0.96" fill-opacity="0" />
  <path d="M339.9135,23.40614 C339.8828,49.59937 338.3348,93.80678 338.3041,120" stroke="#000000" stroke-width="0.96" fill-opacity="0" />
  <path d="M368.5642,120 C368.5948,93.80678 370.1429,49.59937 370.1735,23.40614 L339.9135,23.40617" stroke="#000000" stroke-width="0.96" fill-opacity="0" />
  <path d="M368.5642,120 L338.3041,120" stroke="#000000" stroke-width="0.96" fill-opacity="0" />
  <path d="M315.5989,23.40614 C315.6401,49.65732 317.725,93.74882 317.7662,120" stroke="#000000" stroke-width="0.96" fill-opacity="0" />
  <path d="M347.638,120 C347.5968,93.74882 345.5118,49.65732 345.4707,23.40614 L315.5989,23.40617" stroke="#000000" stroke-width="0.96" fill-opacity="0" />
  <path d="M347.638,120 L317.7662,120" stroke="#000000" stroke-width="0.96" fill-opacity="0" />
  <path d="M295.3652,23.40614 C295.3119,49.72626 292.6051,93.67989 292.5518,120" stroke="#000000" stroke-width="0.96" fill-opacity="0" />
  <path d="M321.9805,120 C322.0338,93.67989 324.7406,49.72626 324.7939,23.40614 L295.3653,23.40617" stroke="#000000" stroke-width="0.96" fill-opacity="0" />
  <path d="M321.9805,120 L292.5518,120" stroke="#000000" stroke-width="0.96" fill-opacity="0" />
  <path d="M404.8596,23.40614 L405.3015,120" stroke="#000000" stroke-width="0.96" fill-opacity="0" />
  <path d="M436.391,120 L435.9491,23.40614 L404.8597,23.40617" stroke="#000000" stroke-width="0.96" fill-opacity="0" />
  <path d="M436.391,120 L405.3015,120" stroke="#000000" stroke-width="0.96" fill-opacity="0" />
  <path d="M383.6366,23.40614 C383.6223,49.51273 382.9025,93.89341 382.8882,120" stroke="#000000" stroke-width="0.96" fill-opacity="0" />
  <path d="M413.7577,120 C413.7719,93.89341 414.4917,49.51273 414.506,23.40614 L383.6366,23.40617" stroke="#000000" stroke-width="0.96" fill-opacity="0" />
  <path d="M413.7577,120 L382.8882,120" stroke="#000000" stroke-width="0.96" fill-opacity="0" />
  <path d="M360.718,23.40614 C360.7397,49.55142 361.8334,93.85472 361.8551,120" stroke="#000000" stroke-width="0.96" fill-opacity="0" />
  <path d="M392.4479,120 C392.4262,93.85472 391.3326,49.55142 391.3109,23.40614 L360.7181,23.40617" stroke="#000000" stroke-width="0.96" fill-opacity="0" />
  <path d="M392.4479,120 L361.8551,120" stroke="#000000" stroke-width="0.96" fill-opacity="0" />
  <path d="M426.8919,23.40614 L426.6757,120" stroke="#000000" stroke-width="0.96" fill-opacity="0" />
  <path d="M448.1617,120 L448.3779,23.40614 L426.8919,23.40617" stroke="#000000" stroke-width="0.96" fill-opacity="0" />
  <path d="M448.1618,120 L426.6757,120" stroke="#000000" stroke-width="0.96" fill-opacity="0" />
  <path d="M116.4354,216.5939 C116.6214,189.3405 126.4124,147.2534 126.5984,120" stroke="#000000" stroke-width="0.96" fill-opacity="0" />
  <path d="M151.4714,120 C151.2854,147.2534 141.4944,189.3405 141.3084,216.5939 L116.4354,216.5939" stroke="#000000" stroke-width="0.96" fill-opacity="0" />
  <path d="M151.4714,120 L126.5984,120" stroke="#000000" stroke-width="0.96" fill-opacity="0" />
  <path d="M99.90987,216.5939 C99.69749,189.1077 88.42154,147.4861 88.20915,120" stroke="#000000" stroke-width="0.96" fill-opacity="0" />
  <path d="M112.2379,120 C112.4503,147.4861 123.7263,189.1077 123.9387,216.5939 L99.9099,216.5939" stroke="#000000" stroke-width="0.96" fill-opacity="0" />
  <path d="M112.238,120 L88.20918,120" stroke="#000000" stroke-width="0.96" fill-opacity="0" />
</svg>