<?xml version="1.0" encoding="UTF-8" standalone="no"?>
<!DOCTYPE svg PUBLIC "-//W3C//DTD SVG 1.1//EN" "http://www.w3.org/Graphics/SVG/1.1/DTD/svg11.dtd">
<svg width="156pt" height="96pt" viewBox="0 0 156 96" overflow="visible" version="1.1" xmlns="http://www.w3.org/2000/svg">
  <path d="M63.86266,51.04194 L51.71661,73.76786 L71.36478,89.39505 L89.30568,76.47174 z" stroke="#000000" stroke-width="0.24" fill-opacity="0" />
  <path d="M77.25852,32.59303 L63.86266,51.04194 L89.30568,76.47174 L100.148,59.97593 z" stroke="#000000" stroke-width="0.24" fill-opacity="0" />
  <path d="M57.12126,11.55574 L40.45477,21.96123 L58.35418,20.80815 L71.71671,11.35879 z" stroke="#000000" stroke-width="0.24" fill-opacity="0" />
  <path d="M71.71671,11.35879 L58.35418,20.80815 L77.25852,32.59303 L89.06145,21.84591 z" stroke="#000000" stroke-width="0.24" fill-opacity="0" />
  <path d="M89.06145,21.84591 L77.25852,32.59303 L100.148,59.97593 L104.2198,40.48841 z" stroke="#000000" stroke-width="0.24" fill-opacity="0" />
  <path d="M40.45477,21.96123 L28.807,36.47699 L44.65706,38.52141 L58.35418,20.80815 z" stroke="#000000" stroke-width="0.24" fill-opacity="0" />
  <path d="M44.65706,38.52141 L33.58814,61.35051 L51.71661,73.76786 L63.86266,51.04194 z" stroke="#000000" stroke-width="0.24" fill-opacity="0" />
  <path d="M58.35418,20.80815 L44.65706,38.52141 L63.86266,51.04194 L77.25852,32.59303 z" stroke="#000000" stroke-width="0.24" fill-opacity="0" />
  <path d="M28.807,36.47699 L22.3385,55.70148 L33.58814,61.35051 L44.65706,38.52141 z" stroke="#000000" stroke-width="0.24" fill-opacity="0" />
  <path d="M57.3588,25.39118 L44.56428,42.21857 L64.99464,55.34533 L77.64638,37.73641 z" stroke="#E8174B" stroke-width="0.24" fill-opacity="0" />
  <path d="M60.57937,35.51678 L47.79826,56.38027 L69.20137,73.22203 L83.13292,55.64352 z" stroke="#1B2180" stroke-width="0.24" fill-opacity="0" />
  <path d="M73.89021,21.25974 L60.57937,35.51678 L83.13292,55.64352 L92.99162,38.95411 z" stroke="#1B2180" stroke-width="0.24" fill-opacity="0" />
  <path d="M56.04495,16.42897 L41.91063,29.46342 L60.57937,35.51678 L73.89021,21.25974 z" stroke="#1B2180" stroke-width="0.24" fill-opacity="0" />
  <path d="M41.91063,29.46342 L31.46065,48.02868 L47.79826,56.38027 L60.57937,35.51678 z" stroke="#1B2180" stroke-width="0.24" fill-opacity="0" />
  <text x="120.821195961214" y="46.3735022618616" font-family="Arial" font-size="2.175791">первая степень</text>
  <polygon fill="#000000" fill-opacity="1.0" points="92.99162,38.95411 94.28294,39.91897 94.58508,39.19777" />
  <path d="M92.99159,38.95409 L109.8093,45.99952 L120.4302,45.99952" stroke="#000000" stroke-width="0.24" fill-opacity="0" />
  <text x="114.664013389257" y="24.1510879117315" font-family="Arial" font-size="2.102715">нулевая степень</text>
  <polygon fill="#000000" fill-opacity="1.0" points="96.95927,31.55903 98.44564,31.09257 98.05126,30.44798" />
  <path d="M96.95925,31.55901 L109.6578,23.78966 L114.2862,23.78966" stroke="#000000" stroke-width="0.24" fill-opacity="0" />
  <text x="118.595437226188" y="33.1951348103982" font-family="Arial" font-size="2.294509">вторая степень</text>
  <polygon fill="#000000" fill-opacity="1.0" points="77.64638,37.73641 79.33951,37.88836 79.21182,37.07371" />
  <path d="M77.64635,37.73639 L109.1353,32.80074 L118.1831,32.80074" stroke="#000000" stroke-width="0.24" fill-opacity="0" />
  <text x="16.0717238078415" y="27.6744393622082" font-family="Arial" font-size="2.294503">точка</text>
  <polygon fill="#000000" fill-opacity="1.0" points="61.10529,39.9775 59.72261,38.98857 59.4199,39.75559" />
  <path d="M61.10526,39.97747 L28.93191,27.28005 L22.1844,27.28005" stroke="#000000" stroke-width="0.24" fill-opacity="0" />
  <circle cx="61.10529" cy="39.9775" r="0.72" stroke="#000000" stroke-width="0.24" fill="#FFFFFF" fill-opacity="1.0" />
</svg>